<?xml version="1.0" encoding="UTF-8" standalone="no"?><!DOCTYPE svg PUBLIC "-//W3C//DTD SVG 1.1//EN" "http://www.w3.org/Graphics/SVG/1.1/DTD/svg11.dtd"><svg width="100%" height="100%" viewBox="0 0 317 261" version="1.1" xmlns="http://www.w3.org/2000/svg" xmlns:xlink="http://www.w3.org/1999/xlink" xml:space="preserve" xmlns:serif="http://www.serif.com/" style="fill-rule:evenodd;clip-rule:evenodd;stroke-linejoin:round;stroke-miterlimit:2;"><path d="M80.183,180.429l0.032,0.021l4.403,-9.911l-3.07,6.846l-1.365,3.044Z" style="fill:#343b88;fill-rule:nonzero;"/><path d="M250.46,75.753c-0.018,0.005 -0.037,0.007 -0.055,0.007l-31.756,0.213c-0.129,0.397 -0.245,0.799 -0.349,1.206c-0.007,0.035 -0.017,0.068 -0.024,0.102c0,0.013 -0.01,0.031 -0.014,0.045c-0.051,0.224 -0.092,0.448 -0.132,0.672c-0.018,0.098 -0.041,0.194 -0.057,0.291c-0.051,0.308 -0.095,0.617 -0.133,0.928c-0.043,0.347 -0.074,0.695 -0.097,1.042c-0.139,2.118 0.086,4.244 0.666,6.286c0,0.025 0.011,0.049 0.015,0.074c0,-0.025 -0.011,-0.049 -0.014,-0.075c0.899,-0.18 1.814,-0.275 2.733,-0.282c7.982,-0.052 15.964,-0.101 23.939,0.064c1.83,0.038 3.646,0.024 5.446,-0.043c0.147,-0.005 0.269,0.11 0.275,0.256c0,0.027 -0.002,0.054 -0.01,0.08c-0.742,2.949 -2.222,5.661 -4.3,7.881l0.104,0.303c3.125,-3.286 5.063,-7.849 5.063,-12.895c0.004,-2.473 -0.474,-4.924 -1.406,-7.215c0.085,0.261 0.167,0.529 0.238,0.815c0.029,0.104 -0.03,0.213 -0.133,0.245Z" style="fill:#f36f3e;fill-rule:nonzero;"/><path d="M237.063,99.664c-0.162,0.036 -0.324,0.063 -0.487,0.094c0.168,-0.031 0.329,-0.06 0.487,-0.094Z" style="fill:#f36f3e;fill-rule:nonzero;"/><path d="M97.18,220.591c-7.656,12.526 -26.367,21.175 -36.853,6.187c-1.668,0.034 -3.314,0.056 -4.939,0.065c-9.129,0.066 -17.871,-0.2 -29.087,-0.027c-0.056,0 -0.111,0.018 -0.155,0.05c-0.036,0.03 -0.055,0.074 -0.051,0.119l0,0.015c4.665,16.223 16.458,26.848 32.964,30.305c6.518,1.003 13.415,0.052 19.706,-1.797c14.195,-4.817 24.715,-14.971 31.721,-28.116c-2.328,-0.03 -4.957,0 -7.02,-0.981c-3.03,-1.448 -4.138,-3.441 -6.287,-5.821Z" style="fill:#1d1c50;fill-rule:nonzero;"/><path d="M242.424,51.327l0.119,-0.181l1.89,-2.84c0.35,-0.491 0.715,-1.002 1.103,-1.498l0,-8.036c0.007,-3.343 1.585,-6.488 4.262,-8.492l6.483,-4.835c-1.84,0.014 -3.68,0.024 -5.52,0.044c0,-0.08 -0.008,-0.144 -0.013,-0.197l-3.001,2.237c-3.543,2.653 -5.632,6.816 -5.641,11.242l0,13.029l0.318,-0.474Z" style="fill:#dee1f1;fill-rule:nonzero;"/><path d="M273.4,3.073c-6.605,-0.04 -13.212,-0.036 -19.821,0.014c-3.995,0.032 -2.989,4.692 -2.933,7.236l25.107,-0.141c0.26,-1.912 0.728,-7.096 -2.353,-7.11Z" style="fill:#dee1f1;fill-rule:nonzero;"/><path d="M263.901,19.194l0,-0.403c0,-0.421 0.826,-0.759 1.838,-0.758l6.087,0.01c0.025,0.003 0.051,0.008 0.076,0.017c0.026,0.002 0.052,0.008 0.077,0.017c0.023,0.013 0.044,0.028 0.066,0.044c0.021,0.013 0.042,0.027 0.062,0.043c0.016,0.02 0.03,0.041 0.043,0.063c0.015,0.02 0.03,0.041 0.042,0.064c0.007,0.026 0.013,0.052 0.017,0.079c0.007,0.025 0.012,0.05 0.014,0.076l0,1.127c-0.002,0.22 -0.181,0.398 -0.401,0.398l-6.087,-0.01c-0.068,0 -0.132,-0.006 -0.198,-0.008c-0.066,-0.002 -0.119,0 -0.169,-0.008c-0.05,-0.008 -0.126,-0.015 -0.189,-0.024c-0.063,-0.008 -0.106,-0.012 -0.156,-0.021c-0.05,-0.01 -0.119,-0.025 -0.172,-0.038c-0.052,-0.013 -0.097,-0.02 -0.141,-0.032c-0.044,-0.012 -0.1,-0.035 -0.149,-0.051c-0.049,-0.017 -0.085,-0.027 -0.119,-0.043c-0.035,-0.015 -0.08,-0.039 -0.119,-0.06c-0.039,-0.02 -0.074,-0.035 -0.105,-0.054c-0.031,-0.021 -0.061,-0.043 -0.088,-0.068c-0.029,-0.018 -0.056,-0.039 -0.081,-0.062c-0.021,-0.023 -0.041,-0.049 -0.057,-0.076c-0.019,-0.021 -0.036,-0.043 -0.05,-0.067c-0.01,-0.026 -0.015,-0.053 -0.019,-0.08c-0.01,-0.023 -0.015,-0.048 -0.018,-0.073l-0.004,-0.002Zm0.569,-5.41c0.077,-0.033 0.161,-0.051 0.245,-0.052l3.424,-0.048l3.424,-0.049c0.348,-0.005 0.635,0.274 0.64,0.623l0,0l0.011,0.715l0,0.011c-0.001,0.338 -0.268,0.615 -0.605,0.628l-0.017,0l-6.848,0.097c-0.349,0.005 -0.635,-0.274 -0.64,-0.623l0,-0.715c-0.006,-0.251 0.138,-0.48 0.366,-0.586Zm-8.189,11.662c5.173,-0.041 10.345,-0.06 15.516,-0.058c1.937,0 3.785,-0.459 4.051,-2.536c0.226,-1.818 0.197,-6.041 -0.089,-12.668l-25.114,0.141l0.08,14.829c0.011,0.046 0.018,0.093 0.02,0.141c0,0.052 0.008,0.119 0.013,0.197c1.843,-0.02 3.684,-0.03 5.523,-0.044Z" style="fill:#f36f3e;fill-rule:nonzero;"/><path d="M264.107,15.082c0.004,0.349 0.291,0.628 0.64,0.623l6.848,-0.096l0.017,0c0.337,-0.013 0.604,-0.29 0.605,-0.628l0,-0.011l-0.011,-0.715c-0.005,-0.349 -0.292,-0.628 -0.64,-0.623l-3.424,0.049l-3.424,0.048c-0.085,0.001 -0.168,0.019 -0.245,0.052c-0.232,0.102 -0.381,0.333 -0.378,0.587l0,0.357l0.012,0.356Z" style="fill:#fff;fill-rule:nonzero;"/><path d="M263.938,19.349c0.014,0.023 0.031,0.046 0.05,0.067c0.017,0.027 0.036,0.053 0.057,0.076c0.025,0.023 0.052,0.043 0.081,0.062c0.027,0.024 0.057,0.047 0.088,0.068c0.031,0.019 0.07,0.036 0.105,0.054c0.035,0.018 0.075,0.042 0.119,0.06c0.044,0.018 0.082,0.029 0.119,0.043c0.037,0.014 0.095,0.036 0.149,0.051c0.054,0.015 0.094,0.021 0.141,0.032c0.046,0.011 0.111,0.027 0.172,0.038c0.061,0.011 0.104,0.014 0.156,0.021c0.052,0.007 0.119,0.018 0.189,0.024c0.07,0.006 0.119,0 0.169,0.008c0.05,0.008 0.133,0.008 0.203,0.008l6.087,0.01c0.22,0 0.399,-0.178 0.401,-0.398l0,-1.127c-0.002,-0.026 -0.007,-0.051 -0.014,-0.076c-0.004,-0.027 -0.01,-0.053 -0.017,-0.079c-0.012,-0.023 -0.026,-0.044 -0.042,-0.064c-0.013,-0.022 -0.027,-0.044 -0.043,-0.063c-0.02,-0.016 -0.04,-0.03 -0.062,-0.043c-0.021,-0.017 -0.043,-0.031 -0.066,-0.044c-0.025,-0.009 -0.051,-0.014 -0.077,-0.017c-0.026,-0.009 -0.054,-0.014 -0.081,-0.017l-6.083,-0.012c-1.013,0 -1.836,0.337 -1.838,0.758l0,0.405c0.002,0.025 0.008,0.049 0.018,0.073c0.002,0.028 0.01,0.056 0.019,0.082Z" style="fill:#fff;fill-rule:nonzero;"/><path d="M223.199,67.853c-0.014,0.014 -0.027,0.03 -0.042,0.043c-0.896,0.86 -1.682,1.827 -2.342,2.88c-0.06,0.095 -0.119,0.197 -0.175,0.295c-0.466,0.791 -0.871,1.617 -1.209,2.47c-0.119,0.285 -0.219,0.579 -0.323,0.874c-0.178,0.503 -0.344,1.016 -0.485,1.558l0.031,0l31.752,-0.213c0.018,0 0.037,-0.002 0.055,-0.007c0.106,-0.028 0.17,-0.138 0.142,-0.245l0,-0c-0.076,-0.286 -0.158,-0.554 -0.238,-0.815c-1.088,-3.363 -2.833,-4.849 -5.399,-7.547c-1.038,-0.654 -2.125,-1.224 -3.252,-1.705c-1.787,-0.766 -3.672,-1.278 -5.599,-1.521l-0.054,0c-0.676,-0.081 -1.355,-0.125 -2.034,-0.132c-0.392,0 -0.78,0.01 -1.169,0.031c-0.911,0.049 -1.816,0.173 -2.706,0.371c-0.398,0.089 -0.79,0.2 -1.177,0.319c-0.222,0.069 -0.444,0.137 -0.661,0.216c-0.299,0.105 -0.596,0.223 -0.89,0.35c-0.107,0.046 -0.212,0.1 -0.318,0.149c-0.473,0.214 -0.933,0.452 -1.38,0.715c-0.238,0.139 -0.46,0.288 -0.684,0.441c-0.306,0.208 -0.606,0.425 -0.899,0.659c-0.293,0.234 -0.596,0.493 -0.877,0.76l-0.041,0.038c-0.013,0.005 -0.019,0.012 -0.026,0.018Z" style="fill:#f89d47;fill-rule:nonzero;"/><path d="M250.903,86.541c-0.006,-0.147 -0.129,-0.261 -0.275,-0.256c-1.799,0.067 -3.615,0.081 -5.446,0.043c-7.982,-0.166 -15.957,-0.119 -23.939,-0.064c-0.919,0.008 -1.834,0.102 -2.733,0.282c0,0.026 0.01,0.05 0.014,0.075c0.017,0.083 0.035,0.167 0.051,0.249c0,0.032 0.014,0.064 0.019,0.095c0.005,0.031 0.018,0.074 0.023,0.11l0.018,0.081c0.03,0.141 0.06,0.28 0.092,0.418c0.011,0.042 0.021,0.081 0.032,0.119c0.02,0.079 0.042,0.156 0.062,0.238c0.02,0.082 0.05,0.2 0.077,0.295c0.145,0.518 0.31,1.032 0.5,1.527c0.013,0.041 0.027,0.081 0.045,0.119c0.095,0.245 0.195,0.491 0.305,0.732c0.274,0.614 0.586,1.21 0.932,1.787c0.592,1.005 1.291,1.944 2.085,2.8c0.627,0.673 1.311,1.29 2.046,1.844c0.456,0.351 0.934,0.674 1.43,0.969c0.574,0.336 1.171,0.634 1.787,0.89c0.181,0.076 0.365,0.148 0.55,0.217c0.218,0.08 0.437,0.156 0.66,0.226l0.02,0.007c0.44,0.136 0.894,0.254 1.351,0.357c0.145,0.031 0.291,0.058 0.441,0.086c0.077,0.014 0.155,0.032 0.238,0.045c0.696,0.116 1.399,0.183 2.104,0.2l0.928,0c0.181,0 0.363,-0.023 0.544,-0.036c0.181,-0.013 0.345,-0.027 0.518,-0.045l0.014,0c0.281,-0.032 0.56,-0.07 0.834,-0.119c0.119,-0.019 0.23,-0.045 0.344,-0.067c0.163,-0.031 0.325,-0.058 0.487,-0.094c0.2,-0.044 0.399,-0.092 0.596,-0.143l0.017,0c0.067,-0.017 0.135,-0.032 0.2,-0.05l0.08,-0.024c0.162,-0.049 0.326,-0.099 0.487,-0.15c0.295,-0.091 0.596,-0.191 0.882,-0.299c0.095,-0.032 0.186,-0.064 0.281,-0.1c0.069,-0.026 0.136,-0.055 0.203,-0.083l0.226,-0.094l0.187,-0.081l0.457,-0.201c0.204,-0.091 0.404,-0.181 0.604,-0.281c0.274,-0.137 0.544,-0.279 0.814,-0.428c0.493,-0.273 0.971,-0.573 1.443,-0.884c0.238,-0.157 0.477,-0.313 0.715,-0.477l0.181,-0.119c0.2,-0.145 0.4,-0.295 0.596,-0.446c0.291,-0.228 0.581,-0.454 0.859,-0.686c0.238,-0.2 0.468,-0.399 0.696,-0.604c2.077,-2.22 3.555,-4.931 4.296,-7.88c0.013,-0.032 0.02,-0.066 0.021,-0.101Z" style="fill:#f89d47;fill-rule:nonzero;"/><path d="M163.255,124.213c6.458,0.055 12.903,0.048 19.332,-0.021c9.866,-0.104 15.011,-6.336 14.524,-15.659c-0.509,-9.558 -3.145,-19.756 -15.228,-18.566c-0.127,0.005 -0.239,0.083 -0.287,0.2c-0.336,0.673 -0.286,1.282 0.142,1.831c0.106,0.143 0.281,0.218 0.459,0.197c1.555,-0.131 3.12,-0.033 4.646,0.291c3.877,0.827 6.058,4.907 6.885,8.567c1.81,8.017 2.536,19.764 -8.929,20.65c-6.862,0.531 -14.047,0.141 -20.95,0.181c-0.945,0 -1.723,-0.076 -1.813,0.946c-0.088,0.916 0.32,1.381 1.22,1.384Z" style="fill:#fcd1bd;fill-rule:nonzero;"/><path d="M31.352,138.225c0.024,-1.079 0.046,-2.158 0.062,-3.237c0.048,-3.469 0.05,-6.939 0.008,-10.409l0,-0.15c0,-0.147 -0.006,-0.294 -0.007,-0.442c-0.017,-1.284 -0.039,-2.569 -0.067,-3.853l-16.728,0.036c-0.238,6.473 -0.257,12.917 -0.057,19.331l16.767,-0.092l0,-0.28c0.011,-0.304 0.015,-0.604 0.021,-0.904Z" style="fill:#8987c1;fill-rule:nonzero;"/><path d="M43.096,143.815l4.182,-17.053l1.395,-6.411c-1.878,-0.241 -3.775,-0.293 -5.663,-0.156c-0.055,1.906 -0.094,3.816 -0.119,5.729c-0.071,5.953 -0.002,11.917 0.205,17.891Z" style="fill:#dee1f1;fill-rule:nonzero;"/><path d="M14.619,120.169c-3.892,0.166 -6.774,1.7 -8.646,4.605c-4.307,6.661 1.134,14.831 8.589,14.727c-0.203,-6.414 -0.183,-12.858 0.057,-19.331Z" style="fill:#f36f3e;fill-rule:nonzero;"/><path d="M162.033,122.827c0.091,-1.022 0.869,-0.941 1.813,-0.945c6.903,-0.041 14.088,0.349 20.95,-0.182c11.466,-0.885 10.739,-12.629 8.929,-20.65c-0.827,-3.658 -3.008,-7.743 -6.885,-8.565c-1.526,-0.323 -3.092,-0.421 -4.646,-0.291c-0.178,0.022 -0.353,-0.053 -0.459,-0.197c-0.428,-0.549 -0.477,-1.158 -0.142,-1.831c0.048,-0.117 0.16,-0.195 0.287,-0.2c12.083,-1.191 14.719,9.008 15.228,18.565c0.491,9.325 -4.658,15.556 -14.524,15.661c-6.433,0.068 -12.878,0.075 -19.332,0.021c-0.897,-0.004 -1.306,-0.468 -1.22,-1.386Zm-118.937,20.988c-0.354,2.173 -0.76,4.353 -1.218,6.544c-0.127,0.61 -0.05,1.341 -0.063,1.968c0.001,0.055 0.012,0.111 0.031,0.163c0.01,0.019 0.023,0.032 0.032,0.05c0.011,0.025 0.025,0.049 0.041,0.073c0,0 0.01,0.01 0.014,0.01c0.021,0.021 0.046,0.042 0.073,0.06c0.02,0.015 0.041,0.031 0.063,0.045c0.02,0.007 0.042,0.013 0.064,0.018c0.035,0.012 0.071,0.019 0.108,0.023c0.027,-0.001 0.055,-0.005 0.082,-0.01c0.024,-0.002 0.049,-0.007 0.073,-0.013c0.052,-0.015 0.102,-0.042 0.145,-0.077c2.459,-2.092 5.05,-4.024 7.757,-5.786c1.332,-0.863 2.682,-1.686 4.063,-2.463l1.636,-1.853c-0.883,-0.817 -1.625,-1.775 -2.194,-2.835c-1.33,-2.48 -1.515,-5.274 -0.528,-7.712c0.768,-1.895 2.247,-3.574 4.45,-4.729l0.119,-0.055c1.213,-0.558 2.542,-0.813 3.877,-0.745c0.65,0.043 1.293,0.167 1.913,0.368c0.293,0.094 0.581,0.203 0.864,0.326c0.126,0.057 0.254,0.119 0.38,0.181c0.16,0.079 0.318,0.16 0.477,0.248l15.213,6.861l12.077,5.445l3.554,1.599l49.603,-9.312l15.024,-0.095c12.015,0 24.032,-0.024 36.051,-0.073c4.646,-0.018 10.274,-0.927 14.96,-3.036c0.771,-0.346 1.524,-0.733 2.254,-1.159c0.709,-0.41 1.393,-0.865 2.046,-1.363l0.036,-0.037c0.035,-0.032 0.062,-0.073 0.077,-0.119c0.017,-0.064 0.012,-0.132 -0.014,-0.194l-14.892,-38.264c-12.139,-9.116 -27.49,-10.447 -41.227,-3.908c-1.396,0.547 -2.735,1.229 -3.999,2.035c-2.519,1.415 -4.985,2.91 -7.398,4.486l-28.72,13.938l-2.031,0.024l0,1.649c0.001,3.736 -3.025,6.766 -6.76,6.767l-40.193,0c-3.736,0.002 -6.766,-3.024 -6.767,-6.76l0,-1.337c-6.544,1.064 -11.299,4.768 -14.265,11.112c-0.596,1.29 -0.834,3.031 -1.303,4.476l-1.399,6.412l-4.182,17.053Z" style="fill:#f89d47;fill-rule:nonzero;"/><path d="M250.517,146.713c1.451,-0.239 2.914,-0.399 4.383,-0.477c1.095,-0.06 2.19,-0.077 3.287,-0.062c1.097,0.015 2.198,0.067 3.301,0.144c1.103,0.077 2.214,0.181 3.329,0.304c0.418,0.045 0.834,0.095 1.258,0.145c3.316,0.403 6.696,0.945 10.197,1.43c1.851,0.237 3.723,0.261 5.58,0.07c5.406,-0.564 10.815,-1.073 16.226,-1.526l2.726,-1.151c0.023,-0.01 0.045,-0.02 0.067,-0.035c0.242,-0.147 0.32,-0.462 0.173,-0.704l0,-0.002c-0.259,-0.428 -0.566,-0.824 -0.916,-1.182c-11.074,-11.314 -25.513,-15.316 -41.134,-13.172c-0.677,0.091 -1.322,0.191 -1.95,0.295c-2.004,0.341 -3.99,0.78 -5.949,1.318c-0.268,0.068 -0.531,0.142 -0.795,0.218c-0.312,0.086 -0.627,0.176 -0.94,0.266l-0.195,0.056l-0.01,0l-0.045,0.013c-0.596,0.173 -1.191,0.349 -1.806,0.529c-0.615,0.18 -1.232,0.365 -1.873,0.55l-9.064,4.051c1.238,4.12 2.619,8.188 4.141,12.207c3.152,-1.59 6.526,-2.698 10.009,-3.286Z" style="fill:#f89d47;fill-rule:nonzero;"/><path d="M225.411,147.094c0.035,0.032 0.061,0.074 0.074,0.119c0.384,1.172 0.795,2.341 1.219,3.509c0.873,2.395 1.826,4.782 2.859,7.16l7.643,19.157c0.012,0.029 0.008,0.062 -0.008,0.087l-0.066,0.092c0.05,0 0.099,0.007 0.148,0.013c0.098,0.011 0.179,0.08 0.205,0.174c0.966,3.081 2.052,6.119 3.257,9.112c0.147,0.413 0.135,0.866 -0.035,1.269c-2.152,4.298 -2.943,8.846 -2.372,13.642c1.469,12.377 13.803,20.051 25.138,13.136c10.22,-6.231 13.049,-20.521 6.479,-30.572c-0.729,-0.703 -1.463,-1.4 -2.202,-2.092c-0.797,-0.746 -1.663,-1.413 -2.586,-1.994c-2.395,-1.501 -5.088,-2.305 -8.081,-2.414c-2.304,0.122 -4.581,0.549 -6.771,1.274c-0.13,0.044 -0.27,-0.026 -0.313,-0.156l0,-0.001l-3.484,-10.612l-6.008,-17.99c-1.523,-4.02 -2.903,-8.088 -4.141,-12.207c-0.387,-0.5 -0.513,-1.224 -0.38,-2.171c-2.162,0.01 -4.312,0.341 -6.375,0.982c-2.609,0.822 -5.057,2.154 -7.345,3.996c0.403,-0.152 0.65,-0.091 0.741,0.188c0.45,1.389 1.204,3.291 2.264,5.702c0.052,0.108 0.046,0.235 -0.017,0.336l-0.119,0.197l0.148,0.021c0.045,0.002 0.091,0.017 0.129,0.043Z" style="fill:#dee1f1;fill-rule:nonzero;"/><path d="M135.884,59.848l-0.037,-2.835c-0.032,0.865 -0.071,1.882 0.037,2.835Z" style="fill:#343b88;fill-rule:nonzero;"/><path d="M135.83,55.895l-0.066,0c-0.051,0.018 -0.098,0.048 -0.135,0.087c-0.07,0.085 -0.051,0.133 0.057,0.149l0.148,0.017l-0.005,-0.253Z" style="fill:#343b88;fill-rule:nonzero;"/><path d="M211.111,196.917c0.035,-0.039 0.058,-0.087 0.069,-0.139c0.839,-3.829 1.873,-7.615 3.098,-11.341c0.407,-1.231 0.836,-2.449 1.289,-3.656c0.403,-1.073 0.824,-2.137 1.266,-3.19c1.1,-2.634 2.336,-5.21 3.705,-7.717c0.627,-1.146 1.283,-2.277 1.971,-3.393c2.081,-3.392 4.441,-6.604 7.056,-9.605c-1.039,-2.378 -1.992,-4.764 -2.859,-7.16c-0.424,-1.168 -0.834,-2.336 -1.219,-3.509c-0.013,-0.045 -0.039,-0.087 -0.074,-0.119c-0.035,-0.027 -0.076,-0.045 -0.119,-0.051l-0.148,-0.023c-0.244,0.16 -0.474,0.341 -0.685,0.542c-13.856,12.948 -21.445,30.292 -24.075,49.033l0,0.029c-0.004,0.143 0.11,0.26 0.251,0.263l3.693,0.087l1.65,0.008l4.916,0.026c0.08,0.006 0.16,-0.025 0.214,-0.086Z" style="fill:#f36f3e;fill-rule:nonzero;"/><path d="M257.085,177.486c2.997,0.111 5.691,0.916 8.081,2.415c0.923,0.58 1.789,1.247 2.586,1.993c0.739,0.692 1.473,1.39 2.202,2.093c-2.092,-6.182 -3.808,-12.484 -5.14,-18.873c-0.247,-0.083 -0.494,-0.161 -0.741,-0.238c-0.247,-0.079 -0.493,-0.142 -0.74,-0.204c-2.675,-0.687 -5.47,-0.766 -8.178,-0.229c-0.249,0.046 -0.498,0.1 -0.746,0.16c-0.498,0.117 -0.996,0.255 -1.494,0.413l4.17,12.464l-0.001,0.005Z" style="fill:#e2e3f2;fill-rule:nonzero;"/><path d="M315.258,181.45c-5.522,8.228 -14.028,0.859 -14.034,0.854c-0.081,0.014 -0.161,0.033 -0.238,0.057c-0.162,0.05 -0.313,0.131 -0.444,0.238c-0.037,0.03 -0.071,0.06 -0.105,0.092c-0.056,0.062 -0.101,0.132 -0.13,0.21c-0.044,0.1 -0.069,0.205 -0.077,0.312c-0.006,0.08 -0.006,0.16 0,0.238c0.039,0.6 0.075,1.193 0.107,1.773c0.063,1.163 0.11,2.287 0.141,3.37c0.03,1.085 0.044,2.13 0.043,3.138c0,1.053 -0.024,2.061 -0.062,3.031c-0.017,0.421 -0.036,0.834 -0.06,1.241c-0.099,1.719 -0.274,3.445 -0.513,5.168c-0.044,0.317 -0.091,0.635 -0.139,0.953c-0.135,0.873 -0.287,1.747 -0.456,2.621c-0.207,1.063 -0.441,2.123 -0.701,3.181c-0.318,1.311 -0.679,2.614 -1.083,3.909c-0.446,1.44 -0.936,2.864 -1.475,4.275c-0.808,2.115 -1.719,4.192 -2.733,6.218c-1.014,2.027 -2.129,3.998 -3.344,5.909c-0.684,1.075 -1.399,2.128 -2.144,3.159c-1.116,1.546 -2.301,3.036 -3.553,4.47c-0.834,0.953 -1.697,1.88 -2.588,2.779c-3.114,3.151 -6.599,5.912 -10.378,8.22c-4.625,2.804 -9.635,4.917 -14.87,6.27c-0.863,0.226 -1.729,0.432 -2.6,0.62c-0.872,0.188 -1.749,0.357 -2.633,0.509c-2.117,0.365 -4.262,0.629 -6.433,0.792c-1.449,0.112 -2.909,0.183 -4.379,0.214c-0.736,0.015 -1.475,0.021 -2.215,0.018c-0.149,-0.001 -0.292,0.048 -0.41,0.136l-0.834,0.628c12.526,5.361 25.815,5.738 38.911,1.311c30.3,-10.894 44.138,-45.82 39.43,-75.915Z" style="fill:#8987c1;fill-rule:nonzero;"/><path d="M107.203,186.163c-0.438,-0.002 -0.797,0.351 -0.799,0.789l0,0.026c-0.002,0.273 0.136,0.527 0.366,0.672c0.125,0.082 0.272,0.126 0.422,0.126l0.871,0.008l22.549,0.156l0.014,0c0.378,-0.004 0.701,-0.274 0.771,-0.647l0,-0.056c0.005,-0.027 0.007,-0.056 0.008,-0.083l0,-0.026c0.001,-0.26 -0.124,-0.503 -0.335,-0.652c-0.132,-0.094 -0.291,-0.145 -0.452,-0.145l-23.415,-0.168Z" style="fill:#343b88;fill-rule:nonzero;"/><path d="M187.497,166.137c0.883,-0.142 1.787,-0.074 2.64,0.2c-0.851,-0.273 -1.754,-0.342 -2.635,-0.2l-0.005,0Zm-2.702,0.964c0.457,-0.254 0.935,-0.469 1.43,-0.646c-0.493,0.176 -0.972,0.392 -1.43,0.646Zm-7.726,23.172c-0.095,-1.069 -0.136,-2.142 -0.119,-3.217c-0.015,1.075 0.024,2.148 0.119,3.217Zm17.318,-39.966l-6.903,12.085l-2.401,4.202l-0.223,0.388l-0.066,0.119l-0.397,0.74l-0.477,0.886l-1.875,3.17l-3.677,6.213l-7.398,12.509c-0.279,0.447 -0.554,0.894 -0.834,1.34c-0.467,0.752 -0.934,1.504 -1.399,2.255c-1.278,2.066 -2.55,4.138 -3.812,6.217c-0.441,0.726 -0.88,1.452 -1.316,2.18c-1.487,2.461 -2.965,4.929 -4.434,7.401c-0.672,1.126 -1.718,2.51 -3.136,4.148l-0.189,0.144l-0.758,0.583l-1.897,1.453c-0.554,0.095 -1.046,0.174 -1.493,0.238l-0.157,0.024l-0.119,0.017c-1.004,0.145 -1.726,0.218 -2.144,0.212c-16.601,-0.224 -33.208,-0.367 -49.824,-0.431c-0.143,0.26 -0.297,0.516 -0.452,0.772c-0.255,0.422 -0.527,0.839 -0.814,1.249c-0.413,0.589 -0.857,1.166 -1.337,1.732l0.169,0.026c0.091,0.004 0.161,0.08 0.158,0.17c0,0.006 -0.001,0.012 -0.001,0.018l0,0.222c2.144,2.383 3.257,4.374 6.282,5.816c2.062,0.981 4.692,0.953 7.02,0.981c20.145,-0.014 40.279,-0.03 60.403,-0.048c7.233,0 13.782,-4.067 13.795,-11.963c0.014,-7.985 0.023,-15.967 0.026,-23.947l0,-0.018c0.008,-0.15 0.136,-0.264 0.287,-0.257c8.144,0.477 7.952,-3.812 7.603,-10.441c3.967,-3.279 6.344,-6.156 7.167,-11.523c1.025,-6.681 -0.34,-14.193 -5.379,-18.884Z" style="fill:#dee1f1;fill-rule:nonzero;"/><path d="M131.388,192.626c-0.006,-0.014 -0.013,-0.03 -0.021,-0.044c-0.007,-0.018 -0.016,-0.035 -0.025,-0.051c-0.024,-0.035 -0.052,-0.064 -0.086,-0.087c-0.024,-0.019 -0.05,-0.036 -0.077,-0.048c-0.046,-0.019 -0.095,-0.029 -0.144,-0.029l-1.407,0l-13.926,-0.024c-0.998,-0.007 -1.996,0.042 -2.987,0.148l-0.063,0.007l-0.199,0.026l-0.147,0.019l-0.095,0.015c-0.075,0.011 -0.149,0.023 -0.217,0.035l-0.01,0c-0.477,0.086 -0.818,0.187 -0.974,0.299c-0.052,0.027 -0.088,0.079 -0.097,0.138l0,0.357c0.001,0.011 0.005,0.02 0.011,0.031c0.001,0.013 0.006,0.026 0.013,0.038c0.008,0.01 0.018,0.019 0.029,0.027c0,0.007 0.014,0.014 0.021,0.021c0.006,0.007 0.014,0.014 0.023,0.021c0.008,0 0.023,0.012 0.032,0.018l0.036,0.02c0.017,0.01 0.031,0.019 0.05,0.029l0.046,0.019c0.036,0.015 0.071,0.031 0.119,0.045l0.036,0.011l0.029,0.008c0.044,0.014 0.087,0.029 0.137,0.043l0.049,0.011l0.051,0.013l0.044,0.011l0.095,0.023l0.039,0.008l0.047,0.007l0.1,0.021l0.09,0.018l0.024,0l0.16,0.026l0.119,0.02l0.041,0c0.097,0.014 0.195,0.027 0.299,0.041l0.045,0l0.069,0.007l0.151,0.018l0.102,0.01l0.131,0.012l0.105,0.01l0.157,0.014c0.155,0.013 0.317,0.024 0.477,0.033c0.556,0.035 1.165,0.054 1.804,0.055l15.333,0.026c0.055,0 0.108,-0.013 0.158,-0.038c0.046,-0.025 0.087,-0.06 0.119,-0.101c0.012,-0.015 0.023,-0.033 0.031,-0.052c0.013,-0.017 0.024,-0.035 0.033,-0.054c0.014,-0.038 0.023,-0.079 0.024,-0.119l0,-1.011c-0.002,-0.021 -0.005,-0.043 -0.01,-0.063c0.002,-0.013 0.004,-0.026 0.005,-0.039Z" style="fill:#343b88;fill-rule:nonzero;"/><path d="M77.75,213.711c0.013,0.127 0.054,0.249 0.119,0.357c0.02,0.036 0.043,0.069 0.069,0.1c0.092,0.116 0.213,0.205 0.35,0.26l0.05,0.015c0.031,0.01 0.062,0.023 0.094,0.029c0.036,0.007 0.073,0.011 0.11,0.011c0.021,0.005 0.043,0.007 0.066,0.007l0.052,0c0.058,0 0.118,-0.005 0.176,-0.017c0.405,-0.08 0.699,-0.435 0.702,-0.849l0.055,-7.764l0.054,-7.765c0,-0.08 -0.012,-0.161 -0.035,-0.238c-0.008,-0.035 -0.019,-0.068 -0.031,-0.102c-0.087,-0.21 -0.253,-0.376 -0.461,-0.467c-0.035,-0.013 -0.069,-0.024 -0.105,-0.033c-0.077,-0.023 -0.158,-0.036 -0.238,-0.038l-0.048,0c-0.118,-0.001 -0.234,0.021 -0.341,0.067c-0.21,0.088 -0.378,0.253 -0.467,0.46c0,0.01 0,0.019 -0.008,0.027c-0.019,0.044 -0.033,0.091 -0.043,0.136c-0.008,0.039 -0.012,0.08 -0.013,0.119l0,0.057l-0.008,1.095l-0.1,14.433c-0.002,0.035 -0.002,0.068 0.001,0.101Z" style="fill:#343b88;fill-rule:nonzero;"/><path d="M72.415,210.675c-0.001,0.049 0.004,0.098 0.012,0.144c0.057,0.331 0.31,0.593 0.639,0.662c0.054,0.012 0.11,0.017 0.166,0.017l0.052,0c0.066,0 0.131,-0.01 0.195,-0.026l0.017,0c0.353,-0.089 0.602,-0.404 0.609,-0.767l0,-0.018l0.05,-9.644c0,-0.11 -0.02,-0.217 -0.062,-0.317l-0.007,-0.012c-0.107,-0.249 -0.331,-0.428 -0.596,-0.477c-0.03,-0.006 -0.06,-0.008 -0.089,-0.01l-0.111,0c-0.145,-0.001 -0.287,0.038 -0.411,0.112c-0.03,0.015 -0.057,0.033 -0.082,0.054c-0.031,0.021 -0.061,0.045 -0.087,0.071c-0.006,0.005 -0.012,0.011 -0.015,0.018c-0.032,0.031 -0.061,0.066 -0.086,0.102c-0.061,0.088 -0.104,0.187 -0.125,0.292c0,0.024 0,0.049 -0.007,0.073c-0.006,0.03 -0.008,0.061 -0.01,0.093l-0.026,4.904l-0.025,4.689l0,0.039Z" style="fill:#343b88;fill-rule:nonzero;"/><path d="M84.223,211.645c0.055,0.013 0.112,0.019 0.169,0.018l0.087,0c0.081,-0.004 0.161,-0.019 0.238,-0.048c0.11,-0.037 0.21,-0.097 0.294,-0.176l0.023,-0.018c0.069,-0.069 0.125,-0.149 0.168,-0.238c0,-0.007 0.01,-0.014 0.013,-0.021c0.004,-0.008 0.012,-0.041 0.018,-0.06c0.006,-0.02 0.01,-0.036 0.014,-0.052c0.005,-0.017 0.015,-0.051 0.02,-0.08c0.008,-0.044 0.013,-0.091 0.014,-0.137l0.015,-8.858l0,-0.577c-0.001,-0.074 -0.012,-0.148 -0.032,-0.22c-0.007,-0.025 -0.012,-0.051 -0.021,-0.079c-0.035,-0.086 -0.082,-0.167 -0.142,-0.238l-0.01,-0.012c-0.043,-0.049 -0.091,-0.093 -0.143,-0.132c-0.055,-0.037 -0.114,-0.069 -0.176,-0.094c-0.032,-0.013 -0.064,-0.024 -0.097,-0.035c-0.071,-0.02 -0.145,-0.031 -0.219,-0.033l-0.052,0c-0.261,0.001 -0.505,0.123 -0.662,0.33c-0.068,0.087 -0.118,0.186 -0.148,0.291c-0.021,0.071 -0.032,0.145 -0.032,0.219l0,2.181l-0.013,7.253c0,0.106 0.02,0.212 0.06,0.31c0.106,0.261 0.337,0.452 0.614,0.506Z" style="fill:#343b88;fill-rule:nonzero;"/><path d="M26.092,226.98c-0.004,-0.042 0.012,-0.083 0.044,-0.112l0.007,0c0.044,-0.032 0.099,-0.05 0.155,-0.049c11.213,-0.173 19.958,0.093 29.087,0.027c1.629,-0.008 3.275,-0.03 4.939,-0.066c0.273,-0.234 0.635,-0.333 0.989,-0.275c2.392,0.297 4.821,0.096 7.134,-0.587c-2.027,-1.126 -3.889,-2.526 -5.532,-4.16c-3.074,-3.082 -5.177,-6.956 -5.758,-11.5c-0.973,-0.216 -1.624,-0.328 -1.943,-0.328l-8.61,0c-7.323,0 -14.647,0.002 -21.969,0.007l-1.702,0c-7.577,0 -15.155,0.004 -22.733,0.012c-0.142,0 -0.212,0.069 -0.2,0.207c0.521,8.317 7.213,14.783 15.141,16.238c0.939,0.168 2.666,0.254 5.182,0.256c1.926,-0.001 3.851,0.113 5.764,0.343c0,0 0.004,-0.008 0.004,-0.014Z" style="fill:#dee1f1;fill-rule:nonzero;"/><path d="M238.159,255.286c0.741,0 1.478,-0.006 2.215,-0.018c1.47,-0.031 2.931,-0.102 4.379,-0.214c2.174,-0.167 4.319,-0.43 6.433,-0.792c0.882,-0.151 1.76,-0.32 2.633,-0.509c0.872,-0.187 1.739,-0.393 2.6,-0.62c5.235,-1.353 10.245,-3.466 14.87,-6.269c3.779,-2.31 7.264,-5.07 10.378,-8.22c0.891,-0.897 1.754,-1.824 2.588,-2.781c1.251,-1.43 2.435,-2.919 3.553,-4.47c0.745,-1.032 1.459,-2.085 2.144,-3.159c1.215,-1.911 2.33,-3.883 3.344,-5.908c1.014,-2.025 1.925,-4.103 2.733,-6.218c0.539,-1.409 1.029,-2.834 1.475,-4.275c0.397,-1.296 0.758,-2.6 1.083,-3.91c0.26,-1.058 0.493,-2.118 0.701,-3.181c0.169,-0.874 0.32,-1.748 0.456,-2.621c0.049,-0.318 0.095,-0.636 0.139,-0.953c0.238,-1.723 0.415,-3.448 0.513,-5.168c0.024,-0.405 0.043,-0.821 0.06,-1.241c0.038,-0.969 0.06,-1.976 0.062,-3.03c0,-1.007 -0.014,-2.053 -0.043,-3.138c-0.029,-1.087 -0.076,-2.21 -0.141,-3.37c-0.033,-0.581 -0.069,-1.172 -0.107,-1.773c-0.006,-0.08 -0.006,-0.16 0,-0.238c0.008,-0.108 0.035,-0.213 0.077,-0.312c0.03,-0.079 0.074,-0.149 0.13,-0.21c0.033,-0.033 0.068,-0.063 0.105,-0.092c0.131,-0.108 0.282,-0.189 0.444,-0.238c0.077,-0.025 0.157,-0.044 0.238,-0.057c0.006,0 8.512,7.373 14.034,-0.854l-0.92,-4.5c-0.079,-0.387 -0.152,-0.777 -0.238,-1.16l-0.154,-0.751l-0.027,-0.008c-2.55,-10.87 -7.832,-20.301 -15.845,-28.293c-5.409,0.453 -10.813,0.963 -16.213,1.529c-1.857,0.191 -3.729,0.167 -5.58,-0.07c-3.501,-0.485 -6.881,-1.028 -10.197,-1.43c-0.421,-0.05 -0.84,-0.099 -1.258,-0.144c-1.115,-0.119 -2.224,-0.228 -3.329,-0.305c-1.104,-0.077 -2.204,-0.126 -3.301,-0.143c-1.097,-0.018 -2.192,0 -3.287,0.062c-1.469,0.076 -2.932,0.236 -4.383,0.477c-3.482,0.586 -6.856,1.693 -10.008,3.283l6.008,17.99c1.994,-1.264 4.146,-2.262 6.4,-2.969c0.498,-0.158 0.996,-0.297 1.494,-0.413c0.248,-0.058 0.496,-0.112 0.746,-0.161c2.708,-0.536 5.503,-0.457 8.178,0.23c0.245,0.063 0.492,0.131 0.74,0.203c0.247,0.073 0.494,0.15 0.741,0.238c9.174,3.017 14.382,11.718 15.891,20.722l0.568,5.1c0.436,8.674 -1.303,16.682 -5.216,24.023c-4.459,8.354 -12.251,15.678 -21.628,17.165c-12.849,2.025 -22.993,-7.46 -25.853,-19.393c-2.878,-11.976 0.497,-25.164 7.877,-34.877c0.204,-0.236 0.432,-0.45 0.68,-0.641l0.066,-0.092c0.017,-0.025 0.02,-0.058 0.008,-0.087l-7.658,-19.154c-2.615,3.001 -4.975,6.213 -7.056,9.605c-0.687,1.113 -1.344,2.243 -1.971,3.393c-1.369,2.507 -2.606,5.082 -3.705,7.717c-0.443,1.053 -0.865,2.117 -1.266,3.19c-0.453,1.207 -0.883,2.426 -1.289,3.656c-1.225,3.725 -2.258,7.512 -3.098,11.341c-0.011,0.052 -0.035,0.1 -0.069,0.139c-0.056,0.066 -0.138,0.1 -0.223,0.092l-4.916,-0.026l-1.65,-0.008c-1.539,24.476 5.161,49.156 30.409,58.421l2.18,0.654l0.834,-0.628c0.12,-0.092 0.269,-0.139 0.422,-0.136Z" style="fill:#1d1c50;fill-rule:nonzero;"/><path d="M162.989,47.641l2.89,-0.274l0,-11.636c-0.01,-4.426 -2.099,-8.59 -5.641,-11.243l-2.997,-2.237c0,0.054 -0.008,0.119 -0.013,0.197c-1.839,-0.02 -3.68,-0.03 -5.52,-0.044l6.486,4.835c2.676,2.004 4.254,5.15 4.262,8.493l0,11.965l0.534,-0.055Z" style="fill:#dee1f1;fill-rule:nonzero;"/><path d="M154.404,0.041c-6.61,-0.05 -13.216,-0.054 -19.821,-0.013c-3.079,0.013 -2.61,5.197 -2.353,7.11l25.107,0.141c0.056,-2.541 1.062,-7.201 -2.933,-7.238Z" style="fill:#dee1f1;fill-rule:nonzero;"/><path d="M144.088,16.151c-0.004,0.025 -0.01,0.049 -0.018,0.073c-0.004,0.027 -0.01,0.054 -0.019,0.08c-0.016,0.024 -0.033,0.047 -0.051,0.069c-0.017,0.026 -0.036,0.051 -0.056,0.074c-0.027,0.024 -0.056,0.046 -0.086,0.067c-0.027,0.023 -0.055,0.044 -0.083,0.063c-0.033,0.021 -0.076,0.039 -0.119,0.06c-0.043,0.02 -0.068,0.038 -0.108,0.055c-0.041,0.017 -0.092,0.031 -0.138,0.048c-0.046,0.017 -0.086,0.032 -0.133,0.045c-0.048,0.013 -0.099,0.023 -0.149,0.035c-0.05,0.012 -0.106,0.026 -0.163,0.037c-0.057,0.011 -0.102,0.013 -0.155,0.02c-0.052,0.007 -0.119,0.019 -0.191,0.024c-0.071,0.005 -0.119,0.006 -0.169,0.008c-0.05,0.002 -0.13,0.008 -0.198,0.008l-6.087,0.01c-0.22,0 -0.4,-0.178 -0.402,-0.398l0,-1.127c0.008,-0.051 0.019,-0.103 0.031,-0.154c0.011,-0.023 0.025,-0.045 0.042,-0.066c0.012,-0.022 0.026,-0.044 0.043,-0.063c0.019,-0.017 0.041,-0.032 0.064,-0.044c0.019,-0.016 0.041,-0.03 0.063,-0.043c0.025,-0.008 0.051,-0.014 0.079,-0.017c0.024,-0.008 0.049,-0.014 0.075,-0.017l6.087,-0.01c1.013,0 1.836,0.338 1.838,0.759l0.004,0.404Zm-8.303,-4.936c0.005,-0.348 0.291,-0.627 0.64,-0.622l6.848,0.095l0.014,0c0.293,0.013 0.54,0.225 0.596,0.513c0.007,0.041 0.011,0.083 0.011,0.125l-0.011,0.715c-0.002,0.286 -0.199,0.534 -0.477,0.602c-0.054,0.014 -0.107,0.022 -0.162,0.021l-6.848,-0.095c-0.349,-0.005 -0.627,-0.29 -0.622,-0.638l0,-0.003l0.011,-0.714Zm21.455,11.036c0.002,-0.047 0.008,-0.094 0.02,-0.139l0.08,-14.829l-25.107,-0.141c-0.288,6.626 -0.318,10.849 -0.089,12.668c0.262,2.077 2.11,2.535 4.051,2.535c5.171,-0.007 10.342,0.012 15.516,0.058c1.839,0.014 3.68,0.024 5.52,0.044c-0.002,-0.08 0.001,-0.143 0.01,-0.197Z" style="fill:#f36f3e;fill-rule:nonzero;"/><path d="M136.392,12.567l6.848,0.095c0.055,0 0.108,-0.007 0.162,-0.021c0.278,-0.067 0.474,-0.315 0.477,-0.602l0.011,-0.715c0,-0.042 -0.004,-0.084 -0.011,-0.125c-0.056,-0.288 -0.303,-0.501 -0.596,-0.513l-0.014,0l-6.848,-0.095c-0.349,-0.005 -0.635,0.274 -0.64,0.622l-0.01,0.715c-0.006,0.348 0.272,0.634 0.62,0.64l0.001,0Z" style="fill:#fff;fill-rule:nonzero;"/><path d="M142.246,14.99l-6.087,0.01c-0.027,0.003 -0.055,0.008 -0.08,0.017c-0.027,0.003 -0.054,0.009 -0.079,0.017c-0.023,0.013 -0.044,0.027 -0.063,0.043c-0.024,0.013 -0.045,0.027 -0.064,0.044c-0.017,0.02 -0.031,0.041 -0.043,0.063c-0.017,0.02 -0.031,0.042 -0.042,0.066c-0.012,0.051 -0.023,0.102 -0.031,0.154l0,1.127c0.001,0.22 0.181,0.398 0.402,0.398l6.087,-0.01c0.069,0 0.135,0 0.203,-0.008c0.068,-0.008 0.119,0 0.169,-0.008c0.05,-0.008 0.127,-0.015 0.191,-0.024c0.063,-0.008 0.106,-0.012 0.155,-0.02c0.049,-0.008 0.11,-0.025 0.163,-0.037c0.054,-0.012 0.102,-0.021 0.149,-0.035c0.046,-0.013 0.089,-0.031 0.133,-0.045c0.044,-0.014 0.097,-0.031 0.138,-0.048c0.042,-0.017 0.073,-0.037 0.108,-0.055c0.036,-0.018 0.082,-0.038 0.119,-0.06c0.029,-0.019 0.056,-0.041 0.083,-0.063c0.03,-0.02 0.058,-0.043 0.086,-0.067c0.02,-0.023 0.039,-0.048 0.056,-0.074c0.018,-0.022 0.036,-0.045 0.051,-0.069c0.008,-0.026 0.015,-0.053 0.019,-0.08c0.008,-0.023 0.014,-0.048 0.018,-0.073l0,-0.404c-0.006,-0.421 -0.829,-0.76 -1.842,-0.759Z" style="fill:#fff;fill-rule:nonzero;"/><path d="M61.763,140.912c-3.137,0 -5.678,-2.541 -5.678,-5.678c0,-3.136 2.541,-5.678 5.678,-5.678c3.136,0 5.678,2.542 5.678,5.678c0,3.136 -2.541,5.678 -5.676,5.679l-0.002,0l0,-0.001Zm187.597,-8.322c0.313,-0.091 0.628,-0.181 0.94,-0.267c0.265,-0.077 0.528,-0.15 0.796,-0.218c1.959,-0.538 3.945,-0.978 5.949,-1.318c0.627,-0.105 1.272,-0.205 1.949,-0.295l-12.293,-35.688l-0.104,-0.303c-0.228,0.205 -0.46,0.404 -0.696,0.604c-0.278,0.238 -0.568,0.459 -0.859,0.686c-0.195,0.15 -0.396,0.3 -0.596,0.446l-0.181,0.119c-0.232,0.166 -0.477,0.322 -0.715,0.477c-0.471,0.312 -0.953,0.612 -1.443,0.884c-0.268,0.145 -0.541,0.291 -0.814,0.428c-0.2,0.1 -0.4,0.191 -0.604,0.281l-0.457,0.201l-0.183,0.081l-0.23,0.094c-0.067,0.029 -0.133,0.057 -0.203,0.083c-0.095,0.036 -0.186,0.068 -0.281,0.1c-0.291,0.108 -0.586,0.208 -0.882,0.299c-0.161,0.051 -0.325,0.101 -0.487,0.15l-0.076,0.023c-0.068,0.019 -0.136,0.035 -0.204,0.051l-0.017,0c-0.2,0.051 -0.398,0.099 -0.596,0.143c-0.552,0.122 -1.108,0.214 -1.668,0.276l-0.014,0c-0.173,0.018 -0.345,0.032 -0.518,0.045c-0.173,0.013 -0.363,0.032 -0.544,0.036l-0.373,0c-0.187,0 -0.368,0.01 -0.555,0c-0.705,-0.017 -1.408,-0.084 -2.104,-0.2c-0.081,-0.013 -0.158,-0.031 -0.238,-0.045c-0.15,-0.027 -0.295,-0.055 -0.441,-0.086c-0.457,-0.1 -0.911,-0.218 -1.351,-0.357l-0.02,-0.007c-0.223,-0.07 -0.442,-0.147 -0.66,-0.226c-0.186,-0.069 -0.369,-0.141 -0.55,-0.217c-0.616,-0.256 -1.213,-0.554 -1.787,-0.89c-0.496,-0.294 -0.973,-0.618 -1.43,-0.969c-0.736,-0.546 -1.424,-1.155 -2.054,-1.82c-0.793,-0.856 -1.493,-1.795 -2.085,-2.8c-0.346,-0.577 -0.658,-1.173 -0.932,-1.787c-0.11,-0.238 -0.21,-0.486 -0.305,-0.732c-0.018,-0.042 -0.032,-0.082 -0.045,-0.119c-0.191,-0.496 -0.357,-1.009 -0.5,-1.527c-0.027,-0.095 -0.054,-0.2 -0.077,-0.295c-0.024,-0.095 -0.042,-0.155 -0.062,-0.238c-0.011,-0.041 -0.023,-0.08 -0.033,-0.119c-0.03,-0.142 -0.061,-0.279 -0.091,-0.419l-0.018,-0.081c0,-0.036 -0.014,-0.073 -0.023,-0.11c-0.008,-0.037 -0.014,-0.063 -0.019,-0.095c-0.017,-0.082 -0.035,-0.166 -0.051,-0.249c0,-0.025 -0.011,-0.051 -0.017,-0.076c-0.581,-2.041 -0.807,-4.166 -0.665,-6.283c0.023,-0.348 0.054,-0.696 0.097,-1.042c0.038,-0.31 0.082,-0.619 0.133,-0.928c0.017,-0.096 0.039,-0.193 0.057,-0.291c0.04,-0.224 0.081,-0.448 0.132,-0.672c0,-0.014 0.01,-0.032 0.014,-0.045c0.007,-0.035 0.017,-0.068 0.024,-0.102c0.091,-0.403 0.195,-0.805 0.317,-1.207c0.141,-0.541 0.307,-1.054 0.486,-1.557c0.104,-0.295 0.208,-0.59 0.323,-0.874c0.341,-0.853 0.746,-1.679 1.214,-2.47c0.06,-0.099 0.119,-0.201 0.176,-0.297c0.659,-1.053 1.444,-2.021 2.34,-2.882c0.014,-0.012 0.029,-0.025 0.043,-0.039c0.007,-0.006 0.013,-0.013 0.021,-0.019l0.04,-0.038c0.284,-0.268 0.578,-0.524 0.877,-0.762c0.299,-0.238 0.596,-0.449 0.901,-0.659c0.223,-0.15 0.449,-0.3 0.681,-0.441c0.447,-0.263 0.908,-0.501 1.381,-0.715c0.105,-0.05 0.21,-0.104 0.318,-0.15c0.292,-0.126 0.596,-0.245 0.891,-0.349c0.218,-0.077 0.436,-0.145 0.659,-0.218c0.391,-0.119 0.782,-0.228 1.177,-0.318c0.891,-0.199 1.797,-0.322 2.709,-0.368c0.386,-0.023 0.777,-0.037 1.168,-0.032c0.679,0.006 1.357,0.05 2.031,0.132c0.011,-0.002 0.021,-0.002 0.032,0l0.023,0c1.928,0.246 3.812,0.758 5.599,1.523c1.127,0.481 2.216,1.051 3.254,1.705c2.368,-3.399 4.671,-6.841 6.91,-10.326c0.378,-0.591 0.985,-1.08 1.823,-1.468c0.126,-0.061 0.269,-0.08 0.409,-0.055c9.938,1.568 19.89,3.057 29.857,4.468l0.573,1.65c0.365,1.041 1.505,1.588 2.545,1.223c0.895,-0.314 1.446,-1.215 1.318,-2.154l-0.886,-6.386c-0.067,-1.475 -1.129,-2.715 -2.576,-3.008l-26.35,-5.297l-2.59,1.963l2.59,-1.963c-2.245,-0.691 -4.501,-1.356 -6.767,-1.996c-2.771,-0.786 -4.704,0.996 -6.28,3.023c-0.386,0.496 -0.754,1.009 -1.104,1.5l-1.891,2.834l-0.119,0.181l-0.316,0.477l-0.49,0.735l-0.546,0.764l-0.326,0.436c-1.779,3.092 -3.758,6.064 -5.922,8.898c-0.141,0.186 -0.259,0.173 -0.357,-0.042l-4.944,-11.08c-0.068,-0.153 -0.192,-0.273 -0.345,-0.336c-0.357,-0.15 -0.715,-0.405 -1.091,-0.463c-8.035,-1.182 -19.441,0.672 -24.462,7.998c-1.926,2.813 1.268,8.916 2.372,11.795c0.073,0.181 0.037,0.208 -0.113,0.077l-19.236,-16.964c-3.15,-2.967 -5.833,-5.219 -8.048,-6.757c-0.941,-0.654 -2.195,-0.852 -3.759,-0.596l-2.978,0.376l-2.795,0.413l-3.186,0.305l-2.889,0.272l-0.537,0.051l-23.743,2.249c-1.667,0.157 -2.932,1.567 -2.908,3.241l0.031,2.713l0,0.259l0.014,0.853l0.036,2.837c0.119,1.014 0.405,1.936 1.059,2.486c1.563,1.322 3.276,0.3 3.491,-1.595c0.005,-0.142 0.12,-0.256 0.263,-0.259l11.852,-1.169l9.703,-1.013l1.54,-0.245l9.871,-1.104c0.131,-0.016 0.262,0.028 0.357,0.119l4.731,4.231c4.718,3.854 9.272,7.926 13.665,12.216c4.408,4.313 7.067,8.697 8.935,14.361l14.892,38.263c0.026,0.062 0.031,0.131 0.013,0.195c-0.015,0.046 -0.043,0.087 -0.077,0.119l-0.036,0.038c-0.653,0.497 -1.337,0.952 -2.046,1.362c-0.73,0.427 -1.483,0.814 -2.254,1.159c-4.686,2.109 -10.311,3.018 -14.96,3.036c-12.021,0.045 -24.037,0.07 -36.051,0.073l-15.024,0.095l-49.603,9.312l-3.554,-1.599l-12.077,-5.443l-15.211,-6.859c-0.16,-0.088 -0.318,-0.172 -0.477,-0.251c-0.126,-0.063 -0.254,-0.119 -0.38,-0.181c-0.282,-0.124 -0.571,-0.232 -0.864,-0.326c-0.621,-0.201 -1.263,-0.325 -1.913,-0.368c-1.334,-0.068 -2.664,0.187 -3.877,0.745l-0.119,0.055c-2.203,1.152 -3.681,2.833 -4.45,4.729c-0.988,2.438 -0.801,5.23 0.528,7.709c0.571,1.06 1.313,2.019 2.196,2.837l-1.636,1.853c-1.381,0.777 -2.731,1.601 -4.063,2.463c-2.707,1.762 -5.298,3.694 -7.757,5.786c-0.043,0.036 -0.093,0.062 -0.145,0.077c-0.024,0.006 -0.049,0.011 -0.073,0.013c-0.027,0.005 -0.055,0.008 -0.082,0.01c-0.037,-0.004 -0.074,-0.011 -0.108,-0.023c-0.023,-0.005 -0.044,-0.011 -0.064,-0.018c-0.023,-0.014 -0.043,-0.03 -0.063,-0.045c-0.026,-0.018 -0.051,-0.038 -0.073,-0.06c0,0 -0.01,0 -0.014,-0.01c-0.015,-0.024 -0.03,-0.048 -0.041,-0.073c-0.01,-0.018 -0.023,-0.031 -0.032,-0.05c-0.019,-0.052 -0.03,-0.108 -0.031,-0.163c0.013,-0.627 -0.064,-1.358 0.063,-1.968c0.453,-2.19 0.859,-4.371 1.218,-6.543c-0.208,-5.977 -0.274,-11.94 -0.195,-17.892c0.023,-1.912 0.062,-3.822 0.119,-5.729c-3.883,-0.285 -7.781,-0.306 -11.666,-0.064c0.029,1.289 0.048,2.573 0.066,3.858c0,0.148 0,0.295 0.007,0.442l0,0.15c0.043,3.467 0.041,6.936 -0.006,10.407c-0.018,1.072 -0.041,2.159 -0.063,3.236c-0.007,0.301 -0.012,0.604 -0.018,0.905l0,0.28l0.008,5.644c0.014,0.112 -0.063,0.213 -0.174,0.228c-0.018,0.002 -0.036,0.002 -0.054,0c-7.607,-0.014 -15.214,-0.008 -22.822,0.018c-1.576,0 -2.685,0.11 -3.326,0.328c-3.693,1.235 -4.445,5.676 -1.968,8.438c1.5,1.668 3.358,1.991 5.572,2c9.956,0.031 19.925,0.085 29.903,0.158c0.238,0 0.287,0.1 0.145,0.286c-7.426,9.712 -12.443,20.488 -15.051,32.326l-0.01,0c0,0 -0.008,0.036 -0.032,0.113c-0.256,1.026 -0.457,2.063 -0.604,3.108c-0.068,0.357 -0.141,0.715 -0.2,1.082c-0.017,0.07 -0.007,0.143 0.027,0.205c-0.376,3.171 -0.614,7.912 0.045,13.883c-0.002,0.012 -0.002,0.025 0,0.036c0.037,0.896 0.082,1.787 0.145,2.677l1.685,0c5.21,0 10.419,-0.002 15.627,-0.007l13.665,0c-0.668,-4.372 -0.953,-9.657 -0.468,-15.964l8.803,0.238c0.095,-0.11 0.2,-0.21 0.299,-0.318c1.456,-1.565 3.126,-2.918 4.963,-4.014c0.776,-0.471 1.579,-0.897 2.404,-1.276c0.086,-0.044 0.156,-0.113 0.205,-0.198c0.005,-0.011 0.008,-0.023 0.011,-0.036c0.005,-0.011 0.008,-0.024 0.011,-0.037c1.687,-0.596 3.416,-1.067 5.172,-1.413c0.696,-0.137 1.395,-0.26 2.104,-0.357c0.405,-0.877 1.164,-2.383 1.727,-3.849l1.017,-2.272l1.364,-3.045l3.183,-7.095l0.108,-0.238l2.659,-7.148l2.789,-7.514c0,-0.019 0.015,-0.036 0.023,-0.055c0.102,-0.273 0.213,-0.542 0.334,-0.803c0.129,-0.28 0.269,-0.555 0.421,-0.823c2.102,-3.777 6.044,-6.161 10.365,-6.268l17.469,-0.425l2.79,-2.688l3.663,-3.53c0.698,-0.67 1.475,-1.253 2.314,-1.736c1.925,-1.1 4.117,-1.645 6.335,-1.576l8.38,0.289l15.779,0.549l13.978,0.487c3.324,0.12 6.389,1.831 8.235,4.599l0.523,0.786c1.34,0.013 2.958,0.119 4.875,0.328l0.073,0.108l0.16,0.238c-0.031,0.158 -0.075,0.312 -0.135,0.461c-0.014,0.035 -0.03,0.068 -0.048,0.099c-3.717,6.643 -7.549,13.225 -11.492,19.745l-2.523,4.455l-0.677,1.191c-3.226,5.654 -6.543,11.247 -9.948,16.778c-0.622,1.009 -1.24,2.025 -1.867,3.026l-0.661,1.121c-0.119,0.198 -0.238,0.396 -0.35,0.596c-0.069,0.119 -0.136,0.231 -0.205,0.347l-1.094,1.849c-0.427,0.722 -0.854,1.445 -1.283,2.168c-1.382,2.342 -2.763,4.677 -4.145,7.008c-0.049,0.088 -0.11,0.175 -0.167,0.261c-0.031,0.048 -0.06,0.095 -0.092,0.144c-0.39,0.567 -0.828,1.097 -1.311,1.586l-0.026,0.026c-0.108,0.119 -0.214,0.224 -0.332,0.337c-0.014,0.014 -0.03,0.026 -0.046,0.037l-0.021,0.018c-0.013,0.008 -0.026,0.013 -0.039,0.02c-0.027,0.017 -0.055,0.031 -0.083,0.043c-0.014,0 -0.027,0.014 -0.042,0.018c-0.014,0.004 -0.018,0 -0.026,0.01l-0.026,0.007c-0.03,0.011 -0.058,0.019 -0.088,0.025c-0.087,0.01 -0.18,0.015 -0.268,0.024c-0.685,0.07 -1.395,0.119 -2.136,0.157c-1.117,0.05 -2.295,0.068 -3.567,0.06c-0.741,0 -1.508,-0.018 -2.309,-0.037c-0.173,0 -0.357,0 -0.535,-0.008l-0.162,0l-0.767,-0.019c-0.119,0 -0.254,0 -0.381,-0.01c-0.381,-0.01 -0.764,-0.018 -1.159,-0.032c-0.163,0 -0.336,0 -0.504,-0.008l-0.167,0l-0.397,-0.01l-0.144,0c-0.681,-0.017 -1.377,-0.033 -2.099,-0.046l-14.529,-0.095l-0.368,-0.119l-2.922,0.063l-14.659,0.328l0.058,0.498c-0.007,-0.005 -0.014,-0.01 -0.021,-0.013l-0.037,-0.014c-0.023,0.238 -0.058,0.485 -0.086,0.73c-0.091,0.727 -0.213,1.45 -0.357,2.162c-0.068,0.323 -0.141,0.65 -0.223,0.969c-0.173,0.715 -0.373,1.419 -0.609,2.112c-0.068,0.195 -0.145,0.387 -0.213,0.583c-0.068,0.197 -0.142,0.392 -0.219,0.581c-0.305,0.772 -0.647,1.536 -1.027,2.289c16.62,0.066 33.227,0.21 49.826,0.432c0.718,-0.024 1.434,-0.094 2.144,-0.211l0.119,-0.017l0.157,-0.024c0.447,-0.067 0.939,-0.147 1.493,-0.238l1.899,-1.453l0.755,-0.578l0.189,-0.144c1.422,-1.641 2.467,-3.024 3.136,-4.15c1.468,-2.477 2.945,-4.944 4.434,-7.401c0.438,-0.727 0.874,-1.453 1.311,-2.179c1.263,-2.081 2.54,-4.148 3.812,-6.221c0.463,-0.748 0.932,-1.5 1.397,-2.251c0.278,-0.447 0.553,-0.894 0.834,-1.34l7.398,-12.509l3.677,-6.214l1.876,-3.171l0.477,-0.886l0.4,-0.741l0.063,-0.111l0.223,-0.388l2.401,-4.206l6.902,-12.086c1.694,-3.105 3.111,-5.675 4.25,-7.708c1.138,-2.035 1.992,-3.526 2.564,-4.478c1.289,-2.154 3.308,-3.455 6.057,-3.904c3.799,-0.617 7.398,-1.04 10.948,-2.64c0.187,-0.081 0.305,-0.027 0.365,0.164c0.932,3.068 2.168,6.033 3.693,8.852c2.177,-1.781 4.669,-3.136 7.348,-3.995c2.065,-0.64 4.214,-0.971 6.377,-0.979l-5.217,-14.229c-0.052,-0.126 -0.026,-0.272 0.068,-0.373c2.541,-3.026 3.932,-6.537 4.17,-10.534c0.01,-0.157 0.141,-0.281 0.3,-0.281l2.768,0c0.142,-0.014 0.273,0.082 0.3,0.223l7.048,23.318c0.641,-0.186 1.259,-0.368 1.873,-0.55c0.614,-0.182 1.208,-0.357 1.804,-0.527l0.045,-0.012l0.01,0l0.201,-0.063Z" style="fill:#1d1c50;fill-rule:nonzero;"/><path d="M71.005,112.856l40.212,0c3.735,0 6.762,-3.028 6.762,-6.765l0,-2.828c0.001,-3.735 -3.027,-6.765 -6.762,-6.766l-40.205,0c-3.737,-0.001 -6.767,3.028 -6.767,6.764l0,2.828c-0.002,3.736 3.024,6.766 6.76,6.767Z" style="fill:#343b88;fill-rule:nonzero;"/><path d="M61.763,129.556c3.136,0 5.678,2.542 5.678,5.678c0,3.137 -2.542,5.679 -5.678,5.679c-3.137,0 -5.678,-2.542 -5.678,-5.679c0,-3.136 2.541,-5.678 5.678,-5.678Z" style="fill:#f89d47;fill-rule:nonzero;"/><path d="M147.793,193.22c-0.2,0.343 -0.4,0.687 -0.596,1.026c-0.119,0.207 -0.251,0.41 -0.379,0.614c0.126,-0.205 0.255,-0.407 0.378,-0.616c0.2,-0.336 0.4,-0.681 0.596,-1.022c0.161,-0.275 0.32,-0.553 0.477,-0.834c-0.157,0.285 -0.32,0.562 -0.477,0.836l0.001,-0.004Zm-3.113,4.682c-0.225,0.286 -0.454,0.566 -0.687,0.842c0.234,-0.276 0.462,-0.556 0.686,-0.842c0.151,-0.191 0.299,-0.388 0.447,-0.584c-0.149,0.2 -0.295,0.396 -0.447,0.587l0.001,-0.004Zm-1.409,1.668c-0.244,0.268 -0.492,0.534 -0.745,0.795c-0.724,0.746 -1.483,1.456 -2.278,2.129c-0.424,0.36 -0.859,0.709 -1.303,1.048c-0.139,0.106 -0.285,0.207 -0.427,0.312c0.142,-0.104 0.286,-0.205 0.425,-0.311c0.446,-0.341 0.882,-0.691 1.311,-1.051c0.793,-0.672 1.552,-1.381 2.277,-2.127c0.254,-0.263 0.504,-0.527 0.745,-0.795c0.211,-0.238 0.417,-0.477 0.622,-0.715c-0.211,0.247 -0.417,0.484 -0.628,0.717l0.001,-0.004Zm-5.549,-17.983l-0.045,0c0.04,0 0.076,0 0.119,-0.01c-0.025,0.008 -0.052,0.008 -0.075,0.013l0.001,-0.004Zm-6.314,5.56c-0.001,0.029 -0.004,0.057 -0.008,0.085l0,0.058c-0.07,0.372 -0.393,0.641 -0.771,0.645l-0.015,0l-22.548,-0.156l-0.871,-0.008c-0.15,0 -0.297,-0.044 -0.422,-0.126c-0.231,-0.145 -0.369,-0.4 -0.368,-0.673l0,-0.025c0.002,-0.437 0.36,-0.79 0.798,-0.789l23.421,0.164c0.161,0 0.319,0.051 0.45,0.145c0.211,0.15 0.336,0.393 0.335,0.652l-0.001,0.029Zm0,6.597c-0.001,0.042 -0.01,0.082 -0.024,0.119c-0.01,0.02 -0.021,0.038 -0.033,0.055c-0.008,0.019 -0.019,0.037 -0.031,0.052c-0.032,0.042 -0.074,0.076 -0.119,0.101c-0.049,0.026 -0.102,0.039 -0.157,0.039l-15.333,-0.026c-0.64,0 -1.247,-0.02 -1.805,-0.056c-0.164,-0.01 -0.326,-0.02 -0.477,-0.033l-0.157,-0.014l-0.105,-0.01l-0.129,-0.01l-0.105,-0.013l-0.151,-0.017l-0.069,-0.008l-0.043,0l-0.3,-0.039c-0.014,-0.002 -0.027,-0.002 -0.04,0l-0.126,-0.023l-0.16,-0.026l-0.024,0l-0.091,-0.019l-0.1,-0.02l-0.046,-0.008l-0.039,-0.007l-0.095,-0.024l-0.044,-0.011l-0.051,-0.013c-0.018,-0.001 -0.035,-0.005 -0.05,-0.01l-0.137,-0.042l-0.027,-0.01l-0.036,-0.011c-0.043,-0.014 -0.079,-0.03 -0.119,-0.045l-0.046,-0.019c-0.019,-0.01 -0.033,-0.019 -0.05,-0.029l-0.035,-0.018c-0.01,-0.008 -0.02,-0.014 -0.032,-0.018c-0.01,-0.008 -0.017,-0.015 -0.024,-0.024c-0.007,-0.007 -0.016,-0.014 -0.022,-0.021c-0.011,-0.008 -0.02,-0.018 -0.028,-0.027c-0.007,-0.012 -0.012,-0.025 -0.013,-0.038c-0.006,-0.01 -0.01,-0.02 -0.012,-0.03l0,-0.357c0.008,-0.06 0.044,-0.111 0.098,-0.139c0.156,-0.112 0.498,-0.213 0.975,-0.299l0.01,0c0.068,-0.012 0.142,-0.024 0.217,-0.035l0.095,-0.015l0.147,-0.02l0.199,-0.025l0.063,-0.008c0.972,-0.104 1.95,-0.154 2.928,-0.149l0.06,0l13.925,0.025l1.407,0c0.049,0.001 0.099,0.01 0.145,0.027c0.026,0.014 0.051,0.031 0.075,0.049c0.033,0.024 0.062,0.054 0.086,0.087c0.01,0.018 0.018,0.035 0.025,0.052c0.007,0.014 0.017,0.029 0.023,0.044c0.006,0.015 0,0.032 0,0.048c0.005,0.021 0.007,0.043 0.01,0.063l0.001,1.004Zm-46.106,8.22l-0.015,8.858c-0.001,0.046 -0.006,0.093 -0.014,0.137c0,0.027 -0.013,0.054 -0.02,0.081c-0.007,0.026 -0.007,0.033 -0.013,0.05c-0.008,0.018 -0.014,0.038 -0.018,0.058l-0.014,0.027c-0.043,0.088 -0.099,0.168 -0.168,0.238l-0.023,0.018c-0.085,0.079 -0.185,0.138 -0.294,0.176c-0.077,0.027 -0.157,0.043 -0.238,0.048l-0.087,0c-0.057,0 -0.114,-0.006 -0.169,-0.018c-0.279,-0.057 -0.509,-0.251 -0.611,-0.516c-0.039,-0.099 -0.06,-0.204 -0.06,-0.31l0.013,-7.253l0,-2.179c0.001,-0.076 0.012,-0.15 0.032,-0.223c0.106,-0.362 0.434,-0.614 0.811,-0.62l0.052,0c0.074,0.001 0.148,0.012 0.219,0.033c0.032,0.01 0.064,0.02 0.096,0.035c0.062,0.024 0.12,0.055 0.175,0.093c0.052,0.038 0.1,0.082 0.145,0.131c0,0 0,0.011 0.008,0.014c0.06,0.07 0.107,0.151 0.142,0.238c0.01,0.026 0.014,0.052 0.021,0.079c0.02,0.07 0.031,0.144 0.032,0.219l-0.004,0.584Zm-5.71,3.897l-0.055,7.764c-0.006,0.481 -0.398,0.869 -0.878,0.867l-0.048,0c-0.024,-0.001 -0.046,-0.005 -0.068,-0.008c-0.037,-0.001 -0.074,-0.005 -0.11,-0.011c-0.032,-0.007 -0.063,-0.019 -0.094,-0.029c-0.031,-0.01 -0.033,-0.008 -0.051,-0.015c-0.137,-0.056 -0.257,-0.144 -0.35,-0.259c-0.025,-0.033 -0.048,-0.067 -0.068,-0.101c-0.066,-0.11 -0.106,-0.231 -0.119,-0.357c-0.005,-0.033 -0.008,-0.067 -0.008,-0.099l0.101,-14.432l0.008,-1.095l0,-0.057c0.001,-0.041 0.005,-0.08 0.013,-0.119c0.01,-0.046 0.024,-0.093 0.043,-0.136c0,-0.008 0,-0.018 0.008,-0.027c0.089,-0.208 0.257,-0.374 0.467,-0.46c0.107,-0.045 0.223,-0.069 0.341,-0.067l0.052,0c0.08,0.001 0.161,0.014 0.238,0.038c0.035,0.008 0.069,0.018 0.104,0.031c0.208,0.089 0.375,0.257 0.463,0.468c0.011,0.033 0.021,0.068 0.03,0.104c0.023,0.076 0.035,0.157 0.035,0.238l-0.055,7.762Zm-5.48,4.823l0,0.019c-0.007,0.365 -0.256,0.679 -0.609,0.767l-0.017,0c-0.064,0.019 -0.131,0.03 -0.198,0.03l-0.05,0c-0.057,-0.001 -0.113,-0.007 -0.168,-0.018c-0.328,-0.071 -0.578,-0.334 -0.636,-0.664c-0.01,-0.048 -0.014,-0.097 -0.013,-0.145l0,-0.05l0.026,-4.689l0.026,-4.904c0.001,-0.031 0.004,-0.062 0.01,-0.093l0,-0.071c0.023,-0.105 0.066,-0.206 0.127,-0.295c0.025,-0.036 0.052,-0.069 0.085,-0.1c0.004,-0.006 0.01,-0.012 0.015,-0.018c0.026,-0.025 0.056,-0.049 0.087,-0.071c0.025,-0.019 0.052,-0.037 0.082,-0.054c0.124,-0.073 0.266,-0.112 0.411,-0.112l0.111,0c0.03,0.001 0.06,0.005 0.091,0.008c0.266,0.048 0.491,0.228 0.596,0.477l0.007,0.012c0.042,0.101 0.063,0.208 0.063,0.317l-0.046,9.655Zm111.74,-66.045l-0.073,-0.108c-1.918,-0.21 -3.536,-0.313 -4.876,-0.328l-0.523,-0.786c-1.845,-2.768 -4.911,-4.478 -8.235,-4.599l-13.978,-0.486l-15.779,-0.55l-8.38,-0.289c-2.217,-0.068 -4.409,0.478 -6.335,1.577c-0.839,0.483 -1.616,1.066 -2.314,1.735l-3.662,3.531l-2.79,2.687l-17.469,0.427c-4.321,0.106 -8.265,2.49 -10.365,6.267c-0.15,0.269 -0.291,0.543 -0.419,0.822c-0.119,0.261 -0.231,0.53 -0.334,0.803c-0.007,0.02 -0.017,0.037 -0.023,0.055l-2.79,7.498l-2.659,7.148l-0.107,0.238l-0.112,0.253l-4.408,9.91l-3.992,8.992c0.313,-1.119 0.904,-2.264 1.214,-2.886c-0.704,0.099 -1.405,0.222 -2.104,0.357c-1.756,0.347 -3.485,0.818 -5.172,1.413c-0.002,0.012 -0.006,0.024 -0.011,0.033c-0.002,0.013 -0.006,0.025 -0.011,0.037c-0.048,0.085 -0.119,0.154 -0.206,0.199c-0.826,0.379 -1.629,0.805 -2.404,1.277c-1.836,1.095 -3.506,2.446 -4.962,4.013c-0.1,0.105 -0.2,0.21 -0.3,0.318c-3.799,4.263 -5.766,9.888 -5.104,16.051c0.581,4.544 2.684,8.418 5.758,11.5c1.643,1.635 3.505,3.034 5.532,4.159c3.112,1.313 6.456,1.988 9.834,1.985c6.971,-0.019 13.648,-2.804 18.569,-7.744c0.477,-0.567 0.926,-1.146 1.339,-1.733c0.288,-0.41 0.559,-0.827 0.814,-1.249c0.155,-0.256 0.309,-0.512 0.452,-0.772c0.382,-0.752 0.724,-1.515 1.027,-2.289c0.077,-0.189 0.145,-0.385 0.218,-0.581c0.073,-0.195 0.145,-0.385 0.213,-0.581c0.238,-0.695 0.436,-1.4 0.609,-2.113c0.082,-0.318 0.155,-0.646 0.223,-0.966c0.15,-0.715 0.273,-1.438 0.357,-2.165c0.027,-0.245 0.064,-0.477 0.087,-0.732l0.037,0.014c0.007,0.004 0.014,0.008 0.021,0.013l-0.057,-0.49l14.661,-0.332l2.922,-0.063l0.368,0.119l14.529,0.095c0.722,0.013 1.418,0.03 2.099,0.046l0.142,0l0.399,0.01l0.167,0c0.168,0 0.341,0 0.504,0.008c0.396,0.014 0.778,0.023 1.159,0.032c0.127,0 0.259,0 0.381,0.01l0.767,0.019l0.175,0c0.178,0 0.357,0.008 0.535,0.008c0.801,0.019 1.568,0.032 2.309,0.037c1.272,0.008 2.449,-0.01 3.567,-0.06c0.741,-0.036 1.451,-0.087 2.136,-0.157c0.087,-0.008 0.18,-0.014 0.266,-0.025c0.031,-0.004 0.061,-0.011 0.091,-0.023l0.026,-0.008c0.008,0 0.018,0 0.026,-0.01c0.008,-0.008 0.027,-0.012 0.042,-0.018c0.029,-0.012 0.056,-0.026 0.083,-0.043c0.012,-0.007 0.025,-0.011 0.037,-0.02l0.024,-0.018c0.017,-0.011 0.032,-0.023 0.046,-0.037c0.119,-0.119 0.224,-0.224 0.332,-0.337l0.024,-0.024c0.483,-0.488 0.922,-1.019 1.311,-1.587c0.032,-0.048 0.062,-0.097 0.094,-0.144c0.057,-0.086 0.119,-0.173 0.167,-0.261c1.377,-2.328 2.758,-4.663 4.145,-7.008c0.429,-0.724 0.857,-1.446 1.283,-2.168l1.091,-1.845l0.207,-0.35c0.119,-0.198 0.238,-0.396 0.35,-0.596l0.661,-1.121l-9.769,-0.119l-0.01,0l0.008,0l9.769,0.119c0.627,-1.004 1.245,-2.017 1.867,-3.026c3.398,-5.535 6.715,-11.129 9.948,-16.778l0.677,-1.191l2.523,-4.455c3.943,-6.52 7.775,-13.102 11.492,-19.745c0.018,-0.032 0.033,-0.066 0.048,-0.099c0.058,-0.149 0.102,-0.303 0.133,-0.459l-0.163,-0.243Z" style="fill:#e2e3f2;fill-rule:nonzero;"/></svg>