<?xml version="1.0" encoding="UTF-8" standalone="no"?>
<!DOCTYPE svg PUBLIC "-//W3C//DTD SVG 1.1//EN" "http://www.w3.org/Graphics/SVG/1.1/DTD/svg11.dtd">
<svg width="100%" height="100%" viewBox="0 0 188 225" version="1.1" xmlns="http://www.w3.org/2000/svg" xmlns:xlink="http://www.w3.org/1999/xlink" xml:space="preserve" xmlns:serif="http://www.serif.com/" style="fill-rule:evenodd;clip-rule:evenodd;stroke-linejoin:round;stroke-miterlimit:2;">
    <g transform="matrix(1,0,0,1,-13.51138,-230.165985)">
        <path d="M75.193,269.664C73.359,263.498 76.02,257.009 77.692,256.842C79.364,256.675 82.541,265.537 82.541,265.537C82.541,265.537 76.142,272.858 75.193,269.664Z" style="fill:rgb(231,153,103);fill-rule:nonzero;"/>
        <path d="M76.277,268.026C75.155,264.662 77.024,259.428 78.27,259.303C79.516,259.179 81.884,265.783 81.884,265.783C81.884,265.783 77.062,270.382 76.277,268.026Z" style="fill:rgb(196,128,89);fill-rule:nonzero;"/>
        <path d="M49.858,301.95C49.046,301.95 48.258,301.822 47.501,301.541C42.649,299.739 42.959,290.966 43.388,278.823C43.584,273.262 43.807,266.96 43.516,260.629C42.644,241.669 37.317,234.775 37.263,234.708C37.033,234.419 37.08,233.998 37.369,233.768C37.659,233.537 38.079,233.585 38.309,233.874C38.539,234.163 43.961,241.177 44.852,260.568C45.146,266.953 44.922,273.284 44.725,278.87C44.331,290.017 44.019,298.821 47.967,300.287C52.821,302.093 60.124,295.867 64.959,291.75C68.048,289.118 69.712,287.745 70.818,287.745C71.187,287.745 71.487,288.045 71.487,288.414C71.487,288.784 71.187,289.083 70.818,289.083C70.153,289.083 67.854,291.041 65.826,292.768C61.178,296.726 55.044,301.95 49.858,301.95Z" style="fill:rgb(241,99,92);fill-rule:nonzero;"/>
        <path d="M37.786,234.625C35.52,234.625 34.711,232.68 34.599,231.652C34.579,231.468 34.712,231.304 34.895,231.283C35.077,231.261 35.243,231.396 35.264,231.579C35.275,231.676 35.559,233.956 37.786,233.956C40.022,233.956 40.384,231.665 40.398,231.568C40.425,231.385 40.599,231.258 40.777,231.285C40.959,231.311 41.086,231.48 41.06,231.662C40.914,232.687 40.043,234.625 37.786,234.625Z" style="fill:rgb(99,81,84);fill-rule:nonzero;"/>
        <path d="M16.18,286.445C16.941,287.452 17.119,288.599 16.579,289.008C16.039,289.416 14.984,288.931 14.223,287.924C13.462,286.917 13.283,285.77 13.824,285.361C14.364,284.953 15.419,285.438 16.18,286.445Z" style="fill:rgb(99,81,84);fill-rule:nonzero;"/>
        <path d="M16.18,290.599C16.941,289.592 17.119,288.445 16.579,288.037C16.039,287.628 14.984,288.114 14.223,289.121C13.462,290.128 13.283,291.275 13.824,291.683C14.364,292.091 15.419,291.606 16.18,290.599Z" style="fill:rgb(99,81,84);fill-rule:nonzero;"/>
        <rect x="16.093" y="288.021" width="3.121" height="1.003" style="fill:rgb(99,81,84);fill-rule:nonzero;"/>
        <path d="M19.883,353.009C19.329,353.009 18.88,352.559 18.88,352.006L18.88,242.874C18.88,235.867 24.58,230.166 31.588,230.166L102.596,230.166C103.151,230.166 103.6,230.615 103.6,231.17C103.6,231.724 103.151,232.173 102.596,232.173L31.588,232.173C25.687,232.173 20.887,236.973 20.887,242.874L20.887,352.006C20.887,352.559 20.437,353.009 19.883,353.009Z" style="fill:rgb(204,198,192);fill-rule:nonzero;"/>
        <path d="M19.883,353.21C19.218,353.21 18.679,352.671 18.679,352.006L18.679,283.283C18.679,282.618 19.218,282.079 19.883,282.079C20.548,282.079 21.087,282.618 21.087,283.283L21.087,352.006C21.087,352.671 20.548,353.21 19.883,353.21Z" style="fill:rgb(99,81,84);fill-rule:nonzero;"/>
        <rect x="16.539" y="350.719" width="10.334" height="13.756" style="fill:rgb(204,198,192);fill-rule:nonzero;"/>
        <path d="M184.698,445.821C184.698,445.821 186.568,450.479 186.397,452.611C186.255,454.372 183.358,454.875 180.718,454.875C178.077,454.875 176.705,453.699 176.712,452.863C176.73,450.977 180.005,450.348 179.414,446.199L184.698,445.821Z" style="fill:rgb(249,176,157);fill-rule:nonzero;"/>
        <path d="M180.583,452.239C184.838,452.463 185.808,450.375 186.023,449.214C186.368,450.454 186.635,451.749 186.564,452.629C186.417,454.451 183.42,454.971 180.689,454.971C177.957,454.971 176.537,453.755 176.545,452.89C176.552,452.08 177.141,451.492 177.782,450.777C178.064,451.531 178.836,452.147 180.583,452.239Z" style="fill:rgb(99,81,84);fill-rule:nonzero;"/>
        <path d="M161.629,445.044C161.294,449.809 151.315,450.657 151.876,453.112C152.437,455.567 163.706,454.054 164.949,452.448C166.913,449.913 166.58,445.338 166.58,445.338L161.629,445.044Z" style="fill:rgb(249,176,157);fill-rule:nonzero;"/>
        <path d="M155.999,450.05C152.94,451.106 151.283,451.972 151.562,453.192C152.136,455.697 163.821,454.274 165.075,452.621C166.128,451.232 166.117,450.211 166.346,448.979C165.781,450.098 164.442,451.756 161.375,452.146C157.735,452.61 156.439,450.98 155.999,450.05Z" style="fill:rgb(99,81,84);fill-rule:nonzero;"/>
        <path d="M176.949,267.398C176.949,267.398 178.12,268.819 180.377,268.903C182.635,268.987 186.731,267.732 189.992,268.819C192.781,269.749 192.751,271.662 192.751,271.662C192.751,271.662 195.736,271.847 196.931,274.672C197.851,276.845 196.597,278.267 196.597,278.267C196.597,278.267 199.606,279.186 200.442,284.871C201.278,290.557 195.342,292.312 195.342,292.312L176.866,286.46L172.853,271.495L176.949,267.398Z" style="fill:rgb(154,81,74);fill-rule:nonzero;"/>
        <path d="M175.779,264.806C175.779,264.806 178.454,266.478 176.448,270.073C174.441,273.668 171.515,270.993 171.515,270.993L175.779,264.806Z" style="fill:rgb(139,169,141);fill-rule:nonzero;"/>
        <path d="M195.844,325.921L194.841,320.487L191.831,325.921L193.838,327.761L195.844,325.921Z" style="fill:rgb(139,169,141);fill-rule:nonzero;"/>
        <path d="M154.701,364.212C154.701,364.212 150.633,387.789 150.582,393.474C150.53,399.159 156.58,433.437 157.975,445.476C157.975,445.476 164.642,447.817 170.184,445.141C170.184,445.141 171.211,424.24 170.981,412.703C170.752,401.165 168.794,395.815 168.976,394.143C169.159,392.47 178.226,369.897 178.226,369.897L154.701,364.212Z" style="fill:rgb(248,230,221);fill-rule:nonzero;"/>
        <path d="M164.053,446.786C160.701,446.786 158.033,445.87 157.858,445.808C157.674,445.744 157.577,445.543 157.642,445.358C157.706,445.174 157.909,445.076 158.092,445.142C158.156,445.166 164.538,447.352 169.842,444.912C169.948,442.681 170.843,423.484 170.628,412.71C170.476,405.089 169.568,400.179 169.026,397.246C168.734,395.67 168.558,394.719 168.625,394.104C168.81,392.403 177.527,370.689 177.898,369.765C177.971,369.585 178.177,369.5 178.358,369.569C178.538,369.642 178.626,369.847 178.553,370.029C176.036,376.295 169.472,392.848 169.327,394.18C169.272,394.692 169.46,395.71 169.72,397.117C170.267,400.072 171.181,405.017 171.334,412.696C171.561,424.113 170.548,444.95 170.537,445.159C170.531,445.288 170.454,445.403 170.338,445.46C168.254,446.466 166.033,446.786 164.053,446.786Z" style="fill:rgb(212,187,174);fill-rule:nonzero;"/>
        <path d="M196.764,329.6C196.764,329.6 199.287,338.98 199.941,344.314C201.443,356.581 191.936,388.457 191.373,395.146C190.811,401.834 194.469,404.008 188.743,445.309C188.743,445.309 181.86,448.318 175.868,445.309C175.868,445.309 173.237,404.175 172.816,395.313C172.395,386.451 174.358,346.99 174.358,346.99L175.027,331.606L196.764,329.6Z" style="fill:rgb(248,230,221);fill-rule:nonzero;"/>
        <path d="M181.889,447.01C179.935,447.01 177.779,446.664 175.709,445.624C175.597,445.568 175.524,445.456 175.515,445.331C175.489,444.92 172.879,404.094 172.463,395.33C172.046,386.552 173.985,347.367 174.005,346.972C174.015,346.777 174.192,346.604 174.375,346.637C174.57,346.647 174.72,346.812 174.71,347.008C174.691,347.402 172.753,386.552 173.169,395.297C173.569,403.734 176.006,441.927 176.207,445.082C181.935,447.828 188.534,445.013 188.602,444.985C188.78,444.904 188.989,444.988 189.067,445.167C189.145,445.345 189.063,445.553 188.885,445.632C188.695,445.715 185.669,447.01 181.889,447.01Z" style="fill:rgb(212,187,174);fill-rule:nonzero;"/>
        <path d="M162.235,289.888C162.653,289.888 178.204,283.617 178.204,283.617L183.596,280.608C183.596,280.608 186.648,279.855 188.905,280.19L181.882,308.03L162.737,308.281L162.235,289.888Z" style="fill:rgb(139,169,141);fill-rule:nonzero;"/>
        <path d="M114.204,324.877C118.551,326.131 120.725,325.964 123.484,327.385C126.243,328.806 135.842,335.527 146.413,333.827C156.485,332.206 162.318,316.039 162.318,316.039L152.16,309.159C152.16,309.159 144.908,321.369 142.985,322.373C141.062,323.376 128.667,321.449 121.561,319.777C114.454,318.105 110.859,321.365 110.859,321.365L114.204,324.877Z" style="fill:rgb(247,155,137);fill-rule:nonzero;"/>
        <path d="M161.065,290.473C159.476,291.476 153.791,294.235 146.601,312.21C146.601,312.21 149.862,318.648 161.232,317.979L165.412,298.332L161.065,290.473Z" style="fill:rgb(139,169,141);fill-rule:nonzero;"/>
        <path d="M95.881,309.423C95.881,309.423 97.553,315.554 99.225,316.446C100.897,317.338 107.474,313.548 114.274,313.882C121.074,314.217 128.098,320.665 125.644,323.58C123.61,325.998 117.841,320.348 113.94,320.793C110.038,321.239 107.028,321.351 101.678,323.692C96.326,326.033 90.641,326.256 87.52,321.574C84.399,316.892 95.881,309.423 95.881,309.423Z" style="fill:rgb(240,215,203);fill-rule:nonzero;"/>
        <path d="M68.66,327.761C68.66,327.761 80.191,317.226 87.671,326.088C95.151,334.951 85.022,347.157 85.022,347.157C85.022,347.157 97.488,347.157 98.111,350.167C98.735,353.176 84.399,352.006 73.647,352.006C62.894,352.006 54.636,351.003 54.636,338.964C54.636,329.085 68.66,327.761 68.66,327.761Z" style="fill:rgb(214,131,83);fill-rule:nonzero;"/>
        <path d="M82.03,267.638C81.479,262.994 84.518,256.343 85.886,256.376C87.253,256.408 88.514,265.552 88.514,265.552C88.514,265.552 82.416,270.89 82.03,267.638Z" style="fill:rgb(196,128,89);fill-rule:nonzero;"/>
        <path d="M172.445,270.936C172.445,270.936 180.701,264.007 173.254,252.272C166.78,242.072 152.912,244.481 149.156,253.17C144.009,257.402 147.795,267.775 152.22,269.759C156.644,271.743 172.445,270.936 172.445,270.936Z" style="fill:rgb(154,81,74);fill-rule:nonzero;"/>
        <path d="M177.965,279.066C176.728,277.247 173.024,271.061 172.746,265.177L167.92,267.482L165.311,281.068C165.311,281.068 165.899,282.909 165.84,283.96C165.84,283.96 165.813,287.646 171.533,286.24C178.092,284.628 179.04,280.649 177.965,279.066Z" style="fill:rgb(236,133,124);fill-rule:nonzero;"/>
        <path d="M165.844,283.815C165.914,285.54 166.128,287.709 163.573,288.801C163.573,288.801 164.049,293.152 172.614,290.408C180.93,287.745 182.392,280.832 182.392,280.832C182.392,280.832 180.126,282.029 177.965,279.066C175.288,285.516 167.158,285.809 165.844,283.815Z" style="fill:rgb(247,155,137);fill-rule:nonzero;"/>
        <path d="M164.921,281.196C166.117,280.835 171.802,276.709 171.346,268.731C171.103,264.471 169.255,260.087 167.418,257.766C165.58,255.445 158.702,248.739 151.936,255.394C151.936,255.394 146.475,260.837 151.832,271.208C156.648,280.532 163.583,281.601 164.921,281.196Z" style="fill:rgb(249,176,157);fill-rule:nonzero;"/>
        <path d="M149.636,255.632C151.451,261.556 162.979,255.633 166.446,260.394C167.54,261.732 167.927,263.057 169.701,262.585L170.736,259.562C170.736,259.562 169.206,253.452 163.415,250.335C157.632,247.222 149.005,250.807 149.636,255.632Z" style="fill:rgb(154,81,74);fill-rule:nonzero;"/>
        <path d="M169.284,262.592C169.284,262.592 169.018,258.872 171.61,259.429C173.861,259.912 174.407,266.168 170.286,266.504L169.284,262.592Z" style="fill:rgb(249,176,157);fill-rule:nonzero;"/>
        <path d="M154.135,264.949C154.191,265.53 153.187,265.428 151.785,266.658C150.82,267.505 150.864,268.681 150.575,268.52C150.266,268.347 149.79,267.031 151.216,265.605C152.677,264.146 154.061,264.184 154.135,264.949Z" style="fill:rgb(154,81,74);fill-rule:nonzero;"/>
        <path d="M158.582,262.934C158.906,263.563 160.056,262.44 161.999,262.347C164.018,262.249 164.927,263.123 165.175,262.69C165.301,262.469 164.093,260.912 161.506,261.097C159.204,261.261 158.257,262.303 158.582,262.934Z" style="fill:rgb(154,81,74);fill-rule:nonzero;"/>
        <path d="M172.353,262.814C172.315,263.817 171.752,264.511 171.271,264.373C170.79,264.235 170.431,263.31 170.469,262.306C170.508,261.303 170.929,260.602 171.41,260.74C171.891,260.878 172.392,261.811 172.353,262.814Z" style="fill:rgb(236,133,124);fill-rule:nonzero;"/>
        <path d="M160.018,273.519C160.018,273.519 159.856,273.571 159.546,273.647C159.217,273.718 158.759,273.806 158.164,273.75C157.869,273.721 157.541,273.643 157.21,273.477C157.047,273.387 156.88,273.285 156.729,273.135C156.655,273.059 156.576,272.983 156.518,272.876L156.435,272.706L156.399,272.604L156.378,272.517L156.375,272.502L156.373,272.495L156.365,272.403L156.431,272.122L156.505,271.975L156.644,271.743L156.903,271.315C157.068,271.031 157.214,270.736 157.329,270.432C157.56,269.824 157.64,269.173 157.543,268.574C157.449,267.974 157.187,267.444 156.91,267.025C156.63,266.604 156.331,266.295 156.123,266.08C155.903,265.874 155.778,265.756 155.778,265.756L155.771,265.75L155.764,265.529L155.975,265.514C155.975,265.514 156.115,265.626 156.359,265.822C156.594,266.03 156.934,266.329 157.273,266.761C157.608,267.192 157.953,267.762 158.119,268.458C158.29,269.15 158.253,269.942 158.04,270.665C157.934,271.026 157.793,271.375 157.637,271.701L157.4,272.171L157.295,272.381L157.262,272.46C157.274,272.461 157.277,272.319 157.273,272.418C157.259,272.248 157.269,272.371 157.266,272.333L157.267,272.333L157.268,272.334L157.269,272.334L157.271,272.335L157.279,272.348L157.309,272.393L157.391,272.512C157.453,272.597 157.546,272.671 157.638,272.74C157.832,272.87 158.059,272.961 158.283,273.01C158.732,273.111 159.159,273.088 159.432,273.061C159.726,273.027 159.904,272.993 159.904,272.993C160.05,272.966 160.191,273.063 160.218,273.209C160.243,273.344 160.163,273.474 160.035,273.514L160.018,273.519Z" style="fill:rgb(237,134,124);fill-rule:nonzero;"/>
        <path d="M155.291,268.3C155.291,268.3 155.162,269.346 154.016,269.842C153.12,270.229 152.923,269.525 152.251,269.611C151.977,269.646 151.626,270.075 151.708,270.534C151.708,270.534 151.858,270.141 152.258,270.272C152.581,270.378 153.468,271.142 154.403,270.653C155.537,270.06 155.633,269.019 155.291,268.3Z" style="fill:rgb(99,81,84);fill-rule:nonzero;"/>
        <path d="M160.157,266.155C160.157,266.155 161.103,266.836 162.361,266.169C163.197,265.726 163.174,265.106 163.689,264.651C163.927,264.441 164.529,264.369 164.896,264.751C164.896,264.751 164.435,264.631 164.291,265.095C164.175,265.47 163.886,266.598 162.849,267.072C161.737,267.581 160.631,267.102 160.157,266.155Z" style="fill:rgb(99,81,84);fill-rule:nonzero;"/>
        <path d="M165.168,272.491C165.168,272.491 163.713,273.713 162.015,274.785C160.413,275.796 158.892,276.279 158.892,276.279C158.892,276.279 160.481,278.355 163.368,276.476C165.553,275.053 165.168,272.491 165.168,272.491Z" style="fill:rgb(99,81,84);fill-rule:nonzero;"/>
        <path d="M163.128,275.979C161.46,277.064 160.528,276.262 160.528,276.262C160.528,276.262 161.541,275.789 162.713,274.987C164.202,273.969 164.632,273.574 164.632,273.574C164.632,273.574 164.754,274.921 163.128,275.979Z" style="fill:rgb(245,242,248);fill-rule:nonzero;"/>
        <path d="M76.261,267.398C73.92,271.077 73.1,277.648 70.576,288.689C68.793,296.492 61.658,302.289 54.078,315.22C46.498,328.151 44.715,336.344 45.606,342.586C46.498,348.829 62.327,345.986 67.455,339.521C72.583,333.056 86.405,328.597 91.533,320.793C96.661,312.99 96.661,307.194 96.661,304.073C96.661,300.951 89.051,290.688 91.087,283.562C91.533,282.001 101.193,282.331 102.026,279.248C104.443,278.581 105.022,274.086 104.353,273.418C103.684,272.749 98.077,270.961 95.068,269.289C92.495,267.86 91.254,264.277 83.73,264.277C78.044,264.277 76.261,267.398 76.261,267.398Z" style="fill:rgb(248,230,221);fill-rule:nonzero;"/>
        <path d="M102.026,279.248C104.443,278.581 105.022,274.086 104.353,273.418C103.684,272.749 98.077,270.961 95.068,269.289C92.495,267.86 91.28,264.102 83.755,264.102C78.069,264.102 76.13,267.414 76.13,267.414C73.919,270.89 73.193,276.936 70.978,286.905C72.341,288.535 75.556,291.037 82.276,290.581C85.441,290.366 88.515,290.117 91.235,289.878C90.707,287.679 90.532,285.503 91.087,283.562C91.533,282.001 101.193,282.331 102.026,279.248Z" style="fill:rgb(231,153,103);fill-rule:nonzero;"/>
        <path d="M104.353,273.418C103.684,272.749 98.077,270.961 95.068,269.289C93.369,268.345 92.26,266.238 89.536,265.164C89.02,265.454 93.773,268.658 96.175,273.934C96.963,276.597 98.414,279.223 101.952,279.406L102.026,279.248C104.443,278.581 105.022,274.086 104.353,273.418Z" style="fill:rgb(248,230,221);fill-rule:nonzero;"/>
        <path d="M104.353,273.668L104.176,273.594C103.905,273.323 102.502,272.808 101.016,272.263C99.15,271.579 96.828,270.727 95.196,269.821C94.467,269.415 93.784,268.781 93.061,268.109C92.051,267.171 90.907,266.108 89.348,265.391C89.223,265.334 89.168,265.185 89.226,265.06C89.284,264.933 89.432,264.879 89.557,264.937C91.188,265.687 92.364,266.779 93.401,267.742C94.101,268.393 94.763,269.008 95.439,269.383C97.037,270.271 99.339,271.115 101.189,271.794C103.099,272.495 104.197,272.908 104.53,273.241C104.627,273.339 104.627,273.497 104.53,273.594L104.353,273.668Z" style="fill:rgb(212,187,174);fill-rule:nonzero;"/>
        <path d="M52.629,350.937C44.316,353.234 31.831,350.719 29.481,340.139C27.882,332.944 29.538,327.926 35.187,324.094C39.241,321.344 44.912,322.065 47.753,325.027C51.691,329.133 50.668,333.517 50.191,333.612C49.253,333.798 48.878,329.133 44.377,328.013C39.876,326.893 33.197,330.652 35.407,338.619C37.449,345.986 46.44,347.204 49.253,345.711L52.629,350.937Z" style="fill:rgb(231,153,103);fill-rule:nonzero;"/>
        <path d="M51.207,351.272L50.318,350.289C50.318,350.289 36.818,350.789 32.693,344.039C28.656,337.434 29.651,330.955 32.037,326.815C28.977,330.248 28.234,334.53 29.481,340.139C31.7,350.132 42.959,352.928 51.207,351.272Z" style="fill:rgb(240,215,203);fill-rule:nonzero;"/>
        <path d="M160.981,290.264L164.325,288.313C164.325,288.313 162.833,295.503 162.61,302.414L177.813,297.496C177.813,297.496 178.245,286.711 180.921,280.942L184.126,280.44C184.126,280.44 179.931,293.929 185.394,304.407L192.528,326.367L196.206,325.252L197.21,329.488L193.308,331.272C193.308,331.272 193.633,356.955 188.276,369.581C183.61,380.581 173.276,382.581 163.61,381.248C156.488,380.265 153.254,375.023 152.943,371.914C152.276,365.248 153.768,356.831 156.443,348.248C159.118,339.664 162.892,333.299 162.61,329.081C162.233,323.451 159.488,319.96 158.417,312.21C157.11,302.748 160.981,290.264 160.981,290.264Z" style="fill:rgb(99,81,84);fill-rule:nonzero;"/>
        <path d="M139.829,306.776C138.575,308.782 140.916,312.043 142.839,315.136C144.762,318.23 147.688,321.908 149.026,321.239C150.363,320.571 146.267,315.805 145.096,314.133C143.926,312.461 142.649,310.228 143.591,309.368C144.448,308.585 146.601,309.284 148.691,310.705C150.781,312.127 154.627,314.217 155.212,312.963C155.798,311.708 150.948,308.782 148.524,307.695C146.099,306.609 141.539,304.039 139.829,306.776Z" style="fill:rgb(99,81,84);fill-rule:nonzero;"/>
        <path d="M141.585,306.274C141.585,307.059 140.948,307.695 140.163,307.695C139.379,307.695 138.742,307.059 138.742,306.274C138.742,305.489 139.379,304.853 140.163,304.853C140.948,304.853 141.585,305.489 141.585,306.274Z" style="fill:rgb(204,198,192);fill-rule:nonzero;"/>
        <path d="M137.683,301.007C137.459,301.007 139.03,305.519 139.03,305.519L134.451,304.24C134.451,306.025 135.898,307.473 137.683,307.473C139.469,307.473 140.916,306.025 140.916,304.24C140.916,302.454 139.469,301.007 137.683,301.007Z" style="fill:rgb(204,198,192);fill-rule:nonzero;"/>
        <path d="M59.296,329.433C59.296,329.433 70.828,318.898 78.307,327.761C85.787,336.623 75.658,348.829 75.658,348.829C75.658,348.829 88.124,348.829 88.748,351.839C89.371,354.848 75.035,353.678 64.283,353.678C53.531,353.678 45.272,352.675 45.272,340.636C45.774,335.787 59.296,329.433 59.296,329.433Z" style="fill:rgb(231,153,103);fill-rule:nonzero;"/>
        <path d="M110.197,321.22C110.197,320.62 110.346,319.369 110.858,318.401C111.551,317.092 113.029,315.295 113.74,315.594C114.528,315.926 113.234,317.485 112.916,318.738C112.66,319.75 112.829,320.685 113.141,320.908C113.471,321.144 113.831,320.075 114.444,318.7C115.128,317.168 117.012,314.776 118.081,315.332C119.017,315.819 117.557,316.866 116.846,319C116.463,320.15 116.659,321.145 116.921,321.32C117.21,321.513 117.747,320.517 118.455,319.636C119.212,318.694 120.613,317.313 121.075,317.802C121.711,318.476 119.915,319.711 119.353,321.919C119.078,323.003 119.565,324.364 118.78,324.813C116.684,326.01 110.197,324.513 110.197,321.22Z" style="fill:rgb(249,176,157);fill-rule:nonzero;"/>
        <path d="M156.946,310.615C155.653,310.074 153.523,308.696 151.513,307.725C149.078,306.547 147.712,305.214 146.267,305.856C144.821,306.498 147.437,307.779 145.347,309.786C144.109,310.974 139.818,311.364 140.246,313.238C140.515,314.415 142.093,313.987 142.093,313.987C142.093,313.987 141.13,314.994 141.798,316.182C142.28,317.038 143.725,316.663 143.725,316.663C143.725,316.663 143.172,317.486 143.779,318.162C145.17,319.714 151.318,317.289 154.943,318.414C157.95,319.348 166.259,324.505 174.931,326.673C183.602,328.841 190.346,329.563 192.835,327.235C195.324,324.906 199.418,314.951 198.134,300.338L185.368,302.185C185.368,302.185 185.047,313.505 184.324,314.549C183.602,315.593 163.851,313.505 156.946,310.615Z" style="fill:rgb(249,176,157);fill-rule:nonzero;"/>
        <path d="M187.451,329.031C184.385,329.031 180.226,328.361 174.845,327.015C169.067,325.571 163.515,322.84 159.461,320.845C157.431,319.847 155.828,319.059 154.839,318.752C153.139,318.225 150.787,318.52 148.712,318.781C146.371,319.075 144.35,319.329 143.515,318.398C143.138,317.977 143.097,317.492 143.178,317.094C142.624,317.123 141.864,317.018 141.491,316.355C141.06,315.59 141.195,314.844 141.45,314.316C140.894,314.213 140.283,313.883 140.099,313.076C140.055,312.886 140.174,312.697 140.365,312.654C140.551,312.609 140.744,312.729 140.787,312.919C140.977,313.748 141.936,313.65 142.047,313.637C142.194,313.617 142.34,313.695 142.407,313.828C142.474,313.962 142.451,314.123 142.348,314.231C142.317,314.264 141.578,315.07 142.106,316.009C142.443,316.607 143.626,316.324 143.637,316.321C143.778,316.287 143.929,316.34 144.013,316.46C144.098,316.579 144.1,316.739 144.018,316.861C144.004,316.883 143.63,317.468 144.042,317.927C144.629,318.583 146.569,318.339 148.623,318.08C150.77,317.811 153.204,317.505 155.048,318.077C156.09,318.401 157.715,319.2 159.772,320.212C163.798,322.192 169.311,324.904 175.016,326.33C184.717,328.755 190.466,328.967 192.594,326.977C194.772,324.938 199.104,315.408 197.782,300.369C197.764,300.175 197.908,300.003 198.103,299.986C198.287,299.974 198.468,300.113 198.486,300.307C199.712,314.254 195.982,324.774 193.076,327.492C191.98,328.518 190.134,329.031 187.451,329.031Z" style="fill:rgb(236,133,124);fill-rule:nonzero;"/>
        <path d="M182.943,306.081C182.943,306.081 195.094,308.426 200.11,304.748C200.11,304.748 198.943,279.414 188.069,280.106C180.276,279.914 183.11,296.748 182.943,306.081Z" style="fill:rgb(139,169,141);fill-rule:nonzero;"/>
        <path d="M124.8,323.948C124.683,323.948 124.579,323.866 124.555,323.747C124.335,322.645 123.305,322.266 123.295,322.262C123.165,322.216 123.097,322.073 123.143,321.943C123.19,321.812 123.332,321.744 123.463,321.791C123.516,321.81 124.77,322.273 125.045,323.65C125.072,323.785 124.985,323.917 124.849,323.944L124.8,323.948Z" style="fill:rgb(99,81,84);fill-rule:nonzero;"/>
        <path d="M125.922,322.518C125.812,322.518 125.712,322.446 125.681,322.335C125.401,321.324 124.517,320.84 124.508,320.835C124.386,320.769 124.341,320.618 124.406,320.496C124.471,320.374 124.624,320.33 124.744,320.394C124.789,320.418 125.826,320.988 126.163,322.201C126.2,322.334 126.122,322.472 125.989,322.509L125.922,322.518Z" style="fill:rgb(99,81,84);fill-rule:nonzero;"/>
        <path d="M37.656,238.238C36.491,244.415 35.568,251.96 36.817,253.523C36.938,253.674 37.03,253.687 37.106,253.687C37.193,253.687 37.301,253.664 37.444,253.497C38.799,251.912 38.396,244.4 37.656,238.238ZM37.106,255.025C36.582,255.025 36.121,254.794 35.773,254.359C33.347,251.326 36.739,235.893 37.134,234.144C37.204,233.83 37.489,233.595 37.808,233.622C38.129,233.633 38.397,233.869 38.447,234.187C38.722,235.931 41.061,251.323 38.461,254.366C38.093,254.797 37.624,255.025 37.106,255.025Z" style="fill:rgb(241,99,92);fill-rule:nonzero;"/>
        <path d="M38.889,235.796L38.687,235.764C37.249,235.307 36.306,233.881 36.267,233.82C36.065,233.511 36.152,233.098 36.461,232.896C36.769,232.696 37.183,232.78 37.386,233.088C37.393,233.099 38.115,234.178 39.092,234.489C39.444,234.601 39.639,234.977 39.527,235.329C39.436,235.614 39.173,235.796 38.889,235.796Z" style="fill:rgb(241,99,92);fill-rule:nonzero;"/>
        <path d="M36.661,235.629C36.424,235.629 36.195,235.503 36.074,235.281C35.896,234.957 36.015,234.551 36.339,234.373C36.35,234.367 37.457,233.753 38.139,232.877C38.366,232.585 38.785,232.531 39.077,232.76C39.368,232.986 39.421,233.406 39.194,233.698C38.338,234.799 37.035,235.517 36.98,235.547C36.879,235.602 36.769,235.629 36.661,235.629Z" style="fill:rgb(241,99,92);fill-rule:nonzero;"/>
        <path d="M70.019,290.361L71.245,285.457C71.245,285.457 78.937,291.253 91.087,287.798L92.202,292.368C92.202,292.368 79.717,295.824 70.019,290.361Z" style="fill:rgb(99,81,84);fill-rule:nonzero;"/>
        <path d="M168.138,258.55L167.926,258.454C166.533,256.894 164.343,256.418 162.751,256.294C161.708,256.213 160.635,256.243 159.598,256.27C158.68,256.295 157.732,256.322 156.794,256.271C154.32,256.139 152.411,255.443 151.123,254.2C151.01,254.091 151.007,253.911 151.116,253.798C151.224,253.684 151.405,253.681 151.519,253.79C152.706,254.934 154.491,255.577 156.824,255.701C157.739,255.75 158.676,255.725 159.582,255.7C160.634,255.672 161.721,255.642 162.795,255.726C164.491,255.858 166.832,256.373 168.351,258.074C168.456,258.192 168.446,258.372 168.328,258.477L168.138,258.55Z" style="fill:rgb(133,64,64);fill-rule:nonzero;"/>
        <path d="M170.66,257.836C170.564,257.836 170.47,257.787 170.416,257.699C169.637,256.425 168.231,255.54 166.745,255.389C166.589,255.373 166.475,255.233 166.491,255.076C166.507,254.919 166.643,254.802 166.803,254.822C168.462,254.99 170.033,255.979 170.903,257.402C170.985,257.536 170.942,257.712 170.808,257.794L170.66,257.836Z" style="fill:rgb(133,64,64);fill-rule:nonzero;"/>
        <path d="M167.522,249.317L167.352,249.26C164.374,247.046 160.033,246.766 156.797,248.582C156.659,248.66 156.486,248.609 156.409,248.472C156.332,248.335 156.381,248.161 156.518,248.085C159.944,246.162 164.539,246.458 167.692,248.803C167.819,248.897 167.845,249.076 167.751,249.202L167.522,249.317Z" style="fill:rgb(133,64,64);fill-rule:nonzero;"/>
        <path d="M174.324,264.881L174.238,264.867C174.087,264.82 174.004,264.66 174.052,264.51C174.98,261.581 174.31,258.163 172.344,255.802C172.243,255.681 172.26,255.502 172.381,255.401C172.502,255.302 172.68,255.316 172.783,255.437C174.869,257.944 175.581,261.573 174.595,264.682C174.557,264.803 174.445,264.881 174.324,264.881Z" style="fill:rgb(133,64,64);fill-rule:nonzero;"/>
        <path d="M191.188,274.375C191.035,274.375 190.908,274.254 190.904,274.1C190.85,272.542 189.24,271.453 187.752,271.219C186.598,271.036 185.393,271.203 184.229,271.366C183.761,271.431 183.294,271.495 182.826,271.54C180.616,271.752 178.951,271.32 177.888,270.26C177.776,270.149 177.776,269.968 177.887,269.857C177.998,269.744 178.178,269.744 178.29,269.856C179.228,270.791 180.735,271.167 182.773,270.972C183.231,270.928 183.691,270.865 184.151,270.801C185.357,270.634 186.605,270.463 187.841,270.656C189.553,270.925 191.409,272.217 191.473,274.08C191.479,274.238 191.355,274.369 191.198,274.375L191.188,274.375Z" style="fill:rgb(133,64,64);fill-rule:nonzero;"/>
        <path d="M194.019,276.75L193.862,276.702C193.731,276.615 193.695,276.438 193.783,276.307C194.088,275.849 194.156,275.219 193.965,274.623C193.774,274.027 193.353,273.553 192.838,273.357C192.691,273.301 192.617,273.136 192.673,272.989C192.729,272.842 192.892,272.766 193.041,272.824C193.716,273.082 194.264,273.689 194.508,274.449C194.751,275.209 194.658,276.022 194.257,276.623C194.202,276.705 194.112,276.75 194.019,276.75Z" style="fill:rgb(133,64,64);fill-rule:nonzero;"/>
        <path d="M197.979,287.55L197.858,287.522C197.715,287.455 197.654,287.285 197.721,287.143C198.451,285.591 198.237,283.636 197.188,282.278C197.092,282.154 197.115,281.974 197.239,281.878C197.363,281.782 197.543,281.804 197.639,281.929C198.815,283.452 199.055,285.645 198.237,287.386C198.188,287.489 198.086,287.55 197.979,287.55Z" style="fill:rgb(133,64,64);fill-rule:nonzero;"/>
        <path d="M189.037,278.665L188.997,278.662C188.842,278.641 188.733,278.497 188.755,278.341C188.958,276.884 187.726,275.566 186.464,275.066C185.042,274.503 183.402,274.613 181.955,274.71C181.803,274.728 181.662,274.602 181.652,274.445C181.641,274.287 181.76,274.152 181.917,274.141C183.427,274.04 185.134,273.926 186.674,274.536C188.175,275.131 189.566,276.656 189.319,278.42C189.299,278.562 189.177,278.665 189.037,278.665Z" style="fill:rgb(133,64,64);fill-rule:nonzero;"/>
        <path d="M182.685,277.904C180.419,277.904 178.228,276.559 177.209,274.532C177.138,274.391 177.195,274.22 177.336,274.149C177.474,274.08 177.647,274.135 177.719,274.276C178.656,276.14 180.693,277.359 182.772,277.333C182.921,277.32 183.059,277.456 183.062,277.614C183.065,277.771 182.939,277.901 182.782,277.904L182.685,277.904Z" style="fill:rgb(133,64,64);fill-rule:nonzero;"/>
        <path d="M164.875,340.527C164.226,342.208 160.621,352.135 163.988,357.003C165.306,358.908 167.573,359.825 170.759,359.725C184.869,359.285 186.029,342.136 186.122,339.118L164.875,340.527ZM170.298,360.581C167.068,360.581 164.712,359.54 163.29,357.484C159.362,351.802 163.989,340.441 164.188,339.96C164.249,339.81 164.39,339.71 164.552,339.699L186.526,338.242C186.64,338.228 186.757,338.274 186.842,338.354C186.928,338.433 186.977,338.544 186.978,338.661C186.98,338.875 187.01,360.066 170.785,360.573C170.621,360.578 170.458,360.581 170.298,360.581Z" style="fill:rgb(77,67,68);fill-rule:nonzero;"/>
        <path d="M155.885,396.765L155.695,396.71C155.531,396.604 155.482,396.386 155.588,396.221C156.655,394.553 157.253,392.549 157.274,390.577C157.276,390.384 157.434,390.227 157.627,390.227L157.631,390.227C157.826,390.229 157.982,390.389 157.98,390.585C157.958,392.687 157.32,394.824 156.182,396.602C156.115,396.708 156.001,396.765 155.885,396.765Z" style="fill:rgb(212,187,174);fill-rule:nonzero;"/>
        <path d="M177.854,397.472L177.647,397.405C175.388,395.762 174.413,392.641 175.329,389.983C175.393,389.799 175.593,389.702 175.779,389.764C175.963,389.828 176.061,390.029 175.997,390.214C175.193,392.547 176.08,395.393 178.062,396.833C178.22,396.948 178.255,397.169 178.14,397.327C178.072,397.422 177.964,397.472 177.854,397.472Z" style="fill:rgb(212,187,174);fill-rule:nonzero;"/>
        <path d="M183.267,395.459L183.065,395.394C182.906,395.283 182.866,395.062 182.979,394.903C183.706,393.863 184.138,392.648 184.226,391.388C184.24,391.193 184.397,391.066 184.603,391.06C184.798,391.074 184.944,391.243 184.931,391.437C184.833,392.825 184.359,394.164 183.557,395.307C183.489,395.406 183.379,395.459 183.267,395.459Z" style="fill:rgb(212,187,174);fill-rule:nonzero;"/>
        <path d="M142.093,314.341C141.944,314.341 141.806,314.246 141.757,314.098C141.696,313.913 141.797,313.713 141.982,313.652C142.022,313.638 142.981,313.322 143.983,313.072C144.166,313.029 144.364,313.139 144.411,313.329C144.458,313.518 144.343,313.71 144.154,313.757C143.179,314.001 142.213,314.319 142.203,314.323L142.093,314.341Z" style="fill:rgb(236,133,124);fill-rule:nonzero;"/>
        <path d="M143.725,317.016C143.563,317.016 143.417,316.905 143.381,316.74C143.338,316.549 143.459,316.361 143.649,316.319C143.657,316.317 144.478,316.134 145.135,315.895C145.319,315.83 145.521,315.923 145.588,316.106C145.654,316.289 145.56,316.492 145.376,316.559C144.675,316.814 143.837,317 143.802,317.008L143.725,317.016Z" style="fill:rgb(236,133,124);fill-rule:nonzero;"/>
        <path d="M190.285,326.311C190.123,326.311 189.976,326.198 189.941,326.033C189.9,325.842 190.021,325.654 190.211,325.613C190.949,325.454 191.611,324.932 191.938,324.252C192.023,324.076 192.233,324.002 192.41,324.087C192.586,324.171 192.659,324.383 192.575,324.558C192.155,325.431 191.306,326.099 190.361,326.303L190.285,326.311Z" style="fill:rgb(236,133,124);fill-rule:nonzero;"/>
        <path d="M190.55,307.315C186.461,307.315 183.101,306.482 182.857,306.42C182.67,306.372 182.556,306.182 182.604,305.995C182.652,305.807 182.84,305.691 183.029,305.741C183.133,305.767 193.467,308.324 199.929,304.448C200.097,304.349 200.311,304.402 200.41,304.568C200.509,304.734 200.455,304.948 200.29,305.048C197.352,306.811 193.73,307.315 190.55,307.315Z" style="fill:rgb(106,138,110);fill-rule:nonzero;"/>
        <path d="M105.526,273.331C105.86,274.164 104.957,276.524 104.076,276.585C102.865,276.669 100.628,273.852 101.526,272.581C101.95,271.982 105.155,272.403 105.526,273.331Z" style="fill:rgb(77,67,68);fill-rule:nonzero;"/>
        <path d="M87.204,271.514C87.295,272.066 87.817,272.438 88.37,272.346C88.924,272.253 89.299,271.731 89.208,271.179C89.117,270.628 88.595,270.255 88.042,270.348C87.489,270.44 87.114,270.963 87.204,271.514Z" style="fill:rgb(77,67,68);fill-rule:nonzero;"/>
        <path d="M86.132,270.016L85.986,269.969C85.874,269.889 85.848,269.733 85.929,269.621C86.553,268.747 87.807,268.415 88.781,268.866C88.907,268.924 88.961,269.073 88.903,269.198C88.845,269.323 88.698,269.378 88.571,269.32C87.819,268.971 86.817,269.238 86.335,269.912L86.132,270.016Z" style="fill:rgb(77,67,68);fill-rule:nonzero;"/>
        <path d="M98.791,279.898C96.733,279.898 94.486,279.455 93.032,278.231C92.926,278.141 92.912,277.984 93.001,277.878C93.091,277.772 93.248,277.759 93.354,277.848C95.546,279.694 99.705,279.636 101.959,279.007C103.853,278.477 104.108,275.672 104.111,275.643C104.122,275.506 104.245,275.41 104.381,275.415C104.518,275.427 104.62,275.548 104.609,275.685C104.598,275.815 104.319,278.865 102.094,279.489C101.206,279.737 100.033,279.898 98.791,279.898Z" style="fill:rgb(77,67,68);fill-rule:nonzero;"/>
        <path d="M90.859,288.081C90.74,288.081 90.635,287.996 90.613,287.875C90.014,284.536 90.362,283.818 90.919,283.168C91.473,282.522 91.748,282.202 96.326,281.583C100.165,281.065 101.3,280.2 101.635,279.731C101.815,279.478 101.785,279.314 101.784,279.307C101.758,279.176 101.839,279.042 101.969,279.01C102.099,278.977 102.23,279.05 102.267,279.179C102.277,279.215 102.359,279.54 102.08,279.966C101.64,280.638 100.296,281.552 96.393,282.078C92.003,282.672 91.756,282.96 91.307,283.484C90.926,283.929 90.502,284.424 91.105,287.787C91.13,287.923 91.039,288.052 90.903,288.077L90.859,288.081Z" style="fill:rgb(77,67,68);fill-rule:nonzero;"/>
        <path d="M92.693,278.789L92.554,278.747C92.439,278.671 92.408,278.515 92.485,278.401L93.235,277.276C93.312,277.161 93.467,277.13 93.581,277.206C93.696,277.283 93.727,277.438 93.651,277.553L92.901,278.678L92.693,278.789Z" style="fill:rgb(77,67,68);fill-rule:nonzero;"/>
        <path d="M77.068,325.789C77.068,325.789 82.395,322.812 85.253,316.79C80.831,307.769 76.127,295.002 69.037,292.934C66.097,298.921 60.235,304.717 54.078,315.22C47.487,326.464 45.281,334.123 45.404,340.035C45.404,340.035 44.568,349.914 51.187,351.882C57.903,352.2 70.212,349.176 75.958,348.447C77.403,346.551 83.501,337.856 79.982,330.357C79.982,330.357 78.359,326.831 77.068,325.789Z" style="fill:rgb(231,153,103);fill-rule:nonzero;"/>
        <path d="M94.599,308.699C94.599,308.699 94.933,313.882 96.772,325.42C98.612,336.957 101.622,347.324 102.625,348.494C103.628,349.665 106.838,350.348 107.14,352.508C107.36,354.081 98.193,354.248 97.526,352.414C96.54,349.702 93.199,339.017 91.193,332.998C89.186,326.978 85.568,318.539 84.193,314.164C82.806,309.752 94.599,308.699 94.599,308.699Z" style="fill:rgb(248,230,221);fill-rule:nonzero;"/>
        <path d="M58.109,322.081L57.889,321.95C57.824,321.828 57.869,321.677 57.99,321.611C60.308,320.357 63.121,321.039 64.593,321.557C64.723,321.603 64.792,321.745 64.746,321.876C64.7,322.006 64.558,322.076 64.427,322.029C63.033,321.538 60.376,320.888 58.228,322.051L58.109,322.081Z" style="fill:rgb(196,128,89);fill-rule:nonzero;"/>
        <path d="M35.153,330.473L35.019,330.434C34.903,330.361 34.868,330.206 34.942,330.089C36.641,327.402 40.136,325.917 43.248,326.566C43.383,326.594 43.47,326.726 43.442,326.861C43.414,326.997 43.281,327.087 43.146,327.055C40.227,326.449 36.956,327.838 35.365,330.357L35.153,330.473Z" style="fill:rgb(196,128,89);fill-rule:nonzero;"/>
        <path d="M45.277,326.912L45.143,326.874C43.772,326.007 42.076,325.716 40.497,326.073C40.36,326.104 40.228,326.018 40.199,325.884C40.168,325.749 40.252,325.615 40.387,325.585C42.096,325.198 43.928,325.514 45.411,326.451C45.528,326.525 45.562,326.679 45.489,326.796L45.277,326.912Z" style="fill:rgb(196,128,89);fill-rule:nonzero;"/>
        <path d="M33.351,330.995L33.288,330.987C33.154,330.952 33.074,330.816 33.109,330.682C33.348,329.762 33.929,328.915 34.701,328.36C34.812,328.28 34.969,328.305 35.05,328.417C35.13,328.53 35.105,328.686 34.993,328.766C34.314,329.255 33.804,329.999 33.593,330.808C33.564,330.921 33.462,330.995 33.351,330.995Z" style="fill:rgb(196,128,89);fill-rule:nonzero;"/>
        <path d="M44.656,347.341C43.585,347.341 42.508,347.135 41.514,346.738C41.385,346.686 41.323,346.541 41.374,346.413C41.425,346.285 41.571,346.224 41.699,346.273C42.77,346.702 43.943,346.896 45.095,346.828C45.251,346.836 45.351,346.927 45.359,347.064C45.367,347.202 45.261,347.32 45.123,347.328C44.968,347.337 44.811,347.341 44.656,347.341Z" style="fill:rgb(196,128,89);fill-rule:nonzero;"/>
        <path d="M51.109,351.915L51.038,351.904C44.3,349.901 45.145,340.11 45.155,340.011C45.016,333.39 47.784,325.463 53.863,315.094C57.054,309.65 60.166,305.584 62.911,301.996C65.405,298.738 67.559,295.924 68.968,293.054C69.03,292.93 69.179,292.882 69.303,292.94C69.427,293.001 69.478,293.151 69.417,293.275C67.986,296.188 65.819,299.021 63.308,302.3C60.572,305.876 57.47,309.929 54.294,315.346C48.264,325.633 45.518,333.476 45.654,340.03C45.644,340.153 44.837,349.539 51.18,351.426C51.313,351.465 51.388,351.603 51.349,351.736C51.317,351.844 51.217,351.915 51.109,351.915Z" style="fill:rgb(196,128,89);fill-rule:nonzero;"/>
        <path d="M80.193,330.498L79.972,330.366C79.907,330.244 79.953,330.093 80.075,330.028C84.933,327.417 87.2,324.91 87.657,324.369C87.389,323.69 86.162,320.573 84.878,317.426C84.826,317.298 84.887,317.152 85.014,317.099C85.142,317.047 85.288,317.108 85.341,317.236C86.788,320.781 88.162,324.288 88.176,324.323L88.141,324.566C88.052,324.684 85.878,327.477 80.311,330.468L80.193,330.498Z" style="fill:rgb(212,187,174);fill-rule:nonzero;"/>
        <path d="M105.011,353.657C104.902,353.657 104.803,353.587 104.771,353.477C104.516,352.606 103.824,351.884 102.966,351.591C102.835,351.547 102.765,351.404 102.81,351.273C102.855,351.143 102.997,351.071 103.127,351.118C104.137,351.462 104.95,352.312 105.25,353.337C105.289,353.469 105.213,353.608 105.081,353.647L105.011,353.657Z" style="fill:rgb(99,81,84);fill-rule:nonzero;"/>
        <path d="M106.388,353.1C106.27,353.1 106.165,353.016 106.143,352.895C105.976,351.98 105.317,351.148 104.465,350.776C104.339,350.72 104.281,350.573 104.336,350.446C104.391,350.319 104.541,350.266 104.665,350.317C105.681,350.761 106.436,351.715 106.635,352.805C106.659,352.941 106.57,353.071 106.434,353.096L106.388,353.1Z" style="fill:rgb(99,81,84);fill-rule:nonzero;"/>
        <path d="M86.678,353.407C86.569,353.407 86.469,353.336 86.438,353.225C86.106,352.064 84.992,351.667 84.115,351.537C83.978,351.517 83.884,351.39 83.904,351.254C83.925,351.116 84.051,351.023 84.188,351.043C85.633,351.256 86.602,351.982 86.918,353.089C86.956,353.221 86.879,353.359 86.747,353.397L86.678,353.407Z" style="fill:rgb(99,81,84);fill-rule:nonzero;"/>
        <path d="M87.897,352.937C87.769,352.937 87.66,352.841 87.648,352.711C87.526,351.414 86.252,351.044 85.71,350.945C85.575,350.92 85.485,350.79 85.509,350.654C85.534,350.517 85.667,350.425 85.8,350.453C87.162,350.702 88.039,351.528 88.146,352.664C88.159,352.802 88.058,352.924 87.921,352.936L87.897,352.937Z" style="fill:rgb(99,81,84);fill-rule:nonzero;"/>
        <path d="M91.374,298.493C91.269,298.493 91.171,298.426 91.137,298.321C90.839,297.415 90.442,296.54 89.956,295.721C89.886,295.602 89.926,295.449 90.044,295.378C90.162,295.309 90.316,295.347 90.387,295.466C90.89,296.317 91.303,297.225 91.611,298.165C91.655,298.296 91.583,298.437 91.452,298.48L91.374,298.493Z" style="fill:rgb(212,187,174);fill-rule:nonzero;"/>
        <path d="M93.538,300.744C93.431,300.744 93.332,300.675 93.3,300.568C92.853,299.119 92.252,297.716 91.512,296.397C91.444,296.276 91.487,296.124 91.607,296.056C91.728,295.988 91.881,296.031 91.947,296.152C92.705,297.502 93.321,298.938 93.777,300.42C93.818,300.552 93.744,300.692 93.612,300.733L93.538,300.744Z" style="fill:rgb(212,187,174);fill-rule:nonzero;"/>
        <path d="M92.859,296.831C92.764,296.831 92.673,296.776 92.631,296.683L91.881,295.017C91.825,294.891 91.881,294.743 92.007,294.686C92.131,294.63 92.281,294.685 92.337,294.812L93.087,296.478C93.144,296.604 93.088,296.752 92.962,296.809L92.859,296.831Z" style="fill:rgb(212,187,174);fill-rule:nonzero;"/>
        <path d="M95.193,313.581C95.061,313.581 94.951,313.479 94.943,313.346C94.94,313.292 94.6,307.927 93.622,304.993C93.578,304.863 93.649,304.721 93.78,304.677C93.912,304.634 94.053,304.704 94.097,304.835C95.095,307.832 95.429,313.093 95.442,313.316C95.451,313.453 95.346,313.572 95.208,313.58L95.193,313.581Z" style="fill:rgb(212,187,174);fill-rule:nonzero;"/>
        <path d="M83.294,294.878C80.298,294.878 77.326,294.466 74.436,293.65C74.304,293.612 74.226,293.474 74.264,293.341C74.301,293.208 74.44,293.13 74.572,293.168C77.862,294.098 81.267,294.495 84.679,294.348C84.811,294.338 84.933,294.449 84.94,294.587C84.946,294.725 84.839,294.842 84.701,294.848C84.231,294.868 83.762,294.878 83.294,294.878Z" style="fill:rgb(212,187,174);fill-rule:nonzero;"/>
        <path d="M77.029,286.902L76.982,286.898C75.439,286.605 73.98,286.037 72.646,285.208C72.529,285.135 72.493,284.981 72.565,284.864C72.639,284.746 72.794,284.711 72.91,284.783C74.191,285.579 75.593,286.126 77.075,286.406C77.21,286.432 77.3,286.563 77.274,286.698C77.251,286.819 77.146,286.902 77.029,286.902Z" style="fill:rgb(196,128,89);fill-rule:nonzero;"/>
        <path d="M71.526,285.581L71.473,285.575C71.339,285.546 71.253,285.413 71.282,285.278C71.788,282.928 72.207,280.778 72.577,278.882C73.613,273.568 74.361,269.728 75.919,267.28C75.996,267.148 77.992,263.852 83.755,263.852C86.005,263.852 87.869,264.18 89.455,264.855C89.583,264.909 89.642,265.055 89.588,265.182C89.534,265.31 89.386,265.37 89.26,265.315C87.737,264.667 85.936,264.352 83.755,264.352C78.295,264.352 76.365,267.509 76.346,267.541C74.834,269.917 74.093,273.718 73.068,278.977C72.698,280.876 72.278,283.028 71.771,285.384C71.745,285.501 71.641,285.581 71.526,285.581Z" style="fill:rgb(196,128,89);fill-rule:nonzero;"/>
        <path d="M59.942,351.352C59.82,351.352 59.713,351.262 59.695,351.138C59.676,351.002 59.77,350.875 59.907,350.855C59.941,350.85 63.372,350.35 65.964,349.918C67.152,349.72 68.107,349.552 68.949,349.404C71.208,349.006 72.707,348.742 75.78,348.424C76.12,348.134 78.14,346.242 79.829,340.964C81.777,334.877 79.776,330.507 79.756,330.464C79.711,330.359 75.584,320.87 66.135,321.829C58.215,322.638 56.527,326.958 56.511,327.001C56.463,327.131 56.321,327.198 56.189,327.149C56.06,327.101 55.994,326.957 56.042,326.827C56.112,326.638 57.857,322.172 66.084,321.332C75.922,320.317 80.17,330.16 80.212,330.26C80.295,330.435 82.313,334.844 80.306,341.116C78.407,347.05 76.125,348.794 76.029,348.866L75.906,348.914C72.801,349.233 71.383,349.483 69.035,349.896C68.192,350.045 67.236,350.213 66.046,350.412C63.449,350.844 60.013,351.344 59.979,351.349L59.942,351.352Z" style="fill:rgb(196,128,89);fill-rule:nonzero;"/>
        <path d="M79.215,335.663L79.2,335.663C79.062,335.655 78.957,335.536 78.965,335.398C79.156,332.235 77.815,328.949 75.466,326.823C75.364,326.73 75.356,326.572 75.449,326.469C75.542,326.367 75.701,326.361 75.802,326.451C78.298,328.711 79.667,332.067 79.464,335.428C79.456,335.561 79.346,335.663 79.215,335.663Z" style="fill:rgb(196,128,89);fill-rule:nonzero;"/>
        <path d="M75.851,329.544C75.761,329.544 75.673,329.494 75.629,329.408C74.993,328.178 73.973,327.139 72.756,326.48C72.635,326.415 72.589,326.263 72.655,326.141C72.721,326.02 72.872,325.975 72.994,326.041C74.298,326.746 75.392,327.861 76.073,329.179C76.137,329.302 76.088,329.452 75.966,329.516L75.851,329.544Z" style="fill:rgb(196,128,89);fill-rule:nonzero;"/>
        <rect x="80.872" y="360.079" width="3.545" height="93.701" style="fill:rgb(204,198,192);fill-rule:nonzero;"/>
        <rect x="108.64" y="360.079" width="3.545" height="93.701" style="fill:rgb(204,198,192);fill-rule:nonzero;"/>
        <rect x="82.054" y="434.875" width="28.95" height="3.545" style="fill:rgb(204,198,192);fill-rule:nonzero;"/>
        <rect x="26.873" y="360.079" width="85.43" height="3.899" style="fill:rgb(225,221,218);fill-rule:nonzero;"/>
        <rect x="26.991" y="360.079" width="3.545" height="93.701" style="fill:rgb(225,221,218);fill-rule:nonzero;"/>
        <rect x="54.759" y="360.079" width="3.544" height="93.701" style="fill:rgb(225,221,218);fill-rule:nonzero;"/>
        <rect x="28.172" y="434.875" width="28.95" height="3.545" style="fill:rgb(225,221,218);fill-rule:nonzero;"/>
        <rect x="21.555" y="353.344" width="96.066" height="8.507" style="fill:rgb(77,67,68);fill-rule:nonzero;"/>
        <rect x="21.555" y="353.344" width="42.656" height="8.507" style="fill:rgb(99,81,84);fill-rule:nonzero;"/>
    </g>
</svg>
