<?xml version="1.0" encoding="UTF-8" standalone="no"?><!DOCTYPE svg PUBLIC "-//W3C//DTD SVG 1.1//EN" "http://www.w3.org/Graphics/SVG/1.1/DTD/svg11.dtd"><svg width="100%" height="100%" viewBox="0 0 1771 1459" version="1.1" xmlns="http://www.w3.org/2000/svg" xmlns:xlink="http://www.w3.org/1999/xlink" xml:space="preserve" xmlns:serif="http://www.serif.com/" style="fill-rule:evenodd;clip-rule:evenodd;stroke-linejoin:round;stroke-miterlimit:2;"><path d="M1115.788,1382.164l-96.65,25.504l-126.667,-897.421l194.283,-63.117l29.033,935.033Z" style="fill:#fff;fill-rule:nonzero;"/><path d="M1113.525,1381.326c-125.2,19.733 -125.979,20.208 -179.833,34.179c0.55,16.825 14.562,30.146 31.129,29.604l148.317,-4.875c16.575,-0.546 29.675,-14.754 29.121,-31.583c-0.508,-15.533 -13.442,-27.833 -28.733,-27.325Z" style="fill:#dedede;fill-rule:nonzero;"/><path d="M1178.4,1379.618c0,0 -170.071,22.267 -200.442,37.858c0.804,16.817 16.596,29.854 35.092,28.971l165.571,-7.908c18.496,-0.879 32.975,-15.367 32.175,-32.183c-0.746,-15.521 -15.321,-27.554 -32.396,-26.737Z" style="fill:#f0f0f0;fill-rule:nonzero;"/><path d="M1093.671,437.977l3.504,5.758c24.875,40.821 39.721,88.108 43.042,137.083c10.392,153.304 68.267,808.121 68.525,812.296c0.333,5.413 -110.479,11.508 -110.479,11.508l-191.95,-906.104l187.358,-60.541Z" style="fill:#fff;fill-rule:nonzero;"/><path d="M665.917,337.605c-25.754,67.054 -72.483,121.429 -118.271,180.442c-4.662,6.004 -27.954,42.925 -32.904,48.812c35.721,-104.475 82.737,-138.675 80.204,-240.487c16.729,-3.963 34.292,-4.446 51.575,-1.396c2.946,0.521 16.5,11.384 19.396,12.629Z" style="fill:#824c2c;fill-rule:nonzero;"/><path d="M648.121,330.351c-2.567,-1.317 -5.308,-2.2 -7.904,-2.804c-15.213,-3.521 -30.683,-1.271 -45.208,2.15c0.167,-4.317 0.392,-10.929 0.383,-15.266c-0.058,-38.392 -10.179,-74.117 -14.783,-111.783c-2.738,-22.409 9.892,-48.167 38.421,-40.567c18.521,4.934 30.458,23.658 34.342,42.429c3.883,18.771 1.529,38.188 1.525,57.354c-0.004,12.804 1.037,25.654 1.904,38.479c-2.262,8.483 -4.621,16.929 -7.192,25.325c-0.483,1.567 -0.992,3.121 -1.487,4.683Z" style="fill:#fff;fill-rule:nonzero;"/><path d="M755.5,89.101c42.225,17.479 46.454,33.312 81.762,69.238c38.563,39.246 109.521,125.95 152.821,159.9c90.317,70.8 133.15,179.271 135.8,207.15c-54.496,38.225 -167.354,69.05 -220.963,69.05c-2.3,0 -95.829,-96.021 -135.775,-130.362c-38.179,-32.825 -78.7,-63.271 -112.733,-100.383c-34.033,-37.113 -61.725,-82.267 -67.812,-132.25c-1.588,-12.995 -1.675,-26.275 1.1,-39.067c15.679,-72.312 95.833,-132.237 165.8,-103.275Z" style="fill:#fff;fill-rule:nonzero;"/><path d="M650.292,258.339c0.167,2.483 19.854,-6.375 57.6,-8.921c37.746,-2.546 68.208,-6.617 68.042,-9.1c-0.167,-2.479 -30.9,-2.433 -68.65,0.113c-37.742,2.546 -57.158,15.425 -56.992,17.908Z" style="fill:#fff;fill-rule:nonzero;"/><path d="M662.254,126.535c-5.654,26.538 -12.071,52.921 -16.946,79.613c-8.054,44.104 8.158,60.433 4.954,97.283c-5.954,-44.58 -34.008,-64.038 -34.683,-109.234c-0.117,-8.162 -0.146,-16.387 1.604,-24.512c2.446,-11.367 9.158,-22.867 9.938,-34.35c0.758,-11.238 -10.392,-20.954 -9.571,-29.721c2.338,-24.896 35.133,-14.25 52.013,-16.133c-1.362,12.275 -4.696,24.754 -7.308,37.054Z" style="fill:#fff;fill-rule:nonzero;"/><path d="M650.292,258.339c2.237,-11.304 4.229,-22.654 5.913,-34.046c3.821,-25.833 1.55,-56.134 11.883,-80.438c12.175,-28.612 46.183,-61.571 79.392,-44.371c12.954,6.708 21.021,20.179 26.154,33.833c12.688,33.788 11.071,71.6 2.025,106.558c-41.671,-8.763 -87.512,-2.013 -125.367,18.463Z" style="fill:#fff;fill-rule:nonzero;"/><path d="M540.625,77.076c25.846,1.005 65.733,9.909 85.133,14.159c13.921,-3.13 -1.529,111.604 12.125,161.971c-10.987,-43.404 -17.421,-72.675 -52.621,-71.858c3.512,-30.346 -31.408,-76.737 -44.638,-104.271Z" style="fill:#824c2c;fill-rule:nonzero;"/><path d="M425.142,154.068c-4.958,-11.738 -10.004,-25.779 -8.862,-38.467c3.008,-33.416 14.05,-98.891 45.904,-109.446c75.404,-24.962 124.804,30.104 137.6,91.321c-10.979,-2.108 -21.625,-5.988 -31.333,-11.542c-8.7,-4.971 -18.158,-11.508 -27.825,-8.858c-8.517,2.338 -13.721,11.467 -14.321,20.275c-0.592,8.804 2.429,17.412 5.413,25.725c-7.388,1.104 -13.65,-4.883 -20.063,-8.704c-13.071,-7.8 -30.908,-6.617 -42.846,2.829c-11.933,9.446 -17.175,26.534 -12.596,41.046c1.825,5.791 5,11.012 8.167,16.233c-17.087,-3.238 -33.7,-7.3 -39.237,-20.413Z" style="fill:#221109;fill-rule:nonzero;"/><path d="M455.633,605.343c54.375,-24.517 55.167,-42.304 74.383,-68.517c4.154,-5.667 8.179,-11.425 12.079,-17.225c38.333,-56.946 96.413,-179.763 98.183,-174.779c5.45,-25.912 19.638,-77.171 22.708,-92.696c37.858,-20.471 71,-21.013 112.671,-12.25c-0.096,0.379 -7.758,-1.838 -7.858,-1.458c-9.308,35.275 -31.679,81.634 -47.996,114.266c-15.117,30.246 -8.858,44.367 -23.979,74.612c-9.654,19.304 -27.267,44.042 -40.75,60.896c-11.775,14.704 -26.133,27.104 -40.404,39.404c-19.708,16.992 -50.721,50.408 -70.425,67.4c-15.3,13.192 -19.771,24.654 -37.788,33.796c-15.513,7.875 -27.871,1.525 -44.683,6.021c-23.283,6.225 -49.183,13.271 -72.933,19.646c-2.154,0.575 -3.767,-2.029 -2.271,-3.679c19.4,-21.329 42.654,-33.534 69.062,-45.438Z" style="fill:#955732;fill-rule:nonzero;"/><path d="M468.808,117.201c11.937,-9.446 29.775,-10.629 42.846,-2.829c6.413,3.821 12.675,9.808 20.063,8.704c-2.983,-8.312 -6.004,-16.921 -5.413,-25.725c0.6,-8.808 5.804,-17.938 14.321,-20.275c9.667,-2.65 19.125,3.887 27.825,8.858c9.708,5.554 20.354,9.433 31.333,11.542c1.858,8.854 2.946,17.838 3.238,26.725c0.604,18.725 -28.258,94.512 -46.521,90.329c-18.921,-4.325 -80.692,-37.879 -92.121,-40.05c-3.167,-5.221 -6.342,-10.442 -8.167,-16.233c-4.579,-14.513 0.662,-31.6 12.596,-41.046Z" style="fill:#955732;fill-rule:nonzero;"/><path d="M1584.688,860.093l-1398.146,-0.521c-102.938,-0.038 -186.417,83.379 -186.454,186.316l-0.087,237.358c-0.033,80.721 51.263,149.471 123.038,175.404l0.042,-119.304c0.038,-96.292 78.129,-174.329 174.425,-174.291l1201.017,0.45c96.296,0.038 174.329,78.129 174.291,174.421l-0.041,108.121c58.408,-31.45 98.117,-93.15 98.141,-164.133l0.087,-237.371c0.042,-102.929 -83.375,-186.408 -186.312,-186.45Z" style="fill-rule:nonzero;"/><path d="M333.567,762.951c7.817,11.734 19.521,93.871 19.521,93.871l-117.329,-0.042l39.15,-109.496l19.588,-86.037l23.462,15.654l15.608,86.05Z" style="fill:#6c4610;fill-rule:nonzero;"/><path d="M271.013,696.439c0,0 140.088,-90.979 348.108,-42.891c152.521,35.254 129.183,-48.083 262.058,-42.925c101.687,3.95 86.013,78.254 277.654,90.058c46.846,2.887 86.421,-4.087 126.208,-6.925c24.167,-1.725 88.037,17.262 171.029,26.591c31.333,3.525 39.721,-26.971 54.767,-31.267c18.192,-5.192 45.008,12.067 60.958,24.234c11.312,8.629 120.713,62.579 120.713,62.579c7.983,5.891 3.721,18.558 -6.2,18.421l-82.171,-1.146l-543.108,-10.388l-698.138,-0.262c0,0 -52.783,-46.954 -76.254,-39.142c-23.467,7.812 -15.625,-46.938 -15.625,-46.938Z" style="fill:#cc8c6c;fill-rule:nonzero;"/><path d="M286.646,727.735c-0.008,18.192 -0.021,54.754 -0.021,54.754c-18.088,12.217 -71.946,11.708 -99.738,11.691c-55.079,-0.016 -99.717,-29.8 -99.704,-66.521c0.013,-36.721 44.671,-66.471 99.754,-66.454c55.079,0.025 99.725,29.804 99.708,66.529Z" style="fill:#cc8c6c;fill-rule:nonzero;"/><path d="M138.067,610.347c97.792,-35.166 183.808,47 179.892,66.554c-1.638,8.158 -7.358,16.321 -13.475,23.055c-9.321,10.279 -22.612,16.042 -36.487,16.037l-55.654,-0.021l-7.837,31.283c-12.05,0 -23.146,6.579 -28.925,17.159l-14.113,25.854c-14.475,16.529 -34.417,25.863 -46.933,7.804c-32.088,-46.312 -80.646,-150.262 23.533,-187.725Z" style="fill:#6c4610;fill-rule:nonzero;"/><path d="M251.45,717.939c-0.004,16.204 -12.271,29.333 -27.392,29.325c-15.113,-0.004 -27.371,-13.141 -27.363,-29.342c0.004,-16.2 12.267,-29.329 27.387,-29.321c15.121,0.005 27.371,13.138 27.367,29.338Z" style="fill:#cc8c6c;fill-rule:nonzero;"/><path d="M1630.85,859.556l-1526.133,-0.571c-22.458,-0.013 -40.658,-18.221 -40.65,-40.683c0.004,-22.458 18.221,-40.659 40.679,-40.65l1526.133,0.571c22.458,0.008 40.658,18.221 40.65,40.679c-0.008,22.458 -18.221,40.658 -40.679,40.654Z" style="fill:#ededed;fill-rule:nonzero;"/><path d="M559.592,708.66c0,0 -212.425,-30.896 -166.075,34.762c46.346,65.659 498.233,42.484 498.233,42.484l96.558,-11.588l38.175,-7.763l-0.05,-0.587l-126.958,-3.237l-181.529,-38.616l-158.354,-15.454Z" style="fill:#db9772;fill-rule:nonzero;"/><path d="M1205.842,973.343c-24.908,-77.246 -66.421,-185.387 -66.421,-185.387l3.267,-7.775l34.096,-81.058c0,0 -1.504,-0.779 -4.325,-2.2c-1.217,-0.063 -2.446,-0.129 -3.704,-0.209c-167.446,-10.316 -176.625,-68.338 -244.104,-85.462c-15.904,-2.55 -31.617,-4.246 -46.813,-4.813c-60.871,0.363 -85.996,20.817 -116.146,35.925c0.25,9.071 1.612,71.041 -5.562,136.329c-7.167,65.254 -22.862,133.779 -56.742,156.029c-70.571,46.346 531.358,115.867 506.454,38.621Z" style="fill:#757575;fill-rule:nonzero;"/></svg>