<?xml version="1.0" encoding="UTF-8" standalone="no"?><!DOCTYPE svg PUBLIC "-//W3C//DTD SVG 1.1//EN" "http://www.w3.org/Graphics/SVG/1.1/DTD/svg11.dtd"><svg width="100%" height="100%" viewBox="0 0 925 611" version="1.1" xmlns="http://www.w3.org/2000/svg" xmlns:xlink="http://www.w3.org/1999/xlink" xml:space="preserve" xmlns:serif="http://www.serif.com/" style="fill-rule:evenodd;clip-rule:evenodd;stroke-linejoin:round;stroke-miterlimit:2;"><path d="M474.283,427.573c-22.688,0 -42.792,-9.525 -58.229,-27.621c-22.8,-26.742 -32.408,-68.771 -25.071,-109.696c0.983,-5.479 6.179,-9.125 11.692,-8.133c5.471,0.983 9.108,6.217 8.129,11.692c-6.204,34.604 1.871,71.133 20.579,93.071c11.738,13.758 27.05,20.896 44.071,20.538c5.633,-0.163 10.154,4.312 10.262,9.875c0.104,5.563 -4.317,10.154 -9.879,10.263c-0.517,0.008 -1.038,0.012 -1.554,0.012Z" style="fill:#3c3c3b;fill-rule:nonzero;"/><path d="M349.763,335.168l115.642,0c12.175,0 21.737,-10.417 20.7,-22.546l-12.342,-144.263c-0.921,-10.75 -9.912,-19.008 -20.7,-19.008l-92.967,0c-10.9,0 -19.946,8.421 -20.725,19.296l-10.333,144.258c-0.863,12.029 8.667,22.262 20.725,22.262Z" style="fill:#362a2b;fill-rule:nonzero;"/><path d="M506.3,314.293c0,1.542 -0.175,3.05 -0.467,4.504c-1.133,5.208 -4.246,9.742 -8.55,12.708c-3.342,2.296 -7.383,3.667 -11.775,3.667l-115.646,0c-12.071,0 -21.579,-10.238 -20.733,-22.275l10.35,-144.262c0.787,-10.875 9.829,-19.279 20.704,-19.279l92.967,0c0.408,0 0.813,0 1.221,0.058c0.725,0.029 1.425,0.087 2.121,0.233c0.613,0.087 1.225,0.204 1.804,0.379c8.375,2.121 14.8,9.362 15.558,18.317l3.779,44.171l4.275,49.988l0.029,0.146l4.275,49.988c0.058,0.55 0.088,1.104 0.088,1.658Z" style="fill:#444443;fill-rule:nonzero;"/><rect x="377.783" y="562.277" width="7.146" height="19.758" style="fill:#575756;fill-rule:nonzero;"/><path d="M400.896,591.21c0,7.992 -6.104,14.467 -13.637,14.467c-7.529,0 -13.633,-6.475 -13.633,-14.467c0,-7.987 6.104,-14.467 13.633,-14.467c7.533,0 13.637,6.479 13.637,14.467Z" style="fill:#1f1f1e;fill-rule:nonzero;"/><rect x="475.65" y="562.277" width="7.146" height="19.758" style="fill:#575756;fill-rule:nonzero;"/><path d="M498.763,591.21c0,7.992 -6.108,14.467 -13.637,14.467c-7.529,0 -13.633,-6.475 -13.633,-14.467c0,-7.987 6.104,-14.467 13.633,-14.467c7.529,0 13.637,6.479 13.637,14.467Z" style="fill:#1f1f1e;fill-rule:nonzero;"/><rect x="575.312" y="562.277" width="7.15" height="19.758" style="fill:#575756;fill-rule:nonzero;"/><path d="M559.35,591.21c0,7.992 6.104,14.467 13.637,14.467c7.529,0 13.633,-6.475 13.633,-14.467c0,-7.987 -6.104,-14.467 -13.633,-14.467c-7.533,0 -13.637,6.479 -13.637,14.467Z" style="fill:#1f1f1e;fill-rule:nonzero;"/><rect x="468.233" y="428.931" width="24.6" height="66.967" style="fill:#babaac;fill-rule:nonzero;"/><rect x="462.313" y="484.314" width="36.45" height="66.971" style="fill:#706f6f;fill-rule:nonzero;"/><path d="M372.804,569.414l215.304,0l0,-13.338l-107.9,-13.342l-107.404,13.342l0,13.338Z" style="fill:#706f6f;fill-rule:nonzero;"/><path d="M580.187,402.264l0,23.846c0,4.679 -2.937,8.662 -7.096,10.175c-1.192,0.467 -2.442,0.7 -3.779,0.7l-168.571,0c-6.138,0 -11.108,-4.971 -11.108,-11.108l0,-23.35c0,-6.167 4.971,-11.137 11.108,-11.137l168.571,0c3.4,0 6.425,1.571 8.429,4.012c0.437,0.554 0.846,1.162 1.196,1.804c0.175,0.35 0.346,0.725 0.492,1.104c0.496,1.221 0.758,2.558 0.758,3.954Z" style="fill:#362a2b;fill-rule:nonzero;"/><rect x="468.233" y="436.985" width="24.6" height="23.583" style="fill:#9e9e92;fill-rule:nonzero;"/><path d="M726.021,590.602c-7.492,4.733 -22.587,9.954 -35.242,10.342l-10.537,0.354l-26.971,0.933l-1.258,0.05l-1.358,0.1l-3.625,0.292l-0.604,0.075l-0.804,0.079c-1.158,0.046 -2.317,0.137 -3.525,0.237l-6.542,0.504c-0.754,0.029 -1.512,0.058 -2.271,0.038c-1.258,0.046 -2.475,-0.058 -3.746,-0.263l-6.904,-1.096c-0.558,-0.079 -1.029,-0.417 -1.346,-0.858l-0.117,-0.35l-0.125,-0.6c-0.062,-0.35 -0.079,-0.804 -0.1,-1.308c-0.133,-2.167 -0.113,-5.6 -0.004,-9.388c0.004,-1.162 0.058,-2.375 0.113,-3.588c0.017,-0.862 0.033,-1.771 0.1,-2.629l-0.004,-0.104c0.313,-6.371 0.738,-12.396 1.088,-13.821l0.038,-0.254c0.217,-0.917 1.625,-3.746 2.637,-7.571c0.658,-2.6 1.146,-5.7 0.871,-8.867c-0.017,-0.504 -0.087,-0.958 -0.154,-1.458l10.054,-1.096l11.713,-1.254l1.104,-0.146l12.617,-1.342c0.725,1.737 1.642,3.217 2.65,4.592c3.771,4.804 9.329,7.617 14.737,10.438c0.567,0.283 1.233,0.558 2,0.783l0.05,-0.004c4.087,1.308 10.671,1.863 17.242,3.329c1.629,0.392 3.158,0.738 4.633,1.033c8.55,1.792 15.604,2.833 19.417,6.121c3.721,2.279 3.771,7.525 5.021,13.788l0.063,0.35c0.342,0.996 -0.121,2.025 -0.908,2.558Z" style="fill:#1f1f1e;fill-rule:nonzero;"/><path d="M646.071,374.464c0.4,2.596 15.654,119.692 27.317,185.971l-0.025,0.004l-33.396,18.517l-17.029,9.433l-0.021,-0.075c-17.717,-43.275 -34.075,-138.063 -36.212,-170.958c-0.404,-5.775 -0.662,-11.046 -0.825,-15.692c-0.438,-12.95 -0.25,-21.1 -0.221,-21.883c0.017,-4.583 1.071,-8.979 3.021,-12.888c3.567,-7.417 10.108,-13.2 18.296,-15.658c1.629,-0.521 3.35,-0.875 5.096,-1.104l0.579,-0.054c8.05,-1.025 15.742,1.208 21.758,5.675c3.067,2.258 5.708,5.104 7.708,8.425c0.267,0.446 0.537,0.896 0.783,1.375c1.508,2.713 2.579,5.742 3.171,8.912Z" style="fill:#0d4d4d;fill-rule:nonzero;"/><path d="M606.167,411.564l-0.258,-0.029c0,0 -9.321,-0.417 -23.142,-1.05c-6.392,-0.237 -13.721,-0.575 -21.521,-0.921c-13.25,-0.567 -27.862,-1.196 -41.525,-1.808c-27.175,-1.217 -50.575,-2.296 -51.5,-2.492c-63.892,-7.317 -28.267,-88.358 -26.05,-88.913l1.792,-0.975l-1.792,0.975l54.575,17.967c28.933,2.396 50.683,4.142 67.108,5.487c56.738,4.575 49.5,3.871 53.6,4.888c14.746,3.704 25.846,15.117 27.808,28.767c0.246,1.112 0.383,2.258 0.421,3.346c1.346,18.771 -16.325,36.283 -39.517,34.758Z" style="fill:#4f403b;fill-rule:nonzero;"/><path d="M657.513,601.214c-7.667,4.438 -22.95,9.079 -35.612,8.979l-10.542,-0.05l-26.988,-0.104l-1.258,0l-1.363,0.054l-3.633,0.15l-0.604,0.05l-0.808,0.05c-1.158,0 -2.321,0.05 -3.529,0.1l-6.558,0.254c-0.758,0 -1.513,0 -2.271,-0.05c-1.263,0 -2.471,-0.154 -3.733,-0.404l-6.858,-1.362c-0.554,-0.1 -1.008,-0.454 -1.313,-0.908l-0.1,-0.354l-0.1,-0.604c-0.05,-0.35 -0.05,-0.804 -0.05,-1.308c-0.054,-2.171 0.1,-5.6 0.35,-9.383c0.05,-1.162 0.154,-2.371 0.254,-3.583c0.05,-0.858 0.1,-1.767 0.2,-2.621l0,-0.1c0.554,-6.358 1.212,-12.362 1.617,-13.771l0.05,-0.254c0.25,-0.908 1.767,-3.683 2.925,-7.467c0.754,-2.571 1.362,-5.646 1.213,-8.825c0,-0.504 -0.05,-0.958 -0.104,-1.462l10.087,-0.708l11.754,-0.804l1.113,-0.104l12.658,-0.854c0.654,1.762 1.513,3.275 2.467,4.687c3.587,4.946 9.033,7.971 14.329,10.996c0.554,0.304 1.208,0.608 1.971,0.858l0.046,0c4.038,1.462 10.596,2.271 17.104,3.988c1.612,0.454 3.125,0.854 4.588,1.208c8.475,2.121 15.487,3.429 19.171,6.862c3.629,2.417 3.479,7.667 4.487,13.971l0.05,0.354c0.304,1.008 -0.2,2.017 -1.008,2.521Z" style="fill:#303030;fill-rule:nonzero;"/><path d="M620.588,385.506c0.267,5.25 -0.208,10.6 -0.9,15.812c-4.871,36.817 -6.154,74.313 -8.35,111.454c-1.133,19.187 -2.242,38.379 -3.304,57.571l-55.521,18.833l-0.467,0.083c-1.917,-11.121 -3.092,-25.138 -3.725,-40.529c-1.367,-33.437 -0.079,-73.146 2.108,-102.583c1.504,-19.925 3.833,-39.913 7.971,-59.496c3.217,-15.213 11.579,-30.404 28.508,-32.246l0.929,-0.108c12.763,-1.046 25.562,6.146 30.196,18.267c1.583,4.15 2.333,8.508 2.554,12.942Z" style="fill:#266;fill-rule:nonzero;"/><path d="M620.892,386.31c-0.275,1.013 -0.6,2 -0.983,2.983c-2.575,6.683 -7.533,12.6 -14.133,16.654c-3.863,2.354 -8.246,4.104 -13.063,5.008c-3.312,0.629 -6.792,0.85 -10.433,0.604l-0.271,-0.054c0,0 -1.4,-0.054 -3.946,-0.137c-0.521,-0.029 -1.096,-0.054 -1.725,-0.083c-2.246,-0.083 -5.121,-0.217 -8.462,-0.354c-2.713,-0.137 -5.667,-0.329 -8.983,-0.467c-0.792,-0.029 -1.612,-0.054 -2.492,-0.083c-0.654,-0.054 -1.342,-0.079 -2.025,-0.108c-5.229,-0.192 -10.983,-0.437 -16.979,-0.712c-7.283,-0.329 -14.979,-0.629 -22.646,-1.013c-0.467,0 -0.987,0 -1.425,-0.083c-5.887,-0.192 -11.75,-0.438 -17.446,-0.712c-0.521,0 -1.096,-0.054 -1.612,-0.054c-17.225,-0.767 -32.725,-1.479 -41.763,-1.942c-4.85,-0.25 -7.833,-0.442 -8.133,-0.521c-2.767,-0.329 -5.342,-0.767 -7.725,-1.371c-4.217,-0.987 -7.858,-2.383 -11.062,-4.108c-1.617,-0.85 -3.121,-1.808 -4.462,-2.846l-0.138,-0.054l0,-0.083c-5.671,-4.192 -9.367,-9.612 -11.558,-15.746c-3.338,-8.983 -3.558,-19.363 -2.325,-29.112l0.138,-0.983c2.6,-18.375 10.104,-34.342 11.087,-34.588l0.467,0.108l16.183,5.342l3.754,1.258l13.117,4.329l21.058,6.979c4.929,0.412 9.667,0.796 14.187,1.15c12.375,1.042 23.275,1.921 32.887,2.713c7.421,0.575 14.075,1.096 19.992,1.617c19.554,1.558 31.521,2.492 38.967,3.096c14.154,1.15 11.967,1.067 14.625,1.75c6.896,1.725 13.008,5.15 17.717,9.696c5.45,5.146 9.092,11.775 10.133,19.088c0.246,1.096 0.383,2.271 0.437,3.367c0.192,3.233 -0.137,6.383 -0.958,9.475Z" style="fill:#614f49;fill-rule:nonzero;"/><path d="M560.383,142.323c-3.258,-9.946 -3.558,-11.262 -10.55,-19.071c-3.121,-3.504 -6.896,-6.342 -11.1,-8.446l-0.142,-0.083c-2.208,-1.125 -4.542,-2.029 -6.933,-2.692c-3.75,-1.083 -7.688,-1.571 -11.583,-1.433c-23.758,24.712 -20.317,53.396 -10.808,84.763c0.429,1.488 0.892,2.942 1.367,4.413l0.154,0.487c0.296,0.954 0.621,1.908 0.925,2.875c0.812,2.517 9.513,50.675 10.371,53.225l60.971,-5.871c-2.733,-20.171 -19.5,-98.475 -22.671,-108.167Z" style="fill:#a93939;fill-rule:nonzero;"/><path d="M397.571,177.831c0.117,24.896 0.387,63.058 0.621,95.346c0.196,27.579 0.429,50.917 0.546,58.192l164.35,0c0,-12.175 -1.088,-40.571 -3.658,-72.896c-1.088,-13.267 -2.371,-27.229 -4.004,-40.963c-5.175,-44.85 -13.342,-87.6 -25.479,-98.571c-1.246,-1.167 -9.871,-8.342 -9.871,-8.342l-56.142,-18.575l-55.433,35.825l-11.046,23.454c-0.038,0.975 0,11.283 0.117,26.529Z" style="fill:#a93939;fill-rule:nonzero;"/><path d="M582.438,246.402c-0.513,-3.183 -1.204,-7.092 -2.025,-11.517c1.329,-0.421 2.546,-0.808 3.563,-1.129c0.708,3 1.267,8.675 1.55,12.321c-1.021,0.1 -2.046,0.208 -3.087,0.325Z" style="fill:#cfcfcf;fill-rule:nonzero;"/><path d="M558.717,250.002c-0.354,-4.067 -0.729,-8.179 -1.129,-12.313c2.279,0.271 4.613,0.542 6.963,0.804c0.2,0.025 0.421,0.033 0.662,0.033c0.467,0 1,-0.042 1.592,-0.113c3.592,-0.446 9.212,-2.146 13.608,-3.529c0.821,4.425 1.513,8.333 2.025,11.517c-4.921,0.554 -10.058,1.296 -15.329,2.15l-0.604,0.112c-2.567,0.421 -5.167,0.871 -7.788,1.338Z" style="fill:#903131;fill-rule:nonzero;"/><path d="M398.129,264.331c-0.104,-14.4 -0.212,-29.583 -0.308,-43.983c3.554,18.817 11.221,33.363 25.925,35.2c0.108,0.013 0.225,0.021 0.358,0.021c0.567,0 1.346,-0.113 2.304,-0.179c1.758,-0.154 4.108,-0.392 6.967,-0.742c21.329,-2.6 93.488,-20.487 94.867,-20.833c1.646,0.242 4.029,0.587 6.942,1c5.821,0.775 13.775,1.842 22.404,2.875c0.4,4.133 0.775,8.246 1.129,12.313c-13.729,2.45 -28.063,5.421 -41.704,7.725c-13.204,2.258 -25.8,3.875 -36.633,3.875l-0.038,0c-0.004,0.004 -0.004,0.008 -0.008,0.017l-0.008,0c-8.312,-3.437 -22.071,-5.421 -36.646,-5.421c-6.212,0 -12.571,0.358 -18.725,1.121c-1.204,0.137 -2.408,0.3 -3.617,0.492c-8.646,1.296 -16.729,3.446 -23.208,6.521Zm134.033,-54.738c-0.396,0 -0.792,-0.004 -1.192,-0.008l-0.008,0c-0.192,-0.004 -0.383,-0.008 -0.575,-0.008c-2.325,-0.079 -10.5,-0.546 -12.479,-0.583l-76.9,-0.017l0.233,-54.146c-0.05,-2.379 -0.204,-4.675 -0.475,-6.875l13.129,51.621l80.871,9.938c-0.083,0 -0.167,0.004 -0.25,0.008l-0.467,0.038c-0.621,0.025 -1.25,0.033 -1.887,0.033Z" style="fill:#903131;fill-rule:nonzero;"/><path d="M530.971,209.585l-2.708,24.225c0,0 -73.354,18.213 -94.888,20.837c-2.858,0.35 -5.208,0.587 -6.967,0.742c-1.175,0.079 -2.079,0.233 -2.662,0.158c-33.679,-4.208 -30.433,-75.079 -25.412,-111.187c1.812,-13.021 13.996,-22.675 26.896,-20.129c10.358,2.046 15.696,14.575 16.012,30.6l-0.233,54.146l76.9,0.017c2.233,0.042 12.358,0.629 13.062,0.592Z" style="fill:#a93939;fill-rule:nonzero;"/><path d="M894.496,344.056c0.308,-3.117 -3.229,-3.892 -5.392,-3.738c-3.796,0.271 -10.208,-0.292 -17.263,-0.692c-1.608,0.246 -3.05,0.117 -4.658,0.296c-1.342,0.146 -2.987,0.329 -4.496,0.725c-1.338,1.038 -2.258,1.929 -3.817,3.346c8.742,2.7 22.471,4.046 27.271,3.333c2.271,-0.337 8.079,-0.487 8.354,-3.271Z" style="fill:#ffc990;fill-rule:nonzero;"/><path d="M924.396,346.339l0,0.05c0,1.183 -0.942,2.175 -2.079,2.321l-0.396,0.05l-34.15,-0.246l-30.887,-0.1l-0.792,0l0,-0.05l0.446,-6.179l0.296,-3.904l0.592,-7.858c0,0.2 0.546,0.3 1.433,0.2c1.433,-0.05 3.708,-0.496 6.425,-0.987c6.575,-1.288 15.521,-3.313 19.375,-3.708l0.938,-0.05c0.942,0 1.929,0.2 2.817,0.546l6.279,2.471l2.667,1.038l8.6,3.408c0.546,0.2 1.088,0.496 1.633,0.842l9.979,6.475l3.462,2.225l2.271,1.479c0.692,0.446 1.092,1.188 1.092,1.979Z" style="fill:#ffcfa1;fill-rule:nonzero;"/><path d="M858.858,330.623l-1.283,11.563l-0.692,6.179l0,0.05l-0.05,0.1c0,0 -27.479,0.146 -56.342,0.246c-30.246,0.1 -61.975,0.1 -65.042,-0.196l-0.05,-0.05l-0.05,-0.1c-0.246,-0.396 -0.442,-0.842 -0.592,-1.283c-0.888,-2.225 -0.642,-4.646 0.496,-7.071l0.05,-0.096c0.196,-0.396 0.392,-0.792 0.642,-1.187l0.692,-1.088c1.088,-1.583 2.521,-3.213 4.2,-4.796c1.283,-1.183 2.717,-2.371 4.3,-3.508l0.05,0c2.667,-1.975 5.733,-3.854 8.946,-5.533c12.354,-6.475 27.379,-10.379 35.879,-7.463l11.667,2.421l4.346,0.887l1.383,0.3l1.683,0.346l6.471,1.333l4.45,0.937l6.179,1.238l8.5,1.779l9.192,1.879l14.975,3.113Z" style="fill:#ffcfa1;fill-rule:nonzero;"/><path d="M754.138,339.943l-46.225,0l6.963,-56.4l39.263,5.608l0,50.792Z" style="fill:#ffcfa1;fill-rule:nonzero;"/><path d="M831.279,306.323c-0.546,6.3 -5.096,11.537 -10.075,15.438c-4.979,3.9 -12.742,6.437 -17.075,11.046c2.138,-11.762 6.525,-23.342 13.212,-33.25c1.796,-2.662 4.304,-5.337 7.513,-5.4c3.575,-0.071 6.458,3.329 7.05,6.85c0.587,3.525 -0.542,7.087 -1.742,10.454l1.117,-5.138Z" style="fill:#61483e;fill-rule:nonzero;"/><path d="M129.9,289.168c-0.2,1.979 -0.808,4.242 -1.696,6.746c-3.071,8.483 -9.737,18.992 -18.867,26.425c-0.971,0.808 -1.983,1.575 -2.992,2.3c-1.292,0.971 -2.667,1.9 -4.079,2.629c-1.092,0.688 -2.225,1.25 -3.396,1.775c-3.192,1.417 -6.425,3.354 -9.496,5.496c-10.463,7.313 -19.717,17.254 -24.321,19.233c-2.308,1.008 -4.808,1.129 -7.233,0.85c-3.8,-0.525 -7.354,-2.304 -9.575,-3.637c-1.575,-0.929 -2.546,-1.658 -2.546,-1.658l8.971,-17.533l4.362,-8.483l15.596,-30.387l11.433,-6.95l-4.483,-5.492l2.704,-5.054l5.496,-10.137l11.679,5.292l0.725,0.325l0.083,0.037c4.525,2.063 8.483,4 11.796,5.942c2.871,1.533 5.254,3.029 7.313,4.363c2.104,1.412 3.837,2.667 5.175,3.758c2.342,1.979 3.433,3.475 3.35,4.163Z" style="fill:#2e2e2d;fill-rule:nonzero;"/><path d="M272.192,342.364c31.217,-1.158 78.529,-0.579 129.821,-7.233c12.442,-1.592 25.646,-1.013 39.971,-3.688l-16.892,-68.367c-3.762,-0.471 -97.05,7.417 -134.45,10.6c-1.917,0.142 -3.654,0.325 -5.246,0.433c-6.112,0.542 -9.837,0.867 -10.054,0.867l-0.433,9.621l-0.254,4.992l-2.463,52.775Z" style="fill:#4f5050;fill-rule:nonzero;"/><path d="M93.617,323.756c-5.417,-16.812 6.758,-52.862 6.758,-52.862l0.646,0.008c79.392,0.562 123.075,2.162 174.329,4.092l7.063,15.413l-10.229,51.971c-51.192,-10.054 -175.892,-18.446 -178.567,-18.621Z" style="fill:#4f5050;fill-rule:nonzero;"/><path d="M384.454,273.448l0.654,39.187l0.083,3.917l0.025,1.862l0.329,18.4l0.963,0.113l0.133,0c3.258,0.521 6.929,1.175 10.9,1.862l0.029,0c16.95,2.792 39.133,6.571 59.725,7.829c0.767,0.083 1.587,0.113 2.3,0.167c3.587,0.192 7.121,0.329 10.517,0.329l0.792,0c3.479,-0.058 6.958,-0.138 10.242,-0.329l0.058,-21.225l0.3,-63.479c-0.358,-0.133 -0.742,-0.3 -1.15,-0.463l-0.029,0c-11.858,-4.904 -34.779,-6.846 -55.371,-4.3c-1.204,0.137 -2.408,0.3 -3.617,0.492c-9.146,1.371 -17.662,3.696 -24.317,7.067l-0.083,0.054c-2.217,1.096 -4.325,2.3 -6.35,3.696c-2.192,1.425 -4.246,3.042 -6.133,4.821Z" style="fill:#565858;fill-rule:nonzero;"/><path d="M114.304,303.064c-1.213,1.617 -1.533,4.083 -2.829,6.346c-3.108,5.454 -4.563,9.008 -7.35,11.758c-1.133,1.129 -2.504,2.1 -4.325,3.029l-0.042,0c-1.008,0.483 -2.142,0.971 -3.475,1.412c-1.612,0.567 -3.554,1.171 -5.817,1.737c-0.446,0.121 -0.808,0.204 -1.25,0.362c-11.317,3.475 -29.617,16.246 -40.971,23.275c-4.083,2.504 -7.192,4.321 -8.808,4.725c-2.467,0.65 -4.971,0.325 -7.233,-0.362c-6.221,-2.021 -5.533,-3.108 -5.533,-3.108c2.1,-5.537 4.683,-11.112 7.596,-16.65c1.492,-2.867 3.071,-5.738 4.725,-8.604c3.717,-6.346 7.8,-12.687 12.204,-19.029c5.212,-6.912 17.212,-14.104 17.212,-14.104l-2.667,-5.008l13.088,-16.121c1.779,0.767 3.638,1.696 5.454,2.704c3.596,1.983 7.317,4.404 10.829,6.95c0.525,0.404 1.05,0.771 1.579,1.175l0.037,0c10.708,8.038 19.354,17.213 17.575,19.513Z" style="fill:#3c3c3b;fill-rule:nonzero;"/><path d="M719.05,311.056c-0.712,5.379 -2.183,10.458 -4.175,14.933c-0.867,1.992 -1.804,3.875 -2.858,5.604c-1.129,1.879 -2.371,3.646 -3.683,5.15l0,0.112l-0.604,0.642l-0.113,0.112l0,0.038l-0.075,0l0,0.038c-2.896,3.271 -5.979,5.342 -8.725,5.829c-10.454,1.879 -31.592,3.008 -56.904,3.725c-9.025,0.225 -18.504,0.45 -28.283,0.525c-0.979,0.075 -1.992,0.075 -2.971,0.075c-65.25,0.867 -140.133,-0.412 -140.546,-0.675l0,-0.075l-0.037,-0.304c-0.642,-6.579 -0.792,-13.65 -0.412,-20.908c0.487,-12.6 2.292,-25.762 4.812,-37.463c2.142,-10.342 2.971,-20.004 5.867,-26.812l0.038,0c10.833,0 23.429,-1.617 36.633,-3.875c16.246,-2.746 33.471,-6.429 49.492,-9.063l0.604,-0.112c11.396,-1.846 22.15,-3.163 31.517,-3.238c3.871,-0.038 7.783,-0.113 11.583,-0.113c3.421,0 6.733,0.037 9.967,0.15l0.038,0c9.212,0.267 17.6,0.942 25.312,1.958c35.954,4.7 55.85,16.771 65.704,30.912l0.038,0.038c1.354,1.996 2.554,3.95 3.533,6.021c4.4,8.875 5.379,18.2 4.25,26.775Z" style="fill:#ffcfa1;fill-rule:nonzero;"/><path d="M437.5,335.064c-14.304,2.667 -27.475,2.063 -39.921,3.717l-0.042,0c-51.271,6.588 -98.583,6.021 -129.817,7.233l0.2,-4.446l0,-0.038l0.892,-18.546l0.158,-3.638l1.821,-39.312l0.079,-1.413c0.121,0 1.658,-0.163 4.325,-0.367c0.483,-0.079 1.008,-0.121 1.575,-0.2c18.871,-1.575 78.425,-6.708 113.817,-9.417c15.154,-1.208 25.9,-1.938 27.113,-1.737l17.738,61.012l0.242,0.887l1.05,3.517l0.771,2.746Z" style="fill:#565858;fill-rule:nonzero;"/><path d="M277.942,294.014l-4.567,23.113l-0.038,0.121l-0.646,3.354l-0.65,3.433l-3.475,17.658l-0.846,4.321c-35.867,-5.421 -105.879,-4.163 -146.146,-2.908c-17.658,0.55 -29.596,1.104 -30.421,1.092c-0.971,-2.587 -1.533,-5.9 -1.779,-9.658c-0.121,-2.142 -0.242,-4.442 -0.158,-6.829c-0.042,-1.454 0.038,-2.987 0.121,-4.483c0.121,-2.183 0.242,-4.404 0.442,-6.588c1.417,-16.158 4.892,-32.362 5.333,-34.262l0.042,-0.2l0.646,-0.042c0.446,0 0.85,0 1.292,-0.079l0.042,0c8.483,-0.283 16.525,-0.567 24.242,-0.808c63.717,-2.021 103.317,-2.021 148.85,-2.304l0.567,1.092l3.917,7.717l0.042,0.083l3.192,6.179Z" style="fill:#565858;fill-rule:nonzero;"/><path d="M719.65,342.093l-11.271,-0.796c-5.096,-22.596 -4.646,-43.8 2.925,-63.217l21.117,7.971c-12.158,11.346 -15.137,35.654 -12.771,56.042Z" style="fill:#ffcfa1;fill-rule:nonzero;"/><path d="M737.425,330.639l0.004,-0.017l-18.488,-3.804l-0.017,-0.004c0.146,-6.879 0.946,-13.742 2.529,-20.017c0.392,-0.725 0.775,-1.446 1.158,-2.162c3.3,-6.146 7.688,-12.575 14.463,-14.213c-0.071,0.246 -0.142,0.492 -0.208,0.742c-5.292,5.046 -6.6,9.612 -6.517,19.271l0.004,0.146l0.004,0.021l-0.013,0.05l0.004,0.142c0.075,6.833 0.8,11.125 3.142,14.779c1.112,1.742 2.579,3.35 4.513,5.021c-0.208,0.021 -0.4,0.038 -0.579,0.046Z" style="fill:#e8bd93;fill-rule:nonzero;"/><path d="M705.567,324.043l-14.992,-3.108c5.237,-3.854 10.775,-8.546 14.579,-13.737c-0.292,5.508 -0.142,11.125 0.412,16.846Z" style="fill:#e8bd93;fill-rule:nonzero;"/><path d="M718.925,326.814l-4.033,-0.838l-5.092,-1.087l-4.2,-0.842l-0.033,-0.004c-0.554,-5.721 -0.704,-11.338 -0.412,-16.846c1.679,-2.283 3.025,-4.65 3.871,-7.067c-0.133,6.071 2.558,11.154 7.296,15.058c1.967,-2.567 3.583,-5.492 5.133,-8.392c-1.583,6.275 -2.383,13.137 -2.529,20.017Zm-8.933,-32.629c-0.004,-0.004 -0.004,-0.012 -0.004,-0.017c0.004,-0.004 0.008,-0.008 0.012,-0.012c-0.004,0.008 -0.008,0.017 -0.008,0.029Z" style="fill:#e8bd93;fill-rule:nonzero;"/><path d="M705.154,307.198c-3.804,5.188 -9.342,9.883 -14.579,13.737c-2.967,2.125 -5.783,3.954 -8.204,5.438c-4.796,2.962 -10.083,5.879 -15.221,8.55c-10.725,5.683 -20.958,10.379 -25.258,12.304c-1.383,0.596 -2.125,0.942 -2.125,0.942l-21.4,0.492l-5.483,0.15c-0.792,-0.2 -1.533,-0.496 -2.225,-0.987c-8.304,-4.942 -7.908,-25.008 9.392,-37.858c10.129,-7.513 23.575,-19.671 37.312,-28.321l0.1,-0.1c19.075,-11.958 38.696,-17.196 50.708,6.179l0.246,0.446c3.263,6.475 1.138,13.046 -3.262,19.029Z" style="fill:#ffcfa1;fill-rule:nonzero;"/><path d="M738.396,330.927c0.896,0.771 1.888,1.546 3.008,2.371c2.308,1.725 5.1,3.621 8.442,5.854c4.167,2.779 10.4,4.929 18.267,6.529l-0.183,0.633c-0.121,0.696 -0.017,1.438 0.271,2.142l0.008,0.021l24.329,0l-0.158,-0.558l17.171,-0.167c12.863,-0.125 23.408,-9.663 25.15,-22.017c0.196,-1.258 0.267,-2.562 0.262,-3.871l-0.217,-24.487c-0.154,-14.167 -11.742,-25.537 -25.912,-25.408l-17.171,0.167c0.258,-0.721 0.35,-1.454 0.204,-2.167c-0.642,-3.758 -6.725,-4.338 -13.529,-3.171c-5.508,0.95 -9.758,2.242 -10.862,5.258c-0.292,0.7 -0.358,1.429 -0.233,2.146l0.196,0.625c-7.829,1.758 -14.004,4.012 -18.146,6.879c-3.3,2.317 -6.058,4.258 -8.35,6.013c-1.092,0.846 -2.054,1.633 -2.946,2.413c-6.237,5.488 -7.733,9.992 -7.646,20.304l0.004,0.146l0.004,0.021l-0.013,0.05l0.004,0.142c0.075,6.833 0.8,11.125 3.142,14.779c1.188,1.858 2.775,3.567 4.904,5.354Z" style="fill:#ffcfa1;fill-rule:nonzero;"/><path d="M816.754,290.314c-0.275,1.125 -0.508,2.2 -0.738,3.2c-1.063,4.871 -1.583,8.771 -1.833,14.358c-0.042,0.625 -0.054,1.275 -0.083,1.946c0.121,1.767 0.246,3.342 0.408,4.833c0.329,3.158 0.775,5.833 1.425,8.683c0.208,0.913 0.429,1.871 0.696,2.842c0.242,0.954 0.521,1.971 0.804,3.033c0.258,0.904 0.467,1.817 0.6,2.721c0.317,1.917 0.267,3.788 -0.6,5.396c-2.237,4.129 -9.929,6.45 -31.092,3.058l0.025,3.525c3.571,1.258 5.45,2.763 6.012,4.008l0.158,0.558l19.162,0c14.904,0 16.925,-1.433 18.242,-2.425c8.792,-6.65 14.267,-16.254 16.304,-26.571l0.021,-0.004c3.396,-16.917 -2.354,-35.721 -17.621,-46.421c-9.321,-6.529 -17.862,-4.537 -26.196,-3.133c-8.396,1.417 -10.788,2.212 -10.788,2.212c0.242,1.313 -1.562,3.012 -5.917,4.587l0.025,3.433c32.533,-6.312 32.867,2.4 30.983,10.158Z" style="fill:#362a2b;fill-rule:nonzero;"/><path d="M830.096,294.127c-0.262,4.904 -3.183,9.333 -6.787,12.671c-3.604,3.342 -7.904,5.812 -11.937,8.617c-4.033,2.808 -7.921,6.1 -10.15,10.479c-0.292,-10.329 3.342,-20.721 10,-28.621c3.113,-3.696 7.054,-7.262 7.575,-12.067c0.117,-1.075 0.05,-2.175 0.325,-3.221c0.271,-1.042 1,-2.071 2.063,-2.271c1.767,-0.333 3.025,1.629 3.737,3.279c2.208,5.096 4.417,10.187 6.625,15.283l-1.45,-4.15Z" style="fill:#362a2b;fill-rule:nonzero;"/><path d="M825.779,316.518c1.933,4.533 0.304,10.071 -3.171,13.571c-3.471,3.5 -8.454,5.171 -13.367,5.542c-4.917,0.379 -9.837,-0.421 -14.7,-1.233c5.533,-2.858 10.279,-7.221 13.592,-12.496c1.467,-2.337 2.675,-4.871 4.508,-6.938c1.833,-2.071 4.5,-3.658 7.242,-3.321c2.65,0.321 4.846,2.421 5.896,4.875Z" style="fill:#362a2b;fill-rule:nonzero;"/><path d="M779.375,326.356c-0.408,-3.108 -4.029,-3.054 -6.096,-2.413c-3.638,1.125 -10.013,2.033 -16.971,3.25c-1.508,0.604 -2.942,0.808 -4.471,1.346c-1.271,0.446 -2.829,1 -4.208,1.725c-1.067,1.317 -1.763,2.396 -2.958,4.129c9.129,0.642 22.804,-1.167 27.312,-2.95c2.138,-0.846 7.758,-2.317 7.392,-5.088Z" style="fill:#ffcfa1;fill-rule:nonzero;"/><path d="M802.933,346.348l0,0.038c-0.004,1.213 -0.904,2.183 -2.075,2.338l-0.392,0.017l-34.15,-0.213l-31.65,-0.108l0,-0.037l0.738,-10.092l0.571,-7.887c0,0.233 0.529,0.296 1.446,0.242c1.408,-0.096 3.713,-0.496 6.429,-1.017c6.583,-1.267 15.513,-3.283 19.363,-3.7l0.917,-0.054c0.958,0 1.933,0.2 2.829,0.554l6.3,2.479l2.65,1.046l8.579,3.367c0.587,0.237 1.133,0.513 1.638,0.867l10.012,6.475l5.713,3.692c0.679,0.433 1.088,1.196 1.083,1.996Z" style="fill:#ffcfa1;fill-rule:nonzero;"/><path d="M737.429,330.623l-0.792,7.067l-0.1,1.138l-0.146,1.137l-0.942,8.4l0,0.05l-0.05,0.1c0,0 -94.842,0.542 -117.033,0.146c-2.271,0 -3.804,-0.05 -4.35,-0.096l-0.396,-0.792c-3.754,-7.463 5.833,-16.854 18.487,-23.625c12.454,-6.621 27.875,-10.675 36.475,-7.758l21.992,4.546l15.025,3.113l4.2,0.842l5.092,1.087l4.05,0.842l18.488,3.804Z" style="fill:#ffcfa1;fill-rule:nonzero;"/><path d="M82.996,339.381l-16.479,0c8.138,-5.033 16.475,-9.758 22.7,-11.671c-0.083,2.388 0.038,4.688 0.158,6.829c-2.187,1.533 -4.325,3.175 -6.379,4.842Z" style="fill:#2c2c2b;fill-rule:nonzero;"/><path d="M469.571,339.381l-68.375,0c-1.229,-0.204 -2.438,-0.404 -3.617,-0.6l-0.042,0c0,0.004 -0.008,0.004 -0.012,0.004c0.004,0 0.012,0 0.012,-0.004l0.042,0c12.446,-1.654 25.617,-1.05 39.921,-3.717l-0.771,-2.746l-1.05,-3.517l-0.242,-0.887c1.817,0.121 3.675,0.242 5.533,0.242l0.204,0c0.654,0.012 1.313,0.017 1.971,0.017c4.521,0 9.188,-0.242 13.95,-0.662c4,-0.404 8.158,-0.929 12.362,-1.617l0.2,0c-0.238,4.596 -0.263,9.117 -0.087,13.487Z" style="fill:#505252;fill-rule:nonzero;"/><path d="M66.517,339.381l-34.188,0c0.625,-1.267 1.271,-2.529 1.937,-3.792c1.492,-2.867 3.071,-5.738 4.725,-8.604c5.05,-0.729 10.142,-1.658 15.275,-2.708c1.575,-0.321 3.15,-0.646 4.767,-0.967c9.854,-2.062 19.917,-4.529 29.979,-6.95l0.042,0l0.725,0.279c-0.2,2.183 -0.321,4.404 -0.442,6.588c-0.083,1.496 -0.163,3.029 -0.121,4.483c-6.225,1.912 -14.562,6.638 -22.7,11.671Z" style="fill:#393938;fill-rule:nonzero;"/><path d="M605.663,339.381l-136.092,0c-0.175,-4.371 -0.15,-8.892 0.087,-13.487c1.133,0 2.225,-0.079 3.317,-0.121c2.787,0 5.492,-0.042 8.242,-0.204l0.121,0c64.071,-2.179 122.492,-17.225 175.912,-43.854c-13.7,8.646 -27.096,20.758 -37.2,28.25c-11.871,8.812 -15.783,21.021 -14.388,29.417Z" style="fill:#e8bd93;fill-rule:nonzero;"/><path d="M392.742,339.381l-123.717,0l3.017,-15.346l0.65,-3.433l0.483,0.121c0.729,0.2 1.413,0.404 2.1,0.604l1.012,0.242c13.592,3.762 28.317,5.358 43.346,5.358c21.958,0 44.583,-3.408 65.379,-8.467l0.204,-0.042c4.121,-0.971 8.121,-1.979 12.038,-3.113c10.788,7.721 23.638,11.596 38.021,12.608l0.163,0l0.242,0.887l1.05,3.517l0.771,2.746c-14.304,2.667 -27.475,2.063 -39.921,3.717l-0.042,0c0,0.004 -0.008,0.004 -0.012,0.004c-1.6,0.204 -3.192,0.404 -4.783,0.596Z" style="fill:#505252;fill-rule:nonzero;"/><path d="M269.025,339.381l-179.108,0c-0.25,-1.504 -0.429,-3.125 -0.542,-4.842c-0.121,-2.142 -0.242,-4.442 -0.158,-6.829c-0.042,-1.454 0.038,-2.987 0.121,-4.483c0.121,-2.183 0.242,-4.404 0.442,-6.588c0.892,0.367 1.779,0.729 2.708,1.092c1.129,0.404 2.262,0.767 3.475,1.133c1.9,0.646 3.879,1.213 5.938,1.737c0.729,0.2 1.454,0.362 2.225,0.567c1.696,0.4 3.433,0.808 5.212,1.171c16.679,3.512 37.096,5.129 58.375,5.129c7.837,0 15.792,-0.221 23.725,-0.646c25.533,-1.375 50.708,-4.846 70.95,-9.979c2.021,0.85 4.042,1.617 6.1,2.342l0.483,0.163c0.933,0.325 1.858,0.646 2.75,0.929l0.971,0.325l-0.65,3.433l-3.017,15.346Z" style="fill:#505252;fill-rule:nonzero;"/><path d="M657.421,281.585l0.038,-0.054l0.058,-0.021c-0.017,0.012 -0.038,0.025 -0.054,0.033l-0.042,0.042Z" style="fill:#e8bd93;fill-rule:nonzero;"/><path d="M614.162,339.381l-8.5,0c-1.396,-8.396 2.517,-20.604 14.388,-29.417c10.104,-7.492 23.5,-19.604 37.2,-28.25c0.042,-0.021 0.083,-0.042 0.129,-0.062l0.042,-0.067l0.042,-0.042c0.017,-0.008 0.037,-0.021 0.054,-0.033l0.183,-0.062c-15.304,15.671 -27.625,30.737 -25.579,42.692c-0.004,0.004 -0.008,0.004 -0.013,0.008c-8.204,4.388 -15.117,9.879 -17.946,15.233Z" style="fill:#e8bd93;fill-rule:nonzero;"/><path d="M924.396,346.639l0,-0.571c0.008,0.092 0.012,0.179 0.012,0.271l0,0.038c0,0.092 -0.004,0.175 -0.012,0.263Z" style="fill:#ddd;fill-rule:nonzero;"/><path d="M749.942,339.381l-13.475,0l0.071,-0.554l0,-0.004c4.375,0.2 8.871,0.358 13.404,0.558Z" style="fill:#e8bd93;fill-rule:nonzero;"/><path d="M736.467,339.381l-122.304,0c2.829,-5.354 9.742,-10.846 17.946,-15.233c0.004,-0.004 0.008,-0.004 0.013,-0.008c0.004,0.008 0.004,0.012 0.004,0.017c0.242,1.658 0.808,3.312 1.696,4.887c-0.363,2.225 12.488,4.204 33.333,5.863c11.354,0.967 25.092,1.858 40.367,2.583l0.2,0l0.488,0.042c3.633,0.2 7.229,0.362 11.029,0.563l0.038,0c5.213,0.246 10.587,0.487 16.083,0.688l0.604,0l0.567,0.042l0.008,0l0,0.004l-0.071,0.554Z" style="fill:#e8bd93;fill-rule:nonzero;"/><rect x="0" y="339.381" width="924.396" height="18.879" style="fill:#c28a5b;fill-rule:nonzero;"/><path d="M627.433,281.76c-4.513,4.4 -10.871,6.617 -17.188,6.808c-8.5,0.225 -17.833,-4.1 -20.383,-12.225c-2.333,-7.558 2.367,-16.208 9.513,-19.633c4.133,-1.954 9.142,-2.367 13.35,-0.6c0.604,0.225 1.208,0.525 1.771,0.867c4.513,2.667 7.183,8.458 5.567,13.463c-1.617,4.963 -7.9,8.125 -12.6,5.829c5.417,-0.829 7.704,-8.837 3.875,-12.787c-3.804,-3.95 -11.321,-2.633 -14.067,2.146c-2.783,4.737 -0.792,11.396 3.721,14.479c4.55,3.121 10.904,2.783 15.608,-0.113c5.454,-3.388 8.612,-10.571 6.358,-16.588c-1.579,-4.287 -5.342,-7.071 -9.704,-8.762c-2.333,-0.942 -4.85,-1.542 -7.3,-1.842c-11.992,-1.504 -24.067,1.279 -35.763,4.287c-11.733,2.971 -23.658,6.167 -35.692,5.375c-6.054,-0.412 -12.15,-1.954 -17.487,-4.738c16.246,-2.746 33.471,-6.429 49.492,-9.063l0.604,-0.112c12.825,-1.808 25.687,-3.5 38.55,-2.258c5.9,0.562 11.808,1.804 16.963,4.737c5.112,2.933 9.4,7.788 10.567,13.579c1.279,6.167 -1.204,12.788 -5.754,17.15Z" style="fill:#374a57;fill-rule:nonzero;"/><path d="M592.404,255.035c-7.842,6.962 -9.587,19.817 -3.892,28.625c-7.475,-2.479 -12.292,-11.142 -10.45,-18.796c-7.292,5.9 -18.65,6.046 -26.088,0.338c6.921,1.258 13.925,-1.304 20.371,-4.117c6.45,-2.817 13.021,-6 20.058,-6.05Z" style="fill:#374a57;fill-rule:nonzero;"/><path d="M606.438,267.381c-0.592,-1.713 -2.729,-2.692 -4.408,-2.021c-1.683,0.667 -2.562,2.854 -1.817,4.504c0.704,1.55 2.717,2.363 4.3,1.729c1.583,-0.629 2.483,-2.6 1.925,-4.213Z" style="fill:#374a57;fill-rule:nonzero;"/><path d="M685.954,265.023c-1.879,2.896 -5.417,4.4 -8.875,4.4c-3.425,0 -6.771,-1.317 -9.742,-3.083c-2.933,-1.767 -5.642,-3.95 -8.463,-5.904c-7.183,-4.925 -15.421,-8.35 -23.996,-9.967c3.837,2.933 6.508,7.371 7.296,12.108c0.792,4.779 -0.337,9.817 -3.046,13.804c2.146,-7.858 -0.942,-16.546 -6.504,-22.529c-3.463,-3.721 -7.788,-6.467 -12.413,-8.5c9.212,0.267 17.6,0.942 25.312,1.958c20.267,6.363 26.379,23.363 40.429,17.712Z" style="fill:#374a57;fill-rule:nonzero;"/><path d="M643.167,256.185c3.292,4.904 4.254,11.308 2.546,16.963c3.167,-2.592 4.379,-7.313 2.858,-11.112c4.35,2.337 8.879,4.333 13.537,5.971c-5.058,-5.588 -11.7,-9.733 -18.942,-11.821Z" style="fill:#374a57;fill-rule:nonzero;"/><path d="M598.283,193.098c-0.7,-0.804 -1.929,-0.917 -2.967,-0.658c-1.037,0.258 -1.971,0.812 -2.983,1.142c-2.162,0.708 -4.521,0.283 -6.692,-0.396c-8.946,-2.804 -11.558,-2.483 -15.837,-1.371c-2.088,0.546 -13.942,3.1 -15.8,4.196c-1.858,1.1 25.908,8.242 29.042,7.475c1.096,-0.271 2.125,-0.762 3.221,-1.033c1.05,-0.263 2.138,-0.321 3.204,-0.504c3.037,-0.521 5.879,-2.096 7.929,-4.392c1.1,-1.237 1.963,-3.2 0.883,-4.458Z" style="fill:#f2c194;fill-rule:nonzero;"/><path d="M598.725,196.827l-0.587,-0.513l-2.5,-35.717l0.508,-0.592l0.592,0.513l2.5,35.717l-0.513,0.592Z" style="fill:#807e7e;fill-rule:nonzero;"/><path d="M601.913,233.177l-0.233,-3.304c-0.029,-0.446 0.304,-0.829 0.75,-0.858l0.113,-0.008l-2.954,-42.3l-3.125,0.221l3.212,45.925l3.621,6.983l-0.412,-5.917l-0.113,0.008c-0.446,0.029 -0.829,-0.304 -0.858,-0.75Z" style="fill:#d6d6c6;fill-rule:nonzero;"/><path d="M561.283,181.96c0.092,1.358 -0.929,2.533 -2.288,2.629c-1.354,0.096 -2.533,-0.929 -2.629,-2.283c-0.092,-1.358 0.929,-2.533 2.287,-2.629c1.354,-0.096 2.533,0.929 2.629,2.283Z" style="fill:#444443;fill-rule:nonzero;"/><path d="M583.825,149.139l-1.229,1.438l-10.783,-9.204l1.229,-1.438l10.783,9.204Z" style="fill:#e7e7d6;fill-rule:nonzero;"/><path d="M574.883,137.777l-4.913,5.75l-1.354,-1.154l4.913,-5.75l1.354,1.154Z" style="fill:#444443;fill-rule:nonzero;"/><path d="M576.383,141.252l-2.742,3.212l-2.587,-2.204l2.746,-3.217l2.583,2.208Z" style="fill:#807e7e;fill-rule:nonzero;"/><path d="M578.063,142.027l-3.396,3.975l-1.35,-1.154l3.392,-3.975l1.354,1.154Z" style="fill:#444443;fill-rule:nonzero;"/><path d="M585.292,147.71l-3.029,0.208l3.867,14.033l3.025,-0.213l-3.863,-14.029Z" style="fill:#444443;fill-rule:nonzero;"/><path d="M571.742,187.077l-3.6,0.254l-1.442,-20.604l3.604,-0.254l1.438,20.604Z" style="fill:#444443;fill-rule:nonzero;"/><path d="M584.937,186.156l-3.604,0.254l-1.442,-20.608l3.604,-0.25l1.442,20.604Z" style="fill:#e7e7d6;fill-rule:nonzero;"/><path d="M576.104,185.348l-12.525,0.875l-1.279,-18.313l12.525,-0.875l1.279,18.312Z" style="fill:#e05a5a;fill-rule:nonzero;"/><path d="M589.296,184.427l-12.521,0.875l-1.283,-18.313l12.525,-0.879l1.279,18.317Z" style="fill:#e05a5a;fill-rule:nonzero;"/><path d="M589.767,185.818l-26.379,1.846l0.125,1.8l26.379,-1.846l-0.125,-1.8Z" style="fill:#444443;fill-rule:nonzero;"/><path d="M561.95,189.573c-1.367,0.096 -2.554,-0.937 -2.65,-2.304l-1.079,-15.429l-0.554,-7.896l-3.854,0.267l-5.417,0.379l0.346,4.962l1.225,0.296c2.567,0.621 4.438,2.829 4.621,5.462l0.854,12.225c0.246,3.5 3.279,6.142 6.779,5.896l28.629,-2.004l-0.271,-3.854l-28.629,2Z" style="fill:#e7e7d6;fill-rule:nonzero;"/><path d="M555.675,160.968l-2.688,0.187l0.217,3.1l2.688,-0.187l-0.217,-3.1Z" style="fill:#444443;fill-rule:nonzero;"/><path d="M569.392,160.01l-2.688,0.187l0.217,3.096l2.688,-0.187l-0.217,-3.096Z" style="fill:#807e7e;fill-rule:nonzero;"/><path d="M556.517,162.639l-4.133,0.288l0.096,1.379l4.133,-0.288l-0.096,-1.379Z" style="fill:#807e7e;fill-rule:nonzero;"/><path d="M597.979,163.71l-36.917,2.579l-0.179,-2.571l36.917,-2.583l0.179,2.575Z" style="fill:#e7e7d6;fill-rule:nonzero;"/><path d="M597.979,163.71l-36.917,2.579l-0.092,-1.287l36.917,-2.579l0.092,1.287Z" style="fill:#444443;fill-rule:nonzero;"/><path d="M604.442,224.481l-7.529,0.525c-0.696,-0.6 -1.079,-0.938 -1.771,-1.538l-1.763,-25.163c0.604,-0.692 0.938,-1.079 1.542,-1.767l7.529,-0.529c0.692,0.604 1.079,0.937 1.771,1.537l1.758,25.163c-0.6,0.692 -0.942,1.079 -1.537,1.771Z" style="fill:#807e7e;fill-rule:nonzero;"/><path d="M604.283,198.468l-10.833,0.758l-0.071,-0.921c0.604,-0.692 0.938,-1.079 1.542,-1.767l7.529,-0.529c0.692,0.604 1.079,0.937 1.771,1.537l0.063,0.921Z" style="fill:#444443;fill-rule:nonzero;"/><path d="M604.446,224.568l-7.529,0.529c-0.688,-0.6 -1.075,-0.937 -1.767,-1.537l-0.067,-0.921l10.833,-0.754l0.067,0.917c-0.604,0.692 -0.933,1.079 -1.537,1.767Z" style="fill:#444443;fill-rule:nonzero;"/><path d="M572.617,162.273l-16.046,1.125l0.042,0.621l16.046,-1.125l-0.042,-0.621Z" style="fill:#444443;fill-rule:nonzero;"/><path d="M574.9,168.135l-12.521,0.875l-0.079,-1.1l12.525,-0.875l0.075,1.1Z" style="fill:#807e7e;fill-rule:nonzero;"/><path d="M576.104,185.348l-12.525,0.875l-0.075,-1.104l12.525,-0.875l0.075,1.104Z" style="fill:#807e7e;fill-rule:nonzero;"/><path d="M588.096,167.214l-12.525,0.875l-0.079,-1.1l12.525,-0.879l0.079,1.104Z" style="fill:#807e7e;fill-rule:nonzero;"/><path d="M589.296,184.427l-12.521,0.875l-0.079,-1.104l12.525,-0.875l0.075,1.104Z" style="fill:#807e7e;fill-rule:nonzero;"/><path d="M582.188,163.514l-1.779,0.125c-0.704,0.05 -1.283,-0.542 -1.217,-1.242c0.113,-1.246 0.225,-2.454 0.329,-3.604c0.05,-0.554 0.5,-0.992 1.058,-1.029l1.742,-0.125c0.7,-0.046 1.279,0.537 1.221,1.233l-0.292,3.596c-0.046,0.563 -0.496,1.008 -1.062,1.046Zm0.525,5.538l-0.296,3.592c-0.046,0.563 -0.496,1.008 -1.058,1.05l-1.854,0.129c-0.7,0.05 -1.279,-0.537 -1.217,-1.237c0.104,-1.2 0.208,-2.404 0.312,-3.604c0.05,-0.558 0.5,-0.996 1.058,-1.033l1.833,-0.129c0.7,-0.05 1.275,0.533 1.221,1.233Zm-0.829,10.175l-0.296,3.596c-0.046,0.562 -0.496,1.008 -1.058,1.046l-1.854,0.129c-0.696,0.05 -1.271,-0.529 -1.217,-1.225c0.083,-1.15 0.179,-2.358 0.279,-3.6c0.046,-0.563 0.496,-1.008 1.058,-1.05l1.867,-0.129c0.7,-0.05 1.275,0.533 1.221,1.233Zm6.946,9.525c-2.312,0.163 -4.225,-1.771 -4.037,-4.083l3.021,-37.046c0.2,-2.488 -1.862,-4.575 -4.354,-4.4l-2.142,0.15c-2.013,0.142 -3.617,1.729 -3.783,3.737c0,0 -3.433,35.3 -3.479,42.675c-0.008,1.496 0.417,5.967 0.417,5.967l31.133,-2.175l-0.417,-5.967l-16.358,1.142Z" style="fill:#807e7e;fill-rule:nonzero;"/><path d="M592.008,191.531c0.042,0.613 -0.417,1.138 -1.025,1.179c-0.608,0.046 -1.137,-0.417 -1.179,-1.025c-0.042,-0.608 0.417,-1.133 1.025,-1.179c0.608,-0.042 1.133,0.417 1.179,1.025Z" style="fill:#444443;fill-rule:nonzero;"/><path d="M607.758,190.102c0.15,2.183 -1.492,4.075 -3.675,4.225c-2.175,0.154 -4.067,-1.492 -4.221,-3.671c-0.158,-2.179 1.492,-4.071 3.667,-4.225c2.187,-0.15 4.075,1.492 4.229,3.671Z" style="fill:#444443;fill-rule:nonzero;"/><path d="M606.842,190.168c0.117,1.675 -1.146,3.125 -2.817,3.242c-1.675,0.117 -3.129,-1.146 -3.246,-2.817c-0.117,-1.675 1.146,-3.129 2.821,-3.246c1.671,-0.117 3.125,1.146 3.242,2.821Z" style="fill:#d6d6c6;fill-rule:nonzero;"/><path d="M585.821,148.856c0.121,1.729 -1.183,3.229 -2.913,3.35c-1.729,0.121 -3.229,-1.183 -3.35,-2.913c-0.121,-1.729 1.183,-3.229 2.912,-3.35c1.729,-0.121 3.229,1.183 3.35,2.913Z" style="fill:#444443;fill-rule:nonzero;"/><path d="M580.825,147.856c-0.612,0.933 -0.454,2.196 0.421,2.933c0.879,0.737 2.15,0.679 2.967,-0.083l-3.388,-2.85Z" style="fill:#e7e7d6;fill-rule:nonzero;"/><path d="M581.183,147.431l3.383,2.85c0.6,-0.933 0.437,-2.187 -0.433,-2.921c-0.871,-0.733 -2.133,-0.679 -2.95,0.071Z" style="fill:#e7e7d6;fill-rule:nonzero;"/><path d="M555.192,183.977l-8.15,0.571l-0.225,-3.238l8.15,-0.567l0.225,3.233Z" style="fill:#d6d6c6;fill-rule:nonzero;"/><path d="M555.258,185.218l-0.838,0.058l-0.396,-5.646l0.838,-0.058l0.396,5.646Z" style="fill:#807e7e;fill-rule:nonzero;"/><path d="M559.942,184.893l-0.838,0.058l-0.396,-5.65l0.838,-0.058l0.396,5.65Z" style="fill:#807e7e;fill-rule:nonzero;"/><path d="M564.246,184.589l-1.063,-15.233l1.858,-0.129l2.563,15.129l-3.358,0.233Z" style="fill:#e67b7b;fill-rule:nonzero;"/><path d="M595.583,222.606l-0.108,-1.542c0.7,-1.775 0.771,-3.821 -0.35,-4.992l-0.075,-1.062c1.517,-0.567 2.262,-1.675 2.492,-2.925l1.4,10.288l-3.358,0.233Zm1.496,-13.908c-0.417,-0.975 -1.042,-1.8 -1.742,-2.254c0.521,0.225 1.033,0.437 1.525,0.633l0.217,1.621Z" style="fill:#999898;fill-rule:nonzero;"/><path d="M594.621,206.114c17.546,8.092 20.525,-3.317 6.546,-6.171c-0.312,-0.158 -8.233,-2.675 -11.208,-3.892c-3.483,-1.408 -7.75,-3.092 -10.804,-4.304l-0.783,-0.317c-1.646,-0.625 -3.367,-0.858 -5.092,-0.663l-0.704,0.075l-0.821,0.158c-3.092,0.746 -5.679,1.329 -9.046,2.192c-0.35,0.117 -0.704,0.196 -1.096,0.312c-0.863,0.196 -1.721,0.433 -2.546,0.667c-3.054,0.863 -5.992,1.958 -8.417,3.917l-0.312,0.275c-2.508,2.15 -3.917,5.283 -5.992,7.829c-2.033,2.467 -5.675,3.212 -9.829,3.329l-0.467,0.038c-2,0.079 -4.112,0 -6.188,-0.038l-0.704,0c-0.625,4.579 -1.017,12.021 -1.213,17.383c-0.121,2.937 -0.196,5.246 -0.196,6.108l-0.042,0.429c0,0 3.683,0.55 9.475,1.371c7.362,0.979 18.129,2.429 29.367,3.679c4.579,0.508 19.575,-5.008 22.042,-5.479c1.096,-0.237 2.037,-0.55 2.821,-0.979c0.467,-0.196 0.9,-0.471 1.254,-0.746c0.388,-0.429 0.821,-0.821 1.213,-1.213l0.117,-0.117l-0.038,0c1.604,-2.192 1.054,-4.779 -0.354,-5.562c3.367,0.513 6.587,-7.558 2.387,-9.042l-0.471,-0.158l0.55,0.079c5.813,-1.071 3.367,-8.467 0.55,-9.163Z" style="fill:#ffcfa1;fill-rule:nonzero;"/><path d="M583.975,233.756c0.133,-0.042 0.262,-0.079 0.388,-0.121c-0.125,0.042 -0.254,0.079 -0.388,0.121Z" style="fill:#ddd;fill-rule:nonzero;"/><path d="M580.412,234.885l0,-0.008c1.329,-0.417 2.55,-0.804 3.563,-1.121c-1.017,0.321 -2.233,0.708 -3.563,1.129Z" style="fill:#bdbdbd;fill-rule:nonzero;"/><path d="M566.804,238.414c3.596,-0.454 9.217,-2.154 13.608,-3.537l0,0.008c-4.396,1.383 -10.017,3.083 -13.608,3.529Z" style="fill:#842f2f;fill-rule:nonzero;"/><path d="M525.725,233.264l0.008,-0.237c0.004,0 0.008,0.004 0.013,0.004l-0.021,0.233Z" style="fill:#9b3636;fill-rule:nonzero;"/><path d="M588.342,232.518c0.383,-0.142 0.742,-0.304 1.071,-0.483c0.467,-0.196 0.9,-0.471 1.254,-0.746c0.233,-0.258 0.488,-0.504 0.733,-0.746c-0.246,0.246 -0.496,0.496 -0.746,0.758c-0.613,0.471 -1.383,0.883 -2.313,1.217Zm3.654,-2.558l-0.004,0l0.004,0Z" style="fill:#ddd;fill-rule:nonzero;"/><path d="M565.242,238.523c-0.246,0 -0.475,-0.012 -0.679,-0.033c-20.146,-2.267 -38.842,-5.05 -38.842,-5.05l0.004,-0.175l0.021,-0.233c8.079,0.788 16.187,1.175 24.296,1.175c2.533,0 5.071,-0.038 7.604,-0.113c1.779,-0.042 3.583,-0.121 5.263,-0.729c1.675,-0.608 3.217,-1.829 3.771,-3.508c0.429,-1.325 0.246,-2.787 0.696,-4.108c0.604,-1.754 2.279,-2.954 2.996,-4.675c1.025,-2.388 0.004,-5.142 0.479,-7.704c0.438,-2.304 2.046,-4.204 3.275,-6.213c1.229,-2.008 2.104,-4.612 0.975,-6.675c1.796,2.367 1.992,5.862 0.433,8.417c-0.833,1.388 -2.171,2.596 -2.363,4.204c-0.221,1.825 1.108,3.575 0.967,5.408c-0.225,2.754 -3.642,4.629 -3.429,7.379c0.054,0.913 0.537,1.767 0.717,2.654c0.254,1.342 1.358,3.508 7.258,3.508c3.012,0 7.275,-0.567 13.308,-2.092l0.004,0c-0.196,0.188 -0.392,0.383 -0.596,0.583c-0.246,0.242 -0.5,0.488 -0.733,0.746c-0.354,0.275 -0.787,0.55 -1.254,0.746c-0.329,0.179 -0.687,0.342 -1.071,0.483c-0.525,0.188 -1.104,0.35 -1.733,0.479c-0.425,0.087 -1.213,0.317 -2.246,0.637c-0.125,0.042 -0.254,0.079 -0.388,0.121c-1.013,0.317 -2.233,0.704 -3.563,1.121c-4.392,1.383 -10.012,3.083 -13.608,3.537c-0.579,0.071 -1.1,0.108 -1.562,0.108Z" style="fill:#e8bd93;fill-rule:nonzero;"/><path d="M463.933,92.023c0.271,2.875 0.854,5.754 1.712,8.554c1.05,3.542 2.567,6.967 4.396,10.154c1.517,2.683 3.304,5.175 5.25,7.429c2.529,2.917 5.367,5.446 8.362,7.354c1.283,0.854 2.567,1.596 3.892,2.179c2.062,0.933 4.162,1.592 6.263,1.942c6.183,1.013 12.525,-0.738 18.05,-6.337c5.25,-13.15 23.417,-59.479 23.417,-59.479c-4.358,-1.363 -27.271,-13.225 -44.229,-22.404l-27.112,50.608Z" style="fill:#f2c194;fill-rule:nonzero;"/><path d="M475.292,118.16c2.529,2.917 5.367,5.446 8.362,7.354c0.042,-2.958 -0.504,-5.992 -1.129,-8.871c-1.204,-5.446 -2.604,-11.083 -1.05,-16.417c1.4,-4.667 4.942,-8.363 8.171,-12.017c3.267,-3.658 6.458,-7.783 6.925,-12.642c-2.062,5.096 -6.771,8.596 -11.167,11.942c-4.396,3.346 -8.946,7.117 -10.579,12.367c-1.788,5.838 0.387,12.254 0.467,18.283Z" style="fill:#374a57;fill-rule:nonzero;"/><path d="M465.646,100.577c1.05,3.542 2.567,6.967 4.396,10.154c1.167,-4.9 0.154,-10.621 2.371,-15.246c1.75,-3.621 5.292,-6.033 8.521,-8.442c3.229,-2.412 6.533,-5.292 7.467,-9.258c-2.296,2.45 -4.979,4.587 -7.858,6.3c-4.667,2.8 -10.308,4.9 -12.912,9.687c-1.129,2.062 -1.558,4.433 -1.983,6.804Z" style="fill:#374a57;fill-rule:nonzero;"/><path d="M486.613,119.523c0.621,2.646 1.088,5.446 0.933,8.171c2.062,0.933 4.162,1.592 6.263,1.942c-0.467,-4.783 -2.258,-9.646 -3.192,-14.471c-1.671,-8.479 -0.467,-17.504 3.308,-25.283c-3.775,5.292 -7.704,10.892 -8.208,17.35c-0.35,4.513 -0.117,7.858 0.896,12.292Z" style="fill:#374a57;fill-rule:nonzero;"/><rect x="20.017" y="358.26" width="884.362" height="53.396" style="fill:#a96c39;fill-rule:nonzero;"/><rect x="20.017" y="358.26" width="884.362" height="26.696" style="fill:#9b6436;fill-rule:nonzero;"/><rect x="876.692" y="411.656" width="27.687" height="194.021" style="fill:#a96c39;fill-rule:nonzero;"/><rect x="833.367" y="411.656" width="27.688" height="179.554" style="fill:#7f4515;fill-rule:nonzero;"/><rect x="61.496" y="411.656" width="27.692" height="179.554" style="fill:#7f4515;fill-rule:nonzero;"/><rect x="20.017" y="411.656" width="27.683" height="194.021" style="fill:#a96c39;fill-rule:nonzero;"/><path d="M546.667,81.044c1.617,-14.508 10.588,-27.163 14.025,-41.354c4.858,12 1.637,25.558 -1.417,38.133c-3.054,12.579 -5.775,26.383 -0.092,38.013c-9.167,-8.879 -13.925,-22.108 -12.517,-34.792Z" style="fill:#362a2b;fill-rule:nonzero;"/><path d="M567.138,104.156c-6.575,-3.921 -8.946,-12.238 -9.813,-19.846c-0.863,-7.604 -0.9,-15.679 -4.846,-22.238c-3.829,-6.371 -10.779,-10.238 -17.817,-12.617c-15.404,-5.2 -32.733,-4.446 -47.625,2.067c-5.158,2.258 -10.283,5.238 -15.917,5.242c1.592,-9.421 3.204,-18.921 6.671,-27.829c3.463,-8.904 8.958,-17.292 16.904,-22.596c8.512,-5.688 19.337,-7.404 29.433,-5.725c10.096,1.679 19.483,6.567 27.433,13.008c11.637,9.429 20.729,23.275 20.504,38.25c-0.133,8.938 -3.504,17.458 -5.771,26.104c-2.267,8.65 -3.333,18.275 0.842,26.179Z" style="fill:#362a2b;fill-rule:nonzero;"/><path d="M476.646,57.873c-0.267,-9.783 1.167,-13.479 4.346,-22.862c17.067,-41.796 39.108,-26.875 54.788,-21.042c18.021,7.617 34.812,23.029 21.254,54.95c-1.954,2.417 -3.904,4.271 -3.904,4.271l1.321,14.521c0.029,2.962 -2.542,8.025 -8.754,7.729l-5.467,12.008c-5.429,11.096 -16.717,18.104 -25.942,13.683c-20.367,-13.296 -27.875,-27.254 -16.938,-50.729c-6.392,-3.275 -20.504,-5.346 -20.704,-12.529Z" style="fill:#ffd2a1;fill-rule:nonzero;"/><path d="M490.45,21.731l24.687,10.742c5.646,2.458 8.329,8.921 6.104,14.663c-2.054,5.3 -4.788,11.279 -7.192,17.271c-4.325,-1.233 -17.5,-7.517 -17.5,-7.517c0,0 -5.987,26.963 -22.35,16.883c-13.371,-9.029 4.225,-41.1 9.542,-49.933c1.383,-2.296 4.25,-3.179 6.708,-2.108Z" style="fill:#362a2b;fill-rule:nonzero;"/><path d="M491.542,55.527c-2.442,6.638 0.337,16.358 4.675,17.954c4.342,1.596 6.754,-3.846 9.263,-10.454c1.658,-4.375 4.154,-10.321 -0.096,-13.458c-3.721,-2.746 -10.263,-3.771 -13.842,5.958Z" style="fill:#ffd2a1;fill-rule:nonzero;"/><path d="M486.713,16.968c-3.071,4.05 -5.708,8.533 -6.887,13.479c-0.679,2.837 -0.613,6.367 1.783,8.033c2.667,1.85 6.233,0.221 9.437,-0.283c6.158,-0.975 12.313,2.683 16.067,7.663c3.758,4.979 5.583,11.108 7.342,17.092c2.283,-11.367 11.579,-21.012 22.85,-23.717c11.275,-2.704 23.933,1.679 31.121,10.775c-2.779,-12.725 -9.942,-24.442 -19.996,-32.717c-10.054,-8.275 -22.933,-13.054 -35.954,-13.333c-4.271,-0.092 -8.625,0.304 -12.587,1.912c-5.383,2.187 -9.663,6.462 -13.175,11.096Z" style="fill:#362a2b;fill-rule:nonzero;"/></svg>