<?xml version="1.0" encoding="UTF-8" standalone="no"?><!DOCTYPE svg PUBLIC "-//W3C//DTD SVG 1.1//EN" "http://www.w3.org/Graphics/SVG/1.1/DTD/svg11.dtd"><svg width="100%" height="100%" viewBox="0 0 670 511" version="1.1" xmlns="http://www.w3.org/2000/svg" xmlns:xlink="http://www.w3.org/1999/xlink" xml:space="preserve" xmlns:serif="http://www.serif.com/" style="fill-rule:evenodd;clip-rule:evenodd;stroke-linejoin:round;stroke-miterlimit:2;"><path d="M339.9,286.642c-0.996,0 -1.992,-0.442 -2.696,-1.292c-4.054,-4.908 -5.637,-9.488 -5.637,-16.346c0,-0.092 0.075,-0.171 0.171,-0.171c0.092,0 0.171,0.079 0.171,0.171c0,6.858 1.508,11.229 5.562,16.125c1.108,1.346 3.021,1.554 4.358,0.483c5.075,-4.079 8.271,-10.504 8.538,-17.188c0.004,-0.096 0.075,-0.162 0.175,-0.162c0.096,0 0.171,0.079 0.167,0.175c-0.271,6.779 -3.508,13.3 -8.667,17.442c-0.637,0.512 -1.392,0.762 -2.142,0.762Z" style="fill:#69a0db;fill-rule:nonzero;"/><path d="M378.829,238.676l1.9,-33.604l7.267,-2.592c0,0 4.442,21.575 4.821,40.012c0.042,1.975 -0.258,9.687 -7.108,11.796c-2.271,0.696 -5.667,-4.746 -6.525,-6.958c-0.108,0.083 -0.554,-5.538 -0.354,-8.654Z" style="fill:#fbbaad;fill-rule:nonzero;"/><path d="M389.225,209.213c2.146,-2.992 6.633,-11.946 4.846,-18.887c-0.179,-0.704 -0.771,-1.133 -1.412,-0.875c-0.492,0.2 -1.158,0.358 -1.254,1.829l0.35,1.812l-0.721,-4.05c-0.038,-0.546 -0.629,-1.162 -1.133,-1.054c-1.275,0.279 -2.125,0.937 -1.658,2.767c1.183,4.633 0.246,7.696 0.246,7.696c0,0 -0.183,-4.717 -1.342,-6.704c-0.188,-0.317 -0.683,-0.717 -1.017,-0.617c-0.763,0.225 -1.238,0.675 -1.192,1.512c0,0 1.446,3.808 0.888,6.379l-1.813,-3.475c-0.154,-0.579 -0.879,-0.808 -1.358,-0.504c-0.471,0.3 -0.858,0.908 -0.621,1.433c1.379,2.971 1.046,4.613 1.046,4.613l-1.275,0.892c-0.738,0.608 -1.475,3.967 -0.696,4.525l8.117,2.708Z" style="fill:#fbbaad;fill-rule:nonzero;"/><path d="M391.779,198.18c0,0 0.521,-3.063 -0.512,-7.412l0.512,7.412Z" style="fill:#fbbaad;fill-rule:nonzero;"/><path d="M391.779,198.305c-0.087,-0.008 -0.133,-0.075 -0.121,-0.146c0.004,-0.029 0.5,-3.096 -0.513,-7.362c1.267,4.262 0.763,7.375 0.754,7.404c-0.008,0.062 -0.058,0.104 -0.121,0.104Z" style="fill:#fd9b8e;fill-rule:nonzero;"/><path d="M304.892,255.938c7.208,4.017 14.533,8.229 23.846,12.933l4.725,23.742c-8.571,1.521 -9.646,2.779 -18.958,-1.608c-5.538,-2.613 -12.15,-9.129 -21.379,-16.412c-1.05,-0.829 -1.287,-2.333 -0.55,-3.446c3.679,-5.537 6.442,-9.65 10.704,-14.833c0.392,-0.475 1.075,-0.675 1.612,-0.375Z" style="fill:#f85b15;fill-rule:nonzero;"/><path d="M281.804,260.659c5.442,5.496 11.117,10.296 11.117,10.296l10.138,-14.237c-1.817,-1.179 -8.558,-4.287 -10.558,-5.629c-18.038,-12.067 -13.379,6.862 -10.696,9.571Z" style="fill:#fbbaad;fill-rule:nonzero;"/><path d="M370.475,252.513c-4.387,5.333 -8.725,11.125 -13.904,18.521l4,26.904c8.383,-2.333 -1.463,12.333 5.042,4.35c3.858,-4.75 17.175,-27.104 22.342,-37.663c0.592,-1.204 0.817,-3.058 -0.333,-3.742c-5.708,-3.404 -9.446,-5.896 -15.529,-8.733c-0.558,-0.258 -1.225,-0.113 -1.617,0.362Z" style="fill:#f85b15;fill-rule:nonzero;"/><path d="M379.2,239.513c0,0 -2.667,7.487 -5.779,13.429l14.163,7.962c0.937,-1.954 4.833,-14.992 4.833,-14.992l-13.217,-6.4Z" style="fill:#fbbaad;fill-rule:nonzero;"/><path d="M358.071,503.563l-9.512,0.017l-0.879,-6.517c3.371,-3.092 7.254,-4.75 11.267,-5.708l-0.875,12.208Z" style="fill:#fbbaad;fill-rule:nonzero;"/><path d="M359.204,487.642l-0.588,7.65c-3.962,0.229 -7.571,0.375 -10.833,2.525l-1.154,-8.458l12.575,-1.717Z" style="fill:#fd9b8e;fill-rule:nonzero;"/><path d="M300.333,502.384l9.417,1.338l1.754,-6.333c-2.921,-3.529 -6.546,-5.712 -10.388,-7.221l-0.783,12.217Z" style="fill:#fbbaad;fill-rule:nonzero;"/><path d="M301.158,490.063l-0.254,4.05c3.9,0.771 7.454,1.421 10.392,4.008l2.288,-8.221l-12.425,0.163Z" style="fill:#fd9b8e;fill-rule:nonzero;"/><path d="M348.783,498.767c-0.8,-0.004 -1.517,0.654 -1.725,1.6l-0.704,3.117c-0.783,2.838 -0.267,6.042 1.858,6.071l9.942,-0.104c-1.5,-3.371 -2.725,-6.867 -3.704,-10.642l-5.667,-0.042Z" style="fill:#b2c2f9;fill-rule:nonzero;"/><path d="M372.421,507.421l-13.346,-8.504l-4.838,-0.108c1.038,3.775 2.338,7.275 3.917,10.646l13.829,0.179c0.933,0.008 1.258,-1.671 0.438,-2.212Z" style="fill:#e3e8fc;fill-rule:nonzero;"/><path d="M371.446,510.192l-14.588,-0.008c-0.333,-0.004 -0.358,-0.192 -0.346,-0.6l0.042,-1.45c0.017,-0.404 0.292,-0.729 0.625,-0.729l15.371,0.104c0.333,0.004 0.596,0.338 0.583,0.742c-0.033,1.304 -0.783,1.95 -1.687,1.942Z" style="fill:#6b4666;fill-rule:nonzero;"/><path d="M346.129,508.792l-0.013,-1.575l10.025,0.121c2.279,0.029 2.446,-0.312 10.612,2.767l-18.712,0.058c-1.063,-0.013 -1.908,-0.621 -1.912,-1.371Z" style="fill:#6b4666;fill-rule:nonzero;"/><path d="M353.513,507.846l4.429,1.958l-1.033,0.387l-4.025,-1.479l0.629,-0.867Z" style="fill:#6b4666;fill-rule:nonzero;"/><path d="M348.558,510.176l8.346,0.013c0.004,0 -5.454,-4.867 -8.346,-0.013Z" style="fill:#6b4666;fill-rule:nonzero;"/><path d="M369.654,505.988l-10.308,-3.117c-0.1,-0.083 -1.817,-3.883 -1.817,-3.883l0.283,-0.129l1.687,3.742l10.246,3.1l-0.092,0.288Z" style="fill:#b2c2f9;fill-rule:nonzero;"/><path d="M310.521,498.517c0.796,-0.004 1.513,0.654 1.725,1.6l0.704,3.121c0.783,2.842 0.271,6.042 -1.858,6.071l-9.942,-0.1c1.492,-3.375 2.721,-6.875 3.704,-10.65l5.667,-0.042Z" style="fill:#b2c2f9;fill-rule:nonzero;"/><path d="M286.879,507.167l13.346,-8.504l4.837,-0.104c-1.037,3.771 -2.333,7.275 -3.912,10.646l-13.829,0.179c-0.933,0.017 -1.262,-1.671 -0.442,-2.217Z" style="fill:#e3e8fc;fill-rule:nonzero;"/><path d="M287.858,509.946l14.588,-0.008c0.333,-0.004 0.358,-0.192 0.346,-0.596l-0.042,-1.454c-0.017,-0.4 -0.292,-0.729 -0.629,-0.729l-15.367,0.108c-0.333,0.004 -0.6,0.333 -0.588,0.738c0.038,1.296 0.783,1.946 1.692,1.942Z" style="fill:#6b4666;fill-rule:nonzero;"/><path d="M313.175,508.542l0.012,-1.562l-10.025,0.117c-2.279,0.029 -2.446,-0.312 -10.612,2.771l18.712,0.058c1.063,-0.021 1.908,-0.629 1.913,-1.383Z" style="fill:#6b4666;fill-rule:nonzero;"/><path d="M305.783,507.601l-4.421,1.958l1.025,0.387l4.033,-1.483l-0.638,-0.862Z" style="fill:#6b4666;fill-rule:nonzero;"/><path d="M310.746,509.93l-8.346,0.008c0,0.004 5.45,-4.863 8.346,-0.008Z" style="fill:#6b4666;fill-rule:nonzero;"/><path d="M289.646,505.746l-0.087,-0.296l10.246,-3.096l1.687,-3.737l0.279,0.125l-1.721,3.8c-0.092,0.083 -10.404,3.204 -10.404,3.204Z" style="fill:#b2c2f9;fill-rule:nonzero;"/><path d="M358.071,503.563l-9.512,0.017l-0.879,-6.517c3.371,-3.092 7.254,-4.75 11.267,-5.708l-0.875,12.208Z" style="fill:#fbbaad;fill-rule:nonzero;"/><path d="M359.204,487.642l-0.588,7.65c-3.962,0.229 -7.571,0.375 -10.833,2.525l-1.154,-8.458l12.575,-1.717Z" style="fill:#fd9b8e;fill-rule:nonzero;"/><path d="M301.158,490.063l-0.254,4.05c3.9,0.771 7.454,1.421 10.392,4.008l2.288,-8.221l-12.425,0.163Z" style="fill:#fd9b8e;fill-rule:nonzero;"/><path d="M348.783,498.767c-0.8,-0.004 -1.517,0.654 -1.725,1.6l-0.704,3.117c-0.783,2.838 -0.267,6.042 1.858,6.071l9.942,-0.104c-1.5,-3.371 -2.725,-6.867 -3.704,-10.642l-5.667,-0.042Z" style="fill:#b2c2f9;fill-rule:nonzero;"/><path d="M372.421,507.421l-13.346,-8.504l-4.838,-0.108c1.038,3.775 2.338,7.275 3.917,10.646l13.829,0.179c0.933,0.008 1.258,-1.671 0.438,-2.212Z" style="fill:#e3e8fc;fill-rule:nonzero;"/><path d="M371.446,510.192l-14.588,-0.008c-0.333,-0.004 -0.358,-0.192 -0.346,-0.6l0.042,-1.45c0.017,-0.404 0.292,-0.729 0.625,-0.729l15.371,0.104c0.333,0.004 0.596,0.338 0.583,0.742c-0.033,1.304 -0.783,1.95 -1.687,1.942Z" style="fill:#6b4666;fill-rule:nonzero;"/><path d="M346.129,508.792l-0.013,-1.575l10.025,0.121c2.279,0.029 2.446,-0.312 10.612,2.767l-18.712,0.058c-1.063,-0.013 -1.908,-0.621 -1.912,-1.371Z" style="fill:#6b4666;fill-rule:nonzero;"/><path d="M353.513,507.846l4.429,1.958l-1.033,0.387l-4.025,-1.479l0.629,-0.867Z" style="fill:#6b4666;fill-rule:nonzero;"/><path d="M348.558,510.176l8.346,0.013c0.004,0 -5.454,-4.867 -8.346,-0.013Z" style="fill:#6b4666;fill-rule:nonzero;"/><path d="M369.654,505.988l-10.308,-3.117c-0.1,-0.083 -1.817,-3.883 -1.817,-3.883l0.283,-0.129l1.687,3.742l10.246,3.1l-0.092,0.288Z" style="fill:#b2c2f9;fill-rule:nonzero;"/><path d="M310.521,498.517c0.796,-0.004 1.513,0.654 1.725,1.6l0.704,3.121c0.783,2.842 0.271,6.042 -1.858,6.071l-9.942,-0.1c1.492,-3.375 2.721,-6.875 3.704,-10.65l5.667,-0.042Z" style="fill:#b2c2f9;fill-rule:nonzero;"/><path d="M286.879,507.167l13.346,-8.504l4.837,-0.104c-1.037,3.771 -2.333,7.275 -3.912,10.646l-13.829,0.179c-0.933,0.017 -1.262,-1.671 -0.442,-2.217Z" style="fill:#e3e8fc;fill-rule:nonzero;"/><path d="M287.858,509.946l14.588,-0.008c0.333,-0.004 0.358,-0.192 0.346,-0.596l-0.042,-1.454c-0.017,-0.4 -0.292,-0.729 -0.629,-0.729l-15.367,0.108c-0.333,0.004 -0.6,0.333 -0.588,0.738c0.038,1.296 0.783,1.946 1.692,1.942Z" style="fill:#6b4666;fill-rule:nonzero;"/><path d="M313.175,508.542l0.012,-1.562l-10.025,0.117c-2.279,0.029 -2.446,-0.312 -10.612,2.771l18.712,0.058c1.063,-0.021 1.908,-0.629 1.913,-1.383Z" style="fill:#6b4666;fill-rule:nonzero;"/><path d="M305.783,507.601l-4.421,1.958l1.025,0.387l4.033,-1.483l-0.638,-0.862Z" style="fill:#6b4666;fill-rule:nonzero;"/><path d="M310.746,509.93l-8.346,0.008c0,0.004 5.45,-4.863 8.346,-0.008Z" style="fill:#6b4666;fill-rule:nonzero;"/><path d="M289.646,505.746l-0.087,-0.296l10.246,-3.096l1.687,-3.737l0.279,0.125l-1.721,3.8c-0.092,0.083 -10.404,3.204 -10.404,3.204Z" style="fill:#b2c2f9;fill-rule:nonzero;"/><path d="M340.692,380.109c-0.238,-0.054 -2.054,-0.475 -3.004,-2.592c-0.012,-0.054 0.058,-10.988 0.058,-10.988c0,-0.071 0.062,-0.133 0.137,-0.133c0.075,0.004 0.137,0.062 0.137,0.138l-0.075,10.9c0.738,1.604 2.025,2.167 2.479,2.321l0.117,-12.004c0,-0.071 0.062,-0.133 0.137,-0.133c0.083,-0.004 0.138,0.067 0.138,0.138l-0.125,12.354Z" style="fill:#514b73;fill-rule:nonzero;"/><path d="M335.104,363.613c0.192,20.812 7.287,90.029 8.042,124.992c0.046,2.062 2.021,3.575 3.858,3.575l12.558,0.125c2.404,0 4.925,-1.767 5.092,-4.442c3.537,-57.633 3.304,-98.592 2.038,-126.096l-31.587,1.846Z" style="fill:#4d4d4d;fill-rule:nonzero;"/><path d="M320.075,364.78l-10.783,0.3c-5.429,32.483 -9.837,70.554 -12.979,120.621c-0.158,2.575 0.992,4.85 3.596,5.258c3.413,0.537 9.692,1.683 11.621,2.017c0.229,0.037 0.454,0.05 0.679,0.017c1.696,-0.258 3.092,-1.358 3.171,-3.271c0,0 24.125,-105.404 30.396,-126.929l-25.7,1.987Z" style="fill:#4d4d4d;fill-rule:nonzero;"/><path d="M364.971,273.446c-19.121,-10.162 -33.417,-10.754 -54.254,3.288c0,0 3.283,61.221 1.217,89.571c-1.704,23.329 43.738,3.517 52.525,2.054c0,0 -2.104,-4.646 -2.029,-6.575c0.054,-1.383 7.483,-43.458 7.804,-79.462c0.038,-3.708 -1.983,-7.138 -5.263,-8.875Z" style="fill:#f85b15;fill-rule:nonzero;"/><path d="M365.992,302.821c-4.025,-9.692 -6.896,-23.604 -6.938,-34.296c-0.004,-0.483 -0.467,-0.825 -0.925,-0.683l-2.546,0.779c-0.421,0.133 -0.742,0.479 -0.829,0.913c-1.421,7.15 -1.208,15.487 -5.833,21.242c-4.688,4.9 -14.037,4.046 -17.825,-1.55c-4.896,-5.737 -3.954,-14.083 -3.667,-21.121l-2.017,-1.108c-0.246,-0.133 -0.558,0.012 -0.6,0.296c-1.767,11.542 -5.367,25.608 -13.05,34.754c-0.675,0.804 -1.008,1.838 -0.937,2.888c4.133,60.496 -22.992,99.979 53.633,63.425c3.5,-5.621 4.129,-28.487 4.908,-57.471c0.017,-0.608 -0.125,-1.213 -0.408,-1.75c-1.063,-2.067 -2.042,-4.183 -2.967,-6.317Z" style="fill:#4d4d4d;fill-rule:nonzero;"/><path d="M342.675,477.488c-0.742,-19.921 -2.471,-41.429 -4.142,-62.229c-0.983,-12.2 -1.908,-23.725 -2.608,-34.542l1.588,-17.792l0.433,0.042l-1.583,17.754c0.7,10.783 1.629,22.304 2.608,34.504c1.675,20.804 3.404,42.317 4.138,62.246l-0.433,0.017Z" style="fill-rule:nonzero;"/><path d="M336.329,380.555l-0.221,-0.371c1.429,-0.867 2.954,-2.013 3.392,-3.917c0.421,-1.829 1.179,-11.996 1.104,-13.875l0.433,-0.021c0.083,1.988 -0.679,12.1 -1.112,13.996c-0.475,2.062 -2.083,3.275 -3.596,4.188Z" style="fill-rule:nonzero;"/><path d="M356.942,367.171c-0.804,0 -1.646,-0.079 -2.446,-0.342c-1.346,-0.442 -2.375,-1.375 -2.75,-2.5l0.408,-0.138c0.338,0.992 1.263,1.825 2.475,2.221c1.167,0.383 2.442,0.354 3.533,0.275c2.9,-0.217 5.75,-0.854 8.458,-1.908l0.158,0.404c-2.75,1.067 -5.642,1.717 -8.588,1.933c-0.396,0.033 -0.817,0.054 -1.25,0.054Z" style="fill-rule:nonzero;"/><path d="M319.158,366.955c-0.433,0 -0.858,-0.025 -1.254,-0.054c-2.946,-0.213 -5.833,-0.867 -8.587,-1.933l0.158,-0.404c2.713,1.05 5.558,1.692 8.458,1.904c1.092,0.079 2.367,0.113 3.533,-0.271c1.212,-0.396 2.138,-1.229 2.475,-2.225l0.412,0.138c-0.379,1.129 -1.412,2.063 -2.75,2.504c-0.804,0.262 -1.642,0.342 -2.446,0.342Z" style="fill-rule:nonzero;"/><path d="M333.954,364.776c13.554,0 26.396,-0.492 32.796,-1.938l0.387,-6.254c-10.517,2.379 -47.85,3.475 -57.546,0.367l-0.275,5.737c4.854,1.554 13.662,2.087 24.637,2.087Z" style="fill-rule:nonzero;"/><path d="M339.879,272.73l-0.017,-1.333l0.442,-0.004l0.017,1.333l-0.442,0.004Zm0.033,2.658l-0.017,-1.329l0.442,-0.004l0.017,1.329l-0.442,0.004Zm0.033,2.658l-0.017,-1.325l0.442,-0.008l0.017,1.329l-0.442,0.004Zm0.029,2.662l-0.017,-1.333l0.446,0l0.017,1.329l-0.446,0.004Zm0.033,2.658l-0.017,-1.329l0.446,-0.008l0.017,1.333l-0.446,0.004Zm0.033,2.658l-0.017,-1.329l0.446,-0.004l0.012,1.329l-0.442,0.004Zm0.033,2.662l-0.017,-1.329l0.442,-0.008l0.021,1.329l-0.446,0.008Zm0.038,2.658l-0.017,-1.333l0.442,-0.004l0.017,1.333l-0.442,0.004Zm0.458,1.333l-0.442,0l0.442,-0.008l0,0.008Z" style="fill:#c74710;fill-rule:nonzero;"/><path d="M362.033,298.163c0,-1.979 -2.583,-3.592 -5.767,-3.592c-3.187,0 -5.775,1.613 -5.775,3.592c0,1.988 2.588,3.6 5.775,3.6c3.183,0 5.767,-1.613 5.767,-3.6Z" style="fill:#ffe23d;fill-rule:nonzero;"/><path d="M356.267,294.763c-3.079,0 -5.583,1.525 -5.583,3.4c0,1.879 2.504,3.408 5.583,3.408c3.075,0 5.575,-1.529 5.575,-3.408c0,-1.875 -2.5,-3.4 -5.575,-3.4Zm0,7.183c-3.288,0 -5.962,-1.696 -5.962,-3.783c0,-2.083 2.675,-3.783 5.962,-3.783c3.288,0 5.958,1.7 5.958,3.783c0,2.087 -2.671,3.783 -5.958,3.783Z" style="fill:#f75b16;fill-rule:nonzero;"/><path d="M362.433,366.017c-0.517,0 -0.942,-0.421 -0.942,-0.937l0,-7.967c0,-0.517 0.425,-0.942 0.942,-0.942c0.521,0 0.942,0.425 0.942,0.942l0,7.967c0,0.517 -0.421,0.937 -0.942,0.937Z" style="fill:#ffe23d;fill-rule:nonzero;"/><path d="M349.363,366.821c-0.517,0 -0.938,-0.425 -0.938,-0.942l0,-7.967c0,-0.521 0.421,-0.937 0.938,-0.937c0.521,0 0.946,0.417 0.946,0.937l0,7.967c0,0.517 -0.425,0.942 -0.946,0.942Z" style="fill:#ffe23d;fill-rule:nonzero;"/><path d="M365.075,374.342l-0.467,-9.642l-17.621,0.854l0.462,9.646c0.192,3.921 3.529,6.95 7.45,6.762l3.413,-0.167c3.925,-0.188 6.954,-3.525 6.763,-7.454Z" style="fill:#ffe23d;fill-rule:nonzero;"/><path d="M583.942,508.405l0,-464.621c0,-3.612 2.929,-6.542 6.542,-6.542l32.337,0c3.617,0 6.546,2.929 6.546,6.542l0,464.621l-45.425,0Z" style="fill:#f75b16;fill-rule:nonzero;"/><rect x="599.729" y="57.084" width="13.733" height="402.5" style="fill:#ad2b0e;fill-rule:nonzero;"/><path d="M629.362,326.021l0,-104.058l30.646,0c5.246,0 9.496,4.254 9.496,9.496l0,85.067c0,5.242 -4.25,9.496 -9.496,9.496l-30.646,0Z" style="fill:#b19cb8;fill-rule:nonzero;"/><path d="M633.817,320.513l25.642,0c3.667,0 6.65,-2.983 6.65,-6.65l0,-81.854c0,-3.667 -2.983,-6.646 -6.65,-6.646l-25.642,0l0,95.15Zm25.642,0.454l-26.104,0l0,-96.063l26.104,0c3.921,0 7.104,3.187 7.104,7.104l0,81.854c0,3.917 -3.183,7.104 -7.104,7.104Z" style="fill:#6c5b72;fill-rule:nonzero;"/><path d="M650.488,250.03c-3.338,0 -6.05,2.713 -6.05,6.05c0,3.333 2.713,6.046 6.05,6.046c3.338,0 6.05,-2.713 6.05,-6.046c0,-3.338 -2.713,-6.05 -6.05,-6.05Zm0,12.563c-3.592,0 -6.517,-2.921 -6.517,-6.512c0,-3.596 2.925,-6.517 6.517,-6.517c3.592,0 6.512,2.921 6.512,6.517c0,3.592 -2.921,6.512 -6.512,6.512Z" style="fill:#6d5c73;fill-rule:nonzero;"/><path d="M650.488,276.276c-3.338,0 -6.05,2.717 -6.05,6.05c0,3.333 2.713,6.05 6.05,6.05c3.338,0 6.05,-2.717 6.05,-6.05c0,-3.333 -2.713,-6.05 -6.05,-6.05Zm0,12.567c-3.592,0 -6.517,-2.925 -6.517,-6.517c0,-3.592 2.925,-6.512 6.517,-6.512c3.592,0 6.512,2.921 6.512,6.512c0,3.592 -2.921,6.517 -6.512,6.517Z" style="fill:#6d5c73;fill-rule:nonzero;"/><path d="M602.058,246.055l0,-57.046c0,-2.483 2.008,-4.492 4.492,-4.492c2.479,0 4.487,2.008 4.487,4.492l0,57.046c0,2.479 -2.008,4.492 -4.487,4.492c-2.483,0 -4.492,-2.013 -4.492,-4.492Z" style="fill:#4b2a4f;fill-rule:nonzero;"/><path d="M506.108,223.455l0,-17.962l105.117,0l0,31.971l-105.117,-14.008Z" style="fill:#f75b16;fill-rule:nonzero;"/><path d="M506.379,223.217l104.579,13.942l0,-31.396l-104.579,0l0,17.454Zm105.112,14.554l-0.304,-0.042l-105.346,-14.042l0,-18.462l105.65,0l0,32.546Z" style="fill:#ad2b0e;fill-rule:nonzero;"/><path d="M589.087,220.246c0,-4.079 3.308,-7.392 7.396,-7.392c4.083,0 7.392,3.312 7.392,7.392c0,4.087 -3.308,7.396 -7.392,7.396c-4.088,0 -7.396,-3.308 -7.396,-7.396Z" style="fill:#f75b16;fill-rule:nonzero;"/><path d="M596.483,213.121c-3.929,0 -7.125,3.2 -7.125,7.125c0,3.929 3.196,7.129 7.125,7.129c3.929,0 7.125,-3.2 7.125,-7.129c0,-3.925 -3.196,-7.125 -7.125,-7.125Zm0,14.792c-4.225,0 -7.662,-3.437 -7.662,-7.667c0,-4.225 3.438,-7.663 7.662,-7.663c4.229,0 7.667,3.438 7.667,7.663c0,4.229 -3.438,7.667 -7.667,7.667Z" style="fill:#ad2b0e;fill-rule:nonzero;"/><rect x="516.442" y="219.705" width="72.825" height="0.538" style="fill:#ad2b0e;fill-rule:nonzero;"/><rect x="602.867" y="216.205" width="9.167" height="0.537" style="fill:#ad2b0e;fill-rule:nonzero;"/><path d="M544.238,508.88c0,-7.588 27.079,-13.733 60.479,-13.733c33.404,0 60.479,6.146 60.479,13.733l-120.958,0Z" style="fill:#ad2b0e;fill-rule:nonzero;"/><path d="M81.258,508.405l0,-464.954c0,-3.429 -2.779,-6.208 -6.212,-6.208l-33.008,0c-3.429,0 -6.208,2.779 -6.208,6.208l0,464.954l45.429,0Z" style="fill:#f75b16;fill-rule:nonzero;"/><rect x="51.733" y="57.084" width="13.733" height="402.5" style="fill:#ad2b0e;fill-rule:nonzero;"/><path d="M63.138,246.055l0,-57.046c0,-2.483 -2.008,-4.492 -4.487,-4.492c-2.483,0 -4.492,2.008 -4.492,4.492l0,57.046c0,2.479 2.008,4.492 4.492,4.492c2.479,0 4.487,-2.013 4.487,-4.492Z" style="fill:#4b2a4f;fill-rule:nonzero;"/><path d="M159.087,223.455l0,-17.962l-105.112,0l0,31.971l105.112,-14.008Z" style="fill:#f75b16;fill-rule:nonzero;"/><path d="M54.242,205.763l0,31.396l104.575,-13.942l0,-17.454l-104.575,0Zm-0.537,32.008l0,-32.546l105.654,0l0,18.462l-0.238,0.033l-105.417,14.05Z" style="fill:#ad2b0e;fill-rule:nonzero;"/><path d="M76.108,220.246c0,-4.079 -3.313,-7.392 -7.396,-7.392c-4.083,0 -7.396,3.312 -7.396,7.392c0,4.087 3.313,7.396 7.396,7.396c4.083,0 7.396,-3.308 7.396,-7.396Z" style="fill:#f75b16;fill-rule:nonzero;"/><path d="M68.712,213.121c-3.929,0 -7.125,3.2 -7.125,7.125c0,3.929 3.196,7.129 7.125,7.129c3.929,0 7.129,-3.2 7.129,-7.129c0,-3.925 -3.2,-7.125 -7.129,-7.125Zm0,14.792c-4.225,0 -7.662,-3.437 -7.662,-7.667c0,-4.225 3.438,-7.663 7.662,-7.663c4.229,0 7.667,3.438 7.667,7.663c0,4.229 -3.437,7.667 -7.667,7.667Z" style="fill:#ad2b0e;fill-rule:nonzero;"/><rect x="75.929" y="219.705" width="72.829" height="0.538" style="fill:#ad2b0e;fill-rule:nonzero;"/><rect x="53.158" y="216.205" width="9.171" height="0.537" style="fill:#ad2b0e;fill-rule:nonzero;"/><path d="M120.958,508.88c0,-7.588 -27.075,-13.733 -60.479,-13.733c-33.4,0 -60.479,6.146 -60.479,13.733l120.958,0Z" style="fill:#ad2b0e;fill-rule:nonzero;"/><path d="M331.838,238.734c2.121,2.233 6.746,1.075 9.621,1.292c2.558,0.196 3.025,-4.383 5.554,-5.125c1.542,-0.458 5.842,3.808 7.2,0.887c1.996,1.658 0.95,8.413 -2.129,13.471c-2.567,5.192 -8.125,1.892 -12.288,0.45c-2.125,-1.55 -4.133,0.175 -6.183,0.996c-1.967,0.046 -3.692,-2.371 -3.938,-4.738c-0.125,-2 0.917,-4.179 0.579,-6.079c-0.308,-1.667 -0.038,-2.871 1.583,-1.154Z" style="fill:#842d2a;fill-rule:nonzero;"/><path d="M335.371,259.751c4.25,1.262 8.675,1.15 12.25,3.367l-1.317,6.708l-9.613,1.767l-2.783,-2.525l1.463,-9.317Z" style="fill:#fbbaad;fill-rule:nonzero;"/><path d="M337.613,251.351l-2.425,9.454c1.008,2.767 4.292,4.854 11.988,4.65l2.662,-14.283c-3.629,-3.525 -7.225,0.637 -12.225,0.179Z" style="fill:#fd9b8e;fill-rule:nonzero;"/><path d="M342.583,249.313c-1.242,1.542 -2.829,3.125 -4.646,3.896c-2.013,0.858 -4.317,0.621 -6.396,0.146c-1.121,-0.25 -2.246,-0.563 -3.363,-0.921c-0.196,-1.021 -0.317,-2.096 -0.35,-3.196c-0.192,-6.033 1.221,-11.95 2.021,-15.629c0.138,-0.633 0.579,-3.292 5.704,-2.358c9.358,1.7 13.183,-0.146 9.825,11.583c-0.021,0.083 0.033,0.15 0.096,0.204c-0.462,2.283 -1.446,4.487 -2.892,6.275Z" style="fill:#fbbaad;fill-rule:nonzero;"/><path d="M339.608,254.455c0.975,-0.563 1.812,-1.296 2.629,-2.083c0.85,-0.817 1.658,-1.667 2.346,-2.646c1.121,-1.6 1.958,-3.458 2.458,-5.387c0.058,0.233 0.092,0.508 0.071,0.858c-0.154,2.808 1.729,6.296 1.696,6.829c0,0 -7.4,9.462 -15.708,7.887c-1.9,-0.358 -3.462,-2.475 -4.383,-5.354c3.621,1.137 7.529,1.837 10.892,-0.104Z" style="fill:#842d2a;fill-rule:nonzero;"/><path d="M334.087,246.951c-0.387,-0.113 -0.587,-0.187 -0.792,-0.262c-0.175,-0.067 -0.35,-0.129 -0.558,-0.208c-0.121,-0.046 -0.229,-0.15 -0.267,-0.271c-0.046,-0.15 -0.008,-0.275 0.029,-0.354c0.025,-0.221 0.171,-0.542 0.421,-1.083c0.238,-0.521 0.567,-1.233 0.825,-1.954c0.083,-0.221 0.325,-0.333 0.546,-0.25c0.221,0.075 0.333,0.321 0.258,0.538c-0.279,0.758 -0.613,1.487 -0.854,2.021c-0.121,0.25 -0.246,0.533 -0.308,0.692c0.071,0.025 0.138,0.05 0.204,0.075c0.2,0.075 0.4,0.15 0.637,0.233c0.221,0.083 0.338,0.325 0.258,0.546c-0.067,0.171 -0.229,0.279 -0.4,0.279Z" style="fill:#fd9b8e;fill-rule:nonzero;"/><path d="M330.792,241.534c-0.087,0.404 -0.417,0.687 -0.746,0.612c-0.333,-0.079 -0.529,-0.463 -0.458,-0.875c0.113,-0.592 0.433,-0.775 0.762,-0.704c0.333,0.071 0.579,0.346 0.442,0.967Z" style="fill:#3a3c3f;fill-rule:nonzero;"/><path d="M331.542,241.105c-1.271,-0.879 -2.346,-0.271 -2.387,-0.246l-0.238,-0.396c0.054,-0.033 1.362,-0.796 2.887,0.263l-0.262,0.379Z" style="fill:#3a3c3f;fill-rule:nonzero;"/><path d="M338.883,242.846c-0.042,0.417 0.183,0.783 0.521,0.825c0.337,0.042 0.642,-0.262 0.7,-0.679c0.071,-0.596 -0.171,-0.875 -0.508,-0.921c-0.338,-0.038 -0.654,0.146 -0.713,0.775Z" style="fill:#3a3c3f;fill-rule:nonzero;"/><path d="M340.788,242.771c-0.038,-0.038 -0.871,-0.971 -2.35,-0.554l-0.121,-0.45c1.771,-0.496 2.779,0.654 2.825,0.704l-0.354,0.3Z" style="fill:#3a3c3f;fill-rule:nonzero;"/><path d="M331.229,231.763c0.688,-3.579 5.304,-11.821 19.592,-5.917c6.462,2.667 8.046,12.825 3.471,18.546c0,0 -5.287,-7.171 -11.092,-8.383c-5.804,-1.213 -11.971,-4.246 -11.971,-4.246Z" style="fill:#c74710;fill-rule:nonzero;"/><path d="M344.346,228.146c0.158,-1.012 -1.217,-2.079 -3.062,-2.396c-1.85,-0.313 -3.479,0.25 -3.638,1.254c-0.158,1.008 1.217,2.079 3.063,2.392c1.854,0.321 3.479,-0.242 3.637,-1.25Z" style="fill:#ffe23d;fill-rule:nonzero;"/><path d="M328.138,242.83c0.746,3.129 3.025,4.679 6.604,5.321c6.558,1.183 10.742,0.529 11.717,-11.792c2.779,-0.929 0.125,13.329 -0.058,14.513c0.525,13.029 -16.121,13.621 -18.05,5.025c-0.967,-4.308 -0.746,-10.404 -0.212,-13.067Z" style="fill:#842d2a;fill-rule:nonzero;"/><path d="M337.275,249.663c-0.379,1.042 -1.321,1.746 -2.204,1.587l-1.488,-0.262c-0.887,-0.158 -1.392,-1.117 -1.221,-2.192l4.913,0.867Z" style="fill:#fff;fill-rule:nonzero;"/><path d="M329.629,234.563c-3.154,-6.242 -6.563,-11.237 1.825,-11.112c13.287,0.196 17.258,9.612 16.667,14.942c-1.996,-2.037 -15.771,-4.833 -18.492,-3.829Z" style="fill:#f85b15;fill-rule:nonzero;"/><path d="M332.508,233.551c3.667,0 10.042,1.3 15.163,3.567c-0.996,-5.479 -4.558,-12.012 -15.792,-12.533c-2.467,-0.113 -3.933,0.271 -4.467,1.171c-0.883,1.488 0.817,4.287 2.621,7.258c0.15,0.242 0.3,0.492 0.45,0.742c0.508,-0.137 1.196,-0.204 2.025,-0.204Zm15.438,3.929c-6.796,-3.067 -15.108,-4.192 -17.483,-3.5c-0.283,-0.317 -0.45,-0.592 -0.613,-0.858c-1.837,-3.025 -3.571,-5.879 -2.621,-7.475c0.575,-0.975 2.104,-1.396 4.663,-1.279c11.508,0.537 15.067,7.317 16.025,12.912l0.029,0.2Z" style="fill:#c74710;fill-rule:nonzero;"/><path d="M348.933,245.913c-2.258,1.842 -1.138,5.942 0.496,6.2c1.638,0.254 3.704,-1.8 4.617,-4.579c0.917,-2.787 -0.092,-5.475 -2.346,-5.992c-1.617,-0.367 -0.671,2.667 -2.767,4.371Z" style="fill:#fbbaad;fill-rule:nonzero;"/><path d="M348.467,250.884c-0.163,-0.021 -0.25,-0.142 -0.229,-0.267c0.05,-0.371 0.117,-0.792 0.271,-1.175c0.113,-0.262 0.35,-0.721 0.771,-0.887c0.313,-0.125 0.667,-0.067 1.042,0.187c0.075,0.054 0.158,0.092 0.233,0.137c0.138,0.075 0.279,0.15 0.412,0.267c0.454,-0.333 1.804,-1.504 1.704,-3.754c-0.004,-0.129 0.1,-0.237 0.229,-0.242c0.15,0.004 0.242,0.096 0.246,0.221c0.125,2.938 -1.996,4.221 -2.083,4.275c-0.1,0.058 -0.221,0.042 -0.3,-0.046c-0.117,-0.133 -0.271,-0.221 -0.433,-0.308c-0.092,-0.05 -0.179,-0.1 -0.271,-0.158c-0.242,-0.163 -0.442,-0.208 -0.604,-0.142c-0.188,0.075 -0.375,0.308 -0.508,0.629c-0.133,0.329 -0.196,0.721 -0.246,1.058c-0.017,0.117 -0.117,0.204 -0.233,0.204Z" style="fill:#fd9b8e;fill-rule:nonzero;"/><path d="M341.813,240.355c-0.1,-0.367 -0.317,-0.688 -0.613,-0.917c-0.288,-0.242 -0.637,-0.404 -1.004,-0.483c-0.367,-0.079 -0.738,-0.075 -1.092,0.004c-0.35,0.088 -0.692,0.246 -0.946,0.533c0.367,0.125 0.675,0.208 0.979,0.279l0.85,0.192c0.279,0.05 0.55,0.113 0.837,0.183c0.3,0.058 0.592,0.154 0.987,0.208Z" style="fill:#9e4137;fill-rule:nonzero;"/><path d="M333.146,238.888c-0.1,-0.371 -0.317,-0.692 -0.613,-0.925c-0.288,-0.237 -0.638,-0.404 -1.004,-0.475c-0.367,-0.083 -0.742,-0.083 -1.092,0.004c-0.35,0.083 -0.692,0.237 -0.946,0.533c0.367,0.121 0.675,0.204 0.979,0.271l0.85,0.192c0.279,0.058 0.55,0.117 0.838,0.187c0.3,0.058 0.592,0.15 0.987,0.213Z" style="fill:#9e4137;fill-rule:nonzero;"/><path d="M268.821,218.226l-7.429,2.079c0,0 6.762,17.779 17.154,35.825c0.987,1.712 5.971,10.146 12.15,5.446c2.842,-2.163 2.171,-9.463 2.171,-9.463c-0.762,-3.033 -24.046,-33.887 -24.046,-33.887Z" style="fill:#fbbaad;fill-rule:nonzero;"/><path d="M294.871,254.48l-21.696,-30.158l21.696,30.158Z" style="fill:#fbbaad;fill-rule:nonzero;"/><path d="M294.871,254.663c-0.15,-0.079 -21.842,-30.233 -21.842,-30.233c-0.063,-0.088 -0.042,-0.2 0.042,-0.258c0.079,-0.058 0.196,-0.038 0.254,0.042l21.696,30.158c0.058,0.083 0.038,0.196 -0.042,0.254c-0.033,0.025 -0.071,0.037 -0.108,0.037Z" style="fill:#fd9b8e;fill-rule:nonzero;"/><path d="M264.321,227.892c-0.417,0 -0.792,-0.304 -0.858,-0.733c-0.075,-0.475 0.25,-0.921 0.725,-0.996c6.087,-0.963 7.454,-3.896 7.467,-3.925c0.196,-0.433 0.708,-0.642 1.142,-0.454c0.438,0.187 0.65,0.688 0.467,1.129c-0.067,0.158 -1.658,3.842 -8.804,4.971c-0.046,0.004 -0.092,0.008 -0.137,0.008Z" style="fill:#ae82a9;fill-rule:nonzero;"/><path d="M253.646,222.888l-1.979,-1.708l19.408,-22.462l1.979,1.708l-19.408,22.462Z" style="fill:#706370;fill-rule:nonzero;"/><path d="M273.521,192.396l2.6,0.775l-2.958,3.246c-0.567,0.629 -0.525,1.604 0.108,2.179l0.25,0.225c0.633,0.575 1.604,0.529 2.179,-0.1l2.942,-3.229l1,2.475l-2.262,4l-4.533,0.729l-3.396,-3.092l0.3,-4.583l3.771,-2.625Z" style="fill:#706370;fill-rule:nonzero;"/><path d="M256.9,215.188c0.117,-0.433 1.188,0.113 1.617,-0.358c1.608,-1.767 8.325,-4.171 8.325,-4.171c0.917,1.138 1.35,2.3 1.579,3.679c0.808,4.983 -0.754,8.608 -2.017,10.6c-0.642,1.017 -2.312,0.579 -3.304,-0.225c-2.913,-2.363 -4.092,-4.963 -4.971,-6.8c-0.642,-1.354 -1.371,-2.192 -1.229,-2.725Z" style="fill:#fbbaad;fill-rule:nonzero;"/><path d="M258.963,210.217c-1.317,-2.033 0.796,-4.258 2.154,-2.483c0.179,0.242 2.529,4.154 3.279,5.354c0.317,0.504 0.225,1.192 -0.325,1.829c-0.475,0.537 -1.546,0.508 -1.933,-0.083c-0.779,-1.162 -2.604,-3.729 -3.175,-4.617Z" style="fill:#fbbaad;fill-rule:nonzero;"/><path d="M259.992,207.271c-0.204,0 -0.404,0.063 -0.592,0.2c-0.679,0.475 -0.967,1.592 -0.283,2.642c0.304,0.475 0.979,1.446 1.637,2.392c0.583,0.837 1.175,1.687 1.538,2.229c0.142,0.217 0.421,0.358 0.75,0.379c0.354,0.025 0.7,-0.1 0.892,-0.321c0.479,-0.546 0.592,-1.15 0.308,-1.604c-0.325,-0.517 -0.95,-1.546 -1.567,-2.563c-0.758,-1.242 -1.613,-2.65 -1.713,-2.779c-0.288,-0.379 -0.629,-0.575 -0.971,-0.575Zm3.142,8.213c-0.567,-0.033 -0.942,-0.233 -1.146,-0.546c-0.363,-0.542 -0.954,-1.388 -1.538,-2.225c-0.687,-0.988 -1.337,-1.921 -1.642,-2.396c-0.8,-1.242 -0.442,-2.575 0.379,-3.15c0.517,-0.363 1.371,-0.463 2.075,0.458c0.096,0.133 0.717,1.15 1.725,2.808c0.617,1.017 1.242,2.042 1.562,2.558c0.375,0.587 0.242,1.375 -0.342,2.042c-0.25,0.283 -0.642,0.45 -1.075,0.45Z" style="fill:#fd9b8e;fill-rule:nonzero;"/><path d="M261.567,208.409c-1.221,-1.875 1.192,-3.625 2.458,-1.987c0.171,0.217 2.075,3.413 2.767,4.525c0.296,0.467 0.188,1.117 -0.379,1.737c-0.479,0.525 -1.529,0.529 -1.887,-0.008c-0.721,-1.083 -2.425,-3.446 -2.958,-4.267Z" style="fill:#fbbaad;fill-rule:nonzero;"/><path d="M261.713,208.313c0.267,0.404 0.821,1.192 1.404,2.025c0.587,0.833 1.192,1.692 1.554,2.238c0.121,0.179 0.358,0.3 0.65,0.317c0.363,0.029 0.75,-0.1 0.963,-0.333c0.487,-0.533 0.621,-1.1 0.362,-1.521c-0.308,-0.488 -0.85,-1.383 -1.371,-2.25c-0.642,-1.058 -1.304,-2.15 -1.388,-2.262c-0.571,-0.738 -1.354,-0.692 -1.875,-0.321c-0.546,0.392 -0.875,1.217 -0.3,2.108Zm3.717,4.938c-0.537,-0.029 -0.871,-0.204 -1.05,-0.479c-0.363,-0.542 -0.967,-1.4 -1.55,-2.229c-0.587,-0.837 -1.146,-1.625 -1.408,-2.033c-0.708,-1.088 -0.292,-2.104 0.392,-2.592c0.637,-0.454 1.642,-0.521 2.354,0.392c0.096,0.125 0.596,0.95 1.408,2.296c0.521,0.862 1.063,1.758 1.367,2.246c0.35,0.554 0.196,1.3 -0.4,1.95c-0.258,0.283 -0.679,0.45 -1.112,0.45Z" style="fill:#fd9b8e;fill-rule:nonzero;"/><path d="M261.375,216.405c0.608,-0.433 0.767,-1.292 0.379,-2c-0.783,-1.429 -2.463,-3.892 -2.742,-4.133c-0.387,-0.329 -0.987,-0.717 -1.771,-0.075c-0.379,0.312 -0.796,1.217 -0.108,2.275c0.579,0.892 1.371,2.283 2.187,3.417c0.504,0.7 1.329,1.046 1.975,0.575l0.079,-0.058Z" style="fill:#fbbaad;fill-rule:nonzero;"/><path d="M258.083,210.03c-0.221,0 -0.454,0.088 -0.725,0.308c-0.35,0.288 -0.683,1.096 -0.071,2.033c0.204,0.308 0.425,0.679 0.671,1.071c0.458,0.75 0.979,1.6 1.513,2.342c0.279,0.387 0.646,0.642 1.017,0.7c0.254,0.042 0.488,-0.017 0.696,-0.167c0.617,-0.442 0.754,-1.196 0.408,-1.825c-0.8,-1.471 -2.454,-3.871 -2.704,-4.083c-0.237,-0.204 -0.5,-0.379 -0.804,-0.379Zm2.558,6.837c-0.067,0 -0.142,-0.008 -0.212,-0.021c-0.463,-0.075 -0.921,-0.383 -1.254,-0.846c-0.542,-0.754 -1.067,-1.608 -1.529,-2.363c-0.246,-0.396 -0.471,-0.758 -0.667,-1.067c-0.742,-1.138 -0.304,-2.146 0.15,-2.517c0.975,-0.804 1.75,-0.142 2,0.075c0.325,0.283 2.046,2.829 2.788,4.187c0.433,0.788 0.25,1.75 -0.433,2.238c-0.313,0.225 -0.567,0.312 -0.842,0.312Z" style="fill:#fd9b8e;fill-rule:nonzero;"/><path d="M259.696,216.671c0.446,0.738 -0.308,1.7 -1.117,1.371c-0.246,-0.108 -0.375,-0.275 -0.375,-0.275c-1.112,-0.867 -1.692,-1.929 -1.933,-2.996c-0.121,-0.513 -0.142,-1.062 0.146,-1.429c0.283,-0.362 0.846,-0.454 1.225,-0.033l2.054,3.362Z" style="fill:#fbbaad;fill-rule:nonzero;"/><path d="M257.046,213.217c-0.196,0.008 -0.371,0.096 -0.483,0.242c-0.263,0.329 -0.204,0.871 -0.113,1.271c0.263,1.158 0.892,2.138 1.871,2.892c0.033,0.038 0.133,0.167 0.333,0.25c0.333,0.137 0.629,-0.017 0.792,-0.213c0.171,-0.2 0.3,-0.554 0.092,-0.896l-2.05,-3.358c-0.146,-0.15 -0.317,-0.187 -0.442,-0.187Zm1.858,5.071c-0.129,0 -0.262,-0.025 -0.392,-0.075c-0.246,-0.104 -0.387,-0.254 -0.437,-0.313c-1.033,-0.812 -1.7,-1.85 -1.983,-3.092c-0.163,-0.692 -0.104,-1.225 0.183,-1.579c0.179,-0.233 0.45,-0.371 0.742,-0.379c0.292,-0.008 0.554,0.108 0.762,0.338l2.071,3.383c0.254,0.421 0.208,0.942 -0.121,1.329c-0.217,0.254 -0.517,0.388 -0.825,0.388Z" style="fill:#fd9b8e;fill-rule:nonzero;"/><path d="M264.004,218.959c-1.554,-1.433 -0.121,-4.937 1.692,-5.633l-0.787,-2.1c-1.671,0.921 -3,1.158 -3.567,0.675c-1.942,-1.654 3.079,-4.408 4.75,-4.287c2.038,0.15 3.1,2.875 3.683,3.779c1.313,2.042 2.271,6.858 0.513,9.108l-6.283,-1.542Z" style="fill:#fbbaad;fill-rule:nonzero;"/><path d="M270.288,220.688c-0.196,-0.104 -0.208,-0.221 -0.146,-0.3c1.65,-2.121 0.833,-6.783 -0.521,-8.896c-0.108,-0.162 -0.229,-0.383 -0.367,-0.642c-0.642,-1.171 -1.604,-2.937 -3.179,-3.054c-1.183,-0.096 -4.329,1.45 -4.904,2.85c-0.175,0.433 -0.079,0.8 0.292,1.117c0.508,0.433 1.792,0.163 3.358,-0.7c0.262,0.096 1.046,2.196 1.046,2.196c0.038,0.096 -0.013,0.2 -0.104,0.237c-0.975,0.375 -1.904,1.683 -2.171,3.046c-0.104,0.571 -0.183,1.621 0.538,2.279c0.075,0.071 0.079,0.187 0.008,0.263c-0.067,0.075 -0.183,0.079 -0.254,0.012c-0.633,-0.583 -0.863,-1.512 -0.65,-2.621c0.275,-1.425 1.196,-2.754 2.229,-3.246l-0.654,-1.742c-1.663,0.879 -2.967,1.083 -3.588,0.554c-0.492,-0.421 -0.625,-0.95 -0.387,-1.533c0.65,-1.583 3.917,-3.179 5.271,-3.079c1.775,0.129 2.837,2.079 3.471,3.246c0.133,0.246 0.25,0.463 0.354,0.621c1.417,2.196 2.25,7.079 0.504,9.317c-0.038,0.05 -0.096,0.075 -0.146,0.075Z" style="fill:#fd9b8e;fill-rule:nonzero;"/><path d="M375.446,13.246l-96.087,0l96.087,0Z" style="fill:#ff9f05;fill-rule:nonzero;"/><path d="M158.308,95.346c0,0 22.904,-76.371 51.837,-82.867c30.613,-6.875 156.167,-16.433 239.238,0.408c21.292,4.317 52.521,83.029 52.521,83.029c0,0 -185.942,-11.079 -343.596,-0.571Z" style="fill:#1f97f2;fill-rule:nonzero;"/><path d="M311.579,87.367c88.846,0 164.479,3.679 185.033,4.775c-12.363,-29.862 -34.542,-73.129 -47.921,-75.842c-45.362,-9.2 -100.363,-9.987 -138.513,-9.029c-45.046,1.129 -84.033,5.179 -99.267,8.604c-20.554,4.613 -40.129,52.367 -47.763,75.667c48.95,-3.108 100.6,-4.175 148.429,-4.175Zm195.571,12.35l-5.454,-0.325c-1.858,-0.108 -187.538,-10.95 -343.158,-0.575l-5.004,0.333l1.442,-4.808c0.238,-0.788 5.908,-19.567 15.25,-39.471c12.883,-27.442 26.058,-42.846 39.163,-45.787c15.567,-3.496 55.125,-7.629 100.617,-8.771c38.508,-0.967 94.071,-0.158 140.071,9.167c10.05,2.037 22.038,16.737 36.642,44.942c10.425,20.142 18.342,40.017 18.421,40.217l2.013,5.079Z" style="fill:#ffde05;fill-rule:nonzero;"/><path d="M193.837,94.867l13.917,-33.733c3.35,-8.112 12.029,-13.983 22.421,-15.15c37.754,-4.237 130.533,-12.008 199.417,4.104c8.583,2.008 15.4,7.342 18.346,14.221l12.25,28.658c0,0 -209.538,-11.312 -266.35,1.9Z" style="fill:#51a9ed;fill-rule:nonzero;"/><path d="M223.188,92.755l12.7,-53.625c1.2,-5.075 6.642,-8.738 12.971,-8.738l30.379,0c6.271,0 11.413,4.054 11.633,9.171l2.337,54.862l-70.021,-1.671Z" style="fill:#1f82cf;fill-rule:nonzero;"/><path d="M433.933,91.084l-12.704,-53.629c-1.2,-5.071 -6.637,-8.733 -12.967,-8.733l-30.383,0c-6.271,0 -11.413,4.054 -11.629,9.171l-2.337,54.862l70.021,-1.671Z" style="fill:#1f82cf;fill-rule:nonzero;"/><path d="M302.967,18.438l0,-2.583c0,-2.975 2.413,-5.392 5.387,-5.392l34.921,0c2.979,0 5.392,2.417 5.392,5.392l0,2.583c0,2.979 -2.412,5.392 -5.392,5.392l-34.921,0c-2.975,0 -5.387,-2.413 -5.387,-5.392Z" style="fill:#146eb3;fill-rule:nonzero;"/><rect x="323.937" y="6.663" width="3.75" height="10.858" style="fill:#146eb3;fill-rule:nonzero;"/><path d="M397.317,69.934c-15.392,0 -27.913,10 -27.913,22.296c0,12.3 12.521,22.3 27.913,22.3c15.392,0 27.912,-10 27.912,-22.3c0,-12.296 -12.521,-22.296 -27.912,-22.296Zm0,49.913c-18.321,0 -33.229,-12.387 -33.229,-27.617c0,-15.221 14.908,-27.608 33.229,-27.608c18.325,0 33.229,12.388 33.229,27.608c0,15.229 -14.904,27.617 -33.229,27.617Z" style="fill:#663748;fill-rule:nonzero;"/><path d="M397.154,96.201l-29.033,-11.887l2.017,-4.917l26.954,11.038l25.304,-10.983l2.113,4.875l-27.354,11.875Z" style="fill:#663748;fill-rule:nonzero;"/><path d="M385.879,93.371c0,-5.229 5.192,-9.471 11.596,-9.471c6.404,0 11.596,4.242 11.596,9.471c0,5.225 -5.192,9.463 -11.596,9.463c-6.404,0 -11.596,-4.237 -11.596,-9.463Z" style="fill:#663748;fill-rule:nonzero;"/><path d="M477.842,87.509l-0.396,7.183l7.867,3.137l0.679,-12.05l-8.15,1.729Z" style="fill:#f5a74e;fill-rule:nonzero;"/><path d="M501.025,88.892l0,-8.687c0,-4.792 5.471,-8.879 12.95,-9.675l19.358,-2.058c4.317,-0.458 8.258,1.646 8.258,4.408l0,9.65c0,4.096 -4.679,6.192 -11.071,6.871l-29.496,-0.508Z" style="fill:#ffde05;fill-rule:nonzero;"/><path d="M178.021,87.509l0.4,7.183l-7.871,3.137l-0.679,-12.05l8.15,1.729Z" style="fill:#f5a74e;fill-rule:nonzero;"/><path d="M156.421,88.892l0,-8.687c0,-4.792 -5.479,-8.879 -12.958,-9.675l-19.354,-2.058c-4.317,-0.458 -8.258,1.646 -8.258,4.408l0,9.65c0,4.096 4.679,6.192 11.071,6.871l29.5,-0.508Z" style="fill:#ffde05;fill-rule:nonzero;"/><path d="M515.633,185.605c-0.288,0 -0.517,-0.229 -0.525,-0.513c-0.133,-5.642 1.054,-9.517 1.1,-9.679c0.087,-0.275 0.383,-0.429 0.658,-0.346c0.275,0.087 0.429,0.379 0.346,0.658c-0.012,0.038 -1.183,3.883 -1.054,9.346c0.004,0.288 -0.225,0.529 -0.513,0.533l-0.012,0Z" style="fill:#fd9b8e;fill-rule:nonzero;"/><rect x="189.721" y="185.476" width="268.246" height="18.379" style="fill:#5e4545;fill-rule:nonzero;"/><path d="M457.825,212.713l0,-17.608c0,-14.533 11.783,-26.321 26.321,-26.321l12.621,0c14.538,0 26.321,11.788 26.321,26.321l0,17.608c0,14.542 -11.783,26.325 -26.321,26.325l-12.621,0c-14.538,0 -26.321,-11.783 -26.321,-26.325Z" style="fill:#3b2525;fill-rule:nonzero;"/><path d="M137.758,212.713l0,-17.608c0,-14.533 11.783,-26.321 26.321,-26.321l12.621,0c14.537,0 26.321,11.788 26.321,26.321l0,17.608c0,14.542 -11.783,26.325 -26.321,26.325l-12.621,0c-14.537,0 -26.321,-11.783 -26.321,-26.325Z" style="fill:#3b2525;fill-rule:nonzero;"/><path d="M124.325,148.388c0,0 5.046,-57.7 23.537,-68.467c0,0 169.662,-22.408 357.992,0c16.171,1.925 29.721,68.467 29.721,68.467c0,0 -160.775,14.542 -214.367,14.542c-49.225,0 -196.883,-14.542 -196.883,-14.542Z" style="fill:#fff305;fill-rule:nonzero;"/><path d="M124.325,175.071l0,-28.683c0,0 136.475,6.363 203.437,5.813c61.088,-0.5 207.888,-5.813 207.888,-5.813l0,33.396c0,6.2 -7.171,11.363 -16.467,11.842c-41.696,2.154 -151.075,7.587 -192.883,7.587c-38.271,0 -133.875,-4.817 -178.429,-7.175c-13.3,-0.708 -23.546,-8.092 -23.546,-16.967Z" style="fill:#ff9f05;fill-rule:nonzero;"/><path d="M488.896,119.763c-15.783,0 -29.121,5.817 -29.121,12.708c0,6.887 13.337,12.704 29.121,12.704c15.787,0 29.121,-5.817 29.121,-12.704c0,-6.892 -13.333,-12.708 -29.121,-12.708Zm0,27.283c-17.379,0 -30.992,-6.404 -30.992,-14.575c0,-8.171 13.612,-14.575 30.992,-14.575c17.379,0 30.987,6.404 30.987,14.575c0,8.171 -13.608,14.575 -30.987,14.575Z" style="fill:#f5a74e;fill-rule:nonzero;"/><path d="M216.921,101.171c-1.304,0 -2.413,-1 -2.521,-2.325c-0.121,-1.396 0.913,-2.621 2.308,-2.737c1.217,-0.104 122.712,-10.158 227.775,-0.421c1.396,0.129 2.421,1.363 2.292,2.758c-0.129,1.396 -1.354,2.421 -2.758,2.288c-104.608,-9.696 -225.667,0.325 -226.879,0.425c-0.075,0.008 -0.146,0.012 -0.217,0.012Z" style="fill:#ff9f05;fill-rule:nonzero;"/><path d="M201.45,164.471c-3.833,0 -7.429,1.138 -9.292,2.95c-0.825,0.804 -1.25,1.667 -1.25,2.558l0,6.312c0,3.487 7.05,6.567 15.717,6.867c14.029,0.479 26.046,0.942 36.65,1.354c57.854,2.242 81.8,3.171 223.229,-1.542c6.438,-0.213 10.758,-2.525 10.758,-4.55l0,-8.221c0,-0.933 -0.442,-1.838 -1.304,-2.679c-2.05,-2.008 -5.958,-3.2 -10.179,-3.1l-263.792,0.058c-0.179,-0.004 -0.358,-0.008 -0.537,-0.008Zm118.012,23.479c-28.683,0 -48.592,-0.771 -76.246,-1.842c-10.604,-0.412 -22.625,-0.875 -36.646,-1.354c-9.842,-0.342 -17.258,-3.979 -17.258,-8.462l0,-6.312c0,-1.325 0.6,-2.6 1.729,-3.704c2.283,-2.212 6.475,-3.517 10.967,-3.392l263.75,-0.058c4.625,-0.108 8.967,1.258 11.317,3.55c1.167,1.142 1.779,2.462 1.779,3.825l0,8.221c0,3.325 -5.171,5.908 -12.3,6.146c-73.892,2.458 -115.738,3.383 -147.092,3.383Z" style="fill:#f5dc4e;fill-rule:nonzero;"/><rect x="190.617" y="169.142" width="286.654" height="1.596" style="fill:#f5dc4e;fill-rule:nonzero;"/><rect x="190.617" y="176.613" width="286.654" height="1.596" style="fill:#f5dc4e;fill-rule:nonzero;"/><path d="M174.108,119.763c-15.783,0 -29.121,5.817 -29.121,12.708c0,6.887 13.338,12.704 29.121,12.704c15.783,0 29.121,-5.817 29.121,-12.704c0,-6.892 -13.337,-12.708 -29.121,-12.708Zm0,27.283c-17.379,0 -30.992,-6.404 -30.992,-14.575c0,-8.171 13.612,-14.575 30.992,-14.575c17.379,0 30.988,6.404 30.988,14.575c0,8.171 -13.608,14.575 -30.988,14.575Z" style="fill:#f5a74e;fill-rule:nonzero;"/><path d="M172.646,122.559c12.238,0 22.158,4.504 22.158,10.058l-44.313,0c0,-5.554 9.921,-10.058 22.154,-10.058Z" style="fill:#fff;fill-rule:nonzero;"/><path d="M488.058,122.559c12.238,0 22.158,4.504 22.158,10.058l-44.312,0c0,-5.554 9.921,-10.058 22.154,-10.058Z" style="fill:#fff;fill-rule:nonzero;"/><path d="M356.504,147.813c-33.562,0 -69.817,-1.075 -92.437,-1.892c-14.254,-0.517 -28.175,-4.875 -39.204,-12.271l-75.229,-50.492c-0.258,-0.175 -0.325,-0.525 -0.15,-0.783c0.171,-0.258 0.521,-0.329 0.779,-0.154l75.233,50.492c10.85,7.283 24.562,11.575 38.608,12.083c32.408,1.167 92.796,2.871 133.112,1.175c14.883,-0.625 29.192,-5.454 40.279,-13.588l67.392,-49.425c0.25,-0.187 0.6,-0.129 0.787,0.117c0.183,0.254 0.129,0.608 -0.121,0.792l-67.392,49.429c-11.267,8.263 -25.796,13.167 -40.904,13.8c-12.192,0.513 -26.225,0.717 -40.754,0.717Z" style="fill:#f5a74e;fill-rule:nonzero;"/><path d="M146.483,174.026l0,-3.192c0,-3.679 2.979,-6.662 6.658,-6.662l13.858,0c3.679,0 6.658,2.983 6.658,6.662l0,3.192c0,3.679 -2.979,6.662 -6.658,6.662l-13.858,0c-3.679,0 -6.658,-2.983 -6.658,-6.662Z" style="fill:#ffde05;fill-rule:nonzero;"/><path d="M492.679,174.026l0,-3.192c0,-3.679 2.983,-6.662 6.658,-6.662l13.862,0c3.675,0 6.654,2.983 6.654,6.662l0,3.192c0,3.679 -2.979,6.662 -6.654,6.662l-13.862,0c-3.675,0 -6.658,-2.983 -6.658,-6.662Z" style="fill:#ffde05;fill-rule:nonzero;"/><path d="M249.046,226.034l2.071,0.583l1.746,-1.25l0.113,-2.15l-1.613,-1.425l-2.117,0.371l-1.033,1.887l0.833,1.983Zm2.317,1.979l-3.25,-0.917l-1.313,-3.117l1.621,-2.962l3.329,-0.587l2.529,2.238l-0.171,3.379l-2.746,1.967Z" style="fill:#706370;fill-rule:nonzero;"/><path d="M334.821,264.963l-2.683,1.938l2.433,4.829c0.588,1.167 2.071,1.554 3.15,0.817l2.246,-1.521l-5.146,-6.062Z" style="fill:#f85b15;fill-rule:nonzero;"/><path d="M332.354,266.955l2.371,4.696c0.254,0.513 0.721,0.892 1.279,1.033c0.554,0.146 1.15,0.042 1.621,-0.279l2.088,-1.417l-4.921,-5.792l-2.437,1.758Zm4.15,6.142c-0.192,0 -0.392,-0.025 -0.588,-0.079c-0.65,-0.167 -1.196,-0.608 -1.504,-1.213l-2.496,-4.954l2.933,-2.121l5.375,6.325l-2.404,1.633c-0.392,0.267 -0.85,0.408 -1.317,0.408Z" style="fill:#c74710;fill-rule:nonzero;"/><path d="M347.529,265.488l2.683,1.942l-4.471,4.908c-0.829,0.917 -2.208,1.079 -3.229,0.387l-2.512,-1.7l7.529,-5.537Z" style="fill:#f85b15;fill-rule:nonzero;"/><path d="M340.304,271.017l2.3,1.567c0.95,0.637 2.242,0.488 3.012,-0.358l4.338,-4.771l-2.425,-1.75l-7.225,5.313Zm3.596,2.304c-0.517,0 -1.033,-0.15 -1.487,-0.454l-2.708,-1.838l7.821,-5.75l2.946,2.121l-4.604,5.054c-0.517,0.571 -1.237,0.867 -1.967,0.867Z" style="fill:#c74710;fill-rule:nonzero;"/><path d="M358.613,348.088l-1.954,-0.929l0.017,3.5c0.004,0.675 -0.546,1.229 -1.225,1.233l-0.271,0c-0.679,0.004 -1.233,-0.542 -1.233,-1.221l-0.017,-3.488l-1.917,0.933l-0.8,3.575l2.296,2.858l3.662,-0.021l2.275,-2.875l-0.833,-3.567Z" style="fill:#706370;fill-rule:nonzero;"/><path d="M354.588,383.017l-0.688,-30.046l2.646,-0.062l0.688,30.046l-2.646,0.062Z" style="fill:#706370;fill-rule:nonzero;"/><path d="M352.171,388.505l2.529,1.071l-0.217,-4.437c-0.046,-0.863 0.621,-1.592 1.479,-1.633l0.346,-0.017c0.863,-0.042 1.592,0.621 1.638,1.479l0.217,4.421l2.375,-1.292l0.812,-4.575l-3.071,-3.492l-4.646,0.225l-2.721,3.775l1.258,4.475Z" style="fill:#706370;fill-rule:nonzero;"/><rect x="352.538" y="366.959" width="6.075" height="9.637" style="fill:#ffe23d;fill-rule:nonzero;"/><path d="M347.242,370.738l-0.021,-0.433l17.629,-0.867l0.025,0.433l-17.633,0.867Z" style="fill:#ff9b3d;fill-rule:nonzero;"/><path d="M353.658,367.088l-0.008,-0.433l3.817,-0.079l0.012,0.438l-3.821,0.075Z" style="fill:#ff9b3d;fill-rule:nonzero;"/><path d="M353.792,376.992l-0.008,-0.433l3.817,-0.079l0.008,0.437l-3.817,0.075Z" style="fill:#ff9b3d;fill-rule:nonzero;"/><rect x="211.317" y="280.784" width="4.754" height="123.179" style="fill:#b19cb8;fill-rule:nonzero;"/><rect x="208.454" y="371.617" width="10.833" height="118.917" style="fill:#f75b16;fill-rule:nonzero;"/><path d="M176.988,506.563l-1.671,-3.563l38.829,-18.262l36.817,18.15l-1.738,3.529l-35.121,-17.317l-37.117,17.462Z" style="fill:#f75b16;fill-rule:nonzero;"/><path d="M246.238,505.742c0,-2.358 1.892,-4.267 4.225,-4.267c2.337,0 4.229,1.908 4.229,4.267c0,2.354 -1.892,4.267 -4.229,4.267c-2.333,0 -4.225,-1.912 -4.225,-4.267Z" style="fill:#6b4666;fill-rule:nonzero;"/><path d="M171.992,505.742c0,-2.358 1.892,-4.267 4.229,-4.267c2.333,0 4.221,1.908 4.221,4.267c0,2.354 -1.888,4.267 -4.221,4.267c-2.338,0 -4.229,-1.912 -4.229,-4.267Z" style="fill:#6b4666;fill-rule:nonzero;"/><path d="M185.888,264.763l3.279,12.65c0.579,2.221 2.65,3.779 5.021,3.775l39.192,-0.092c2.304,-0.008 4.321,-1.483 4.954,-3.621l3.808,-12.9l-56.254,0.188Z" style="fill:#907499;fill-rule:nonzero;"/><path d="M242.717,265.334l-57.446,0c-0.3,0 -0.537,-0.238 -0.537,-0.542c0,-0.3 0.238,-0.542 0.537,-0.542l57.446,0c0.3,0 0.542,0.242 0.542,0.542c0,0.304 -0.242,0.542 -0.542,0.542Z" style="fill:#b19cb8;fill-rule:nonzero;"/><path d="M330.958,311.434c-0.004,0 -2.112,-0.037 -2.112,-0.037c-0.212,-0.004 -0.387,-0.183 -0.383,-0.4c0.004,-0.217 0.188,-0.383 0.4,-0.388l2.104,0.033c0.221,0.004 0.392,0.183 0.387,0.404c-0.004,0.217 -0.179,0.388 -0.396,0.388Zm4.213,0.071c-0.008,0 -2.112,-0.033 -2.112,-0.033c-0.221,-0.004 -0.392,-0.183 -0.392,-0.404c0.004,-0.217 0.183,-0.387 0.396,-0.387c0.008,0 2.113,0.037 2.113,0.037c0.221,0.004 0.392,0.183 0.387,0.4c0,0.212 -0.179,0.387 -0.392,0.387Zm4.208,0.071c-0.008,0 -2.113,-0.033 -2.113,-0.033c-0.221,-0.004 -0.392,-0.183 -0.387,-0.4c0,-0.217 0.179,-0.388 0.396,-0.388c0.004,0 2.112,0.038 2.112,0.038c0.217,0 0.392,0.179 0.388,0.396c-0.004,0.217 -0.179,0.388 -0.396,0.388Zm4.208,0.075c-0.008,0 -2.112,-0.037 -2.112,-0.037c-0.217,-0.004 -0.392,-0.183 -0.387,-0.4c0.004,-0.217 0.179,-0.392 0.396,-0.392c0.008,0 2.113,0.037 2.113,0.037c0.212,0.004 0.387,0.183 0.383,0.404c-0.004,0.217 -0.179,0.387 -0.392,0.387Zm4.204,0.071c-0.004,0 -2.104,-0.038 -2.104,-0.038c-0.221,-0.004 -0.396,-0.183 -0.392,-0.4c0.004,-0.217 0.183,-0.4 0.4,-0.388l2.104,0.038c0.221,0.004 0.392,0.183 0.387,0.396c0,0.221 -0.179,0.392 -0.396,0.392Zm-21.4,1.304c-0.212,0 -0.388,-0.163 -0.396,-0.375l-0.087,-2.092l0.854,0.012c0.212,0.004 0.388,0.183 0.383,0.4c-0.004,0.217 -0.179,0.387 -0.392,0.387c-0.021,0 0.029,1.254 0.029,1.254c0.008,0.221 -0.158,0.404 -0.375,0.412l-0.017,0Zm23.438,0.629c-0.275,-0.033 -0.425,-0.233 -0.392,-0.446l0.212,-1.542c-0.092,-0.071 -0.146,-0.183 -0.146,-0.313c0,-0.212 0.179,-0.383 0.392,-0.383c0.008,0 0.65,0.004 0.65,0.004l-0.329,2.342c-0.025,0.196 -0.196,0.338 -0.387,0.338Zm-23.263,3.575c-0.212,0 -0.383,-0.167 -0.396,-0.375l-0.087,-2.104c-0.008,-0.217 0.158,-0.4 0.379,-0.412c0.217,-0.017 0.4,0.163 0.412,0.379l0.083,2.104c0.008,0.217 -0.158,0.4 -0.375,0.408l-0.017,0Zm22.683,0.596c-0.271,-0.033 -0.425,-0.233 -0.396,-0.446l0.296,-2.087c0.025,-0.217 0.221,-0.367 0.442,-0.333c0.217,0.025 0.367,0.225 0.337,0.442l-0.288,2.083c-0.029,0.2 -0.2,0.342 -0.392,0.342Zm-22.508,3.608c-0.208,0 -0.383,-0.162 -0.392,-0.379l-0.092,-2.096c-0.008,-0.221 0.158,-0.404 0.379,-0.412c0.221,-0.008 0.4,0.158 0.412,0.379l0.083,2.1c0.013,0.217 -0.158,0.4 -0.375,0.408l-0.017,0Zm21.925,0.558c-0.267,-0.033 -0.417,-0.233 -0.387,-0.446l0.288,-2.083c0.033,-0.217 0.238,-0.367 0.446,-0.337c0.217,0.029 0.367,0.229 0.337,0.446l-0.292,2.083c-0.025,0.196 -0.196,0.338 -0.392,0.338Zm-21.75,3.65c-0.208,0 -0.383,-0.167 -0.392,-0.379l-0.092,-2.104c-0.008,-0.212 0.158,-0.396 0.379,-0.408c0.221,-0.017 0.404,0.163 0.412,0.375l0.083,2.104c0.012,0.217 -0.158,0.404 -0.375,0.412l-0.017,0Zm21.175,0.521c-0.271,-0.033 -0.421,-0.233 -0.392,-0.446l0.288,-2.083c0.029,-0.221 0.229,-0.371 0.45,-0.337c0.212,0.025 0.367,0.225 0.333,0.442l-0.292,2.087c-0.021,0.196 -0.192,0.338 -0.387,0.338Zm-21,3.687c-0.208,0 -0.383,-0.167 -0.392,-0.379l-0.092,-2.104c-0.008,-0.221 0.158,-0.404 0.379,-0.412c0.221,-0.008 0.404,0.163 0.412,0.379l0.083,2.104c0.012,0.217 -0.158,0.4 -0.375,0.408c-0.004,0.004 -0.008,0.004 -0.017,0.004Zm20.421,0.483c-0.267,-0.033 -0.421,-0.237 -0.392,-0.45l0.292,-2.083c0.025,-0.217 0.233,-0.367 0.442,-0.337c0.221,0.029 0.371,0.229 0.337,0.446l-0.288,2.083c-0.029,0.2 -0.196,0.342 -0.392,0.342Zm-1.433,3.15c-0.088,0 -0.179,-0.029 -0.25,-0.092c-0.167,-0.142 -0.187,-0.388 -0.05,-0.554c0.433,-0.517 0.775,-1.083 1.008,-1.688c0.083,-0.204 0.308,-0.304 0.513,-0.225c0.204,0.079 0.3,0.308 0.225,0.513c-0.267,0.683 -0.65,1.325 -1.142,1.908c-0.079,0.092 -0.188,0.138 -0.304,0.138Zm-17.529,0.212c-0.108,0 -0.221,-0.046 -0.296,-0.138c-0.504,-0.567 -0.896,-1.212 -1.158,-1.908c-0.079,-0.2 0.021,-0.429 0.225,-0.508c0.204,-0.075 0.433,0.025 0.508,0.229c0.233,0.608 0.571,1.167 1.017,1.667c0.146,0.163 0.129,0.413 -0.033,0.558c-0.075,0.067 -0.167,0.1 -0.262,0.1Zm3.596,2.054c-0.825,-0.167 -1.521,-0.433 -2.158,-0.796c-0.192,-0.104 -0.258,-0.35 -0.15,-0.538c0.108,-0.187 0.35,-0.254 0.542,-0.15c0.562,0.321 1.188,0.558 1.846,0.7c0.212,0.05 0.35,0.258 0.3,0.475c-0.038,0.183 -0.204,0.308 -0.379,0.308Zm10.467,0.021c-0.167,0 -0.325,-0.113 -0.379,-0.279c-0.063,-0.208 0.054,-0.429 0.262,-0.496c0.638,-0.2 1.246,-0.488 1.8,-0.85c0.179,-0.117 0.425,-0.067 0.542,0.113c0.125,0.183 0.071,0.429 -0.113,0.55c-0.613,0.404 -1.287,0.717 -1.992,0.942c-0.042,0.013 -0.083,0.021 -0.121,0.021Zm-6.275,0.233c-0.017,0 -2.117,-0.062 -2.117,-0.062c-0.217,-0.008 -0.388,-0.188 -0.379,-0.408c0.004,-0.217 0.204,-0.379 0.404,-0.383l2.104,0.071c0.217,0.004 0.388,0.187 0.383,0.404c-0.008,0.212 -0.183,0.379 -0.396,0.379Zm3.938,0.125c-0.092,0 -0.175,0 -0.263,-0.004l-1.587,-0.05c-0.212,-0.008 -0.383,-0.192 -0.379,-0.408c0.004,-0.217 0.192,-0.379 0.408,-0.383l1.583,0.05c0.163,0.004 0.329,0.004 0.492,0c0.229,0 0.404,0.167 0.408,0.383c0.008,0.217 -0.163,0.4 -0.379,0.408c-0.092,0.004 -0.192,0.004 -0.283,0.004Z" style="fill-rule:nonzero;"/></svg>