<?xml version="1.0" encoding="UTF-8" standalone="no"?>
<!DOCTYPE svg PUBLIC "-//W3C//DTD SVG 1.1//EN" "http://www.w3.org/Graphics/SVG/1.1/DTD/svg11.dtd">
<svg width="100%" height="100%" viewBox="0 0 436 323" version="1.1" xmlns="http://www.w3.org/2000/svg" xmlns:xlink="http://www.w3.org/1999/xlink" xml:space="preserve" xmlns:serif="http://www.serif.com/" style="fill-rule:evenodd;clip-rule:evenodd;stroke-linejoin:round;stroke-miterlimit:2;">
    <g transform="matrix(1,0,0,1,-76.497274,-675.619407)">
        <g transform="matrix(1.527854,-0,0,1.527854,-134.028451,207.977079)">
            <g transform="matrix(1,0,0,1,-322.057695,303.100134)">
                <path d="M521.959,149.953L501.857,149.953L496.892,160.096L525.713,161.828L521.959,149.953Z" style="fill:rgb(127,111,118);fill-rule:nonzero;"/>
            </g>
        </g>
        <g transform="matrix(1.527854,-0,0,1.527854,-134.028451,207.977079)">
            <g transform="matrix(1,0,0,1,-322.057695,303.100134)">
                <path d="M521.136,205.534C521.136,200.889 518.034,197.123 514.209,197.123C510.384,197.123 507.282,200.889 507.282,205.534C507.282,210.18 510.384,213.945 514.209,213.945C518.034,213.945 521.136,210.18 521.136,205.534Z" style="fill:rgb(66,51,58);fill-rule:nonzero;"/>
            </g>
        </g>
        <g transform="matrix(1.527854,-0,0,1.527854,-134.028451,207.977079)">
            <g transform="matrix(1,0,0,1,-322.057695,303.100134)">
                <rect x="498.376" y="204.544" width="47.17" height="7.257" style="fill:rgb(66,51,58);fill-rule:nonzero;"/>
            </g>
        </g>
        <g transform="matrix(1.527854,-0,0,1.527854,-134.028451,207.977079)">
            <g transform="matrix(1,0,0,1,-322.057695,303.100134)">
                <path d="M651.982,184.465C651.036,182.287 649.453,180.876 648.445,181.314C647.437,181.751 647.386,183.871 648.332,186.049C649.277,188.227 650.86,189.637 651.868,189.2C652.876,188.762 652.927,186.642 651.982,184.465Z" style="fill:rgb(86,68,71);fill-rule:nonzero;"/>
            </g>
        </g>
        <g transform="matrix(1.527854,-0,0,1.527854,-134.028451,207.977079)">
            <g transform="matrix(1,0,0,1,-322.057695,303.100134)">
                <path d="M569.385,192.899L574.706,192.869C574.706,192.869 575.501,200.152 577.442,206.154L572.862,206.465C573.794,202.914 569.385,192.899 569.385,192.899Z" style="fill:rgb(221,191,146);fill-rule:nonzero;"/>
            </g>
        </g>
        <g transform="matrix(1.527854,-0,0,1.527854,-134.028451,207.977079)">
            <g transform="matrix(1,0,0,1,-322.057695,303.100134)">
                <path d="M596.592,191.639L591.52,193.247C591.52,193.247 593.005,200.421 593.005,206.73L597.458,205.616C595.479,202.524 596.592,191.639 596.592,191.639Z" style="fill:rgb(221,191,146);fill-rule:nonzero;"/>
            </g>
        </g>
        <g transform="matrix(1.527854,-0,0,1.527854,-134.028451,207.977079)">
            <g transform="matrix(1,0,0,1,-322.057695,303.100134)">
                <path d="M561.686,213.781L581.478,213.781C581.478,213.781 578.925,205.023 574.834,203.655C570.743,202.286 573.727,209.128 565.631,210.086C563.119,210.383 561.474,212.823 561.686,213.781Z" style="fill:rgb(244,222,186);fill-rule:nonzero;"/>
            </g>
        </g>
        <g transform="matrix(1.527854,-0,0,1.527854,-134.028451,207.977079)">
            <g transform="matrix(1,0,0,1,-322.057695,303.100134)">
                <path d="M610.323,213.781L590.284,213.781C590.284,213.781 590.902,205.864 594.737,204.627C598.571,203.39 597.087,209.575 605.498,210.441C608.108,210.709 610.323,212.915 610.323,213.781Z" style="fill:rgb(244,222,186);fill-rule:nonzero;"/>
            </g>
        </g>
        <g transform="matrix(1.527854,-0,0,1.527854,-134.028451,207.977079)">
            <g transform="matrix(1,0,0,1,-322.057695,303.100134)">
                <path d="M607.065,76.723L613.827,101.463L603.766,106.658L592.551,83.485L607.065,76.723Z" style="fill:rgb(255,167,123);fill-rule:nonzero;"/>
            </g>
        </g>
        <g transform="matrix(1.527854,-0,0,1.527854,-134.028451,207.977079)">
            <g transform="matrix(1,0,0,1,-322.057695,303.100134)">
                <path d="M600.468,93.299C598.699,89.652 603.27,84.164 607.573,82.077C607.856,81.94 608.141,81.819 608.428,81.711L607.065,76.723L592.551,83.485L603.766,106.658L613.827,101.463L612.312,95.919C608.473,97.009 602.012,96.481 600.468,93.299Z" style="fill:rgb(234,135,92);fill-rule:nonzero;"/>
            </g>
        </g>
        <g transform="matrix(1.527854,-0,0,1.527854,-134.028451,207.977079)">
            <g transform="matrix(1,0,0,1,-322.057695,303.100134)">
                <path d="M598.695,39.614C598.695,39.614 606.967,46.384 607.746,48.64C608.524,50.897 607.32,68.449 607.32,68.449C607.32,68.449 608.066,68.699 608.091,70.204C608.115,71.708 606.89,72.461 606.89,72.461L607.708,77.225L594.737,86C594.737,86 588.921,62.682 589.774,54.157C590.627,45.631 598.695,39.614 598.695,39.614Z" style="fill:rgb(247,186,87);fill-rule:nonzero;"/>
            </g>
        </g>
        <g transform="matrix(1.527854,-0,0,1.527854,-134.028451,207.977079)">
            <g transform="matrix(1,0,0,1,-322.057695,303.100134)">
                <path d="M600.161,75.807C599.544,74.215 601.987,71.783 605.618,70.376C606.446,70.055 607.263,69.819 608.04,69.659C607.948,69.104 607.745,68.792 607.575,68.627C606.974,69.057 606.341,69.301 605.684,69.301C601.892,69.301 598.819,61.631 598.819,52.169C598.819,47.943 599.435,44.081 600.451,41.093C599.42,40.209 598.695,39.614 598.695,39.614C598.695,39.614 590.627,45.631 589.774,54.157C588.921,62.682 594.737,86 594.737,86L607.708,77.224L607.542,76.256C604.027,77.536 600.76,77.354 600.161,75.807Z" style="fill:rgb(242,164,70);fill-rule:nonzero;"/>
            </g>
        </g>
        <g transform="matrix(1.527854,-0,0,1.527854,-134.028451,207.977079)">
            <g transform="matrix(1,0,0,1,-322.057695,303.100134)">
                <path d="M592.581,87.683C591.859,87.511 590.989,85.605 590.989,85.605C590.989,85.605 601.577,75.331 603.631,73.544C605.733,71.714 609.857,73.116 609.788,74.358C609.721,75.585 610.136,79.836 609.091,80.048C608.051,80.258 592.581,87.683 592.581,87.683Z" style="fill:rgb(244,222,186);fill-rule:nonzero;"/>
            </g>
        </g>
        <g transform="matrix(1.527854,-0,0,1.527854,-134.028451,207.977079)">
            <g transform="matrix(1,0,0,1,-322.057695,303.100134)">
                <path d="M600.674,81.362C600.674,77.537 602.716,74.245 605.663,72.707C604.92,72.796 604.201,73.048 603.631,73.544C601.577,75.331 590.989,85.605 590.989,85.605C590.989,85.605 591.859,87.511 592.581,87.683C592.581,87.683 596.779,85.668 600.948,83.708C600.776,82.956 600.674,82.173 600.674,81.362Z" style="fill:rgb(229,197,149);fill-rule:nonzero;"/>
            </g>
        </g>
        <g transform="matrix(1.527854,-0,0,1.527854,-134.028451,207.977079)">
            <g transform="matrix(1,0,0,1,-322.057695,303.100134)">
                <path d="M683.371,209.657L671.197,209.657L665.904,213.781L688.664,213.781L683.371,209.657Z" style="fill:rgb(86,67,75);fill-rule:nonzero;"/>
            </g>
        </g>
        <g transform="matrix(1.527854,-0,0,1.527854,-134.028451,207.977079)">
            <g transform="matrix(1,0,0,1,-322.057695,303.100134)">
                <path d="M559.4,32.852C545.876,67.157 548.02,146.984 566.657,201.411L580.511,198.112C580.511,198.112 570.615,135.769 570.615,109.215L572.595,110.039C573.431,129.215 580.727,164.396 588.098,199.762L601.622,202.07C601.622,202.07 593.706,101.381 595.108,78.702C595.515,72.118 600.303,40.768 600.303,40.768C600.303,40.768 587.768,27.574 584.47,27.904C581.171,28.234 559.4,32.852 559.4,32.852Z" style="fill:rgb(60,60,60);fill-rule:nonzero;"/>
            </g>
        </g>
        <g transform="matrix(1.527854,-0,0,1.527854,-134.028451,207.977079)">
            <g transform="matrix(1,0,0,1,-322.057695,303.100134)">
                <path d="M593.359,200.66C586.504,168.037 579.039,136.059 578.862,107.73L564.925,103.442L570.617,109.541C570.617,109.433 570.615,109.321 570.615,109.215L572.595,110.039C572.764,113.924 573.202,118.475 573.849,123.542L577.392,146.04C580.306,162.325 584.191,181.017 588.098,199.762L593.359,200.66Z" style="fill:rgb(51,51,51);fill-rule:nonzero;"/>
            </g>
        </g>
        <g transform="matrix(1.527854,-0,0,1.527854,-134.028451,207.977079)">
            <g transform="matrix(1,0,0,1,-322.057695,303.100134)">
                <path d="M556.102,102.123C556.102,75.316 559.642,50.732 565.535,31.566C561.999,32.3 559.4,32.852 559.4,32.852C545.876,67.157 548.02,146.984 566.657,201.411L573.089,199.679C561.462,171.971 556.102,143.705 556.102,102.123Z" style="fill:rgb(51,51,51);fill-rule:nonzero;"/>
            </g>
        </g>
        <g transform="matrix(1.527854,-0,0,1.527854,-134.028451,207.977079)">
            <g transform="matrix(1,0,0,1,-322.057695,303.100134)">
                <path d="M598.08,38.499C594.326,34.743 586.898,27.661 584.47,27.904C582.08,28.143 570.003,30.631 563.524,31.985C566.966,40.716 566.781,56.684 566.781,56.684C566.781,56.684 586.82,58.54 594.86,55.818C594.86,55.818 597.064,45.83 598.08,38.499Z" style="fill:rgb(247,186,87);fill-rule:nonzero;"/>
            </g>
        </g>
        <g transform="matrix(1.527854,-0,0,1.527854,-134.028451,207.977079)">
            <g transform="matrix(1,0,0,1,-322.057695,303.100134)">
                <path d="M593.506,34.107C589.99,30.886 586.102,27.74 584.47,27.904C582.08,28.143 570.003,30.631 563.524,31.985C564.409,34.229 565.052,36.952 565.522,39.758C567.771,40.065 570.154,40.232 572.618,40.232C582.244,40.232 590.308,37.701 593.506,34.107Z" style="fill:rgb(239,147,72);fill-rule:nonzero;"/>
            </g>
        </g>
        <g transform="matrix(1.527854,-0,0,1.527854,-134.028451,207.977079)">
            <g transform="matrix(1,0,0,1,-322.057695,303.100134)">
                <path d="M600.303,101.216C610.323,94.659 614.899,97.999 614.899,97.999L615.518,114.946L604.756,112.348L600.303,101.216Z" style="fill:rgb(214,189,189);fill-rule:nonzero;"/>
            </g>
        </g>
        <g transform="matrix(1.527854,-0,0,1.527854,-134.028451,207.977079)">
            <g transform="matrix(1,0,0,1,-322.057695,303.100134)">
                <path d="M614.899,97.999C614.899,97.999 612.64,96.357 607.828,97.645C607.872,99.049 608.085,100.582 608.496,102.161C609.871,107.441 612.892,111.252 615.372,110.946L614.899,97.999Z" style="fill:rgb(244,222,186);fill-rule:nonzero;"/>
            </g>
        </g>
        <g transform="matrix(1.527854,-0,0,1.527854,-134.028451,207.977079)">
            <g transform="matrix(1,0,0,1,-322.057695,303.100134)">
                <path d="M595.85,74.497L594.613,75.981L650.936,193.989L651.761,187.804L595.85,74.497Z" style="fill:rgb(86,68,71);fill-rule:nonzero;"/>
            </g>
        </g>
        <g transform="matrix(1.527854,-0,0,1.527854,-134.028451,207.977079)">
            <g transform="matrix(1,0,0,1,-322.057695,303.100134)">
                <path d="M648.957,213.781L688.788,213.781L651.761,187.062L648.288,190.031L648.957,213.781Z" style="fill:rgb(122,106,110);fill-rule:nonzero;"/>
            </g>
        </g>
        <g transform="matrix(1.527854,-0,0,1.527854,-134.028451,207.977079)">
            <g transform="matrix(1,0,0,1,-322.057695,303.100134)">
                <path d="M652.079,187.291L651.761,187.062L648.288,190.031L648.957,213.781L669.377,213.781C657.338,205.781 650.3,194.765 652.079,187.291Z" style="fill:rgb(102,88,92);fill-rule:nonzero;"/>
            </g>
        </g>
        <g transform="matrix(1.527854,-0,0,1.527854,-134.028451,207.977079)">
            <g transform="matrix(1,0,0,1,-322.057695,303.100134)">
                <path d="M647.349,213.781L692.251,213.781L690.767,209.204L647.473,211.554L647.349,213.781Z" style="fill:rgb(122,106,110);fill-rule:nonzero;"/>
            </g>
        </g>
        <g transform="matrix(1.527854,-0,0,1.527854,-134.028451,207.977079)">
            <g transform="matrix(1,0,0,1,-322.057695,303.100134)">
                <path d="M487.829,182.114C476.957,182.114 467.608,176.046 462.828,165.885C458,155.625 459.112,143.895 465.651,136.004C470.304,130.389 481.867,121.95 507.054,128.454C531.113,134.662 554.807,131.516 563.4,120.986C568.199,115.106 568.237,107.186 563.519,97.446C557.168,84.337 563.326,71.285 572.663,66.71C580.553,62.844 592.735,64.183 601.13,80.676C601.87,82.131 601.297,83.901 599.849,84.63C598.399,85.359 596.625,84.769 595.885,83.314C589.458,70.681 581.036,69.19 575.293,72.004C568.472,75.349 564.057,85.053 568.829,94.9C576.069,109.839 572.37,119.376 567.987,124.748C557.856,137.169 532.201,141.065 505.59,134.198C489.272,129.99 476.715,131.973 470.235,139.798C465.16,145.925 464.366,155.171 468.215,163.352C471.988,171.365 479.319,176.153 487.822,176.154C489.465,176.154 490.799,177.488 490.801,179.134C490.803,180.78 489.472,182.114 487.829,182.114Z" style="fill:rgb(86,68,71);fill-rule:nonzero;"/>
            </g>
        </g>
        <g transform="matrix(1.527854,-0,0,1.527854,-134.028451,207.977079)">
            <g transform="matrix(1,0,0,1,-322.057695,303.100134)">
                <path d="M487.822,176.154C479.319,176.153 471.988,171.365 468.215,163.352C464.366,155.171 465.16,145.925 470.235,139.798C473.363,136.021 477.918,133.619 483.616,132.604C480.096,131.711 476.824,130.703 473.842,129.592C469.975,131.531 467.35,133.954 465.651,136.004C459.112,143.895 458,155.625 462.828,165.885C467.608,176.046 476.957,182.114 487.829,182.114C489.472,182.114 490.803,180.78 490.801,179.134C490.799,177.488 489.465,176.154 487.822,176.154Z" style="fill:rgb(73,56,60);fill-rule:nonzero;"/>
            </g>
        </g>
        <g transform="matrix(1.527854,-0,0,1.527854,-134.028451,207.977079)">
            <g transform="matrix(1,0,0,1,-322.057695,303.100134)">
                <path d="M522.992,137.088C522.563,137.088 522.138,137.079 521.711,137.076C532.589,138.158 542.755,137.385 551.093,134.919C542.522,136.308 533.014,137.088 522.992,137.088Z" style="fill:rgb(73,56,60);fill-rule:nonzero;"/>
            </g>
        </g>
        <g transform="matrix(1.527854,-0,0,1.527854,-134.028451,207.977079)">
            <g transform="matrix(1,0,0,1,-322.057695,303.100134)">
                <path d="M601.13,80.676C592.735,64.183 580.553,62.845 572.663,66.71C564.463,70.728 558.718,81.285 561.742,92.676C564.187,93.281 566.523,93.939 568.722,94.651C564.144,84.89 568.529,75.32 575.293,72.004C581.036,69.19 589.458,70.681 595.885,83.314C596.625,84.769 598.399,85.359 599.849,84.63C601.297,83.901 601.87,82.131 601.13,80.676Z" style="fill:rgb(73,56,60);fill-rule:nonzero;"/>
            </g>
        </g>
        <g transform="matrix(1.527854,-0,0,1.527854,-134.028451,207.977079)">
            <g transform="matrix(1,0,0,1,-322.057695,303.100134)">
                <path d="M561.214,64.724C561.214,64.724 561.462,62.25 560.349,62.498C560.349,62.498 564.554,34.913 559.73,32.81C554.906,30.708 536.237,59.149 539.567,68.188C540.433,70.538 543.155,71.033 543.155,71.033C543.155,71.033 541.052,75.362 544.268,77.96C547.484,80.558 561.214,64.724 561.214,64.724Z" style="fill:rgb(247,186,87);fill-rule:nonzero;"/>
            </g>
        </g>
        <g transform="matrix(1.527854,-0,0,1.527854,-134.028451,207.977079)">
            <g transform="matrix(1,0,0,1,-322.057695,303.100134)">
                <path d="M544.497,74.107C543.239,70.206 547.516,65.335 554.05,63.227C556.248,62.518 558.417,62.221 560.382,62.276C560.512,61.393 561.011,57.908 561.429,53.614C557.591,60.24 552.923,64.13 549.497,62.937C545.907,61.687 544.721,55.214 546.116,47.12C541.493,54.916 537.957,63.818 539.567,68.188C540.433,70.538 543.155,71.033 543.155,71.033C543.155,71.033 541.052,75.362 544.268,77.96C544.979,78.534 546.204,78.206 547.681,77.349C546.102,76.632 544.958,75.536 544.497,74.107Z" style="fill:rgb(242,164,70);fill-rule:nonzero;"/>
            </g>
        </g>
        <g transform="matrix(1.527854,-0,0,1.527854,-134.028451,207.977079)">
            <g transform="matrix(1,0,0,1,-322.057695,303.100134)">
                <path d="M544.144,76.847C548.35,82.042 574.203,73.878 574.203,73.878L577.914,63.735C577.914,63.735 563.441,63.116 559.359,63.859C555.277,64.601 544.144,76.847 544.144,76.847Z" style="fill:rgb(255,167,123);fill-rule:nonzero;"/>
            </g>
        </g>
        <g transform="matrix(1.527854,-0,0,1.527854,-134.028451,207.977079)">
            <g transform="matrix(1,0,0,1,-322.057695,303.100134)">
                <path d="M572.252,63.558C568.548,68.981 564.074,72.222 561.958,70.888C560.509,69.975 560.525,67.136 561.732,63.615C560.773,63.672 559.954,63.75 559.359,63.859C555.277,64.601 544.144,76.847 544.144,76.847C548.35,82.042 574.203,73.878 574.203,73.878L577.914,63.735C577.914,63.735 575.44,63.629 572.252,63.558Z" style="fill:rgb(234,135,92);fill-rule:nonzero;"/>
            </g>
        </g>
        <g transform="matrix(1.527854,-0,0,1.527854,-134.028451,207.977079)">
            <g transform="matrix(1,0,0,1,-322.057695,303.100134)">
                <path d="M568.76,77.589C568.513,68.312 575.316,61.756 575.316,61.756C575.316,61.756 584.47,65.59 586.696,67.198C586.696,67.198 592.139,68.312 593.5,70.414C594.86,72.517 594.984,80.929 594.242,80.929C593.5,80.929 586.449,80.681 585.212,79.073C583.975,77.465 583.48,75.115 583.48,75.115L581.377,74.497L568.76,77.589Z" style="fill:rgb(244,222,186);fill-rule:nonzero;"/>
            </g>
        </g>
        <g transform="matrix(1.527854,-0,0,1.527854,-134.028451,207.977079)">
            <g transform="matrix(1,0,0,1,-322.057695,303.100134)">
                <path d="M594.186,80.153C592.183,80.843 589.478,78.26 588.142,74.385C588.012,74.007 587.905,73.632 587.81,73.26C585.925,73.112 583.935,72.762 581.907,72.167C577.671,70.924 574.097,68.902 571.702,66.625C570.12,69.394 568.642,73.177 568.76,77.589L581.377,74.497L583.48,75.115C583.48,75.115 583.975,77.465 585.212,79.073C586.449,80.681 593.5,80.929 594.242,80.929C594.396,80.929 594.512,80.555 594.588,79.958C594.461,80.036 594.328,80.104 594.186,80.153Z" style="fill:rgb(214,189,189);fill-rule:nonzero;"/>
            </g>
        </g>
        <g transform="matrix(1.527854,-0,0,1.527854,-134.028451,207.977079)">
            <g transform="matrix(1,0,0,1,-322.057695,303.100134)">
                <path d="M617.738,120.528C615.325,121.618 612.41,123.205 611.648,122.67C610.885,122.135 605.011,115.943 604.513,114.102C604.014,112.26 606.281,108.312 607.631,107.823C608.981,107.334 621.15,118.988 617.738,120.528Z" style="fill:rgb(214,189,189);fill-rule:nonzero;"/>
            </g>
        </g>
        <g transform="matrix(1.527854,-0,0,1.527854,-134.028451,207.977079)">
            <g transform="matrix(1,0,0,1,-322.057695,303.100134)">
                <path d="M618.245,120.013C619.371,117.297 608.88,107.371 607.631,107.823L607.443,107.917C607.135,110.172 607.807,112.899 609.482,115.341C611.827,118.761 615.402,120.56 618.245,120.013Z" style="fill:rgb(244,222,186);fill-rule:nonzero;"/>
            </g>
        </g>
        <g transform="matrix(1.527854,-0,0,1.527854,-134.028451,207.977079)">
            <g transform="matrix(1,0,0,1,-322.057695,303.100134)">
                <path d="M573.77,29.904L576.677,21.554L587.81,23.904L586.696,31.45C586.696,31.45 586.573,39.614 580.635,39.49C576.033,39.394 573.77,29.904 573.77,29.904Z" style="fill:rgb(221,112,74);fill-rule:nonzero;"/>
            </g>
        </g>
        <g transform="matrix(1.527854,-0,0,1.527854,-134.028451,207.977079)">
            <g transform="matrix(1,0,0,1,-322.057695,303.100134)">
                <path d="M572.265,29.965L574.079,28.811C574.079,28.811 577.048,38.047 581.418,38.377C585.789,38.707 587.109,28.728 587.109,28.728L587.768,29.306C587.768,29.306 588.758,36.15 584.305,42.335L581.831,39.861L581.171,39.861L578.12,42.912C574.92,39.217 572.606,35.082 572.265,29.965Z" style="fill:rgb(229,221,207);fill-rule:nonzero;"/>
            </g>
        </g>
        <g transform="matrix(1.527854,-0,0,1.527854,-134.028451,207.977079)">
            <g transform="matrix(1,0,0,1,-322.057695,303.100134)">
                <path d="M578.234,11.936C575.264,17.38 575.436,29.245 576.485,30.994C577.534,32.742 581.556,34.665 582.43,34.665C583.304,34.665 588.375,34.84 589.249,33.442C590.123,32.043 595.893,19.454 596.068,16.132C596.242,12.81 591.522,10.363 588.549,8.964C585.577,7.565 579.283,10.013 578.234,11.936Z" style="fill:rgb(255,167,123);fill-rule:nonzero;"/>
            </g>
        </g>
        <g transform="matrix(1.527854,-0,0,1.527854,-134.028451,207.977079)">
            <g transform="matrix(1,0,0,1,-322.057695,303.100134)">
                <path d="M589.642,19.367C591.547,19.367 593.361,19.629 595.034,20.091C595.622,18.401 596.023,16.971 596.068,16.132C596.242,12.81 591.522,10.363 588.549,8.964C585.577,7.565 579.283,10.013 578.234,11.936C576.309,15.464 575.709,21.677 575.807,26.098C577.934,22.165 583.318,19.367 589.642,19.367Z" style="fill:rgb(234,135,92);fill-rule:nonzero;"/>
            </g>
        </g>
        <g transform="matrix(1.527854,-0,0,1.527854,-134.028451,207.977079)">
            <g transform="matrix(1,0,0,1,-322.057695,303.100134)">
                <path d="M574.934,26.732C573.098,21.093 574.868,13.685 574.868,13.685L581.162,13.619L578.015,20.241L575.983,21.421L575.852,24.306L574.934,26.732Z" style="fill:rgb(102,56,66);fill-rule:nonzero;"/>
            </g>
        </g>
        <g transform="matrix(1.527854,-0,0,1.527854,-134.028451,207.977079)">
            <g transform="matrix(1,0,0,1,-322.057695,303.100134)">
                <path d="M574.475,15.652C574.344,9.882 579.064,4.112 584.047,3.325C589.03,2.538 594.407,3.194 595.062,4.243C595.718,5.292 595.324,15.914 595.324,15.914C588.615,13.023 581.788,13.606 574.475,15.652Z" style="fill:rgb(244,222,186);fill-rule:nonzero;"/>
            </g>
        </g>
        <g transform="matrix(1.527854,-0,0,1.527854,-134.028451,207.977079)">
            <g transform="matrix(1,0,0,1,-322.057695,303.100134)">
                <path d="M581.293,11.586C581.293,7.857 583.827,4.624 587.538,2.999C586.396,3.039 585.212,3.141 584.047,3.325C579.064,4.112 574.344,9.882 574.475,15.652C576.942,14.961 579.352,14.444 581.723,14.164C581.451,13.342 581.293,12.48 581.293,11.586Z" style="fill:rgb(229,197,149);fill-rule:nonzero;"/>
            </g>
        </g>
        <g transform="matrix(1.527854,-0,0,1.527854,-134.028451,207.977079)">
            <g transform="matrix(1,0,0,1,-322.057695,303.100134)">
                <path d="M598.865,10.275C594.144,8.57 580.572,10.275 576.376,15.127C586.473,12.799 596.646,15.625 595.324,19.192C611.454,17.356 603.586,11.98 598.865,10.275Z" style="fill:rgb(170,68,90);fill-rule:nonzero;"/>
            </g>
        </g>
        <g transform="matrix(1.527854,-0,0,1.527854,-134.028451,207.977079)">
            <g transform="matrix(1,0,0,1,-322.057695,303.100134)">
                <path d="M576.924,110.369L584.346,107.524L575.192,107.029L576.924,110.369Z" style="fill:rgb(51,51,51);fill-rule:nonzero;"/>
            </g>
        </g>
        <g transform="matrix(1.527854,-0,0,1.527854,-134.028451,207.977079)">
            <g transform="matrix(1,0,0,1,-322.057695,303.100134)">
                <path d="M573.557,17.225C570.672,18.536 571.328,23.388 576.573,24.306C576.573,24.306 576.442,15.914 573.557,17.225Z" style="fill:rgb(234,135,92);fill-rule:nonzero;"/>
            </g>
        </g>
        <g transform="matrix(1.527854,-0,0,1.527854,-134.028451,207.977079)">
            <g transform="matrix(1,0,0,1,-322.057695,303.100134)">
                <path d="M573.797,18.491C571.965,19.324 572.381,22.406 575.713,22.989C575.713,22.989 575.63,17.659 573.797,18.491Z" style="fill:rgb(204,79,70);fill-rule:nonzero;"/>
            </g>
        </g>
        <g transform="matrix(1.527854,-0,0,1.527854,-134.028451,207.977079)">
            <g transform="matrix(1,0,0,1,-322.057695,303.100134)">
                <path d="M574.98,19.605C573.808,20.075 573.893,22.259 575.909,22.873C575.909,22.873 576.153,19.134 574.98,19.605Z" style="fill:rgb(234,135,92);fill-rule:nonzero;"/>
            </g>
        </g>
        <g transform="matrix(1.527854,-0,0,1.527854,-134.028451,207.977079)">
            <g transform="matrix(1,0,0,1,-322.057695,303.100134)">
                <path d="M562.122,63.611C562.122,62.786 560.39,61.467 560.39,61.467C560.39,61.467 543.897,71.693 541.918,73.342C539.938,74.991 543.484,79.115 544.557,79.362C545.629,79.609 550.576,80.104 550.989,79.115C551.401,78.125 562.122,63.611 562.122,63.611Z" style="fill:rgb(244,222,186);fill-rule:nonzero;"/>
            </g>
        </g>
        <g transform="matrix(1.527854,-0,0,1.527854,-134.028451,207.977079)">
            <g transform="matrix(1,0,0,1,-322.057695,303.100134)">
                <path d="M552.803,68.25C552.803,67.491 552.896,66.759 553.053,66.056C548.374,69.004 542.995,72.444 541.918,73.342C539.938,74.991 543.484,79.115 544.557,79.362C545.629,79.609 550.576,80.104 550.989,79.115C551.141,78.75 552.695,76.545 554.595,73.909C553.477,72.376 552.803,70.403 552.803,68.25Z" style="fill:rgb(229,197,149);fill-rule:nonzero;"/>
            </g>
        </g>
        <g transform="matrix(1.527854,-0,0,1.527854,-134.028451,207.977079)">
            <g transform="matrix(1,0,0,1,-322.057695,303.100134)">
                <path d="M655.719,211.106L647.473,211.554L647.349,213.781L655.719,213.781L655.719,211.106Z" style="fill:rgb(102,88,92);fill-rule:nonzero;"/>
            </g>
        </g>
        <g transform="matrix(1.527854,-0,0,1.527854,-134.028451,207.977079)">
            <g transform="matrix(1,0,0,1,-322.057695,303.100134)">
                <path d="M649.075,185.392C648.13,183.215 646.546,181.804 645.538,182.242C644.53,182.679 644.479,184.799 645.425,186.977C646.37,189.154 647.954,190.565 648.962,190.128C649.97,189.69 650.02,187.57 649.075,185.392Z" style="fill:rgb(68,54,57);fill-rule:nonzero;"/>
            </g>
        </g>
        <g transform="matrix(1.527854,-0,0,1.527854,-134.028451,207.977079)">
            <g transform="matrix(1,0,0,1,-322.057695,303.100134)">
                <path d="M635.633,199.631C636.785,199.621 638.219,199.098 638.256,197.947C638.29,196.907 636.73,196.273 636.029,197.041C637.621,195.772 639.368,194.179 639.262,192.146C639.231,191.545 638.988,190.908 638.464,190.615C638.136,190.432 637.747,190.407 637.372,190.387C636.735,190.352 636.074,190.32 635.478,190.55C634.882,190.78 634.366,191.347 634.409,191.985C634.249,190.621 633.54,189.315 632.438,188.497C631.335,187.678 629.845,187.38 628.531,187.779C626.19,188.492 624.916,191.293 625.387,193.695C625.859,196.096 627.714,198.039 629.849,199.236C629.826,200.191 630.531,201.044 631.38,201.484C632.229,201.924 633.205,202.033 634.155,202.134C636.395,202.372 638.835,202.483 641.061,201.411L641.207,201.243C639.47,202.662 633.934,201.852 635.633,199.631Z" style="fill:rgb(216,210,192);fill-rule:nonzero;"/>
            </g>
        </g>
        <g transform="matrix(1.527854,-0,0,1.527854,-134.028451,207.977079)">
            <g transform="matrix(1,0,0,1,-322.057695,303.100134)">
                <path d="M669.612,178.852C669.211,178.415 668.637,178.073 668.049,178.155C667.7,178.204 667.384,178.458 667.234,178.769C667.262,177.636 667.107,176.454 666.215,175.826C665.317,175.193 664.078,175.444 663.055,175.845C662.434,176.089 661.817,176.388 661.347,176.863C660.375,177.845 659.59,179.31 659.616,180.691C659.646,182.251 660.296,187.433 666.234,187.804L666.347,187.589C665.705,187.538 665.335,186.73 665.535,186.117C665.735,185.504 666.316,185.094 666.91,184.844C667.504,184.593 668.146,184.456 668.715,184.151C669.625,183.663 670.288,182.74 670.461,181.722C670.633,180.704 670.311,179.613 669.612,178.852Z" style="fill:rgb(216,210,192);fill-rule:nonzero;"/>
            </g>
        </g>
        <g transform="matrix(1.527854,-0,0,1.527854,-134.028451,207.977079)">
            <g transform="matrix(1,0,0,1,-322.057695,303.100134)">
                <path d="M688.063,195.982C688.096,196.211 688.147,196.435 688.206,196.657C688.16,196.427 688.097,196.211 688.066,195.968L688.063,195.982Z" style="fill:rgb(216,210,192);fill-rule:nonzero;"/>
            </g>
        </g>
        <g transform="matrix(1.527854,-0,0,1.527854,-134.028451,207.977079)">
            <g transform="matrix(1,0,0,1,-322.057695,303.100134)">
                <path d="M724.917,187.153C724.356,185.199 722.2,183.849 720.197,184.197C719.298,184.354 718.419,184.851 717.999,185.661C717.646,186.341 717.581,187.254 716.919,187.64C717.009,186.298 718.084,185.258 718.666,184.046C719.813,181.656 718.661,178.39 716.209,177.384C713.758,176.378 710.549,178.033 710.085,180.642C709.634,177.485 707.557,174.586 704.676,173.215C701.796,171.844 698.194,172.078 695.558,173.875C692.923,175.672 691.385,178.99 691.794,182.153C691.967,183.492 692.462,184.781 693.177,185.925C694.147,187.476 695.526,188.768 697.137,189.634C699.325,190.81 701.993,191.267 703.667,193.101C705.451,195.054 705.516,198.254 704.05,200.455C702.584,202.656 699.823,203.824 697.183,203.661C694.544,203.498 692.065,202.119 690.268,200.178C689.335,199.17 688.558,197.975 688.206,196.657C688.925,200.214 691.452,202.264 692.334,202.957C693.273,203.694 692.148,207.41 696.526,207.101C697.251,207.05 697.965,206.485 698.584,206.864C697.717,208.01 698.664,209.917 700.089,210.096C701.515,210.275 702.859,208.924 702.879,207.487C702.885,207.026 702.782,206.56 702.868,206.107C703.015,205.337 703.701,204.75 704.454,204.534C705.208,204.317 706.017,204.413 706.779,204.595C705.529,205.071 705.073,206.833 705.793,207.961C706.512,209.089 708.11,209.473 709.353,208.976C710.595,208.48 711.455,207.249 711.719,205.937C711.979,204.642 711.73,203.255 712.185,202.015C712.678,200.672 714.03,199.691 715.46,199.639C716.166,199.614 716.862,199.794 717.566,199.843C718.667,199.92 719.835,199.642 720.637,198.883C721.439,198.125 721.773,196.834 721.244,195.866C720.871,195.184 720.038,194.806 719.289,194.892C720.761,194.259 722.19,193.502 723.303,192.361C724.633,190.997 725.443,188.984 724.917,187.153Z" style="fill:rgb(216,210,192);fill-rule:nonzero;"/>
            </g>
        </g>
        <g transform="matrix(1.527854,-0,0,1.527854,-134.028451,207.977079)">
            <g transform="matrix(1,0,0,1,-322.057695,303.100134)">
                <path d="M744.493,193.178C744.392,193.014 744.225,192.899 744.053,192.813C743.285,192.429 742.292,192.553 741.642,193.114C742.516,192.175 743.091,190.962 743.264,189.692C743.308,189.373 743.325,189.038 743.21,188.738C743.071,188.373 742.754,188.104 742.413,187.913C741.326,187.304 739.882,187.404 738.888,188.156C737.894,188.909 737.407,190.272 737.698,191.483C737.376,190.514 736.794,189.588 735.906,189.083C735.018,188.578 733.794,188.594 733.054,189.298C732.314,190.003 732.328,191.41 733.194,191.952C733.671,192.251 734.385,192.354 734.518,192.901C734.622,193.324 734.247,193.741 733.828,193.861C733.409,193.981 732.959,193.914 732.53,193.835C729.654,193.308 726.901,197.571 727.428,198.957L727.481,198.833C727.594,196.99 729.567,195.738 731.411,195.658C733.256,195.579 735.019,196.327 736.783,196.875C738.546,197.424 740.537,197.761 742.179,196.915C743.23,196.374 744.014,195.389 744.451,194.29C744.593,193.932 744.696,193.506 744.493,193.178Z" style="fill:rgb(216,210,192);fill-rule:nonzero;"/>
            </g>
        </g>
        <g transform="matrix(1.527854,-0,0,1.527854,-134.028451,207.977079)">
            <g transform="matrix(1,0,0,1,-322.057695,303.100134)">
                <path d="M724.917,187.153C724.356,185.199 722.2,183.849 720.197,184.197C719.298,184.354 718.419,184.851 717.999,185.661C717.646,186.341 717.581,187.254 716.919,187.64C717.009,186.298 718.084,185.258 718.666,184.046C719.112,183.117 719.202,182.058 719.012,181.049C718.16,182.988 716.762,184.258 715.177,184.258C713.112,184.258 711.363,182.107 710.731,179.119C710.415,179.574 710.184,180.084 710.085,180.642C709.739,178.221 708.431,175.958 706.543,174.413C708.03,176.517 708.923,179.156 708.923,182.031C708.923,186.621 706.661,190.619 703.307,192.764C703.428,192.876 703.555,192.978 703.667,193.101C705.451,195.054 705.516,198.254 704.05,200.455C702.584,202.656 699.823,203.824 697.183,203.661C694.544,203.498 692.065,202.119 690.268,200.178C689.335,199.17 688.558,197.975 688.206,196.657C688.925,200.214 691.452,202.264 692.334,202.957C693.273,203.694 692.148,207.41 696.526,207.101C697.251,207.05 697.965,206.485 698.584,206.864C697.717,208.01 698.664,209.917 700.089,210.096C701.515,210.275 702.859,208.924 702.879,207.487C702.885,207.026 702.782,206.56 702.868,206.107C703.015,205.337 703.701,204.75 704.454,204.534C705.208,204.317 706.017,204.413 706.779,204.595C705.529,205.071 705.073,206.833 705.793,207.961C706.512,209.089 708.11,209.473 709.353,208.976C710.595,208.48 711.455,207.249 711.719,205.937C711.979,204.642 711.73,203.255 712.185,202.015C712.678,200.672 714.03,199.691 715.46,199.639C716.166,199.614 716.862,199.794 717.566,199.843C718.667,199.92 719.835,199.642 720.637,198.883C721.439,198.125 721.773,196.834 721.244,195.866C720.871,195.184 720.038,194.806 719.289,194.892C720.761,194.259 722.19,193.502 723.303,192.361C724.633,190.997 725.443,188.984 724.917,187.153Z" style="fill:rgb(198,189,167);fill-rule:nonzero;"/>
            </g>
        </g>
        <g transform="matrix(1.527854,-0,0,1.527854,-134.028451,207.977079)">
            <g transform="matrix(1,0,0,1,-322.057695,303.100134)">
                <path d="M715.094,192.175C715.094,189.442 713.544,187.227 711.631,187.227C709.718,187.227 708.167,189.442 708.167,192.175C708.167,194.907 709.718,197.123 711.631,197.123C713.544,197.123 715.094,194.907 715.094,192.175Z" style="fill:rgb(216,210,192);fill-rule:nonzero;"/>
            </g>
        </g>
        <g transform="matrix(1.527854,-0,0,1.527854,-134.028451,207.977079)">
            <g transform="matrix(1,0,0,1,-322.057695,303.100134)">
                <path d="M744.493,193.178C744.392,193.014 744.225,192.899 744.053,192.813C743.285,192.429 742.292,192.553 741.642,193.113C742.516,192.175 743.091,190.962 743.264,189.692C743.305,189.396 743.312,189.09 743.223,188.807C742.453,191.506 739.865,193.494 736.783,193.494C735.985,193.494 735.224,193.354 734.515,193.111C734.477,193.454 734.176,193.761 733.828,193.861C733.409,193.981 732.959,193.914 732.53,193.835C729.654,193.308 726.901,197.57 727.428,198.957L727.481,198.833C727.594,196.99 729.567,195.738 731.411,195.658C733.256,195.579 735.019,196.327 736.783,196.875C738.546,197.423 740.537,197.76 742.179,196.915C743.23,196.374 744.014,195.389 744.451,194.29C744.593,193.932 744.696,193.505 744.493,193.178Z" style="fill:rgb(198,189,167);fill-rule:nonzero;"/>
            </g>
        </g>
        <g transform="matrix(1.527854,-0,0,1.527854,-134.028451,207.977079)">
            <g transform="matrix(1,0,0,1,-322.057695,303.100134)">
                <path d="M648.423,185.725C648.071,184.916 647.483,184.392 647.108,184.554C646.734,184.717 646.715,185.505 647.066,186.314C647.418,187.123 648.006,187.648 648.381,187.485C648.755,187.322 648.774,186.535 648.423,185.725Z" style="fill:rgb(122,106,110);fill-rule:nonzero;"/>
            </g>
        </g>
        <g transform="matrix(1.527854,-0,0,1.527854,-134.028451,207.977079)">
            <g transform="matrix(1,0,0,1,-322.057695,303.100134)">
                <path d="M615.25,107.03C617.057,109.458 617.102,113.368 616.976,115.438C616.94,116.025 616.521,116.222 616.034,115.893C614.359,114.764 611.47,111.436 611.347,110.216C611.297,109.728 611.44,109.205 611.623,108.762C611.845,108.226 612.579,108.153 612.922,108.622C613.386,109.254 614.362,109.139 614.666,108.416L615.25,107.03Z" style="fill:rgb(244,222,186);fill-rule:nonzero;"/>
            </g>
        </g>
        <g transform="matrix(1.527854,-0,0,1.527854,-134.028451,207.977079)">
            <g transform="matrix(1,0,0,1,-322.057695,303.100134)">
                <path d="M559.73,32.81C558.418,32.238 556.078,33.937 553.439,36.88C555.882,38.028 558.782,38.911 561.95,39.424C561.726,35.995 561.083,33.4 559.73,32.81Z" style="fill:rgb(239,147,72);fill-rule:nonzero;"/>
            </g>
        </g>
        <g transform="matrix(1.527854,-0,0,1.527854,-134.028451,207.977079)">
            <g transform="matrix(1,0,0,1,-322.057695,303.100134)">
                <path d="M565.874,59.694C565.988,58.806 565.545,58.086 564.884,58.086C564.224,58.086 563.596,58.806 563.482,59.694C563.368,60.582 563.811,61.302 564.472,61.302C565.132,61.302 565.76,60.582 565.874,59.694Z" style="fill-rule:nonzero;"/>
            </g>
        </g>
        <g transform="matrix(1.527854,-0,0,1.527854,-134.028451,207.977079)">
            <g transform="matrix(1,0,0,1,-322.057695,303.100134)">
                <path d="M594.984,59.983C595.098,59.095 594.655,58.375 593.994,58.375C593.334,58.375 592.706,59.095 592.592,59.983C592.479,60.871 592.922,61.591 593.582,61.591C594.242,61.591 594.87,60.871 594.984,59.983Z" style="fill-rule:nonzero;"/>
            </g>
        </g>
        <g transform="matrix(1.527854,-0,0,1.527854,-134.028451,207.977079)">
            <g transform="matrix(1,0,0,1,-322.057695,303.100134)">
                <path d="M597.043,37.472C596.008,44.768 593.871,54.457 593.871,54.457C586.894,56.819 570.892,55.735 566.778,55.406C566.786,56.215 566.781,56.684 566.781,56.684C566.781,56.684 586.82,58.54 594.86,55.818C594.86,55.818 597.064,45.83 598.08,38.499C597.762,38.18 597.409,37.832 597.043,37.472Z" style="fill:rgb(239,147,72);fill-rule:nonzero;"/>
            </g>
        </g>
        <g transform="matrix(1.527854,-0,0,1.527854,-134.028451,207.977079)">
            <g transform="matrix(1,0,0,1,-322.057695,303.100134)">
                <path d="M586.779,67.405C590.861,67.734 593.512,67.336 594.53,68.188C598.448,71.466 597.272,74.435 597.272,74.435C597.272,74.435 594.984,71.528 594.613,71.528C594.242,71.528 592.675,71.404 592.675,71.404L586.779,67.405Z" style="fill:rgb(244,222,186);fill-rule:nonzero;"/>
            </g>
        </g>
        <g transform="matrix(1.527854,-0,0,1.527854,-134.028451,207.977079)">
            <g transform="matrix(1,0,0,1,-322.057695,303.100134)">
                <path d="M494.212,172.96L489.844,171.67C488.163,171.173 486.375,172.089 485.832,173.756C484.774,177.003 483.584,182.334 485.282,186.586C485.631,187.459 486.391,188.104 487.288,188.388L495.861,191.103L494.212,172.96Z" style="fill:rgb(66,51,58);fill-rule:nonzero;"/>
            </g>
        </g>
        <g transform="matrix(1.527854,-0,0,1.527854,-134.028451,207.977079)">
            <g transform="matrix(1,0,0,1,-322.057695,303.100134)">
                <path d="M524.765,156.715L495.407,156.715C490.156,170.306 488.083,186.921 492.274,209.492L547.36,209.492L544.227,161.662L524.765,156.715Z" style="fill:rgb(104,81,89);fill-rule:nonzero;"/>
            </g>
        </g>
        <g transform="matrix(1.527854,-0,0,1.527854,-134.028451,207.977079)">
            <g transform="matrix(1,0,0,1,-322.057695,303.100134)">
                <path d="M518.498,199.679C518.498,187.792 528.762,178.156 541.423,178.156C542.755,178.156 544.058,178.268 545.328,178.473L544.227,161.662L524.765,156.715L495.407,156.715C490.156,170.306 488.083,186.921 492.274,209.492L521.021,209.492C519.412,206.549 518.498,203.215 518.498,199.679Z" style="fill:rgb(91,69,77);fill-rule:nonzero;"/>
            </g>
        </g>
        <g transform="matrix(1.527854,-0,0,1.527854,-134.028451,207.977079)">
            <g transform="matrix(1,0,0,1,-322.057695,303.100134)">
                <path d="M502.334,205.534C502.334,200.889 499.233,197.123 495.407,197.123C491.582,197.123 488.48,200.889 488.48,205.534C488.48,210.18 491.582,213.945 495.407,213.945C499.233,213.945 502.334,210.18 502.334,205.534Z" style="fill:rgb(66,51,58);fill-rule:nonzero;"/>
            </g>
        </g>
        <g transform="matrix(1.527854,-0,0,1.527854,-134.028451,207.977079)">
            <g transform="matrix(1,0,0,1,-322.057695,303.100134)">
                <path d="M501.21,205.452C501.21,201.283 498.428,197.904 494.995,197.904C491.562,197.904 488.78,201.283 488.78,205.452C488.78,209.62 491.562,212.999 494.995,212.999C498.428,212.999 501.21,209.62 501.21,205.452Z" style="fill:rgb(86,67,75);fill-rule:nonzero;"/>
            </g>
        </g>
        <g transform="matrix(1.527854,-0,0,1.527854,-134.028451,207.977079)">
            <g transform="matrix(1,0,0,1,-322.057695,303.100134)">
                <path d="M548.659,210.529C548.659,208.642 547.27,207.112 545.556,207.112C543.842,207.112 542.453,208.642 542.453,210.529C542.453,212.416 543.842,213.945 545.556,213.945C547.27,213.945 548.659,212.416 548.659,210.529Z" style="fill:rgb(66,51,58);fill-rule:nonzero;"/>
            </g>
        </g>
        <g transform="matrix(1.527854,-0,0,1.527854,-134.028451,207.977079)">
            <g transform="matrix(1,0,0,1,-322.057695,303.100134)">
                <path d="M490.892,174.287L545.706,184.242L544.227,161.662L524.765,156.715L495.407,156.715C493.348,162.045 491.787,167.85 490.892,174.287Z" style="fill:rgb(232,184,98);fill-rule:nonzero;"/>
            </g>
        </g>
        <g transform="matrix(1.527854,-0,0,1.527854,-134.028451,207.977079)">
            <g transform="matrix(1,0,0,1,-322.057695,303.100134)">
                <path d="M520.974,170.233C515.539,165.896 511.071,161.184 507.902,156.715L495.407,156.715C493.348,162.045 491.787,167.85 490.892,174.287L545.706,184.242L545.587,182.421C538.882,181.564 529.729,177.221 520.974,170.233Z" style="fill:rgb(224,153,75);fill-rule:nonzero;"/>
            </g>
        </g>
        <g transform="matrix(1.527854,-0,0,1.527854,-134.028451,207.977079)">
            <g transform="matrix(1,0,0,1,-322.057695,303.100134)">
                <path d="M548.105,210.529C548.105,208.979 546.964,207.722 545.556,207.722C544.148,207.722 543.007,208.979 543.007,210.529C543.007,212.079 544.148,213.336 545.556,213.336C546.964,213.336 548.105,212.079 548.105,210.529Z" style="fill:rgb(86,67,75);fill-rule:nonzero;"/>
            </g>
        </g>
        <g transform="matrix(1.527854,-0,0,1.527854,-134.028451,207.977079)">
            <g transform="matrix(1,0,0,1,-322.057695,303.100134)">
                <path d="M521.229,150.931L504.615,150.931L505.952,155.159L522.567,155.159L521.229,150.931Z" style="fill:rgb(160,144,152);fill-rule:nonzero;"/>
            </g>
        </g>
        <g transform="matrix(1.527854,-0,0,1.527854,-134.028451,207.977079)">
            <g transform="matrix(1,0,0,1,-322.057695,303.100134)">
                <path d="M521.534,150.608L514.244,150.608L514.831,152.464L522.122,152.464L521.534,150.608Z" style="fill:rgb(211,193,200);fill-rule:nonzero;"/>
            </g>
        </g>
        <g transform="matrix(1.527854,-0,0,1.527854,-134.028451,207.977079)">
            <g transform="matrix(1,0,0,1,-322.057695,303.100134)">
                <path d="M490.732,175.512L545.795,185.596L545.691,184.009L490.932,173.981C490.86,174.486 490.796,174.999 490.732,175.512Z" style="fill:rgb(66,51,58);fill-rule:nonzero;"/>
            </g>
        </g>
        <g transform="matrix(1.527854,-0,0,1.527854,-134.028451,207.977079)">
            <g transform="matrix(1,0,0,1,-322.057695,303.100134)">
                <path d="M545.297,177.992C544.878,178.026 544.451,178.008 544.025,177.922L533.425,175.766C531.754,175.427 530.439,174.192 529.995,172.546L525.796,156.977L524.765,156.715L524.7,156.715L529.04,172.803C529.582,174.814 531.187,176.32 533.228,176.736L543.828,178.892C544.197,178.966 544.567,179.004 544.933,179.004C545.077,179.004 545.219,178.993 545.361,178.982L545.297,177.992Z" style="fill:rgb(91,69,77);fill-rule:nonzero;"/>
            </g>
        </g>
        <g transform="matrix(1.527854,-0,0,1.527854,-134.028451,207.977079)">
            <g transform="matrix(1,0,0,1,-322.057695,303.100134)">
                <path d="M543.549,162.524L537.596,161.011C537.59,161.18 537.58,161.347 537.58,161.518C537.58,166.521 540.097,170.577 543.202,170.577C543.498,170.577 543.786,170.529 544.069,170.458L543.549,162.524Z" style="fill:rgb(247,209,148);fill-rule:nonzero;"/>
            </g>
        </g>
        <g transform="matrix(1.527854,-0,0,1.527854,-134.028451,207.977079)">
            <g transform="matrix(1,0,0,1,-322.057695,303.100134)">
                <path d="M536.23,160.875L533.205,160.106L533.197,160.364C533.197,162.906 534.476,164.967 536.054,164.967C536.204,164.967 536.35,164.942 536.494,164.906L536.23,160.875Z" style="fill:rgb(247,209,148);fill-rule:nonzero;"/>
            </g>
        </g>
        <g transform="matrix(1.527854,-0,0,1.527854,-134.028451,207.977079)">
            <g transform="matrix(1,0,0,1,-322.057695,303.100134)">
                <path d="M494.17,182.691C493.519,182.691 492.99,183.219 492.99,183.871L492.99,190.17C492.99,190.822 493.519,191.35 494.17,191.35L494.17,182.691Z" style="fill:rgb(66,51,58);fill-rule:nonzero;"/>
            </g>
        </g>
        <g transform="matrix(1.527854,-0,0,1.527854,-134.028451,207.977079)">
            <g transform="matrix(1,0,0,1,-322.057695,303.100134)">
                <path d="M496.397,182.691C495.745,182.691 495.217,183.219 495.217,183.871L495.217,190.17C495.217,190.822 495.745,191.35 496.397,191.35L496.397,182.691Z" style="fill:rgb(66,51,58);fill-rule:nonzero;"/>
            </g>
        </g>
        <g transform="matrix(1.527854,-0,0,1.527854,-134.028451,207.977079)">
            <g transform="matrix(1,0,0,1,-322.057695,303.100134)">
                <path d="M498.623,182.691C497.972,182.691 497.444,183.219 497.444,183.871L497.444,190.17C497.444,190.822 497.972,191.35 498.623,191.35L498.623,182.691Z" style="fill:rgb(66,51,58);fill-rule:nonzero;"/>
            </g>
        </g>
        <g transform="matrix(1.527854,-0,0,1.527854,-134.028451,207.977079)">
            <g transform="matrix(1,0,0,1,-322.057695,303.100134)">
                <path d="M500.85,182.691C500.198,182.691 499.67,183.219 499.67,183.871L499.67,190.17C499.67,190.822 500.198,191.35 500.85,191.35L500.85,182.691Z" style="fill:rgb(66,51,58);fill-rule:nonzero;"/>
            </g>
        </g>
        <g transform="matrix(1.527854,-0,0,1.527854,-134.028451,207.977079)">
            <g transform="matrix(1,0,0,1,-322.057695,303.100134)">
                <path d="M503.077,182.691C502.425,182.691 501.897,183.219 501.897,183.871L501.897,190.17C501.897,190.822 502.425,191.35 503.077,191.35L503.077,182.691Z" style="fill:rgb(66,51,58);fill-rule:nonzero;"/>
            </g>
        </g>
        <g transform="matrix(1.527854,-0,0,1.527854,-134.028451,207.977079)">
            <g transform="matrix(1,0,0,1,-322.057695,303.100134)">
                <path d="M588.004,20.655C587.866,22.12 587.502,28.344 586.794,28.494C586.264,28.607 585.431,28.137 584.947,27.823L584.873,27.999C584.873,27.999 586.327,29.099 587.106,28.934C587.884,28.769 588.248,21.233 588.352,20.793L588.004,20.655Z" style="fill:rgb(221,112,74);fill-rule:nonzero;"/>
            </g>
        </g>
        <g transform="matrix(1.527854,-0,0,1.527854,-134.028451,207.977079)">
            <g transform="matrix(1,0,0,1,-322.057695,303.100134)">
                <path d="M589.877,22.807C589.597,23.621 589.81,24.483 590.359,24.738C590.912,24.995 591.592,24.541 591.88,23.724C591.94,23.554 591.966,23.382 591.983,23.213L589.877,22.807Z" style="fill:rgb(63,51,53);fill-rule:nonzero;"/>
            </g>
        </g>
        <g transform="matrix(1.527854,-0,0,1.527854,-134.028451,207.977079)">
            <g transform="matrix(1,0,0,1,-322.057695,303.100134)">
                <path d="M582.842,20.996L582.84,21C582.552,21.818 582.767,22.688 583.319,22.945C583.871,23.202 584.552,22.748 584.84,21.931C584.902,21.754 584.93,21.576 584.947,21.401L582.842,20.996Z" style="fill:rgb(63,51,53);fill-rule:nonzero;"/>
            </g>
        </g>
        <g transform="matrix(1.527854,-0,0,1.527854,-134.028451,207.977079)">
            <g transform="matrix(1,0,0,1,-322.057695,303.100134)">
                <path d="M586.343,18.154L583.305,17.735C582.728,17.655 582.191,18.026 582.106,18.563C582.02,19.1 582.418,19.599 582.995,19.679L586.033,20.098C586.61,20.178 587.147,19.807 587.232,19.27C587.318,18.733 586.92,18.234 586.343,18.154Z" style="fill:rgb(102,56,66);fill-rule:nonzero;"/>
            </g>
        </g>
        <g transform="matrix(1.527854,-0,0,1.527854,-134.028451,207.977079)">
            <g transform="matrix(1,0,0,1,-322.057695,303.100134)">
                <path d="M594.069,20.846L591.372,19.386C590.86,19.109 590.227,19.267 589.959,19.74C589.69,20.212 589.887,20.82 590.399,21.097L593.095,22.557C593.607,22.834 594.24,22.676 594.509,22.204C594.778,21.731 594.581,21.124 594.069,20.846Z" style="fill:rgb(102,56,66);fill-rule:nonzero;"/>
            </g>
        </g>
    </g>
</svg>
