<?xml version="1.0" encoding="UTF-8" standalone="no"?><!DOCTYPE svg PUBLIC "-//W3C//DTD SVG 1.1//EN" "http://www.w3.org/Graphics/SVG/1.1/DTD/svg11.dtd"><svg width="100%" height="100%" viewBox="0 0 891 1557" version="1.1" xmlns="http://www.w3.org/2000/svg" xmlns:xlink="http://www.w3.org/1999/xlink" xml:space="preserve" xmlns:serif="http://www.serif.com/" style="fill-rule:evenodd;clip-rule:evenodd;stroke-linecap:round;stroke-linejoin:round;stroke-miterlimit:2;"><path d="M19.823,256.798l64.037,31.083c1.296,0.629 1.879,2.204 1.213,3.504c-0.625,1.3 -2.208,1.846 -3.5,1.217l-64.042,-31.083c-1.292,-0.629 -1.875,-2.208 -1.208,-3.504c0.625,-1.3 2.208,-1.846 3.5,-1.217Z" style="fill:#242638;fill-rule:nonzero;"/><path d="M6.823,328.811l71.167,1.338c1.458,0.029 2.625,1.229 2.583,2.671c-0.042,1.446 -1.208,2.604 -2.667,2.575l-71.208,-1.337c-1.417,-0.025 -2.583,-1.229 -2.542,-2.671c0,-1.442 1.208,-2.6 2.666,-2.575Z" style="fill:#242638;fill-rule:nonzero;"/><path d="M55.99,210.394l52.958,47.6c1.083,0.962 1.167,2.629 0.209,3.704c-0.958,1.075 -2.625,1.163 -3.708,0.196l-52.958,-47.596c-1.083,-0.966 -1.167,-2.633 -0.209,-3.704c0.958,-1.075 2.625,-1.163 3.708,-0.2Z" style="fill:#242638;fill-rule:nonzero;"/><path d="M354.615,1523.173c0,-14.538 -11.791,-26.321 -26.333,-26.321c-14.542,0 -26.333,11.783 -26.333,26.321c0,14.538 11.791,26.321 26.333,26.321c14.542,0 26.333,-11.783 26.333,-26.321Z" style="fill:#454d77;fill-rule:nonzero;"/><path d="M88.407,1523.173c0,-14.538 -11.792,-26.321 -26.292,-26.321c-14.542,0 -26.333,11.783 -26.333,26.321c0,14.538 11.792,26.321 26.333,26.321c14.5,0 26.292,-11.783 26.292,-26.321Z" style="fill:#454d77;fill-rule:nonzero;"/><path d="M311.031,1053.465l-218,0c-15.334,0 -27.792,12.446 -27.792,27.804l0,52.271l273.583,0l0,-52.271c0,-15.358 -12.417,-27.804 -27.792,-27.804Z" style="fill:#454d77;fill-rule:nonzero;"/><rect x="61.902" y="1100.178" width="280.296" height="38.925" style="fill:#d0dcff;fill-rule:nonzero;"/><rect x="179.615" y="1120.194" width="38.542" height="380.367" style="fill:#d0dcff;fill-rule:nonzero;"/><path d="M360.531,1513.165l-327,0c0,-15.154 12.287,-27.433 27.458,-27.433l272.084,0c15.167,0 27.458,12.279 27.458,27.433Z" style="fill:#d0dcff;fill-rule:nonzero;"/><path d="M354.448,627.761l37.042,114.429l136.458,-28.071l12.5,31.971c0,0 -197.417,104.488 -206.375,75.921c-9,-28.563 -41.625,-145.279 -41.625,-145.279l62,-48.971Z" style="fill:#fca19f;fill-rule:nonzero;"/><path d="M417.823,1482.944l-7,-175.8l63.5,-1.854l-13.209,183.821l-43.292,-6.167Z" style="fill:#fca19f;fill-rule:nonzero;"/><path d="M417.906,1466.282c0,0 -25.5,43.483 -19.125,77.892l191.291,8.279c0,0 13.375,-36.175 -29.458,-47.216c-42.833,-11.046 -101.583,-43.3 -101.583,-43.3c0,0 -25.125,20.804 -41.125,4.346Z" style="fill:#37374f;fill-rule:nonzero;"/><path d="M398.698,1544.169l191.292,8.283c0,0 3.291,-8.887 1.375,-19.196l-194,-8.4c-0.166,6.537 0.209,13.079 1.334,19.313Z" style="fill:#fff;fill-rule:nonzero;"/><path d="M458.073,1472.723c1.75,-3.133 3.75,-6.237 6.625,-8.416c4.083,-3.125 9.417,-4.004 14.542,-4.442c4.5,-0.379 8.958,-0.5 13.458,-0.367c5.833,0.179 12,0.917 16.667,4.417c1.417,1.063 2.792,2.721 2.334,4.441c-0.333,1.288 -1.542,2.134 -2.792,2.634c-3.875,1.6 -8.333,0.875 -12.458,0.046c-10,-2.004 -19.917,-4.471 -29.708,-7.388c1.125,5.4 1.542,10.954 1.167,16.463c-0.291,5.175 -1.333,10.421 -3.958,14.887c-1.125,1.912 -2.625,3.704 -4.584,4.758c-1.958,1.05 -4.458,1.25 -6.375,0.083c-1.875,-1.154 -2.834,-3.437 -2.917,-5.65c-0.125,-2.208 0.542,-4.375 1.25,-6.463c1.833,-5.187 4.083,-10.217 6.75,-15.004Z" style="fill:none;stroke:#fff;stroke-width:2.62px;"/><path d="M292.906,1487.886l-15.583,-180.062l65.083,-4.933l-4.833,189.266l-44.667,-4.271Z" style="fill:#fca19f;fill-rule:nonzero;"/><path d="M292.156,1470.79c0,0 -24.083,45.838 -15.916,80.838l196.708,-0.625c0,0 12,-37.758 -32.5,-47.05c-44.459,-9.287 -106.292,-39.587 -106.292,-39.587c0,0 -24.792,22.546 -42,6.425Z" style="fill:#37374f;fill-rule:nonzero;"/><path d="M276.198,1551.627l196.708,-0.625c0,0 2.917,-9.275 0.5,-19.759l-199.5,0.633c0.125,6.713 0.792,13.412 2.292,19.75Z" style="fill:#fff;fill-rule:nonzero;"/><path d="M333.698,1475.482c1.666,-3.3 3.583,-6.58 6.375,-8.954c4.084,-3.4 9.5,-4.558 14.75,-5.25c4.583,-0.604 9.166,-0.941 13.792,-1.017c6,-0.096 12.333,0.367 17.291,3.733c1.542,1.025 3,2.659 2.625,4.45c-0.291,1.334 -1.5,2.263 -2.75,2.838c-3.917,1.825 -8.5,1.292 -12.792,0.637c-10.375,-1.579 -20.667,-3.637 -30.833,-6.163c1.417,5.488 2.083,11.167 2,16.838c-0.083,5.325 -0.875,10.758 -3.375,15.463c-1.083,2.021 -2.5,3.929 -4.458,5.104c-1.959,1.171 -4.542,1.496 -6.542,0.392c-2,-1.096 -3.083,-3.396 -3.292,-5.658c-0.208,-2.262 0.375,-4.517 1.042,-6.696c1.583,-5.408 3.667,-10.675 6.167,-15.717Z" style="fill:none;stroke:#fff;stroke-width:2.69px;"/><path d="M60.115,898.777c0,0 13.917,151.184 29.167,158.975c15.25,7.792 205.541,65.038 205.541,65.038l-34.541,305.595c0,0 52.791,48.971 104.167,17.9l43.416,-293.362l-20.333,291.142c0,0 49.083,24.054 100.75,7.596c0,0 53.458,-406.825 48.542,-414.379c-11.709,-18.025 -210.042,-113.083 -210.042,-113.083l-18.417,-59.712l-248.25,34.292Z" style="fill-rule:nonzero;"/><path d="M76.485,909.506c0,0 18.671,96.308 24.129,107.812c5.459,11.5 201.917,77.067 208.75,86.767c6.792,9.7 -36.833,331.112 -36.833,331.112" style="fill:none;stroke:#fff;stroke-width:1.78px;"/><path d="M404.656,1172.644c0,0 4.959,-87.933 0.667,-102.838c-4.333,-14.908 -126.458,-85.862 -126.458,-85.862c0,0 -48.667,-28.992 -115.542,-1.609" style="fill:none;stroke:#fff;stroke-width:1.78px;"/><path d="M248.573,973.411l-8.167,-45.887l27.667,-12.538l8,41.212l-17.708,18.354" style="fill:none;stroke:#fff;stroke-width:1.78px;"/><path d="M149.615,503.548c0,0 -120.875,41.787 -134.625,55.642c-13.708,13.85 -14.167,176.883 -14.167,176.883l21.833,0.212l19.208,102.879l18.792,143.862l268.833,-58.521l-30.917,-224.513l7.333,32.646l86.083,-28.975c0,0 -49.167,-140.146 -70.458,-158.083c-21.292,-17.942 -85,-34.059 -85,-34.059l-86.917,-7.975Z" style="fill:#818181;fill-rule:nonzero;"/><path d="M104.49,633.611l6.292,90.646l-109.958,10.917" style="fill:none;stroke:#242638;stroke-width:1.65px;"/><path d="M160.49,424.219l-13.042,82.888c0,0 17.875,34.191 69.917,28.833c27.75,-2.854 20.375,-23.554 20.375,-23.554l-4.875,-13.966l-1.791,-48.334l-70.584,-25.867Z" style="fill:#fca19f;fill-rule:nonzero;"/><path d="M157.032,445.319l3.083,-18.621l21.625,5.312l20.792,7.621l29,23.292l0.875,32.975c-13.75,-0.196 -62.833,-4.162 -75.375,-50.579Z" style="fill:#f97070;fill-rule:nonzero;"/><path d="M273.031,364.69c0.167,37.171 -8.792,111.425 -45.875,113.908c-39,2.613 -60.125,-17.133 -68.916,-52.983c0,0 -18.875,8.862 -19.958,-17.717c-0.5,-11.725 13.083,-6.729 13.083,-6.729c0,0 -31.129,-93.737 28.708,-107.208c59.792,-13.475 92.75,19.842 92.958,70.729Z" style="fill:#fca19f;fill-rule:nonzero;"/><path d="M206.657,373.865c1.125,0.529 2.291,1.142 3.5,1.25c1.167,0.108 2.5,-0.392 3.083,-1.659c0.875,-1.829 -0.083,-4.333 -1.375,-5.842c-2.667,-3.025 -6.375,-3.675 -9.875,-4.062c-3.542,-0.396 -7.167,-0.679 -10.625,0.171c-3.417,0.85 -6.75,2.958 -8.75,6.546c-0.209,0.425 -0.458,0.912 -0.375,1.446c0.042,0.75 0.667,1.304 1.25,1.408c0.625,0.108 1.208,-0.125 1.75,-0.333c6.875,-2.517 14.5,-2.138 21.417,1.075Z" style="fill:#563136;fill-rule:nonzero;"/><path d="M243.448,374.874c-1.042,0.516 -2.083,1.112 -3.167,1.208c-1.042,0.096 -2.167,-0.421 -2.667,-1.692c-0.667,-1.833 0.25,-4.321 1.458,-5.813c2.459,-2.987 5.833,-3.591 8.917,-3.937c3.167,-0.354 6.375,-0.592 9.417,0.296c3.042,0.892 5.917,3.033 7.542,6.633c0.166,0.429 0.333,0.921 0.291,1.45c-0.083,0.75 -0.667,1.296 -1.208,1.392c-0.542,0.1 -1.042,-0.137 -1.542,-0.354c-6,-2.596 -12.75,-2.304 -19.041,0.817Z" style="fill:#563136;fill-rule:nonzero;"/><path d="M228.698,395.869c-0.75,8.592 2.792,16.908 6.167,24.842c0.334,0.791 0.667,1.692 0.334,2.487l-0.667,0.888c-1.417,1.383 -3.208,2.35 -5.167,2.737c-2.75,0.558 -6.125,0.159 -7.917,2.342" style="fill:none;stroke:#242638;stroke-width:1.55px;"/><path d="M254.615,395.311c0.042,-6.287 -2.542,-11.4 -5.75,-11.425c-3.25,-0.021 -5.875,5.054 -5.959,11.341c-0.042,6.288 2.542,11.404 5.792,11.425c3.208,0.021 5.875,-5.054 5.916,-11.342Z" style="fill:#242638;fill-rule:nonzero;"/><path d="M204.948,394.248c0.083,-6.287 -2.5,-11.4 -5.75,-11.425c-3.208,-0.021 -5.875,5.054 -5.917,11.341c-0.042,6.288 2.542,11.404 5.75,11.425c3.25,0.021 5.875,-5.054 5.917,-11.342Z" style="fill:#242638;fill-rule:nonzero;"/><path d="M285.031,333.59c3.083,-2.346 7.042,-4.804 7.083,-8.683c0.042,-3.746 -3.708,-6.379 -7.25,-7.613c-3.542,-1.237 -7.541,-1.937 -10.041,-4.696c7.667,-1.546 10.417,-12.042 7,-19.096c-2.958,-6.163 -9.041,-10.396 -15.583,-12.487c-6.5,-2.092 -13.458,-2.292 -20.292,-2.175c-12.875,0.221 -25.709,1.484 -38.375,3.775c-10.625,1.925 -22.375,4.396 -31.625,-1.166c-2.625,-1.583 -5.042,-3.813 -8.084,-4.296c-4.875,-0.767 -9.375,3.487 -10.666,8.229c-1.292,4.741 -0.25,9.775 0.833,14.579c-5.208,-1.35 -11.25,-1.704 -15.542,1.596c-4.25,3.3 -4.583,11.325 0.417,13.35c1.625,0.659 3.708,0.746 4.583,2.263c1,1.696 -0.333,3.746 -1.542,5.304c-9.504,12.379 -13.833,28.587 -11.791,44.05c2.042,15.466 10.417,30 22.792,39.496c3.458,-13.608 9.042,-26.579 12.958,-40.054c3.959,-13.471 6.208,-27.9 2.792,-41.517c25.542,15.013 57.25,16.338 86.292,10.404c2.208,-0.45 4.625,-0.9 6.542,0.279c2.042,1.258 2.666,3.871 3.125,6.217c1.708,8.671 3.416,17.338 5.125,26.004c-3.459,-12.125 1.208,-26.146 11.25,-33.763Z" style="fill:#563136;fill-rule:nonzero;"/><path d="M154.032,399.882c8.708,-27.488 13.291,-56.292 13.458,-85.129c0.042,2.946 11.75,6.037 13.875,6.792c7.75,2.779 15.917,4.742 24.125,5.712c21.792,2.588 42.792,-1.5 64.375,-3.712c2.959,-0.304 6.125,-0.525 8.75,0.937c2.583,1.463 4.042,5.288 2.083,7.521" style="fill:none;stroke:#fff;stroke-width:1.58px;"/><path d="M272.49,310.373c-11.625,-5.042 -25,-2.329 -37.458,0c-18.375,3.421 -37.625,5.788 -55.417,0.204" style="fill:none;stroke:#fff;stroke-width:1.58px;"/><path d="M239.073,445.873c0,0 -12.125,-7.796 -38.625,-1.945" style="fill:none;stroke:#242638;stroke-width:1.55px;"/><path d="M5.865,735.261l95.917,-9.025l10.458,125.2l107.833,151.295l-29.042,24.838c0,0 -147.417,-122.846 -158.167,-147.346c-10.75,-24.496 -27,-144.963 -27,-144.963Z" style="fill:#fca19f;fill-rule:nonzero;"/><path d="M264.823,1065.761c5.416,8.537 12.042,16.312 19.625,23.02c1.958,-4.725 2.5,-10.008 1.583,-15.033c-0.917,5.033 2.917,10.454 8,11.229c2.042,-12.704 -1.583,-26.221 -9.709,-36.208c7.458,6.187 13.75,13.766 18.459,22.225c6.083,-4.921 2.292,-14.725 -2.334,-21.017c-21.916,-29.7 -55.291,-50.725 -91.542,-57.683c-7.417,5.054 -13.708,11.754 -18.25,19.471c-2.583,4.313 -4.667,9.338 -3.583,14.238c0.75,3.529 3.042,6.529 5.583,9.104c7.709,7.825 17.875,12.783 28.292,16.163c6.792,2.188 13.875,3.838 19.792,7.763c12.875,8.521 17.833,26.046 31.167,33.787c-2.375,-9.016 -4.708,-18.037 -7.083,-27.058Z" style="fill:#fca19f;fill-rule:nonzero;"/><path d="M626.198,758.898c-17.5,4.775 -36.292,9.53 -53.458,3.738c-8.875,-2.98 -16.583,-8.555 -25.125,-12.283c-8.542,-3.729 -18.917,-5.417 -26.917,-0.592c-4.459,-7.129 -10.25,-13.433 -16.959,-18.521c14.75,-14.825 30.875,-29.996 51.292,-34.396c6.875,-1.475 13.917,-1.658 20.917,-1.575c11.541,0.134 23.083,0.979 34.541,2.529c-2.542,5.833 -9.75,7.662 -16,8.767c-7.708,1.354 -15.375,2.704 -23.042,4.058c3,12.075 18.25,16.391 30.625,15.233c12.417,-1.154 25.042,-5.508 37,-2.046c-3.5,4.62 -8.5,8.083 -14.042,9.725c5.875,-1.104 12,-0.684 17.667,1.208c-7.583,7.825 -17.667,13.2 -28.375,15.138c7.875,0.487 15.75,0.975 23.625,1.462c-1.791,4.488 -7.083,6.284 -11.75,7.554Z" style="fill:#fca19f;fill-rule:nonzero;"/><path d="M169.365,280.898c-1.542,1.488 1.375,3.488 3.542,3.587c22.417,1.042 44.125,-7.337 66.25,-11.141c12.167,-2.087 25.417,-2.6 36,3.721c10.583,6.321 16.458,21.642 9.084,31.517c5.042,-0.483 10.25,2.225 12.791,6.642c2.5,4.412 2.167,10.283 -0.833,14.383c-4.959,6.766 -14.959,7.5 -21.167,13.116" style="fill:none;stroke:#563136;stroke-width:2.34px;stroke-linecap:butt;stroke-linejoin:miter;"/><path d="M788.49,1421.681l18.375,94.421l52.125,-8.454l-1.458,-9.867l-9.542,-69.054l-59.5,-7.046Z" style="fill:#acbdd2;fill-rule:nonzero;"/><path d="M859.49,1486.04c0,0 -18.125,27.713 -57.792,0.937c0,0 -116.042,40.4 -117.542,54.492c-1.458,14.092 7.375,15.5 7.375,15.5l171.875,-1.408l-3.917,-69.521Z" style="fill:#583b5a;fill-rule:nonzero;"/><path d="M597.49,1426.615l-6.625,88.783l59.5,-7.75l-1.459,-9.867l5.875,-59.187l-57.292,-11.979Z" style="fill:#acbdd2;fill-rule:nonzero;"/><path d="M580.365,714.053l-5.417,63.417l1,686.779l91.083,2.817l27.416,-621.013l14.708,-0.937l67.583,621.013l96,0l-14.708,-352.317l3.916,-378.617l-60.708,-40.4l-220.875,19.259Z" style="fill:#454d77;fill-rule:nonzero;"/><path d="M606.323,854.978l-11.75,607.391" style="fill:none;stroke:#356493;stroke-width:2.88px;"/><path d="M771.823,844.173l39.208,620.075" style="fill:none;stroke:#356493;stroke-width:2.88px;"/><path d="M650.865,1486.04c0,0 -18.125,27.713 -57.792,0.937c0,0 -116.042,40.4 -117.542,54.492c-1.458,14.092 7.375,15.5 7.375,15.5l171.875,-1.408l-3.916,-69.521Z" style="fill:#583b5a;fill-rule:nonzero;"/><path d="M856.073,791.565l-74.458,-75.163l-81.292,0.942" style="fill:none;stroke:#356493;stroke-width:2.88px;"/><path d="M694.448,846.052l-5.875,-11.271l-0.958,-117.437l-73.458,1.879l-39.208,58.246" style="fill:none;stroke:#356493;stroke-width:2.88px;"/><path d="M545.24,260.519c0,0 -53.25,59.283 -58.125,69.75c-4.833,10.467 0.833,177.933 0.833,177.933l-95.416,186.079l46.917,35.662l121.625,-172.896l8.5,54.663l-5.667,457.821c0,0 127.708,9.304 326.542,9.304c0,0 -11.292,-392.308 -17.75,-441.929c-6.5,-49.621 -16.167,-85.283 -16.167,-85.283c0,0 37.166,-37.217 29.083,-63.579c-8.084,-26.362 -76.792,-250.425 -97.792,-256.629c-21.042,-6.204 -138.25,-17.829 -138.25,-17.829l-104.333,46.933Z" style="fill:#e6edff;fill-rule:nonzero;"/><path d="M599.907,144.478l41.208,73.962c0,0 14.959,52.258 -33.541,59.533c-48.542,7.275 -53.5,-24.929 -53.5,-24.929l0,-14.784l-14.75,-46.208l60.583,-47.575Z" style="fill:#fca19f;fill-rule:nonzero;"/><path d="M611.448,166.073l-10.292,-19.383l-19.5,12.116l-17.833,14.013l-20.584,31.504l8.042,25.183c14.208,0.6 63.708,-15.504 60.166,-63.433Z" style="fill:#f97070;fill-rule:nonzero;"/><path d="M603.907,267.027c16.542,-21.65 31.375,-60.475 31.375,-60.475l23.75,7.146l-20.5,272.366l-93.292,-225.546l8.917,-20.687l49.75,27.196Z" style="fill:#97a5ff;fill-rule:nonzero;"/><path d="M604.073,267.752l-15.667,10.55l12.917,18.204l0.75,100.804l36.458,88.754c0,0 9.209,-96.617 8.167,-99.063c-1.042,-2.441 -30.208,-92.133 -30.208,-92.133l6.083,-25.871l-18.5,-1.246Z" style="fill:#583b5a;fill-rule:nonzero;"/><path d="M573.073,654.165l-11.667,-9.421l-50.125,57.192l11.666,9.421l50.125,-57.192Z" style="fill:#97a5ff;fill-rule:nonzero;"/><path d="M507.573,717.873l-34.75,39.637l0.541,-2.371l33.917,-38.704l0.292,1.437Z" style="fill:#aab6cc;fill-rule:nonzero;"/><path d="M511.198,717.402l-4,0.954l-0.042,-0.021l-0.542,-0.433l-0.042,-0.021l0.291,-3.966l5.875,-8.296l2,1.604l2,1.6l1.958,1.6l-7.5,6.979Z" style="fill:#82a64e;fill-rule:nonzero;"/><path d="M516.823,707.994l-1.25,-1.017l69.209,-78.946l1.25,1.017l-69.208,78.946Z" style="fill:#d0dcff;fill-rule:nonzero;"/><path d="M546.74,681.727l-9.584,-7.72l3.334,-3.805l9.583,7.713l-3.333,3.812Z" style="fill:#353738;fill-rule:nonzero;"/><path d="M546.198,682.607l-9.792,-7.921l-0.125,-1.046l0.375,-0.425l1,-0.087l9.833,7.921l0.083,1.042l-0.375,0.429l-1,0.087Z" style="fill:#525354;fill-rule:nonzero;"/><path d="M549.823,678.503l-9.833,-7.921l-0.083,-1.046l0.375,-0.425l1,-0.087l9.833,7.921l0.083,1.042l-0.375,0.429l-1,0.087Z" style="fill:#525354;fill-rule:nonzero;"/><path d="M521.448,712.865l-11.666,-9.421l1.417,-1.604l11.666,9.425l-1.417,1.6Z" style="fill:#82a64e;fill-rule:nonzero;"/><path d="M521.698,710.306l-9.5,-7.662l24.375,-27.821l9.5,7.662l-24.375,27.821Z" style="fill:#c11b67;fill-rule:nonzero;"/><path d="M572.99,654.069l-11.666,-9.421l7.167,-8.179l7.375,-1.804l7.416,-8.483l4.917,3.95l-7.458,8.479l-0.583,7.283l-7.167,8.175Z" style="fill:#97a5ff;fill-rule:nonzero;"/><path d="M572.99,654.069l1.083,-1.246l-1.083,1.246Zm1.5,-1.7l-5.833,-4.713l17.083,-19.5l2.458,1.975l-7.458,8.479l-0.583,7.283l-5.667,6.475Z" style="fill:#849bff;fill-rule:nonzero;"/><path d="M591.24,634.357l-12.791,-10.288l-0.083,-0.9l0.333,-0.371l0.875,-0.075l12.75,10.292l0.083,0.9l-0.333,0.367l-0.834,0.075Z" style="fill:#d0dcff;fill-rule:nonzero;"/><path d="M517.448,694.886l-0.083,-0.083l0.375,-0.425l0.083,0.083l-0.375,0.425Z" style="fill:#c6c6c7;fill-rule:nonzero;"/><path d="M518.365,695.607l-0.917,-0.721l0.375,-0.425l0.917,0.721l-0.375,0.425Z" style="fill:#808ac7;fill-rule:nonzero;"/><path d="M521.657,698.286l-3.292,-2.679l0.375,-0.425l3.292,2.679l-0.375,0.425Z" style="fill:#9c2d61;fill-rule:nonzero;"/><path d="M518.115,694.136l-0.125,-0.083l0.375,-0.429l0.125,0.087l-0.375,0.425Z" style="fill:#c6c6c7;fill-rule:nonzero;"/><path d="M518.99,694.856l-0.875,-0.721l0.375,-0.425l0.875,0.721l-0.375,0.425Z" style="fill:#808ac7;fill-rule:nonzero;"/><path d="M520.698,696.223l-1.708,-1.367l0.375,-0.425l1.708,1.367l-0.375,0.425Z" style="fill:#9c2d61;fill-rule:nonzero;"/><path d="M518.74,693.428l-0.125,-0.083l0.375,-0.425l0.125,0.083l-0.375,0.425Z" style="fill:#c6c6c7;fill-rule:nonzero;"/><path d="M519.615,694.148l-0.875,-0.721l0.375,-0.425l0.875,0.717l-0.375,0.429Z" style="fill:#808ac7;fill-rule:nonzero;"/><path d="M521.323,695.515l-1.708,-1.367l0.375,-0.429l1.708,1.371l-0.375,0.425Z" style="fill:#9c2d61;fill-rule:nonzero;"/><path d="M519.323,692.757l-0.125,-0.083l0.375,-0.425l0.125,0.083l-0.375,0.425Z" style="fill:#c6c6c7;fill-rule:nonzero;"/><path d="M520.198,693.478l-0.875,-0.721l0.375,-0.425l0.875,0.721l-0.375,0.425Z" style="fill:#808ac7;fill-rule:nonzero;"/><path d="M521.906,694.848l-1.708,-1.371l0.375,-0.425l1.708,1.367l-0.375,0.429Z" style="fill:#9c2d61;fill-rule:nonzero;"/><path d="M519.906,692.111l-0.125,-0.087l0.375,-0.425l0.125,0.083l-0.375,0.429Z" style="fill:#c6c6c7;fill-rule:nonzero;"/><path d="M520.781,692.828l-0.875,-0.717l0.375,-0.429l0.875,0.721l-0.375,0.425Z" style="fill:#808ac7;fill-rule:nonzero;"/><path d="M522.49,694.198l-1.708,-1.371l0.375,-0.425l1.708,1.371l-0.375,0.425Z" style="fill:#9c2d61;fill-rule:nonzero;"/><path d="M521.49,690.273l-0.083,-0.083l0.375,-0.425l0.083,0.083l-0.375,0.425Z" style="fill:#c6c6c7;fill-rule:nonzero;"/><path d="M522.406,690.994l-0.917,-0.721l0.375,-0.425l0.917,0.721l-0.375,0.425Z" style="fill:#808ac7;fill-rule:nonzero;"/><path d="M525.698,693.677l-3.292,-2.684l0.375,-0.425l3.291,2.683l-0.375,0.425Z" style="fill:#9c2d61;fill-rule:nonzero;"/><path d="M522.157,689.528l-0.125,-0.087l0.375,-0.425l0.125,0.087l-0.375,0.425Z" style="fill:#c6c6c7;fill-rule:nonzero;"/><path d="M523.031,690.244l-0.875,-0.717l0.375,-0.425l0.875,0.717l-0.375,0.425Z" style="fill:#808ac7;fill-rule:nonzero;"/><path d="M524.74,691.615l-1.708,-1.371l0.375,-0.425l1.708,1.367l-0.375,0.429Z" style="fill:#9c2d61;fill-rule:nonzero;"/><path d="M522.782,688.815l-0.125,-0.083l0.375,-0.425l0.125,0.083l-0.375,0.425Z" style="fill:#c6c6c7;fill-rule:nonzero;"/><path d="M523.657,689.536l-0.875,-0.721l0.375,-0.425l0.875,0.721l-0.375,0.425Z" style="fill:#808ac7;fill-rule:nonzero;"/><path d="M525.365,690.906l-1.708,-1.371l0.375,-0.425l1.708,1.367l-0.375,0.429Z" style="fill:#9c2d61;fill-rule:nonzero;"/><path d="M523.365,688.148l-0.125,-0.087l0.375,-0.425l0.125,0.087l-0.375,0.425Z" style="fill:#c6c6c7;fill-rule:nonzero;"/><path d="M524.24,688.865l-0.875,-0.717l0.375,-0.425l0.875,0.717l-0.375,0.425Z" style="fill:#808ac7;fill-rule:nonzero;"/><path d="M525.948,690.236l-1.708,-1.371l0.375,-0.425l1.708,1.371l-0.375,0.425Z" style="fill:#9c2d61;fill-rule:nonzero;"/><path d="M523.948,687.498l-0.125,-0.083l0.375,-0.429l0.125,0.087l-0.375,0.425Z" style="fill:#c6c6c7;fill-rule:nonzero;"/><path d="M524.823,688.219l-0.875,-0.721l0.375,-0.425l0.875,0.717l-0.375,0.429Z" style="fill:#808ac7;fill-rule:nonzero;"/><path d="M526.531,689.586l-1.708,-1.366l0.375,-0.429l1.708,1.371l-0.375,0.425Z" style="fill:#9c2d61;fill-rule:nonzero;"/><path d="M525.74,685.415l-0.083,-0.087l0.375,-0.429l0.083,0.088l-0.375,0.429Z" style="fill:#c6c6c7;fill-rule:nonzero;"/><path d="M526.656,686.131l-0.917,-0.717l0.375,-0.429l0.917,0.721l-0.375,0.425Z" style="fill:#808ac7;fill-rule:nonzero;"/><path d="M529.99,688.815l-3.334,-2.684l0.375,-0.425l3.334,2.679l-0.375,0.429Z" style="fill:#9c2d61;fill-rule:nonzero;"/><path d="M526.407,684.661l-0.083,-0.083l0.375,-0.425l0.083,0.083l-0.375,0.425Z" style="fill:#c6c6c7;fill-rule:nonzero;"/><path d="M527.323,685.382l-0.917,-0.721l0.375,-0.425l0.917,0.721l-0.375,0.425Z" style="fill:#808ac7;fill-rule:nonzero;"/><path d="M528.99,686.753l-1.667,-1.371l0.375,-0.425l1.667,1.367l-0.375,0.429Z" style="fill:#9c2d61;fill-rule:nonzero;"/><path d="M527.031,683.953l-0.083,-0.087l0.375,-0.425l0.083,0.087l-0.375,0.425Z" style="fill:#c6c6c7;fill-rule:nonzero;"/><path d="M527.948,684.669l-0.917,-0.717l0.375,-0.425l0.917,0.717l-0.375,0.425Z" style="fill:#808ac7;fill-rule:nonzero;"/><path d="M529.615,686.04l-1.666,-1.371l0.375,-0.425l1.667,1.371l-0.375,0.425Z" style="fill:#9c2d61;fill-rule:nonzero;"/><path d="M527.615,683.282l-0.083,-0.083l0.375,-0.425l0.083,0.083l-0.375,0.425Z" style="fill:#c6c6c7;fill-rule:nonzero;"/><path d="M528.532,684.002l-0.917,-0.721l0.375,-0.425l0.917,0.721l-0.375,0.425Z" style="fill:#808ac7;fill-rule:nonzero;"/><path d="M530.198,685.369l-1.666,-1.367l0.375,-0.425l1.667,1.367l-0.375,0.425Z" style="fill:#9c2d61;fill-rule:nonzero;"/><path d="M528.198,682.636l-0.125,-0.087l0.375,-0.425l0.125,0.087l-0.375,0.425Z" style="fill:#c6c6c7;fill-rule:nonzero;"/><path d="M529.073,683.352l-0.875,-0.717l0.375,-0.425l0.875,0.717l-0.375,0.425Z" style="fill:#808ac7;fill-rule:nonzero;"/><path d="M530.781,684.723l-1.708,-1.371l0.375,-0.425l1.708,1.371l-0.375,0.425Z" style="fill:#9c2d61;fill-rule:nonzero;"/><path d="M529.781,680.803l-0.083,-0.087l0.375,-0.425l0.083,0.087l-0.375,0.425Z" style="fill:#c6c6c7;fill-rule:nonzero;"/><path d="M530.698,681.519l-0.917,-0.717l0.375,-0.425l0.917,0.717l-0.375,0.425Z" style="fill:#808ac7;fill-rule:nonzero;"/><path d="M534.031,684.202l-3.334,-2.683l0.375,-0.425l3.333,2.684l-0.375,0.425Z" style="fill:#9c2d61;fill-rule:nonzero;"/><path d="M530.448,680.048l-0.083,-0.083l0.375,-0.425l0.083,0.083l-0.375,0.425Z" style="fill:#c6c6c7;fill-rule:nonzero;"/><path d="M531.365,680.769l-0.917,-0.721l0.375,-0.425l0.917,0.721l-0.375,0.425Z" style="fill:#808ac7;fill-rule:nonzero;"/><path d="M533.032,682.14l-1.667,-1.371l0.375,-0.425l1.667,1.371l-0.375,0.425Z" style="fill:#9c2d61;fill-rule:nonzero;"/><path d="M531.073,679.34l-0.083,-0.083l0.375,-0.425l0.083,0.083l-0.375,0.425Z" style="fill:#c6c6c7;fill-rule:nonzero;"/><path d="M531.99,680.061l-0.917,-0.721l0.375,-0.425l0.917,0.721l-0.375,0.425Z" style="fill:#808ac7;fill-rule:nonzero;"/><path d="M533.657,681.428l-1.667,-1.367l0.375,-0.425l1.667,1.367l-0.375,0.425Z" style="fill:#9c2d61;fill-rule:nonzero;"/><path d="M531.657,678.673l-0.083,-0.083l0.375,-0.429l0.083,0.087l-0.375,0.425Z" style="fill:#c6c6c7;fill-rule:nonzero;"/><path d="M532.573,679.39l-0.917,-0.717l0.375,-0.425l0.917,0.717l-0.375,0.425Z" style="fill:#808ac7;fill-rule:nonzero;"/><path d="M534.24,680.761l-1.667,-1.371l0.375,-0.425l1.667,1.371l-0.375,0.425Z" style="fill:#9c2d61;fill-rule:nonzero;"/><path d="M532.24,678.023l-0.125,-0.083l0.375,-0.425l0.125,0.083l-0.375,0.425Z" style="fill:#c6c6c7;fill-rule:nonzero;"/><path d="M533.115,678.744l-0.875,-0.721l0.375,-0.425l0.875,0.721l-0.375,0.425Z" style="fill:#808ac7;fill-rule:nonzero;"/><path d="M534.823,680.111l-1.708,-1.367l0.375,-0.425l1.708,1.367l-0.375,0.425Z" style="fill:#9c2d61;fill-rule:nonzero;"/><path d="M534.49,675.452l-0.125,-0.083l0.375,-0.425l0.125,0.083l-0.375,0.425Z" style="fill:#c6c6c7;fill-rule:nonzero;"/><path d="M535.365,676.173l-0.875,-0.721l0.375,-0.425l0.875,0.721l-0.375,0.425Z" style="fill:#808ac7;fill-rule:nonzero;"/><path d="M538.698,678.853l-3.334,-2.679l0.375,-0.425l3.333,2.679l-0.375,0.425Z" style="fill:#9c2d61;fill-rule:nonzero;"/><path d="M535.157,674.703l-0.125,-0.083l0.375,-0.425l0.125,0.083l-0.375,0.425Z" style="fill:#c6c6c7;fill-rule:nonzero;"/><path d="M536.031,675.423l-0.875,-0.721l0.375,-0.425l0.875,0.721l-0.375,0.425Z" style="fill:#808ac7;fill-rule:nonzero;"/><path d="M537.74,676.79l-1.708,-1.367l0.375,-0.425l1.708,1.367l-0.375,0.425Z" style="fill:#9c2d61;fill-rule:nonzero;"/><path d="M535.782,673.994l-0.125,-0.083l0.375,-0.425l0.125,0.083l-0.375,0.425Z" style="fill:#c6c6c7;fill-rule:nonzero;"/><path d="M536.365,674.481l-0.583,-0.487l0.375,-0.425l0.167,0.134l0.042,0.779Z" style="fill:#808ac7;fill-rule:nonzero;"/><path d="M538.365,676.082l-2,-1.6l-0.042,-0.779l2.416,1.954l-0.375,0.425Z" style="fill:#525354;fill-rule:nonzero;"/><path d="M536.365,673.323l-0.125,-0.083l0.375,-0.425l0.125,0.083l-0.375,0.425Z" style="fill:#c6c6c7;fill-rule:nonzero;"/><path d="M536.49,673.432l-0.125,-0.108l0.375,-0.425l0.333,0.283l-0.417,0.033l-0.167,0.217Z" style="fill:#808ac7;fill-rule:nonzero;"/><path d="M538.948,675.415l-2.459,-1.983l0.167,-0.217l0.417,-0.033l2.25,1.804l-0.375,0.429Z" style="fill:#525354;fill-rule:nonzero;"/><path d="M536.906,672.677l-0.083,-0.087l0.375,-0.425l0.083,0.083l-0.375,0.429Z" style="fill:#c6c6c7;fill-rule:nonzero;"/><path d="M537.823,673.248l-0.167,-0.121l-0.167,0.017l-0.583,-0.467l0.375,-0.429l0.833,0.666l-0.291,0.334Z" style="fill:#808ac7;fill-rule:nonzero;"/><path d="M539.573,674.673l-1.75,-1.425l0.291,-0.334l1.75,1.425l-0.292,0.333Z" style="fill:#3f4041;fill-rule:nonzero;"/><path d="M539.531,674.765l-2.042,-1.621l0.167,-0.017l0.167,0.121l1.75,1.425l-0.042,0.092Z" style="fill:#525354;fill-rule:nonzero;"/><path d="M538.531,670.844l-0.125,-0.087l0.375,-0.425l0.125,0.087l-0.375,0.425Z" style="fill:#c6c6c7;fill-rule:nonzero;"/><path d="M539.365,671.506l-0.834,-0.662l0.375,-0.425l0.833,0.663l-0.375,0.425Z" style="fill:#808ac7;fill-rule:nonzero;"/><path d="M542.74,674.244l-3.375,-2.738l0.375,-0.425l3.375,2.737l-0.375,0.425Z" style="fill:#3f4041;fill-rule:nonzero;"/><path d="M539.198,670.094l-0.125,-0.087l0.375,-0.425l0.125,0.087l-0.375,0.425Z" style="fill:#c6c6c7;fill-rule:nonzero;"/><path d="M540.031,670.757l-0.833,-0.663l0.375,-0.425l0.375,0.3l0.042,0.612l0.083,0.083l-0.042,0.092Z" style="fill:#808ac7;fill-rule:nonzero;"/><path d="M541.781,672.181l-1.75,-1.425l0.042,-0.092l1.792,1.421l-0.083,0.096Z" style="fill:#3f4041;fill-rule:nonzero;"/><path d="M541.865,672.086l-1.792,-1.421l-0.083,-0.083l-0.042,-0.612l2.208,1.787l-0.291,0.329Z" style="fill:#525354;fill-rule:nonzero;"/><path d="M539.823,669.381l-0.125,-0.083l0.375,-0.425l0.125,0.083l-0.375,0.425Z" style="fill:#c6c6c7;fill-rule:nonzero;"/><path d="M539.948,669.49l-0.125,-0.108l0.375,-0.425l0.167,0.146l-0.083,0.008l-0.333,0.379Z" style="fill:#808ac7;fill-rule:nonzero;"/><path d="M542.407,671.473l-2.458,-1.984l0.333,-0.379l0.083,-0.008l2.416,1.941l-0.375,0.429Z" style="fill:#525354;fill-rule:nonzero;"/><path d="M540.407,668.715l-0.125,-0.087l0.375,-0.425l0.125,0.087l-0.375,0.425Z" style="fill:#c6c6c7;fill-rule:nonzero;"/><path d="M543.198,670.569l-1.917,-1.546l-0.458,0.038l-0.417,-0.346l0.375,-0.425l2.583,2.083l-0.167,0.196Z" style="fill:#808ac7;fill-rule:nonzero;"/><path d="M542.99,670.803l-2.167,-1.742l0.458,-0.038l1.917,1.546l-0.208,0.233Z" style="fill:#525354;fill-rule:nonzero;"/><path d="M540.948,668.065l-0.083,-0.083l0.375,-0.429l0.083,0.087l-0.375,0.425Z" style="fill:#c6c6c7;fill-rule:nonzero;"/><path d="M543.573,670.152l-2.625,-2.087l0.375,-0.425l2.583,2.087l-0.333,0.425Z" style="fill:#808ac7;fill-rule:nonzero;"/><path d="M543.365,665.315l-0.083,-0.087l0.375,-0.425l0.083,0.083l-0.375,0.429Z" style="fill:#c6c6c7;fill-rule:nonzero;"/><path d="M547.615,668.715l-4.25,-3.4l0.375,-0.429l4.208,3.404l-0.333,0.425Z" style="fill:#808ac7;fill-rule:nonzero;"/><path d="M544.032,664.561l-0.083,-0.083l0.333,-0.425l0.125,0.083l-0.375,0.425Z" style="fill:#c6c6c7;fill-rule:nonzero;"/><path d="M546.615,666.653l-2.583,-2.092l0.375,-0.425l2.583,2.091l-0.375,0.425Z" style="fill:#808ac7;fill-rule:nonzero;"/><path d="M544.657,663.853l-0.125,-0.087l0.375,-0.425l0.125,0.087l-0.375,0.425Z" style="fill:#c6c6c7;fill-rule:nonzero;"/><path d="M547.24,665.94l-2.583,-2.087l0.375,-0.425l2.583,2.087l-0.375,0.425Z" style="fill:#808ac7;fill-rule:nonzero;"/><path d="M545.24,663.186l-0.083,-0.087l0.333,-0.425l0.125,0.083l-0.375,0.429Z" style="fill:#c6c6c7;fill-rule:nonzero;"/><path d="M547.823,665.273l-2.584,-2.087l0.375,-0.429l2.583,2.092l-0.375,0.425Z" style="fill:#808ac7;fill-rule:nonzero;"/><path d="M545.823,662.536l-0.125,-0.087l0.375,-0.425l0.125,0.087l-0.375,0.425Z" style="fill:#c6c6c7;fill-rule:nonzero;"/><path d="M548.406,664.623l-2.583,-2.087l0.375,-0.425l2.583,2.088l-0.375,0.425Z" style="fill:#808ac7;fill-rule:nonzero;"/><path d="M547.406,660.703l-0.083,-0.087l0.375,-0.425l0.083,0.087l-0.375,0.425Z" style="fill:#c6c6c7;fill-rule:nonzero;"/><path d="M551.615,664.102l-4.208,-3.4l0.375,-0.425l4.208,3.4l-0.375,0.425Z" style="fill:#808ac7;fill-rule:nonzero;"/><path d="M548.073,659.952l-0.125,-0.087l0.375,-0.425l0.125,0.083l-0.375,0.429Z" style="fill:#c6c6c7;fill-rule:nonzero;"/><path d="M550.656,662.04l-2.583,-2.087l0.375,-0.429l2.583,2.092l-0.375,0.425Z" style="fill:#808ac7;fill-rule:nonzero;"/><path d="M548.698,659.244l-0.125,-0.087l0.375,-0.425l0.125,0.083l-0.375,0.429Z" style="fill:#c6c6c7;fill-rule:nonzero;"/><path d="M551.282,661.327l-2.583,-2.083l0.375,-0.429l2.583,2.087l-0.375,0.425Z" style="fill:#808ac7;fill-rule:nonzero;"/><path d="M549.282,658.573l-0.083,-0.083l0.333,-0.429l0.125,0.087l-0.375,0.425Z" style="fill:#c6c6c7;fill-rule:nonzero;"/><path d="M551.865,660.661l-2.583,-2.088l0.375,-0.425l2.583,2.087l-0.375,0.425Z" style="fill:#808ac7;fill-rule:nonzero;"/><path d="M549.865,657.923l-0.125,-0.083l0.375,-0.425l0.125,0.083l-0.375,0.425Z" style="fill:#c6c6c7;fill-rule:nonzero;"/><path d="M552.448,660.011l-2.583,-2.088l0.375,-0.425l2.583,2.087l-0.375,0.425Z" style="fill:#808ac7;fill-rule:nonzero;"/><path d="M551.865,655.611l-0.083,-0.087l0.375,-0.425l0.083,0.083l-0.375,0.429Z" style="fill:#c6c6c7;fill-rule:nonzero;"/><path d="M556.115,659.006l-4.25,-3.396l0.375,-0.429l4.25,3.4l-0.375,0.425Z" style="fill:#808ac7;fill-rule:nonzero;"/><path d="M552.531,654.861l-0.083,-0.087l0.375,-0.425l0.083,0.083l-0.375,0.429Z" style="fill:#c6c6c7;fill-rule:nonzero;"/><path d="M555.115,656.949l-2.584,-2.088l0.375,-0.429l2.583,2.087l-0.375,0.429Z" style="fill:#808ac7;fill-rule:nonzero;"/><path d="M553.156,654.149l-0.083,-0.083l0.375,-0.425l0.083,0.083l-0.375,0.425Z" style="fill:#c6c6c7;fill-rule:nonzero;"/><path d="M555.74,656.236l-2.583,-2.087l0.375,-0.425l2.583,2.087l-0.375,0.425Z" style="fill:#808ac7;fill-rule:nonzero;"/><path d="M553.74,653.482l-0.083,-0.087l0.375,-0.425l0.083,0.083l-0.375,0.429Z" style="fill:#c6c6c7;fill-rule:nonzero;"/><path d="M556.323,655.569l-2.583,-2.087l0.375,-0.429l2.583,2.091l-0.375,0.425Z" style="fill:#808ac7;fill-rule:nonzero;"/><path d="M554.323,652.832l-0.125,-0.083l0.375,-0.429l0.125,0.087l-0.375,0.425Z" style="fill:#c6c6c7;fill-rule:nonzero;"/><path d="M556.906,654.919l-2.583,-2.087l0.375,-0.425l2.583,2.087l-0.375,0.425Z" style="fill:#808ac7;fill-rule:nonzero;"/><path d="M555.906,650.998l-0.083,-0.083l0.375,-0.429l0.083,0.083l-0.375,0.429Z" style="fill:#c6c6c7;fill-rule:nonzero;"/><path d="M560.157,654.398l-4.25,-3.4l0.375,-0.429l4.25,3.404l-0.375,0.425Z" style="fill:#808ac7;fill-rule:nonzero;"/><path d="M556.573,650.248l-0.083,-0.087l0.375,-0.425l0.083,0.087l-0.375,0.425Z" style="fill:#c6c6c7;fill-rule:nonzero;"/><path d="M559.157,652.336l-2.583,-2.087l0.375,-0.425l2.583,2.083l-0.375,0.429Z" style="fill:#808ac7;fill-rule:nonzero;"/><path d="M557.198,649.536l-0.083,-0.083l0.375,-0.425l0.083,0.083l-0.375,0.425Z" style="fill:#c6c6c7;fill-rule:nonzero;"/><path d="M559.782,651.627l-2.583,-2.091l0.375,-0.425l2.583,2.092l-0.375,0.425Z" style="fill:#808ac7;fill-rule:nonzero;"/><path d="M557.781,648.869l-0.083,-0.087l0.375,-0.425l0.083,0.087l-0.375,0.425Z" style="fill:#c6c6c7;fill-rule:nonzero;"/><path d="M560.365,650.956l-2.583,-2.087l0.375,-0.425l2.583,2.087l-0.375,0.425Z" style="fill:#808ac7;fill-rule:nonzero;"/><path d="M558.365,648.219l-0.125,-0.083l0.375,-0.425l0.125,0.083l-0.375,0.425Z" style="fill:#c6c6c7;fill-rule:nonzero;"/><path d="M560.948,650.306l-2.583,-2.087l0.375,-0.425l2.583,2.087l-0.375,0.425Z" style="fill:#808ac7;fill-rule:nonzero;"/><path d="M569.073,650.936l-1.292,-1.058l0,-0.009l1.292,1.05l0,0.016Zm-2.583,-2.075l-5.084,-4.117l-0.375,0.446l-0.125,-0.087l0.417,-0.45l5.208,4.2l-0.042,0.009Z" style="fill:#e3e3e3;fill-rule:nonzero;"/><path d="M572.99,654.081l-3.916,-3.146l0,-0.016l3.916,3.15l0,0.012Zm1.083,-1.258l0.417,-0.454l-0.417,0.454Z" style="fill:#cdd3e3;fill-rule:nonzero;"/><path d="M572.573,654.523l-5.208,-4.2l0.417,-0.446l1.292,1.058l3.916,3.146l-0.417,0.442Zm-6.459,-5.217l-5.083,-4.116l0.375,-0.446l5.084,4.117l-0.375,0.446Z" style="fill:#8693e3;fill-rule:nonzero;"/><path d="M567.365,650.323l-1.25,-1.017l0.375,-0.446l0.042,-0.009l0.625,0.509l0.625,0.508l0,0.009l-0.417,0.446Z" style="fill:#b9c4e3;fill-rule:nonzero;"/><path d="M567.156,649.361l-0.625,-0.509l-5.208,-4.2l1.458,-1.704l5.875,4.708l-1.5,1.704Z" style="fill:#8693e3;fill-rule:nonzero;"/><path d="M572.99,654.069l-5.208,-4.2l-0.625,-0.508l1.5,-1.704l5.833,4.713l-0.417,0.454l-1.083,1.246Z" style="fill:#768ae3;fill-rule:nonzero;"/><path d="M578.49,660.736l-24.917,-20.092l-0.083,-0.904l0.333,-0.367l0.833,-0.075l24.917,20.092l0.083,0.9l-0.333,0.371l-0.833,0.075Z" style="fill:#d0dcff;fill-rule:nonzero;"/><path d="M663.948,273.236l0.417,-0.563c0.042,-0.358 -0.25,-0.675 -0.625,-0.708l-59.666,-4.213l-0.417,0.113l-45.625,28.962l-0.167,0.908l0.917,0.188l45.417,-28.838l59.458,4.2l0.292,-0.05Z" style="fill:#e4eef9;fill-rule:nonzero;"/><path d="M710.198,215.136l-46.042,82.571l27.875,30.237l-53.5,158.121c0,0 35.292,132.621 34.084,174.488c-1.208,41.867 2.458,415.179 2.458,415.179" style="fill:none;stroke:#97a5ff;stroke-width:2.37px;"/><path d="M519.865,289.565l32.75,36.825l-10.125,27.525l92.542,126.375" style="fill:none;stroke:#97a5ff;stroke-width:2.37px;"/><path d="M677.865,613.644l22.666,39.542c0,0 -26.708,13.184 -29.125,14.733c-2.416,1.55 -56.583,35.662 -62.25,34.113c-5.625,-1.55 -6.459,-10.079 -10.5,-10.854c-4.042,-0.775 -12.917,-12.404 -14.542,-15.504c-1.625,-3.104 -25.042,-4.654 -25.875,-9.304c-0.792,-4.654 60.625,-25.587 60.625,-28.688c0,-3.104 -40.416,-10.854 -40.416,-17.058c0,-6.2 71.958,5.429 71.958,5.429l27.458,-12.408Z" style="fill:#5e71c7;fill-rule:nonzero;"/><path d="M856.532,551.619l-152.792,106.996l-31.5,-53.496l115.583,-134.129l-53.375,-111.646" style="fill:none;stroke:#97a5ff;stroke-width:2.37px;"/><rect x="756.032" y="719.027" width="101.625" height="18.321" style="fill:none;stroke:#97a5ff;stroke-width:2.37px;"/><rect x="574.573" y="719.027" width="59.042" height="18.321" style="fill:none;stroke:#97a5ff;stroke-width:2.37px;"/><path d="M561.073,557.048l-36.375,-147.696" style="fill:none;stroke:#97a5ff;stroke-width:2.37px;"/><path d="M793.865,233.74c0,0 -60.625,11.633 -59.417,90.712" style="fill:none;stroke:#97a5ff;stroke-width:2.37px;"/><path d="M487.115,330.269c0,0 15.75,26.746 21.833,50.009" style="fill:none;stroke:#97a5ff;stroke-width:2.37px;"/><path d="M650.198,496.573c0,-3.371 2.834,-6.104 6.375,-6.104c3.5,0 6.375,2.733 6.375,6.104c0,3.371 -2.875,6.105 -6.375,6.105c-3.542,0 -6.375,-2.733 -6.375,-6.105Z" style="fill:none;stroke:#97a5ff;stroke-width:2.37px;"/><path d="M671.406,559.082c0,-3.371 2.875,-6.104 6.375,-6.104c3.5,0 6.375,2.733 6.375,6.104c0,3.375 -2.875,6.108 -6.375,6.108c-3.5,0 -6.375,-2.733 -6.375,-6.108Z" style="fill:none;stroke:#97a5ff;stroke-width:2.37px;"/><path d="M689.615,705.907c0,-3.371 2.834,-6.105 6.333,-6.105c3.542,0 6.375,2.733 6.375,6.105c0,3.375 -2.834,6.108 -6.375,6.108c-3.5,0 -6.333,-2.733 -6.333,-6.108Z" style="fill:none;stroke:#97a5ff;stroke-width:2.37px;"/><path d="M692.323,791.386c0,-3.371 2.875,-6.104 6.375,-6.104c3.5,0 6.375,2.733 6.375,6.104c0,3.375 -2.875,6.109 -6.375,6.109c-3.5,0 -6.375,-2.733 -6.375,-6.109Z" style="fill:none;stroke:#97a5ff;stroke-width:2.37px;"/><path d="M691.74,896.636c0,-3.371 2.834,-6.104 6.333,-6.104c3.542,0 6.375,2.733 6.375,6.104c0,3.371 -2.834,6.105 -6.375,6.105c-3.5,0 -6.333,-2.733 -6.333,-6.105Z" style="fill:none;stroke:#97a5ff;stroke-width:2.37px;"/><path d="M691.74,1001.886c0,-3.375 2.834,-6.108 6.333,-6.108c3.542,0 6.375,2.733 6.375,6.108c0,3.371 -2.834,6.105 -6.375,6.105c-3.5,0 -6.333,-2.733 -6.333,-6.105Z" style="fill:none;stroke:#97a5ff;stroke-width:2.37px;"/><path d="M468.948,123.473c12.791,36.538 47.375,106.308 84.666,95.829c39.208,-11.025 53.042,-37.754 49.209,-76c0,0 21.583,2.12 13.417,-24.342c-3.625,-11.671 -15.208,-2.042 -15.208,-2.042c0,0 -2.083,-102.838 -65.5,-95.238c-63.375,7.604 -84.125,51.779 -66.583,101.792Z" style="fill:#fca19f;fill-rule:nonzero;"/><path d="M536.198,114.794c-0.958,0.917 -1.875,1.917 -3,2.442c-1.125,0.525 -2.583,0.483 -3.584,-0.554c-1.5,-1.492 -1.458,-4.279 -0.708,-6.212c1.542,-3.887 5,-5.825 8.25,-7.417c3.375,-1.629 6.792,-3.163 10.5,-3.529c3.667,-0.366 7.667,0.538 10.875,3.375c0.375,0.337 0.75,0.738 0.917,1.275c0.167,0.762 -0.25,1.521 -0.791,1.833c-0.542,0.308 -1.208,0.287 -1.834,0.279c-7.625,-0.083 -14.958,2.946 -20.625,8.508Z" style="fill:#945661;fill-rule:nonzero;"/><path d="M503.823,129.123c1.208,0.146 2.458,0.367 3.542,0.087c1.083,-0.279 2,-1.179 2,-2.591c0.042,-2.042 -1.708,-4.159 -3.458,-5.196c-3.416,-2.075 -6.917,-1.5 -10.084,-0.763c-3.25,0.758 -6.5,1.642 -9.166,3.571c-2.667,1.929 -4.708,5.029 -5.042,9.129c-0.042,0.483 -0.042,1.029 0.208,1.525c0.334,0.704 1.083,1.042 1.625,0.95c0.583,-0.087 1,-0.5 1.417,-0.883c4.959,-4.634 11.75,-6.712 18.959,-5.829Z" style="fill:#945661;fill-rule:nonzero;"/><path d="M522.573,138.973c2.292,5.058 2.916,10.646 2.916,16.371c0,3.241 -0.208,6.529 -0.375,9.775l-0.042,0.729c0,0.758 0.083,1.675 0.75,2.421l0.083,0.075l1.042,0.696l0.042,0.033l0.041,0.025c1.542,0.704 3.208,1.071 4.875,1.071c0.542,0 1.083,-0.038 1.625,-0.112c2.125,-0.317 4.208,-1.117 5.917,-1.1c0.791,0 1.5,0.146 2.125,0.533l0.833,-1.383c-0.958,-0.567 -1.958,-0.767 -2.958,-0.767c-2.167,0.017 -4.292,0.863 -6.167,1.117c-0.458,0.067 -0.917,0.1 -1.375,0.1c-1.417,0 -2.875,-0.316 -4.167,-0.925l-0.333,0.733l0.417,-0.671l-0.958,-0.642l-0.417,0.675l0.583,-0.546c-0.25,-0.246 -0.333,-0.704 -0.333,-1.333l0,-0.629c0.209,-3.25 0.417,-6.567 0.417,-9.875c0,-5.838 -0.625,-11.671 -3.083,-17.037l-1.458,0.666Z" style="fill:#242638;fill-rule:nonzero;"/><path d="M497.906,148.044c-2.25,-6.158 -1.5,-12.075 1.667,-13.221c3.167,-1.146 7.542,2.912 9.792,9.071c2.208,6.154 1.459,12.071 -1.708,13.221c-3.125,1.142 -7.5,-2.916 -9.75,-9.071Z" style="fill:#242638;fill-rule:nonzero;"/><path d="M546.031,128.786c-2.25,-6.154 -1.5,-12.075 1.667,-13.217c3.167,-1.15 7.541,2.912 9.75,9.067c2.25,6.154 1.5,12.075 -1.667,13.221c-3.167,1.146 -7.541,-2.917 -9.75,-9.071Z" style="fill:#242638;fill-rule:nonzero;"/><path d="M520.74,185.419c0,0 25.917,-1.7 46.833,-15.62c0,0 -3.083,20.983 -18.542,25.25c-15.458,4.267 -28.291,-9.629 -28.291,-9.629Z" style="fill:#fff;fill-rule:nonzero;"/><path d="M446.323,97.136c-3.875,-1.225 -8.583,-2.271 -9.958,-6.062c-1.375,-3.663 1.417,-7.55 4.458,-9.996c3,-2.441 6.708,-4.517 8.208,-8.108c-8.041,1.154 -14.417,-8.192 -13.542,-16.296c0.792,-7.084 5.292,-13.359 10.958,-17.679c5.667,-4.325 12.417,-6.942 19.167,-9.208c12.709,-4.267 25.75,-7.496 39,-9.654c11.083,-1.812 23.458,-3.475 30.584,-12.154c2.042,-2.475 3.625,-5.5 6.458,-7.033c4.5,-2.446 10.417,0.162 13.334,4.362c2.916,4.204 3.625,9.512 4.25,14.596c4.667,-3.141 10.458,-5.591 15.791,-3.837c5.375,1.754 8.5,9.512 4.292,13.238c-1.375,1.212 -3.416,2.033 -3.75,3.825c-0.375,2.008 1.667,3.554 3.375,4.671c13.625,8.842 23.5,23.238 26.917,39.129c3.375,15.887 0.209,33.067 -8.625,46.7c-8.125,-12.162 -18.125,-22.946 -26.667,-34.8c-8.542,-11.855 -15.792,-25.225 -17.208,-39.775c-19.833,23.629 -50.5,35.966 -81.042,40.246c-2.333,0.325 -4.875,0.738 -6.333,2.558c-1.583,1.942 -1.292,4.729 -0.917,7.192c1.334,9.1 3.834,18.687 5.167,27.787c-6.583,-9.812 -11.417,-25.721 -23.917,-29.7Z" style="fill:#fce6a3;fill-rule:nonzero;"/><path d="M597.99,116.573c-18.125,-23.933 -32.667,-50.616 -42.875,-78.85c1,2.904 -9.417,10.008 -11.25,11.487c-6.625,5.425 -13.958,10.196 -21.666,14.004c-20.5,10.129 -42.542,13.433 -64.5,18.775c-3,0.733 -6.209,1.625 -8.25,3.967c-2.042,2.342 -2.125,6.6 0.583,8.1" style="fill:none;stroke:#fff;stroke-width:1.64px;"/><path d="M450.531,69.982c9.667,-9.004 23.75,-10.991 36.792,-13.05c19.208,-3.029 38.917,-7.409 54.458,-19.088" style="fill:none;stroke:#fff;stroke-width:1.64px;"/><path d="M538.907,145.732c-1.5,0 -2.917,-0.892 -3.542,-2.367l-5.916,-14.342c-0.834,-1.954 0.083,-4.2 2.042,-5.013l13.833,-5.721c-0.958,2.554 -0.75,6.475 0.709,10.496c1.958,5.454 5.625,9.263 8.625,9.263c0.375,0 0.75,-0.063 1.125,-0.192c3.167,-1.146 3.917,-7.067 1.667,-13.221c-1.5,-4.208 -4.042,-7.438 -6.5,-8.692l11.875,-4.929c0.5,-0.196 1,-0.292 1.5,-0.292c1.5,0 2.916,0.892 3.542,2.367l5.917,14.341c0.833,1.954 -0.083,4.196 -2.042,5.008l-31.333,12.996c-0.5,0.2 -1,0.296 -1.5,0.296Z" style="fill:#dec5d1;fill-rule:nonzero;"/><path d="M554.656,138.048c-3,0 -6.667,-3.809 -8.625,-9.263c-1.458,-4.021 -1.667,-7.942 -0.709,-10.496l5.625,-2.346c2.458,1.254 5,4.484 6.5,8.692c2.25,6.154 1.5,12.075 -1.667,13.221c-0.375,0.129 -0.75,0.192 -1.125,0.192Z" style="fill:#778aa0;fill-rule:nonzero;"/><path d="M531.781,124.724c-1.542,0.645 -2.291,2.441 -1.625,4.004l5.917,14.342c0.667,1.567 2.458,2.308 4,1.658l31.375,-12.995c1.542,-0.646 2.292,-2.446 1.625,-4.008l-5.917,-14.342c-0.666,-1.562 -2.458,-2.304 -4.042,-1.658l-31.333,13Zm2.875,18.933l-5.917,-14.342c-1,-2.342 0.125,-5.037 2.458,-6.008l31.333,-13c2.375,-0.97 5.042,0.146 6.042,2.488l5.916,14.342c1,2.346 -0.125,5.042 -2.458,6.012l-31.333,12.996c-2.375,0.975 -5.042,-0.142 -6.041,-2.488Z" style="fill:#242638;fill-rule:nonzero;"/><path d="M487.448,167.073c-1.5,0 -2.916,-0.892 -3.542,-2.367l-5.958,-14.342c-0.5,-1.217 -0.334,-2.55 0.375,-3.575c2.958,6.588 6.333,13.438 10,20.179c-0.292,0.071 -0.583,0.104 -0.875,0.104Z" style="fill:#e0f2ff;fill-rule:nonzero;"/><path d="M488.323,166.969c-3.667,-6.741 -7.042,-13.592 -10,-20.179c0.375,-0.621 0.958,-1.129 1.708,-1.433l16.916,-7.012c-0.625,2.533 -0.375,6.075 0.958,9.7c1.959,5.455 5.625,9.263 8.625,9.263c0.417,0 0.791,-0.063 1.125,-0.192c3.167,-1.15 3.916,-7.066 1.708,-13.221c-1.375,-3.813 -3.583,-6.817 -5.833,-8.283l7.833,-3.25c0.5,-0.2 1,-0.296 1.5,-0.296c1.5,0 2.916,0.892 3.542,2.367l5.916,14.342c0.834,1.954 -0.125,4.2 -2.083,5.013l-31.333,12.996c-0.167,0.079 -0.375,0.141 -0.583,0.187Z" style="fill:#dec5d1;fill-rule:nonzero;"/><path d="M506.532,157.307c-3,0 -6.667,-3.808 -8.625,-9.263c-1.333,-3.625 -1.583,-7.167 -0.958,-9.7l6.584,-2.733c2.25,1.467 4.458,4.471 5.833,8.283c2.208,6.154 1.459,12.071 -1.708,13.221c-0.334,0.129 -0.709,0.192 -1.125,0.192Z" style="fill:#778aa0;fill-rule:nonzero;"/><path d="M480.323,146.065c-1.542,0.646 -2.291,2.446 -1.667,4.008l5.959,14.342c0.667,1.562 2.458,2.304 4,1.658l31.333,-12.996c1.583,-0.65 2.334,-2.446 1.667,-4.008l-5.917,-14.341c-0.667,-1.562 -2.458,-2.309 -4.042,-1.659l-31.333,12.996Zm2.875,18.938l-5.959,-14.342c-0.958,-2.346 0.167,-5.042 2.5,-6.012l31.333,-12.996c2.334,-0.971 5.042,0.141 6.041,2.488l5.917,14.341c1,2.342 -0.125,5.038 -2.458,6.008l-31.375,13c-2.333,0.971 -5.042,-0.145 -6,-2.487Z" style="fill:#242638;fill-rule:nonzero;"/><path d="M519.781,142.577c0,0 2.375,-7.708 13,-5.471" style="fill:none;stroke:#242638;stroke-width:2.3px;stroke-linecap:butt;stroke-linejoin:miter;"/><path d="M571.573,121.228l29.458,-4.309l1.125,-2.292l-32.333,1.988l1.75,4.613Z" style="fill:#242638;fill-rule:nonzero;"/><path d="M398.323,699.373l-6.833,13.771c0,0 -18.917,13.163 -22.042,18.4c-3.125,5.237 -18.708,40.4 -18.708,40.4c0,0 8.583,2.246 15.583,-5.238c7.041,-7.479 11.709,-14.962 11.709,-14.962l28.083,-11.112l15.791,-2.925l0.583,-6.908l6.25,-9.73l-30.416,-21.696Z" style="fill:#5e71c7;fill-rule:nonzero;"/></svg>