<?xml version="1.0" encoding="UTF-8" standalone="no"?>
<!DOCTYPE svg PUBLIC "-//W3C//DTD SVG 1.1//EN" "http://www.w3.org/Graphics/SVG/1.1/DTD/svg11.dtd">
<svg width="100%" height="100%" viewBox="0 0 314 600" version="1.1" xmlns="http://www.w3.org/2000/svg" xmlns:xlink="http://www.w3.org/1999/xlink" xml:space="preserve" xmlns:serif="http://www.serif.com/" style="fill-rule:evenodd;clip-rule:evenodd;stroke-linejoin:round;stroke-miterlimit:2;">
    <g transform="matrix(1,0,0,1,-126.78816,-118.434526)">
        <path d="M438.436,444.193C442.65,429.314 437.45,414.812 426.822,411.803C424.495,411.144 411.854,407.564 411.854,407.564C403.42,409.257 403.241,421.673 399.95,433.294C396.659,444.914 388.233,454.379 394.527,460.244C396.292,461.888 407.682,464.707 411.563,465.684C422.275,468.379 434.223,459.072 438.436,444.193Z" style="fill:rgb(138,142,144);fill-rule:nonzero;"/>
        <path d="M425.19,440.442C429.403,425.563 424.204,411.061 413.576,408.051C402.948,405.042 390.917,414.664 386.704,429.543C382.49,444.421 387.689,458.922 398.317,461.932C408.945,464.942 420.976,455.321 425.19,440.442Z" style="fill:rgb(186,188,190);fill-rule:nonzero;"/>
        <path d="M417.501,438.264C420.242,428.587 416.859,419.154 409.947,417.197C403.034,415.239 395.209,421.497 392.469,431.175C389.727,440.853 393.109,450.285 400.022,452.243C406.934,454.2 414.761,447.942 417.501,438.264Z" style="fill:rgb(138,142,144);fill-rule:nonzero;"/>
        <path d="M266.934,139.515C266.934,139.515 260.265,152.306 259.765,180.806C259.265,209.306 322.101,182.181 322.101,182.181C322.101,182.181 327.434,184.181 329.6,175.681C331.767,167.181 331.6,156.015 324.601,158.181C317.601,160.348 313.601,167.181 313.601,167.181C313.601,167.181 318.267,141.848 306.267,138.348C294.267,134.848 266.934,139.515 266.934,139.515Z" style="fill:rgb(255,191,159);fill-rule:nonzero;"/>
        <path d="M127.804,249.955C131.325,265.012 142.899,275.18 153.654,272.665C156.009,272.114 168.802,269.122 168.802,269.122C175.361,263.554 169.503,252.606 166.752,240.846C164.002,229.086 166.788,216.724 158.44,214.642C156.1,214.058 144.769,217.11 140.901,218.136C130.224,220.966 124.282,234.897 127.804,249.955Z" style="fill:rgb(138,142,144);fill-rule:nonzero;"/>
        <path d="M141.209,246.819C144.73,261.878 156.304,272.045 167.059,269.529C177.815,267.014 183.679,252.768 180.158,237.711C176.636,222.653 165.062,212.485 154.307,215.001C143.551,217.516 137.687,231.762 141.209,246.819Z" style="fill:rgb(186,188,190);fill-rule:nonzero;"/>
        <path d="M148.99,245C151.281,254.794 158.808,261.407 165.805,259.771C172.8,258.135 176.614,248.869 174.324,239.075C172.033,229.281 164.505,222.668 157.51,224.304C150.514,225.94 146.7,235.206 148.99,245Z" style="fill:rgb(138,142,144);fill-rule:nonzero;"/>
        <path d="M166.548,249.441L190.891,243.748C194.941,242.8 197.48,238.712 196.533,234.662C195.585,230.611 191.496,228.073 187.447,229.02L163.103,234.713C159.053,235.661 156.515,239.749 157.462,243.799C158.409,247.849 162.497,250.388 166.548,249.441Z" style="fill:rgb(116,118,119);fill-rule:nonzero;"/>
        <path d="M404.293,425.873L380.238,419.062C376.236,417.928 372.035,420.275 370.901,424.277C369.768,428.279 372.115,432.481 376.117,433.614L400.172,440.426C404.174,441.56 408.375,439.213 409.509,435.211C410.641,431.209 408.295,427.007 404.293,425.873Z" style="fill:rgb(116,118,119);fill-rule:nonzero;"/>
        <path d="M313.474,201.015C313.474,201.015 333.434,210.348 345.1,219.681C345.1,219.681 365.6,215.848 380.6,228.515C395.6,241.181 404.14,266.681 404.14,266.681C404.14,266.681 426.267,308.546 425.6,334.515C424.894,362.015 399.863,416.008 399.863,416.008C399.863,416.008 397.262,441.161 395.892,445.431C393.061,454.264 375.14,456.681 359.14,444.015C359.14,444.015 369.929,438.348 368.868,432.681C367.807,427.015 361.807,424.015 361.807,424.015C361.807,424.015 364.14,408.348 372.807,407.348C381.474,406.348 376.424,380.013 377.6,361.681C378.767,343.515 383.767,335.515 383.767,335.515C383.767,335.515 375.121,327.313 365.474,299.015C360.474,284.348 355.807,289.681 355.807,289.681C355.807,289.681 357.923,295.348 330.865,300.681C303.807,306.015 245.474,293.348 245.474,293.348C245.474,293.348 220.784,337.612 185.807,325.918C172.14,321.348 202.14,276.348 202.14,276.348C202.14,276.348 202.06,266.335 212.601,256.848C219.267,250.848 224.101,250.181 224.101,250.181C224.101,250.181 227.767,226.348 266.767,217.015C298.927,209.318 313.474,201.015 313.474,201.015Z" style="fill:rgb(232,161,130);fill-rule:nonzero;"/>
        <path d="M313.474,201.015C313.474,201.015 333.434,210.348 345.1,219.681C345.1,219.681 365.6,215.848 380.6,228.515C395.6,241.181 404.14,266.681 404.14,266.681C404.14,266.681 426.267,308.546 425.6,334.515C424.894,362.015 399.863,416.008 399.863,416.008C399.863,416.008 397.262,441.161 395.892,445.431C393.061,454.264 375.14,456.681 359.14,444.015C359.14,444.015 369.929,438.348 368.868,432.681C367.807,427.015 361.807,424.015 361.807,424.015C361.807,424.015 364.14,408.348 372.807,407.348C381.474,406.348 376.424,380.013 377.6,361.681C378.767,343.515 383.767,335.515 383.767,335.515C383.767,335.515 375.121,327.313 365.474,299.015C360.474,284.348 355.807,289.681 355.807,289.681C355.807,289.681 357.923,295.348 330.865,300.681C303.807,306.015 245.474,293.348 245.474,293.348C245.474,293.348 247.628,223.91 253.599,221.176C283.663,207.409 313.474,201.015 313.474,201.015Z" style="fill:rgb(255,191,159);fill-rule:nonzero;"/>
        <path d="M185.807,325.918C172.14,321.348 173.474,254.681 173.474,254.681C173.474,254.681 164.14,236.348 166.807,230.681C169.474,225.015 190.184,222.598 191.017,223.598C191.658,224.366 196.14,233.348 199.14,240.015C202.14,246.681 197.474,253.015 197.474,253.015L202.14,276.348C202.14,276.348 220.784,337.612 185.807,325.918Z" style="fill:rgb(255,191,159);fill-rule:nonzero;"/>
        <path d="M269.101,367.681C269.101,367.681 245.576,447.97 245.474,491.014C245.367,535.931 245.015,535.206 249.778,545.96C255.566,559.027 253.517,602.681 259.267,636.681C264.712,668.874 260.767,664.681 267.101,666.681C273.434,668.681 282.767,661.681 282.767,660.348C282.767,659.014 300.823,597.014 295.295,577.014C289.767,557.014 281.767,542.348 282.434,535.014C283.101,527.681 303.434,460.014 303.434,460.014L290.294,373.949L269.101,367.681Z" style="fill:rgb(67,67,67);fill-rule:nonzero;"/>
        <path d="M290.294,373.949C290.294,373.949 282.767,446.015 303.434,460.014C303.434,460.014 311.444,516.963 317.101,535.348C322.434,552.681 325.164,554.715 327.434,559.348C333.625,571.986 333.1,576.014 337.1,602.681C341.1,629.348 347.1,663.014 347.1,663.014C347.1,663.014 359.434,668.348 365.1,663.014C370.767,657.681 379.1,587.348 373.434,569.681C367.767,552.014 352.1,539.348 351.434,529.014C350.767,518.681 367.434,391.348 336.434,367.681C305.434,344.015 290.294,373.949 290.294,373.949Z" style="fill:rgb(67,67,67);fill-rule:nonzero;"/>
        <path d="M256.933,130.681C256.933,130.681 254.101,146.848 272.767,145.681C291.434,144.515 301.101,136.348 306.601,143.515C312.101,150.681 309.719,186.872 309.719,186.872C309.719,186.872 301.183,184.723 291.014,186.848C285.042,188.096 280.314,191.181 280.314,191.181C280.314,191.181 277.767,186.556 265.267,186.015C259.756,185.776 259.765,180.806 259.765,180.806C259.765,180.806 257.267,183.015 257.767,200.848C258.267,218.681 259.767,230.515 271.934,236.348C284.101,242.181 308.267,234.681 315.267,214.681C322.267,194.681 322.101,182.181 322.101,182.181C322.101,182.181 316.267,182.681 317.267,171.848C318.267,161.015 324.601,158.181 324.601,158.181C324.601,158.181 327.267,146.181 321.767,134.848C313.344,117.49 289.934,112.015 273.601,127.681C262.912,137.934 256.933,130.681 256.933,130.681Z" style="fill:rgb(71,55,45);fill-rule:nonzero;"/>
        <path d="M247.628,223.91C247.628,223.91 237.601,272.348 245.474,293.348C245.474,293.348 252.101,321.015 261.101,339.681C270.101,358.348 269.101,367.681 269.101,367.681C269.101,367.681 299.503,383.839 336.434,367.681C336.434,367.681 356.048,323.148 357.741,288.748C357.741,288.748 333.767,272.681 345.1,219.681L337.186,214.067C337.934,260.515 276.934,323.681 253.599,221.176L247.628,223.91Z" style="fill:rgb(229,232,237);fill-rule:nonzero;"/>
        <path d="M189.08,236.401C192.602,251.459 204.176,261.626 214.931,259.111C217.286,258.56 230.078,255.568 230.078,255.568C236.638,250 230.78,239.052 228.029,227.292C225.279,215.532 228.065,203.17 219.717,201.088C217.377,200.504 206.046,203.557 202.178,204.582C191.501,207.413 185.558,221.343 189.08,236.401Z" style="fill:rgb(138,142,144);fill-rule:nonzero;"/>
        <path d="M202.486,233.266C206.007,248.323 217.581,258.491 228.336,255.976C239.092,253.46 244.956,239.214 241.434,224.157C237.913,209.099 226.339,198.932 215.584,201.447C204.828,203.963 198.964,218.208 202.486,233.266Z" style="fill:rgb(186,188,190);fill-rule:nonzero;"/>
        <path d="M260.337,657.531C260.337,657.531 245.601,671.181 236.267,680.014C226.934,688.848 217.267,688.348 212.434,695.014C210.836,697.218 209.967,699.295 209.519,701.087C208.613,704.716 209.434,707.181 209.434,707.181C209.434,707.181 227.823,717.148 248.767,710.181C267.944,703.802 272.934,700.514 279.267,699.181C285.601,697.848 289.443,697.689 290.267,696.848C290.637,696.471 290.736,694.119 290.5,690.674C289.959,682.754 287.646,669.059 282.767,660.348C275.767,647.848 260.337,657.531 260.337,657.531Z" style="fill:rgb(236,239,240);fill-rule:nonzero;"/>
        <path d="M209.519,701.087C208.474,704.679 209.434,707.181 209.434,707.181C209.434,707.181 227.71,716.798 248.767,710.181C264.003,705.393 272.934,700.514 279.267,699.181C285.601,697.848 289.443,697.689 290.267,696.848C290.637,696.471 290.5,690.674 290.5,690.674C267.767,692.599 250.521,704.661 237.142,705.431C219.349,706.457 209.519,701.087 209.519,701.087Z" style="fill:rgb(186,188,190);fill-rule:nonzero;"/>
        <path d="M290.267,696.848C290.637,696.471 290.736,694.119 290.5,690.674L290.267,696.848Z" style="fill:rgb(236,239,240);fill-rule:nonzero;"/>
        <path d="M378.264,426.366C382.477,411.487 377.277,396.986 366.649,393.976C364.322,393.317 351.682,389.737 351.682,389.737C343.247,391.43 343.068,403.846 339.777,415.466C336.486,427.087 328.06,436.551 334.354,442.417C336.12,444.062 347.511,446.88 351.39,447.857C362.102,450.552 374.05,441.245 378.264,426.366Z" style="fill:rgb(138,142,144);fill-rule:nonzero;"/>
        <path d="M365.017,422.614C369.231,407.736 364.031,393.234 353.403,390.224C342.775,387.214 330.744,396.837 326.531,411.715C322.317,426.594 327.517,441.096 338.144,444.106C348.772,447.115 360.804,437.493 365.017,422.614Z" style="fill:rgb(186,188,190);fill-rule:nonzero;"/>
        <path d="M274.529,156.931L263.038,156.931C261.669,156.931 260.549,158.051 260.549,159.42C260.549,160.788 261.669,161.908 263.038,161.908L274.529,161.908C275.898,161.908 277.017,160.788 277.017,159.42C277.017,158.051 275.898,156.931 274.529,156.931Z" style="fill:rgb(71,55,45);fill-rule:nonzero;"/>
        <path d="M301.04,156.931L289.549,156.931C288.181,156.931 287.061,158.051 287.061,159.42C287.061,160.788 288.181,161.908 289.549,161.908L301.04,161.908C302.409,161.908 303.529,160.788 303.529,159.42C303.529,158.051 302.409,156.931 301.04,156.931Z" style="fill:rgb(71,55,45);fill-rule:nonzero;"/>
        <path d="M274.863,164.793C273.422,165.155 272.181,165.966 270.764,166.368C268.669,166.963 266.94,165.82 265.315,164.608C264.283,163.838 263.285,165.573 264.306,166.335C265.913,167.534 267.728,168.658 269.815,168.567C271.804,168.479 273.507,167.197 275.395,166.721C276.642,166.407 276.114,164.478 274.863,164.793Z" style="fill:rgb(71,55,45);fill-rule:nonzero;"/>
        <path d="M300.61,164.42C298.818,165.034 296.895,165.933 294.979,165.959C293.01,165.985 291.088,165.16 289.296,164.438C288.102,163.957 287.584,165.891 288.765,166.366C290.75,167.166 292.805,167.969 294.979,167.959C297.12,167.948 299.148,167.032 301.142,166.349C302.352,165.934 301.832,164.001 300.61,164.42Z" style="fill:rgb(71,55,45);fill-rule:nonzero;"/>
        <path d="M287.061,180.383C287.061,174.798 283.677,167.959 280.627,167.959C277.578,167.959 273.566,175.327 273.566,180.912C273.566,186.496 277.578,188.181 280.627,188.181C283.677,188.181 287.061,185.967 287.061,180.383Z" style="fill:rgb(232,161,130);fill-rule:nonzero;"/>
        <path d="M283.846,197.083C281.675,196.569 279.514,196.529 277.322,196.937C276.058,197.171 276.593,199.099 277.853,198.865C279.682,198.525 281.505,198.583 283.314,199.011C284.566,199.308 285.1,197.38 283.846,197.083Z" style="fill:rgb(232,161,130);fill-rule:nonzero;"/>
        <path d="M346.004,662.488C346.004,662.488 331.267,676.137 321.934,684.971C312.601,693.804 302.934,693.304 298.101,699.971C296.503,702.174 295.634,704.251 295.186,706.044C294.279,709.673 295.101,712.137 295.101,712.137C295.101,712.137 313.489,722.104 334.434,715.137C353.611,708.759 358.6,705.471 364.934,704.137C371.267,702.804 375.11,702.645 375.934,701.804C376.303,701.428 376.402,699.076 376.167,695.63C375.625,687.711 373.312,674.016 368.434,665.304C361.434,652.804 346.004,662.488 346.004,662.488Z" style="fill:rgb(236,239,240);fill-rule:nonzero;"/>
        <path d="M295.186,706.044C294.14,709.635 295.101,712.137 295.101,712.137C295.101,712.137 313.376,721.755 334.434,715.137C349.67,710.35 358.6,705.471 364.934,704.137C371.267,702.804 375.11,702.645 375.934,701.804C376.303,701.428 376.167,695.63 376.167,695.63C353.434,697.555 336.188,709.617 322.809,710.387C305.015,711.413 295.186,706.044 295.186,706.044Z" style="fill:rgb(186,188,190);fill-rule:nonzero;"/>
        <path d="M275.799,679.441C273.911,680.366 271.685,681.36 269.177,682.149C268.541,682.338 267.896,682.531 267.243,682.726C266.587,682.891 265.923,683.058 265.253,683.227C263.886,683.539 262.477,683.839 261.04,684.115C259.613,684.41 258.161,684.685 256.739,685.016C255.33,685.333 253.892,685.707 252.587,686.132C249.926,687 247.564,688.138 245.793,689.453C244.889,690.085 244.154,690.786 243.545,691.436C242.921,692.072 242.48,692.728 242.123,693.257C241.773,693.801 241.543,694.257 241.402,694.568C241.261,694.884 241.185,695.052 241.185,695.052C241.185,695.052 241.32,694.934 241.572,694.713C241.812,694.476 242.205,694.183 242.677,693.804C243.653,693.062 245.123,692.139 247.033,691.318C247.991,690.911 249.064,690.542 250.21,690.179C251.363,689.826 252.619,689.54 253.924,689.253C255.261,688.968 256.605,688.734 258.036,688.475C259.466,688.215 260.919,687.951 262.371,687.687C263.826,687.386 265.292,687.069 266.706,686.656C267.425,686.455 268.097,686.238 268.81,685.983C269.451,685.747 270.113,685.491 270.769,685.199C273.306,684.059 275.462,682.661 277.124,681.266C278.799,679.882 279.992,678.518 280.763,677.517C281.535,676.516 281.899,675.883 281.899,675.883C281.899,675.883 281.296,676.265 280.24,676.935C279.188,677.596 277.664,678.486 275.799,679.441Z" style="fill:rgb(180,30,70);fill-rule:nonzero;"/>
        <path d="M368.99,682.685C367.938,683.346 366.414,684.236 364.549,685.191C362.661,686.116 360.435,687.11 357.927,687.899C357.291,688.088 356.646,688.281 355.993,688.476C355.337,688.641 354.673,688.808 354.003,688.977C352.636,689.289 351.227,689.589 349.791,689.865C348.363,690.16 346.911,690.435 345.49,690.766C344.08,691.083 342.642,691.457 341.337,691.882C338.676,692.75 336.314,693.888 334.543,695.203C333.639,695.835 332.904,696.536 332.295,697.186C331.671,697.822 331.23,698.478 330.873,699.007C330.523,699.551 330.293,700.007 330.152,700.318C330.011,700.634 329.935,700.802 329.935,700.802C329.935,700.802 330.07,700.684 330.322,700.463C330.562,700.226 330.955,699.933 331.427,699.554C332.403,698.812 333.873,697.889 335.783,697.068C336.741,696.661 337.814,696.292 338.96,695.929C340.113,695.576 341.369,695.29 342.674,695.003C344.011,694.718 345.356,694.484 346.786,694.225C348.216,693.965 349.669,693.701 351.121,693.437C352.576,693.136 354.042,692.819 355.456,692.406C356.175,692.205 356.847,691.988 357.56,691.733C358.201,691.497 358.863,691.241 359.519,690.949C362.056,689.809 364.212,688.411 365.874,687.016C367.549,685.632 368.742,684.268 369.513,683.267C370.285,682.266 370.649,681.633 370.649,681.633C370.649,681.633 370.046,682.015 368.99,682.685Z" style="fill:rgb(180,30,70);fill-rule:nonzero;"/>
    </g>
</svg>
